%TF.GenerationSoftware,KiCad,Pcbnew,(6.0.6)*%
%TF.CreationDate,2022-11-11T00:06:58-05:00*%
%TF.ProjectId,RP2040_AS3394,52503230-3430-45f4-9153-333339342e6b,rev?*%
%TF.SameCoordinates,Original*%
%TF.FileFunction,Copper,L2,Inr*%
%TF.FilePolarity,Positive*%
%FSLAX46Y46*%
G04 Gerber Fmt 4.6, Leading zero omitted, Abs format (unit mm)*
G04 Created by KiCad (PCBNEW (6.0.6)) date 2022-11-11 00:06:58*
%MOMM*%
%LPD*%
G01*
G04 APERTURE LIST*
%TA.AperFunction,ComponentPad*%
%ADD10O,1.050000X2.100000*%
%TD*%
%TA.AperFunction,ComponentPad*%
%ADD11R,1.700000X1.700000*%
%TD*%
%TA.AperFunction,ComponentPad*%
%ADD12O,1.700000X1.700000*%
%TD*%
%TA.AperFunction,ComponentPad*%
%ADD13R,1.600000X1.600000*%
%TD*%
%TA.AperFunction,ComponentPad*%
%ADD14O,1.600000X1.600000*%
%TD*%
%TA.AperFunction,ViaPad*%
%ADD15C,0.600000*%
%TD*%
%TA.AperFunction,ViaPad*%
%ADD16C,0.800000*%
%TD*%
G04 APERTURE END LIST*
D10*
%TO.N,unconnected-(J2-PadS1)*%
%TO.C,J2*%
X140542000Y-90572500D03*
%TO.N,unconnected-(J2-PadS2)*%
X131902000Y-90572500D03*
%TO.N,unconnected-(J2-PadS3)*%
X140542000Y-86392500D03*
%TO.N,unconnected-(J2-PadS4)*%
X131902000Y-86392500D03*
%TD*%
D11*
%TO.N,Net-(J4-Pad1)*%
%TO.C,J4*%
X113157000Y-88026000D03*
D12*
%TO.N,Net-(J4-Pad2)*%
X113157000Y-90566000D03*
%TO.N,Net-(J4-Pad3)*%
X113157000Y-93106000D03*
%TO.N,Net-(J4-Pad4)*%
X113157000Y-95646000D03*
%TO.N,Net-(J4-Pad5)*%
X113157000Y-98186000D03*
%TO.N,Net-(J4-Pad6)*%
X113157000Y-100726000D03*
%TO.N,Net-(J4-Pad7)*%
X113157000Y-103266000D03*
%TO.N,Net-(J4-Pad8)*%
X113157000Y-105806000D03*
%TD*%
D13*
%TO.N,Net-(R15-Pad1)*%
%TO.C,U5*%
X139436000Y-147706000D03*
D14*
%TO.N,/AS3394_PWM/VCO_Freq_CV*%
X139436000Y-145166000D03*
%TO.N,VEE*%
X139436000Y-142626000D03*
%TO.N,Net-(C17-Pad2)*%
X139436000Y-140086000D03*
%TO.N,/AS3394_PWM/Ext_Input2*%
X139436000Y-137546000D03*
%TO.N,/AS3394_PWM/Mod_Amt_Cv*%
X139436000Y-135006000D03*
%TO.N,/AS3394_PWM/Wave_Select_CV*%
X139436000Y-132466000D03*
%TO.N,/AS3394_PWM/Pulse_Width_CV*%
X139436000Y-129926000D03*
%TO.N,/AS3394_PWM/Saw_Out*%
X139436000Y-127386000D03*
%TO.N,/AS3394_PWM/Wave_Out*%
X139436000Y-124846000D03*
X139436000Y-122306000D03*
%TO.N,GND*%
X139436000Y-119766000D03*
%TO.N,/AS3394_PWM/Mixer_Balance_CV*%
X131816000Y-119766000D03*
%TO.N,Net-(R35-Pad1)*%
X131816000Y-122306000D03*
%TO.N,/AS3394_PWM/Filter_Res_CV*%
X131816000Y-124846000D03*
%TO.N,Net-(C37-Pad1)*%
X131816000Y-127386000D03*
%TO.N,Net-(C35-Pad1)*%
X131816000Y-129926000D03*
%TO.N,Net-(C33-Pad1)*%
X131816000Y-132466000D03*
%TO.N,Net-(C31-Pad1)*%
X131816000Y-135006000D03*
%TO.N,/AS3394_PWM/Filter_Freq_CV*%
X131816000Y-137546000D03*
%TO.N,Net-(C34-Pad1)*%
X131816000Y-140086000D03*
%TO.N,/AS3394_PWM/Final_Gain_CV*%
X131816000Y-142626000D03*
%TO.N,/AS3394_PWM/Out*%
X131816000Y-145166000D03*
%TO.N,Net-(C28-Pad1)*%
X131816000Y-147706000D03*
%TD*%
D11*
%TO.N,Net-(J1-Pad1)*%
%TO.C,J1*%
X145430000Y-107285000D03*
D12*
%TO.N,GND*%
X145430000Y-109825000D03*
%TO.N,Net-(J1-Pad3)*%
X145430000Y-112365000D03*
%TD*%
D11*
%TO.N,/AMP_OUT*%
%TO.C,J3*%
X158000000Y-144845000D03*
D12*
%TO.N,GND*%
X158000000Y-142305000D03*
%TD*%
D11*
%TO.N,VCC*%
%TO.C,J5*%
X157820000Y-108685000D03*
D12*
%TO.N,GND*%
X157820000Y-111225000D03*
%TO.N,VEE*%
X157820000Y-113765000D03*
%TD*%
D15*
%TO.N,GND*%
X158130000Y-117460000D03*
X152280000Y-102500000D03*
X152019000Y-105410000D03*
X151765000Y-118999000D03*
D16*
X122159000Y-86263000D03*
D15*
X125857000Y-123190000D03*
X122936000Y-131826000D03*
X133350000Y-95885000D03*
X155194000Y-142621000D03*
X134840000Y-111800000D03*
X120460000Y-118020000D03*
D16*
X135522000Y-131178000D03*
D15*
X136906000Y-113060000D03*
X133310000Y-111660000D03*
X113170000Y-126611000D03*
X130280000Y-111040000D03*
X145616000Y-128966000D03*
D16*
X137287000Y-129540000D03*
D15*
X129540000Y-149479000D03*
X152270000Y-101730000D03*
D16*
X137287000Y-122682000D03*
D15*
X153289000Y-123952000D03*
X126238000Y-149479000D03*
X133370000Y-104940000D03*
D16*
X133731000Y-124587000D03*
D15*
X135910000Y-106210000D03*
D16*
X123952000Y-98425000D03*
D15*
X147955000Y-139700000D03*
X141950000Y-101540000D03*
X157861000Y-137160000D03*
D16*
X116448000Y-143902000D03*
D15*
X130370000Y-116970000D03*
D16*
X134719000Y-133886000D03*
D15*
X134500000Y-116460000D03*
X121940000Y-110090000D03*
X134640000Y-104940000D03*
D16*
X126238000Y-91313000D03*
D15*
X155702000Y-101727000D03*
X123830000Y-107080000D03*
X114300000Y-112649000D03*
D16*
X138889000Y-94351000D03*
D15*
X122273000Y-113185000D03*
X135910000Y-103670000D03*
X152995000Y-109097500D03*
D16*
X145415000Y-144697000D03*
X141971000Y-120980000D03*
D15*
X152400000Y-120269000D03*
X142300000Y-102990000D03*
X135710000Y-113060000D03*
X150876000Y-134620000D03*
X125857000Y-121793000D03*
D16*
X140540000Y-92954000D03*
D15*
X114480000Y-120537993D03*
X125349000Y-114427000D03*
X134640000Y-106210000D03*
X124460000Y-112776000D03*
X128316500Y-149479000D03*
X126743000Y-106172000D03*
X135910000Y-104940000D03*
X134507000Y-140130000D03*
D16*
X115443000Y-139065000D03*
D15*
X134493000Y-95885000D03*
X142304000Y-105976000D03*
D16*
X132285000Y-92954000D03*
D15*
X152995000Y-112907500D03*
X126873000Y-101981000D03*
X150569000Y-122362000D03*
X157861000Y-127381000D03*
X156464000Y-101727000D03*
X139319000Y-97663000D03*
X133370000Y-103670000D03*
D16*
X135522000Y-128638000D03*
D15*
X133370000Y-106210000D03*
X134640000Y-103670000D03*
X122190000Y-129400000D03*
X138176000Y-96901000D03*
X119275995Y-128828009D03*
%TO.N,+3V3*%
X129794000Y-106171990D03*
D16*
X149150000Y-102580000D03*
X147447000Y-102489000D03*
D15*
X135145000Y-102505000D03*
X139071510Y-101538490D03*
X129921000Y-101994990D03*
D16*
X149330000Y-100000000D03*
D15*
X139432010Y-103010990D03*
X139319000Y-105975990D03*
X137905500Y-100774500D03*
X135128000Y-110363000D03*
D16*
X129457000Y-93047000D03*
X121178000Y-91692000D03*
D15*
%TO.N,Net-(C23-Pad2)*%
X152287000Y-136459000D03*
X157940000Y-135570000D03*
%TO.N,/AS3394_PWM/Final_Gain_CV*%
X127000000Y-133604000D03*
%TO.N,VCC*%
X156972000Y-132842000D03*
X155194000Y-143510000D03*
D16*
X156210000Y-91313000D03*
D15*
X125095000Y-147320000D03*
D16*
X158877000Y-91357000D03*
D15*
X120075994Y-128828009D03*
X152400000Y-123952000D03*
X113337000Y-120537993D03*
%TO.N,Net-(C38-Pad2)*%
X115189000Y-114427000D03*
X119888000Y-114427000D03*
%TO.N,VEE*%
X119550000Y-118260000D03*
X118935000Y-132651000D03*
X152273000Y-134620000D03*
X146558000Y-146939000D03*
X154390000Y-121600000D03*
%TO.N,/AS3394_PWM/Mixer_Balance_CV*%
X114620000Y-123930000D03*
%TO.N,Net-(J1-Pad1)*%
X137423111Y-109800000D03*
%TO.N,Net-(J1-Pad3)*%
X137423111Y-110602902D03*
%TO.N,/AS3394_PWM/Final_Gain_PWM*%
X123825000Y-107950000D03*
X131280000Y-108240000D03*
%TO.N,/AS3394_PWM/Wave_Select_2*%
X152781000Y-118110000D03*
X140351529Y-114288129D03*
%TO.N,/AS3394_PWM/Wave_Select_1*%
X156665000Y-118999000D03*
X141171375Y-114288625D03*
D16*
%TO.N,/AS3394_PWM/Wave_Select_CV*%
X156030000Y-128458000D03*
D15*
%TO.N,/AS3394_PWM/Mixer_Balance_PWM*%
X121930000Y-109230000D03*
X130210000Y-109220000D03*
%TO.N,/RUN*%
X147980000Y-107990000D03*
X136438009Y-107528991D03*
%TO.N,/AMP_OUT*%
X159050000Y-117480000D03*
%TD*%
%TA.AperFunction,Conductor*%
%TO.N,GND*%
G36*
X131341155Y-85110002D02*
G01*
X131387648Y-85163658D01*
X131397752Y-85233932D01*
X131368258Y-85298512D01*
X131361192Y-85306023D01*
X131294109Y-85371716D01*
X131199375Y-85518714D01*
X131139563Y-85683047D01*
X131122500Y-85818110D01*
X131122500Y-86961469D01*
X131137062Y-87091290D01*
X131194574Y-87256442D01*
X131287246Y-87404748D01*
X131292209Y-87409746D01*
X131292210Y-87409747D01*
X131300616Y-87418212D01*
X131410472Y-87528838D01*
X131416418Y-87532612D01*
X131416420Y-87532613D01*
X131427006Y-87539331D01*
X131558128Y-87622543D01*
X131564771Y-87624908D01*
X131564770Y-87624908D01*
X131716239Y-87678844D01*
X131716244Y-87678845D01*
X131722874Y-87681206D01*
X131729862Y-87682039D01*
X131729865Y-87682040D01*
X131850259Y-87696396D01*
X131896524Y-87701913D01*
X131903527Y-87701177D01*
X131903528Y-87701177D01*
X131951392Y-87696146D01*
X132070445Y-87683633D01*
X132077111Y-87681364D01*
X132077114Y-87681363D01*
X132229328Y-87629545D01*
X132229331Y-87629544D01*
X132235995Y-87627275D01*
X132384945Y-87535641D01*
X132509891Y-87413284D01*
X132604625Y-87266286D01*
X132646610Y-87150934D01*
X132662026Y-87108577D01*
X132664437Y-87101953D01*
X132681500Y-86966890D01*
X132681500Y-85823531D01*
X132666938Y-85693710D01*
X132609426Y-85528558D01*
X132516754Y-85380252D01*
X132508278Y-85371716D01*
X132491073Y-85354391D01*
X132441810Y-85304783D01*
X132408004Y-85242353D01*
X132413316Y-85171556D01*
X132456061Y-85114869D01*
X132522667Y-85090290D01*
X132531217Y-85090000D01*
X139913034Y-85090000D01*
X139981155Y-85110002D01*
X140027648Y-85163658D01*
X140037752Y-85233932D01*
X140008258Y-85298512D01*
X140001192Y-85306023D01*
X139934109Y-85371716D01*
X139839375Y-85518714D01*
X139779563Y-85683047D01*
X139762500Y-85818110D01*
X139762500Y-86961469D01*
X139777062Y-87091290D01*
X139834574Y-87256442D01*
X139927246Y-87404748D01*
X139932209Y-87409746D01*
X139932210Y-87409747D01*
X139940616Y-87418212D01*
X140050472Y-87528838D01*
X140056418Y-87532612D01*
X140056420Y-87532613D01*
X140067006Y-87539331D01*
X140198128Y-87622543D01*
X140204771Y-87624908D01*
X140204770Y-87624908D01*
X140356239Y-87678844D01*
X140356244Y-87678845D01*
X140362874Y-87681206D01*
X140369862Y-87682039D01*
X140369865Y-87682040D01*
X140490259Y-87696396D01*
X140536524Y-87701913D01*
X140543527Y-87701177D01*
X140543528Y-87701177D01*
X140591392Y-87696146D01*
X140710445Y-87683633D01*
X140717111Y-87681364D01*
X140717114Y-87681363D01*
X140869328Y-87629545D01*
X140869331Y-87629544D01*
X140875995Y-87627275D01*
X141024945Y-87535641D01*
X141149891Y-87413284D01*
X141244625Y-87266286D01*
X141286610Y-87150934D01*
X141302026Y-87108577D01*
X141304437Y-87101953D01*
X141321500Y-86966890D01*
X141321500Y-85823531D01*
X141306938Y-85693710D01*
X141249426Y-85528558D01*
X141156754Y-85380252D01*
X141148278Y-85371716D01*
X141131073Y-85354391D01*
X141081810Y-85304783D01*
X141048004Y-85242353D01*
X141053316Y-85171556D01*
X141096061Y-85114869D01*
X141162667Y-85090290D01*
X141171217Y-85090000D01*
X159894241Y-85090000D01*
X159962362Y-85110002D01*
X160008855Y-85163658D01*
X160020241Y-85215758D01*
X160088331Y-120690373D01*
X160142209Y-148760500D01*
X160146758Y-151130758D01*
X160126887Y-151198917D01*
X160073320Y-151245513D01*
X160020758Y-151257000D01*
X109727000Y-151257000D01*
X109658879Y-151236998D01*
X109612386Y-151183342D01*
X109601000Y-151131000D01*
X109601000Y-147320000D01*
X124535715Y-147320000D01*
X124554772Y-147464754D01*
X124610645Y-147599642D01*
X124615672Y-147606193D01*
X124680905Y-147691206D01*
X124699526Y-147715474D01*
X124706076Y-147720500D01*
X124706079Y-147720503D01*
X124808804Y-147799327D01*
X124815357Y-147804355D01*
X124950246Y-147860228D01*
X125095000Y-147879285D01*
X125103188Y-147878207D01*
X125231566Y-147861306D01*
X125239754Y-147860228D01*
X125374643Y-147804355D01*
X125381196Y-147799327D01*
X125483921Y-147720503D01*
X125483924Y-147720500D01*
X125490474Y-147715474D01*
X125509096Y-147691206D01*
X130756501Y-147691206D01*
X130757743Y-147706000D01*
X130772205Y-147878207D01*
X130773806Y-147897278D01*
X130830807Y-148096066D01*
X130833625Y-148101548D01*
X130833626Y-148101552D01*
X130922514Y-148274509D01*
X130922517Y-148274513D01*
X130925334Y-148279995D01*
X131053786Y-148442061D01*
X131058479Y-148446055D01*
X131058480Y-148446056D01*
X131151095Y-148524877D01*
X131211271Y-148576091D01*
X131391789Y-148676980D01*
X131588466Y-148740884D01*
X131793809Y-148765370D01*
X131799944Y-148764898D01*
X131799946Y-148764898D01*
X131993856Y-148749977D01*
X131993860Y-148749976D01*
X131999998Y-148749504D01*
X132199178Y-148693892D01*
X132204682Y-148691112D01*
X132204684Y-148691111D01*
X132378262Y-148603431D01*
X132378264Y-148603430D01*
X132383763Y-148600652D01*
X132546722Y-148473334D01*
X132550748Y-148468670D01*
X132550751Y-148468667D01*
X132677819Y-148321457D01*
X132677820Y-148321455D01*
X132681848Y-148316789D01*
X132783995Y-148136979D01*
X132849270Y-147940753D01*
X132875189Y-147735586D01*
X132875602Y-147706000D01*
X132855422Y-147500189D01*
X132795651Y-147302217D01*
X132728139Y-147175246D01*
X132701459Y-147125067D01*
X132701457Y-147125064D01*
X132698565Y-147119625D01*
X132694674Y-147114855D01*
X132694672Y-147114851D01*
X132571758Y-146964143D01*
X132571755Y-146964140D01*
X132567863Y-146959368D01*
X132560966Y-146953662D01*
X132473052Y-146880933D01*
X138381500Y-146880933D01*
X138381501Y-148531066D01*
X138396266Y-148605301D01*
X138452516Y-148689484D01*
X138536699Y-148745734D01*
X138610933Y-148760500D01*
X139435866Y-148760500D01*
X140261066Y-148760499D01*
X140296818Y-148753388D01*
X140323126Y-148748156D01*
X140323128Y-148748155D01*
X140335301Y-148745734D01*
X140345621Y-148738839D01*
X140345622Y-148738838D01*
X140409168Y-148696377D01*
X140419484Y-148689484D01*
X140475734Y-148605301D01*
X140490500Y-148531067D01*
X140490499Y-146939000D01*
X145998715Y-146939000D01*
X146017772Y-147083754D01*
X146020931Y-147091380D01*
X146055670Y-147175246D01*
X146073645Y-147218642D01*
X146078672Y-147225193D01*
X146133599Y-147296775D01*
X146162526Y-147334474D01*
X146169076Y-147339500D01*
X146169079Y-147339503D01*
X146271804Y-147418327D01*
X146278357Y-147423355D01*
X146358540Y-147456568D01*
X146396714Y-147472380D01*
X146413246Y-147479228D01*
X146558000Y-147498285D01*
X146566188Y-147497207D01*
X146694566Y-147480306D01*
X146702754Y-147479228D01*
X146719287Y-147472380D01*
X146757460Y-147456568D01*
X146837643Y-147423355D01*
X146844196Y-147418327D01*
X146946921Y-147339503D01*
X146946924Y-147339500D01*
X146953474Y-147334474D01*
X146982402Y-147296775D01*
X147037328Y-147225193D01*
X147042355Y-147218642D01*
X147060331Y-147175246D01*
X147095069Y-147091380D01*
X147098228Y-147083754D01*
X147117285Y-146939000D01*
X147109641Y-146880934D01*
X147099306Y-146802432D01*
X147099305Y-146802430D01*
X147098228Y-146794246D01*
X147072495Y-146732122D01*
X147045515Y-146666986D01*
X147045514Y-146666984D01*
X147042355Y-146659358D01*
X146953474Y-146543526D01*
X146946924Y-146538500D01*
X146946921Y-146538497D01*
X146844196Y-146459673D01*
X146844194Y-146459672D01*
X146837643Y-146454645D01*
X146702754Y-146398772D01*
X146558000Y-146379715D01*
X146549812Y-146380793D01*
X146421432Y-146397694D01*
X146421430Y-146397695D01*
X146413246Y-146398772D01*
X146365430Y-146418578D01*
X146285986Y-146451485D01*
X146285984Y-146451486D01*
X146278358Y-146454645D01*
X146162526Y-146543526D01*
X146073645Y-146659358D01*
X146070486Y-146666984D01*
X146070485Y-146666986D01*
X146043505Y-146732122D01*
X146017772Y-146794246D01*
X146016695Y-146802430D01*
X146016694Y-146802432D01*
X146006359Y-146880934D01*
X145998715Y-146939000D01*
X140490499Y-146939000D01*
X140490499Y-146880934D01*
X140480863Y-146832485D01*
X140478156Y-146818874D01*
X140478155Y-146818872D01*
X140475734Y-146806699D01*
X140462318Y-146786620D01*
X140426377Y-146732832D01*
X140419484Y-146722516D01*
X140335301Y-146666266D01*
X140261067Y-146651500D01*
X139436134Y-146651500D01*
X138610934Y-146651501D01*
X138575182Y-146658612D01*
X138548874Y-146663844D01*
X138548872Y-146663845D01*
X138536699Y-146666266D01*
X138526379Y-146673161D01*
X138526378Y-146673162D01*
X138465985Y-146713516D01*
X138452516Y-146722516D01*
X138396266Y-146806699D01*
X138381500Y-146880933D01*
X132473052Y-146880933D01*
X132413271Y-146831478D01*
X132413266Y-146831475D01*
X132408522Y-146827550D01*
X132403103Y-146824620D01*
X132403100Y-146824618D01*
X132232032Y-146732122D01*
X132232027Y-146732120D01*
X132226612Y-146729192D01*
X132029063Y-146668040D01*
X132022938Y-146667396D01*
X132022937Y-146667396D01*
X131829526Y-146647068D01*
X131829524Y-146647068D01*
X131823397Y-146646424D01*
X131697229Y-146657906D01*
X131623591Y-146664607D01*
X131623590Y-146664607D01*
X131617450Y-146665166D01*
X131419066Y-146723554D01*
X131413601Y-146726411D01*
X131241261Y-146816508D01*
X131241257Y-146816511D01*
X131235801Y-146819363D01*
X131074635Y-146948943D01*
X130941708Y-147107360D01*
X130842082Y-147288578D01*
X130779553Y-147485696D01*
X130778867Y-147491813D01*
X130778866Y-147491817D01*
X130777927Y-147500189D01*
X130756501Y-147691206D01*
X125509096Y-147691206D01*
X125574328Y-147606193D01*
X125579355Y-147599642D01*
X125635228Y-147464754D01*
X125654285Y-147320000D01*
X125635228Y-147175246D01*
X125609346Y-147112761D01*
X125582515Y-147047986D01*
X125582514Y-147047984D01*
X125579355Y-147040358D01*
X125517209Y-146959368D01*
X125495501Y-146931077D01*
X125495500Y-146931076D01*
X125490474Y-146924526D01*
X125483924Y-146919500D01*
X125483921Y-146919497D01*
X125381196Y-146840673D01*
X125381194Y-146840672D01*
X125374643Y-146835645D01*
X125257779Y-146787238D01*
X125247383Y-146782932D01*
X125239754Y-146779772D01*
X125095000Y-146760715D01*
X125086812Y-146761793D01*
X124958432Y-146778694D01*
X124958430Y-146778695D01*
X124950246Y-146779772D01*
X124933714Y-146786620D01*
X124822986Y-146832485D01*
X124822984Y-146832486D01*
X124815358Y-146835645D01*
X124699526Y-146924526D01*
X124610645Y-147040358D01*
X124607486Y-147047984D01*
X124607485Y-147047986D01*
X124580654Y-147112761D01*
X124554772Y-147175246D01*
X124535715Y-147320000D01*
X109601000Y-147320000D01*
X109601000Y-145151206D01*
X130756501Y-145151206D01*
X130773806Y-145357278D01*
X130830807Y-145556066D01*
X130833625Y-145561548D01*
X130833626Y-145561552D01*
X130922514Y-145734509D01*
X130922517Y-145734513D01*
X130925334Y-145739995D01*
X131053786Y-145902061D01*
X131058479Y-145906055D01*
X131058480Y-145906056D01*
X131109526Y-145949499D01*
X131211271Y-146036091D01*
X131391789Y-146136980D01*
X131588466Y-146200884D01*
X131793809Y-146225370D01*
X131799944Y-146224898D01*
X131799946Y-146224898D01*
X131993856Y-146209977D01*
X131993860Y-146209976D01*
X131999998Y-146209504D01*
X132199178Y-146153892D01*
X132204682Y-146151112D01*
X132204684Y-146151111D01*
X132378262Y-146063431D01*
X132378264Y-146063430D01*
X132383763Y-146060652D01*
X132546722Y-145933334D01*
X132550748Y-145928670D01*
X132550751Y-145928667D01*
X132677819Y-145781457D01*
X132677820Y-145781455D01*
X132681848Y-145776789D01*
X132783995Y-145596979D01*
X132849270Y-145400753D01*
X132875189Y-145195586D01*
X132875602Y-145166000D01*
X132874151Y-145151206D01*
X138376501Y-145151206D01*
X138393806Y-145357278D01*
X138450807Y-145556066D01*
X138453625Y-145561548D01*
X138453626Y-145561552D01*
X138542514Y-145734509D01*
X138542517Y-145734513D01*
X138545334Y-145739995D01*
X138673786Y-145902061D01*
X138678479Y-145906055D01*
X138678480Y-145906056D01*
X138729526Y-145949499D01*
X138831271Y-146036091D01*
X139011789Y-146136980D01*
X139208466Y-146200884D01*
X139413809Y-146225370D01*
X139419944Y-146224898D01*
X139419946Y-146224898D01*
X139613856Y-146209977D01*
X139613860Y-146209976D01*
X139619998Y-146209504D01*
X139819178Y-146153892D01*
X139824682Y-146151112D01*
X139824684Y-146151111D01*
X139998262Y-146063431D01*
X139998264Y-146063430D01*
X140003763Y-146060652D01*
X140166722Y-145933334D01*
X140170748Y-145928670D01*
X140170751Y-145928667D01*
X140297819Y-145781457D01*
X140297820Y-145781455D01*
X140301848Y-145776789D01*
X140403995Y-145596979D01*
X140469270Y-145400753D01*
X140495189Y-145195586D01*
X140495602Y-145166000D01*
X140475422Y-144960189D01*
X140415651Y-144762217D01*
X140318565Y-144579625D01*
X140314674Y-144574855D01*
X140314672Y-144574851D01*
X140191758Y-144424143D01*
X140191755Y-144424140D01*
X140187863Y-144419368D01*
X140180966Y-144413662D01*
X140033271Y-144291478D01*
X140033266Y-144291475D01*
X140028522Y-144287550D01*
X140023103Y-144284620D01*
X140023100Y-144284618D01*
X139852032Y-144192122D01*
X139852027Y-144192120D01*
X139846612Y-144189192D01*
X139649063Y-144128040D01*
X139642938Y-144127396D01*
X139642937Y-144127396D01*
X139449526Y-144107068D01*
X139449524Y-144107068D01*
X139443397Y-144106424D01*
X139317229Y-144117906D01*
X139243591Y-144124607D01*
X139243590Y-144124607D01*
X139237450Y-144125166D01*
X139039066Y-144183554D01*
X139033601Y-144186411D01*
X138861261Y-144276508D01*
X138861257Y-144276511D01*
X138855801Y-144279363D01*
X138694635Y-144408943D01*
X138561708Y-144567360D01*
X138462082Y-144748578D01*
X138399553Y-144945696D01*
X138376501Y-145151206D01*
X132874151Y-145151206D01*
X132855422Y-144960189D01*
X132795651Y-144762217D01*
X132698565Y-144579625D01*
X132694674Y-144574855D01*
X132694672Y-144574851D01*
X132571758Y-144424143D01*
X132571755Y-144424140D01*
X132567863Y-144419368D01*
X132560966Y-144413662D01*
X132413271Y-144291478D01*
X132413266Y-144291475D01*
X132408522Y-144287550D01*
X132403103Y-144284620D01*
X132403100Y-144284618D01*
X132232032Y-144192122D01*
X132232027Y-144192120D01*
X132226612Y-144189192D01*
X132029063Y-144128040D01*
X132022938Y-144127396D01*
X132022937Y-144127396D01*
X131829526Y-144107068D01*
X131829524Y-144107068D01*
X131823397Y-144106424D01*
X131697229Y-144117906D01*
X131623591Y-144124607D01*
X131623590Y-144124607D01*
X131617450Y-144125166D01*
X131419066Y-144183554D01*
X131413601Y-144186411D01*
X131241261Y-144276508D01*
X131241257Y-144276511D01*
X131235801Y-144279363D01*
X131074635Y-144408943D01*
X130941708Y-144567360D01*
X130842082Y-144748578D01*
X130779553Y-144945696D01*
X130756501Y-145151206D01*
X109601000Y-145151206D01*
X109601000Y-142611206D01*
X130756501Y-142611206D01*
X130773806Y-142817278D01*
X130830807Y-143016066D01*
X130833625Y-143021548D01*
X130833626Y-143021552D01*
X130922514Y-143194509D01*
X130922517Y-143194513D01*
X130925334Y-143199995D01*
X131053786Y-143362061D01*
X131058479Y-143366055D01*
X131058480Y-143366056D01*
X131126366Y-143423831D01*
X131211271Y-143496091D01*
X131391789Y-143596980D01*
X131588466Y-143660884D01*
X131793809Y-143685370D01*
X131799944Y-143684898D01*
X131799946Y-143684898D01*
X131993856Y-143669977D01*
X131993860Y-143669976D01*
X131999998Y-143669504D01*
X132199178Y-143613892D01*
X132204682Y-143611112D01*
X132204684Y-143611111D01*
X132378262Y-143523431D01*
X132378264Y-143523430D01*
X132383763Y-143520652D01*
X132546722Y-143393334D01*
X132550748Y-143388670D01*
X132550751Y-143388667D01*
X132677819Y-143241457D01*
X132677820Y-143241455D01*
X132681848Y-143236789D01*
X132751304Y-143114526D01*
X132780950Y-143062340D01*
X132780952Y-143062336D01*
X132783995Y-143056979D01*
X132849270Y-142860753D01*
X132875189Y-142655586D01*
X132875602Y-142626000D01*
X132874151Y-142611206D01*
X138376501Y-142611206D01*
X138393806Y-142817278D01*
X138450807Y-143016066D01*
X138453625Y-143021548D01*
X138453626Y-143021552D01*
X138542514Y-143194509D01*
X138542517Y-143194513D01*
X138545334Y-143199995D01*
X138673786Y-143362061D01*
X138678479Y-143366055D01*
X138678480Y-143366056D01*
X138746366Y-143423831D01*
X138831271Y-143496091D01*
X139011789Y-143596980D01*
X139208466Y-143660884D01*
X139413809Y-143685370D01*
X139419944Y-143684898D01*
X139419946Y-143684898D01*
X139613856Y-143669977D01*
X139613860Y-143669976D01*
X139619998Y-143669504D01*
X139819178Y-143613892D01*
X139824682Y-143611112D01*
X139824684Y-143611111D01*
X139998262Y-143523431D01*
X139998264Y-143523430D01*
X140003763Y-143520652D01*
X140017397Y-143510000D01*
X154634715Y-143510000D01*
X154635793Y-143518188D01*
X154646417Y-143598884D01*
X154653772Y-143654754D01*
X154656931Y-143662380D01*
X154694403Y-143752844D01*
X154709645Y-143789642D01*
X154798526Y-143905474D01*
X154805076Y-143910500D01*
X154805079Y-143910503D01*
X154907804Y-143989327D01*
X154914357Y-143994355D01*
X155049246Y-144050228D01*
X155194000Y-144069285D01*
X155202188Y-144068207D01*
X155330566Y-144051306D01*
X155338754Y-144050228D01*
X155473643Y-143994355D01*
X155480196Y-143989327D01*
X155582921Y-143910503D01*
X155582924Y-143910500D01*
X155589474Y-143905474D01*
X155678355Y-143789642D01*
X155693598Y-143752844D01*
X155731069Y-143662380D01*
X155734228Y-143654754D01*
X155741584Y-143598884D01*
X155752207Y-143518188D01*
X155753285Y-143510000D01*
X155741162Y-143417916D01*
X155735306Y-143373432D01*
X155735305Y-143373430D01*
X155734228Y-143365246D01*
X155696709Y-143274667D01*
X155681515Y-143237986D01*
X155681514Y-143237984D01*
X155678355Y-143230358D01*
X155589474Y-143114526D01*
X155582924Y-143109500D01*
X155582921Y-143109497D01*
X155480196Y-143030673D01*
X155480194Y-143030672D01*
X155473643Y-143025645D01*
X155338754Y-142969772D01*
X155194000Y-142950715D01*
X155185812Y-142951793D01*
X155057432Y-142968694D01*
X155057430Y-142968695D01*
X155049246Y-142969772D01*
X155001430Y-142989578D01*
X154921986Y-143022485D01*
X154921984Y-143022486D01*
X154914358Y-143025645D01*
X154798526Y-143114526D01*
X154709645Y-143230358D01*
X154706486Y-143237984D01*
X154706485Y-143237986D01*
X154691291Y-143274667D01*
X154653772Y-143365246D01*
X154652695Y-143373430D01*
X154652694Y-143373432D01*
X154646838Y-143417916D01*
X154634715Y-143510000D01*
X140017397Y-143510000D01*
X140166722Y-143393334D01*
X140170748Y-143388670D01*
X140170751Y-143388667D01*
X140297819Y-143241457D01*
X140297820Y-143241455D01*
X140301848Y-143236789D01*
X140371304Y-143114526D01*
X140400950Y-143062340D01*
X140400952Y-143062336D01*
X140403995Y-143056979D01*
X140469270Y-142860753D01*
X140495189Y-142655586D01*
X140495602Y-142626000D01*
X140490402Y-142572966D01*
X156668257Y-142572966D01*
X156698565Y-142707446D01*
X156701645Y-142717275D01*
X156781770Y-142914603D01*
X156786413Y-142923794D01*
X156897694Y-143105388D01*
X156903777Y-143113699D01*
X157043213Y-143274667D01*
X157050580Y-143281883D01*
X157214434Y-143417916D01*
X157222881Y-143423831D01*
X157363005Y-143505713D01*
X157411729Y-143557352D01*
X157424800Y-143627135D01*
X157398069Y-143692906D01*
X157340022Y-143733785D01*
X157299436Y-143740501D01*
X157124934Y-143740501D01*
X157089182Y-143747612D01*
X157062874Y-143752844D01*
X157062872Y-143752845D01*
X157050699Y-143755266D01*
X157040379Y-143762161D01*
X157040378Y-143762162D01*
X157010668Y-143782014D01*
X156966516Y-143811516D01*
X156910266Y-143895699D01*
X156895500Y-143969933D01*
X156895501Y-145720066D01*
X156898374Y-145734509D01*
X156905717Y-145771428D01*
X156910266Y-145794301D01*
X156966516Y-145878484D01*
X157050699Y-145934734D01*
X157124933Y-145949500D01*
X157999858Y-145949500D01*
X158875066Y-145949499D01*
X158910818Y-145942388D01*
X158937126Y-145937156D01*
X158937128Y-145937155D01*
X158949301Y-145934734D01*
X158959621Y-145927839D01*
X158959622Y-145927838D01*
X159023168Y-145885377D01*
X159033484Y-145878484D01*
X159089734Y-145794301D01*
X159104500Y-145720067D01*
X159104499Y-143969934D01*
X159097388Y-143934182D01*
X159092156Y-143907874D01*
X159092155Y-143907872D01*
X159089734Y-143895699D01*
X159033484Y-143811516D01*
X158949301Y-143755266D01*
X158875067Y-143740500D01*
X158700334Y-143740500D01*
X158632213Y-143720498D01*
X158585720Y-143666842D01*
X158575616Y-143596568D01*
X158605110Y-143531988D01*
X158644902Y-143501348D01*
X158693100Y-143477736D01*
X158701945Y-143472464D01*
X158875328Y-143348792D01*
X158883200Y-143342139D01*
X159034052Y-143191812D01*
X159040730Y-143183965D01*
X159165003Y-143011020D01*
X159170313Y-143002183D01*
X159264670Y-142811267D01*
X159268469Y-142801672D01*
X159330377Y-142597910D01*
X159332555Y-142587837D01*
X159333986Y-142576962D01*
X159331775Y-142562778D01*
X159318617Y-142559000D01*
X156683225Y-142559000D01*
X156669694Y-142562973D01*
X156668257Y-142572966D01*
X140490402Y-142572966D01*
X140475422Y-142420189D01*
X140415651Y-142222217D01*
X140367108Y-142130921D01*
X140321459Y-142045067D01*
X140321457Y-142045064D01*
X140318565Y-142039625D01*
X140318204Y-142039183D01*
X156664389Y-142039183D01*
X156665912Y-142047607D01*
X156678292Y-142051000D01*
X157727885Y-142051000D01*
X157743124Y-142046525D01*
X157744329Y-142045135D01*
X157746000Y-142037452D01*
X157746000Y-142032885D01*
X158254000Y-142032885D01*
X158258475Y-142048124D01*
X158259865Y-142049329D01*
X158267548Y-142051000D01*
X159318344Y-142051000D01*
X159331875Y-142047027D01*
X159333180Y-142037947D01*
X159291214Y-141870875D01*
X159287894Y-141861124D01*
X159202972Y-141665814D01*
X159198105Y-141656739D01*
X159082426Y-141477926D01*
X159076136Y-141469757D01*
X158932806Y-141312240D01*
X158925273Y-141305215D01*
X158758139Y-141173222D01*
X158749552Y-141167517D01*
X158563117Y-141064599D01*
X158553705Y-141060369D01*
X158352959Y-140989280D01*
X158342988Y-140986646D01*
X158271837Y-140973972D01*
X158258540Y-140975432D01*
X158254000Y-140989989D01*
X158254000Y-142032885D01*
X157746000Y-142032885D01*
X157746000Y-140988102D01*
X157742082Y-140974758D01*
X157727806Y-140972771D01*
X157689324Y-140978660D01*
X157679288Y-140981051D01*
X157476868Y-141047212D01*
X157467359Y-141051209D01*
X157278463Y-141149542D01*
X157269738Y-141155036D01*
X157099433Y-141282905D01*
X157091726Y-141289748D01*
X156944590Y-141443717D01*
X156938104Y-141451727D01*
X156818098Y-141627649D01*
X156813000Y-141636623D01*
X156723338Y-141829783D01*
X156719775Y-141839470D01*
X156664389Y-142039183D01*
X140318204Y-142039183D01*
X140314674Y-142034855D01*
X140314672Y-142034851D01*
X140191758Y-141884143D01*
X140191755Y-141884140D01*
X140187863Y-141879368D01*
X140177597Y-141870875D01*
X140033271Y-141751478D01*
X140033266Y-141751475D01*
X140028522Y-141747550D01*
X140023103Y-141744620D01*
X140023100Y-141744618D01*
X139852032Y-141652122D01*
X139852027Y-141652120D01*
X139846612Y-141649192D01*
X139649063Y-141588040D01*
X139642938Y-141587396D01*
X139642937Y-141587396D01*
X139449526Y-141567068D01*
X139449524Y-141567068D01*
X139443397Y-141566424D01*
X139317229Y-141577906D01*
X139243591Y-141584607D01*
X139243590Y-141584607D01*
X139237450Y-141585166D01*
X139039066Y-141643554D01*
X139033601Y-141646411D01*
X138861261Y-141736508D01*
X138861257Y-141736511D01*
X138855801Y-141739363D01*
X138694635Y-141868943D01*
X138561708Y-142027360D01*
X138462082Y-142208578D01*
X138399553Y-142405696D01*
X138376501Y-142611206D01*
X132874151Y-142611206D01*
X132855422Y-142420189D01*
X132795651Y-142222217D01*
X132747108Y-142130921D01*
X132701459Y-142045067D01*
X132701457Y-142045064D01*
X132698565Y-142039625D01*
X132694674Y-142034855D01*
X132694672Y-142034851D01*
X132571758Y-141884143D01*
X132571755Y-141884140D01*
X132567863Y-141879368D01*
X132557597Y-141870875D01*
X132413271Y-141751478D01*
X132413266Y-141751475D01*
X132408522Y-141747550D01*
X132403103Y-141744620D01*
X132403100Y-141744618D01*
X132232032Y-141652122D01*
X132232027Y-141652120D01*
X132226612Y-141649192D01*
X132029063Y-141588040D01*
X132022938Y-141587396D01*
X132022937Y-141587396D01*
X131829526Y-141567068D01*
X131829524Y-141567068D01*
X131823397Y-141566424D01*
X131697229Y-141577906D01*
X131623591Y-141584607D01*
X131623590Y-141584607D01*
X131617450Y-141585166D01*
X131419066Y-141643554D01*
X131413601Y-141646411D01*
X131241261Y-141736508D01*
X131241257Y-141736511D01*
X131235801Y-141739363D01*
X131074635Y-141868943D01*
X130941708Y-142027360D01*
X130842082Y-142208578D01*
X130779553Y-142405696D01*
X130756501Y-142611206D01*
X109601000Y-142611206D01*
X109601000Y-140071206D01*
X130756501Y-140071206D01*
X130773806Y-140277278D01*
X130830807Y-140476066D01*
X130833625Y-140481548D01*
X130833626Y-140481552D01*
X130922514Y-140654509D01*
X130922517Y-140654513D01*
X130925334Y-140659995D01*
X131053786Y-140822061D01*
X131211271Y-140956091D01*
X131391789Y-141056980D01*
X131588466Y-141120884D01*
X131793809Y-141145370D01*
X131799944Y-141144898D01*
X131799946Y-141144898D01*
X131993856Y-141129977D01*
X131993860Y-141129976D01*
X131999998Y-141129504D01*
X132199178Y-141073892D01*
X132204682Y-141071112D01*
X132204684Y-141071111D01*
X132378262Y-140983431D01*
X132378264Y-140983430D01*
X132383763Y-140980652D01*
X132546722Y-140853334D01*
X132550748Y-140848670D01*
X132550751Y-140848667D01*
X132677819Y-140701457D01*
X132677820Y-140701455D01*
X132681848Y-140696789D01*
X132783995Y-140516979D01*
X132849270Y-140320753D01*
X132875189Y-140115586D01*
X132875602Y-140086000D01*
X132874151Y-140071206D01*
X138376501Y-140071206D01*
X138393806Y-140277278D01*
X138450807Y-140476066D01*
X138453625Y-140481548D01*
X138453626Y-140481552D01*
X138542514Y-140654509D01*
X138542517Y-140654513D01*
X138545334Y-140659995D01*
X138673786Y-140822061D01*
X138831271Y-140956091D01*
X139011789Y-141056980D01*
X139208466Y-141120884D01*
X139413809Y-141145370D01*
X139419944Y-141144898D01*
X139419946Y-141144898D01*
X139613856Y-141129977D01*
X139613860Y-141129976D01*
X139619998Y-141129504D01*
X139819178Y-141073892D01*
X139824682Y-141071112D01*
X139824684Y-141071111D01*
X139998262Y-140983431D01*
X139998264Y-140983430D01*
X140003763Y-140980652D01*
X140166722Y-140853334D01*
X140170748Y-140848670D01*
X140170751Y-140848667D01*
X140297819Y-140701457D01*
X140297820Y-140701455D01*
X140301848Y-140696789D01*
X140403995Y-140516979D01*
X140469270Y-140320753D01*
X140495189Y-140115586D01*
X140495602Y-140086000D01*
X140475422Y-139880189D01*
X140415651Y-139682217D01*
X140318565Y-139499625D01*
X140314674Y-139494855D01*
X140314672Y-139494851D01*
X140191758Y-139344143D01*
X140191755Y-139344140D01*
X140187863Y-139339368D01*
X140180966Y-139333662D01*
X140033271Y-139211478D01*
X140033266Y-139211475D01*
X140028522Y-139207550D01*
X140023103Y-139204620D01*
X140023100Y-139204618D01*
X139852032Y-139112122D01*
X139852027Y-139112120D01*
X139846612Y-139109192D01*
X139649063Y-139048040D01*
X139642938Y-139047396D01*
X139642937Y-139047396D01*
X139449526Y-139027068D01*
X139449524Y-139027068D01*
X139443397Y-139026424D01*
X139317229Y-139037906D01*
X139243591Y-139044607D01*
X139243590Y-139044607D01*
X139237450Y-139045166D01*
X139039066Y-139103554D01*
X139033601Y-139106411D01*
X138861261Y-139196508D01*
X138861257Y-139196511D01*
X138855801Y-139199363D01*
X138694635Y-139328943D01*
X138561708Y-139487360D01*
X138462082Y-139668578D01*
X138399553Y-139865696D01*
X138376501Y-140071206D01*
X132874151Y-140071206D01*
X132855422Y-139880189D01*
X132795651Y-139682217D01*
X132698565Y-139499625D01*
X132694674Y-139494855D01*
X132694672Y-139494851D01*
X132571758Y-139344143D01*
X132571755Y-139344140D01*
X132567863Y-139339368D01*
X132560966Y-139333662D01*
X132413271Y-139211478D01*
X132413266Y-139211475D01*
X132408522Y-139207550D01*
X132403103Y-139204620D01*
X132403100Y-139204618D01*
X132232032Y-139112122D01*
X132232027Y-139112120D01*
X132226612Y-139109192D01*
X132029063Y-139048040D01*
X132022938Y-139047396D01*
X132022937Y-139047396D01*
X131829526Y-139027068D01*
X131829524Y-139027068D01*
X131823397Y-139026424D01*
X131697229Y-139037906D01*
X131623591Y-139044607D01*
X131623590Y-139044607D01*
X131617450Y-139045166D01*
X131419066Y-139103554D01*
X131413601Y-139106411D01*
X131241261Y-139196508D01*
X131241257Y-139196511D01*
X131235801Y-139199363D01*
X131074635Y-139328943D01*
X130941708Y-139487360D01*
X130842082Y-139668578D01*
X130779553Y-139865696D01*
X130756501Y-140071206D01*
X109601000Y-140071206D01*
X109601000Y-137531206D01*
X130756501Y-137531206D01*
X130773806Y-137737278D01*
X130830807Y-137936066D01*
X130833625Y-137941548D01*
X130833626Y-137941552D01*
X130922514Y-138114509D01*
X130922517Y-138114513D01*
X130925334Y-138119995D01*
X131053786Y-138282061D01*
X131211271Y-138416091D01*
X131391789Y-138516980D01*
X131588466Y-138580884D01*
X131793809Y-138605370D01*
X131799944Y-138604898D01*
X131799946Y-138604898D01*
X131993856Y-138589977D01*
X131993860Y-138589976D01*
X131999998Y-138589504D01*
X132199178Y-138533892D01*
X132204682Y-138531112D01*
X132204684Y-138531111D01*
X132378262Y-138443431D01*
X132378264Y-138443430D01*
X132383763Y-138440652D01*
X132546722Y-138313334D01*
X132550748Y-138308670D01*
X132550751Y-138308667D01*
X132677819Y-138161457D01*
X132677820Y-138161455D01*
X132681848Y-138156789D01*
X132783995Y-137976979D01*
X132849270Y-137780753D01*
X132875189Y-137575586D01*
X132875602Y-137546000D01*
X132874151Y-137531206D01*
X138376501Y-137531206D01*
X138393806Y-137737278D01*
X138450807Y-137936066D01*
X138453625Y-137941548D01*
X138453626Y-137941552D01*
X138542514Y-138114509D01*
X138542517Y-138114513D01*
X138545334Y-138119995D01*
X138673786Y-138282061D01*
X138831271Y-138416091D01*
X139011789Y-138516980D01*
X139208466Y-138580884D01*
X139413809Y-138605370D01*
X139419944Y-138604898D01*
X139419946Y-138604898D01*
X139613856Y-138589977D01*
X139613860Y-138589976D01*
X139619998Y-138589504D01*
X139819178Y-138533892D01*
X139824682Y-138531112D01*
X139824684Y-138531111D01*
X139998262Y-138443431D01*
X139998264Y-138443430D01*
X140003763Y-138440652D01*
X140166722Y-138313334D01*
X140170748Y-138308670D01*
X140170751Y-138308667D01*
X140297819Y-138161457D01*
X140297820Y-138161455D01*
X140301848Y-138156789D01*
X140403995Y-137976979D01*
X140469270Y-137780753D01*
X140495189Y-137575586D01*
X140495602Y-137546000D01*
X140475422Y-137340189D01*
X140415651Y-137142217D01*
X140349182Y-137017207D01*
X140321459Y-136965067D01*
X140321457Y-136965064D01*
X140318565Y-136959625D01*
X140314674Y-136954855D01*
X140314672Y-136954851D01*
X140191758Y-136804143D01*
X140191755Y-136804140D01*
X140187863Y-136799368D01*
X140180966Y-136793662D01*
X140033271Y-136671478D01*
X140033266Y-136671475D01*
X140028522Y-136667550D01*
X140023103Y-136664620D01*
X140023100Y-136664618D01*
X139852032Y-136572122D01*
X139852027Y-136572120D01*
X139846612Y-136569192D01*
X139649063Y-136508040D01*
X139642938Y-136507396D01*
X139642937Y-136507396D01*
X139449526Y-136487068D01*
X139449524Y-136487068D01*
X139443397Y-136486424D01*
X139317229Y-136497906D01*
X139243591Y-136504607D01*
X139243590Y-136504607D01*
X139237450Y-136505166D01*
X139039066Y-136563554D01*
X139033601Y-136566411D01*
X138861261Y-136656508D01*
X138861257Y-136656511D01*
X138855801Y-136659363D01*
X138694635Y-136788943D01*
X138561708Y-136947360D01*
X138462082Y-137128578D01*
X138399553Y-137325696D01*
X138376501Y-137531206D01*
X132874151Y-137531206D01*
X132855422Y-137340189D01*
X132795651Y-137142217D01*
X132729182Y-137017207D01*
X132701459Y-136965067D01*
X132701457Y-136965064D01*
X132698565Y-136959625D01*
X132694674Y-136954855D01*
X132694672Y-136954851D01*
X132571758Y-136804143D01*
X132571755Y-136804140D01*
X132567863Y-136799368D01*
X132560966Y-136793662D01*
X132413271Y-136671478D01*
X132413266Y-136671475D01*
X132408522Y-136667550D01*
X132403103Y-136664620D01*
X132403100Y-136664618D01*
X132232032Y-136572122D01*
X132232027Y-136572120D01*
X132226612Y-136569192D01*
X132029063Y-136508040D01*
X132022938Y-136507396D01*
X132022937Y-136507396D01*
X131829526Y-136487068D01*
X131829524Y-136487068D01*
X131823397Y-136486424D01*
X131697229Y-136497906D01*
X131623591Y-136504607D01*
X131623590Y-136504607D01*
X131617450Y-136505166D01*
X131419066Y-136563554D01*
X131413601Y-136566411D01*
X131241261Y-136656508D01*
X131241257Y-136656511D01*
X131235801Y-136659363D01*
X131074635Y-136788943D01*
X130941708Y-136947360D01*
X130842082Y-137128578D01*
X130779553Y-137325696D01*
X130756501Y-137531206D01*
X109601000Y-137531206D01*
X109601000Y-136459000D01*
X151727715Y-136459000D01*
X151728793Y-136467188D01*
X151742608Y-136572122D01*
X151746772Y-136603754D01*
X151802645Y-136738642D01*
X151891526Y-136854474D01*
X151898076Y-136859500D01*
X151898079Y-136859503D01*
X152000804Y-136938327D01*
X152007357Y-136943355D01*
X152142246Y-136999228D01*
X152287000Y-137018285D01*
X152295188Y-137017207D01*
X152423566Y-137000306D01*
X152431754Y-136999228D01*
X152566643Y-136943355D01*
X152573196Y-136938327D01*
X152675921Y-136859503D01*
X152675924Y-136859500D01*
X152682474Y-136854474D01*
X152771355Y-136738642D01*
X152827228Y-136603754D01*
X152831393Y-136572122D01*
X152845207Y-136467188D01*
X152846285Y-136459000D01*
X152827228Y-136314246D01*
X152771355Y-136179358D01*
X152682474Y-136063526D01*
X152675924Y-136058500D01*
X152675921Y-136058497D01*
X152573196Y-135979673D01*
X152573194Y-135979672D01*
X152566643Y-135974645D01*
X152431754Y-135918772D01*
X152287000Y-135899715D01*
X152278812Y-135900793D01*
X152150432Y-135917694D01*
X152150430Y-135917695D01*
X152142246Y-135918772D01*
X152094430Y-135938578D01*
X152014986Y-135971485D01*
X152014984Y-135971486D01*
X152007358Y-135974645D01*
X151985899Y-135991111D01*
X151910031Y-136049327D01*
X151891526Y-136063526D01*
X151802645Y-136179358D01*
X151746772Y-136314246D01*
X151727715Y-136459000D01*
X109601000Y-136459000D01*
X109601000Y-134991206D01*
X130756501Y-134991206D01*
X130757743Y-135006000D01*
X130772446Y-135181077D01*
X130773806Y-135197278D01*
X130830807Y-135396066D01*
X130833625Y-135401548D01*
X130833626Y-135401552D01*
X130922514Y-135574509D01*
X130922517Y-135574513D01*
X130925334Y-135579995D01*
X131053786Y-135742061D01*
X131058479Y-135746055D01*
X131058480Y-135746056D01*
X131171231Y-135842014D01*
X131211271Y-135876091D01*
X131391789Y-135976980D01*
X131588466Y-136040884D01*
X131793809Y-136065370D01*
X131799944Y-136064898D01*
X131799946Y-136064898D01*
X131993856Y-136049977D01*
X131993860Y-136049976D01*
X131999998Y-136049504D01*
X132199178Y-135993892D01*
X132204682Y-135991112D01*
X132204684Y-135991111D01*
X132378262Y-135903431D01*
X132378264Y-135903430D01*
X132383763Y-135900652D01*
X132546722Y-135773334D01*
X132550748Y-135768670D01*
X132550751Y-135768667D01*
X132677819Y-135621457D01*
X132677820Y-135621455D01*
X132681848Y-135616789D01*
X132783995Y-135436979D01*
X132849270Y-135240753D01*
X132875189Y-135035586D01*
X132875602Y-135006000D01*
X132874151Y-134991206D01*
X138376501Y-134991206D01*
X138377743Y-135006000D01*
X138392446Y-135181077D01*
X138393806Y-135197278D01*
X138450807Y-135396066D01*
X138453625Y-135401548D01*
X138453626Y-135401552D01*
X138542514Y-135574509D01*
X138542517Y-135574513D01*
X138545334Y-135579995D01*
X138673786Y-135742061D01*
X138678479Y-135746055D01*
X138678480Y-135746056D01*
X138791231Y-135842014D01*
X138831271Y-135876091D01*
X139011789Y-135976980D01*
X139208466Y-136040884D01*
X139413809Y-136065370D01*
X139419944Y-136064898D01*
X139419946Y-136064898D01*
X139613856Y-136049977D01*
X139613860Y-136049976D01*
X139619998Y-136049504D01*
X139819178Y-135993892D01*
X139824682Y-135991112D01*
X139824684Y-135991111D01*
X139998262Y-135903431D01*
X139998264Y-135903430D01*
X140003763Y-135900652D01*
X140166722Y-135773334D01*
X140170748Y-135768670D01*
X140170751Y-135768667D01*
X140297819Y-135621457D01*
X140297820Y-135621455D01*
X140301848Y-135616789D01*
X140328428Y-135570000D01*
X157380715Y-135570000D01*
X157399772Y-135714754D01*
X157455645Y-135849642D01*
X157544526Y-135965474D01*
X157551076Y-135970500D01*
X157551079Y-135970503D01*
X157640320Y-136038980D01*
X157660357Y-136054355D01*
X157795246Y-136110228D01*
X157940000Y-136129285D01*
X157948188Y-136128207D01*
X158076566Y-136111306D01*
X158084754Y-136110228D01*
X158219643Y-136054355D01*
X158239680Y-136038980D01*
X158328921Y-135970503D01*
X158328924Y-135970500D01*
X158335474Y-135965474D01*
X158424355Y-135849642D01*
X158480228Y-135714754D01*
X158499285Y-135570000D01*
X158496159Y-135546255D01*
X158481306Y-135433432D01*
X158481305Y-135433430D01*
X158480228Y-135425246D01*
X158424355Y-135290358D01*
X158335474Y-135174526D01*
X158328924Y-135169500D01*
X158328921Y-135169497D01*
X158226196Y-135090673D01*
X158226194Y-135090672D01*
X158219643Y-135085645D01*
X158084754Y-135029772D01*
X157940000Y-135010715D01*
X157931812Y-135011793D01*
X157803432Y-135028694D01*
X157803430Y-135028695D01*
X157795246Y-135029772D01*
X157781210Y-135035586D01*
X157667986Y-135082485D01*
X157667984Y-135082486D01*
X157660358Y-135085645D01*
X157576270Y-135150168D01*
X157563160Y-135160228D01*
X157544526Y-135174526D01*
X157455645Y-135290358D01*
X157399772Y-135425246D01*
X157398695Y-135433430D01*
X157398694Y-135433432D01*
X157383841Y-135546255D01*
X157380715Y-135570000D01*
X140328428Y-135570000D01*
X140403995Y-135436979D01*
X140469270Y-135240753D01*
X140495189Y-135035586D01*
X140495602Y-135006000D01*
X140475422Y-134800189D01*
X140421020Y-134620000D01*
X151713715Y-134620000D01*
X151732772Y-134764754D01*
X151788645Y-134899642D01*
X151793672Y-134906193D01*
X151858905Y-134991206D01*
X151877526Y-135015474D01*
X151884076Y-135020500D01*
X151884079Y-135020503D01*
X151975525Y-135090672D01*
X151993357Y-135104355D01*
X152128246Y-135160228D01*
X152273000Y-135179285D01*
X152281188Y-135178207D01*
X152309149Y-135174526D01*
X152417754Y-135160228D01*
X152552643Y-135104355D01*
X152570475Y-135090672D01*
X152661921Y-135020503D01*
X152661924Y-135020500D01*
X152668474Y-135015474D01*
X152687096Y-134991206D01*
X152752328Y-134906193D01*
X152757355Y-134899642D01*
X152813228Y-134764754D01*
X152832285Y-134620000D01*
X152813228Y-134475246D01*
X152787346Y-134412761D01*
X152760515Y-134347986D01*
X152760514Y-134347984D01*
X152757355Y-134340358D01*
X152695209Y-134259368D01*
X152673501Y-134231077D01*
X152673500Y-134231076D01*
X152668474Y-134224526D01*
X152661924Y-134219500D01*
X152661921Y-134219497D01*
X152559196Y-134140673D01*
X152559194Y-134140672D01*
X152552643Y-134135645D01*
X152417754Y-134079772D01*
X152273000Y-134060715D01*
X152264812Y-134061793D01*
X152136432Y-134078694D01*
X152136430Y-134078695D01*
X152128246Y-134079772D01*
X152119664Y-134083327D01*
X152000986Y-134132485D01*
X152000984Y-134132486D01*
X151993358Y-134135645D01*
X151877526Y-134224526D01*
X151788645Y-134340358D01*
X151785486Y-134347984D01*
X151785485Y-134347986D01*
X151758654Y-134412761D01*
X151732772Y-134475246D01*
X151713715Y-134620000D01*
X140421020Y-134620000D01*
X140415651Y-134602217D01*
X140348139Y-134475246D01*
X140321459Y-134425067D01*
X140321457Y-134425064D01*
X140318565Y-134419625D01*
X140314674Y-134414855D01*
X140314672Y-134414851D01*
X140191758Y-134264143D01*
X140191755Y-134264140D01*
X140187863Y-134259368D01*
X140180966Y-134253662D01*
X140033271Y-134131478D01*
X140033266Y-134131475D01*
X140028522Y-134127550D01*
X140023103Y-134124620D01*
X140023100Y-134124618D01*
X139852032Y-134032122D01*
X139852027Y-134032120D01*
X139846612Y-134029192D01*
X139649063Y-133968040D01*
X139642938Y-133967396D01*
X139642937Y-133967396D01*
X139449526Y-133947068D01*
X139449524Y-133947068D01*
X139443397Y-133946424D01*
X139317229Y-133957906D01*
X139243591Y-133964607D01*
X139243590Y-133964607D01*
X139237450Y-133965166D01*
X139039066Y-134023554D01*
X139033601Y-134026411D01*
X138861261Y-134116508D01*
X138861257Y-134116511D01*
X138855801Y-134119363D01*
X138694635Y-134248943D01*
X138561708Y-134407360D01*
X138462082Y-134588578D01*
X138399553Y-134785696D01*
X138376501Y-134991206D01*
X132874151Y-134991206D01*
X132855422Y-134800189D01*
X132795651Y-134602217D01*
X132728139Y-134475246D01*
X132701459Y-134425067D01*
X132701457Y-134425064D01*
X132698565Y-134419625D01*
X132694674Y-134414855D01*
X132694672Y-134414851D01*
X132571758Y-134264143D01*
X132571755Y-134264140D01*
X132567863Y-134259368D01*
X132560966Y-134253662D01*
X132413271Y-134131478D01*
X132413266Y-134131475D01*
X132408522Y-134127550D01*
X132403103Y-134124620D01*
X132403100Y-134124618D01*
X132232032Y-134032122D01*
X132232027Y-134032120D01*
X132226612Y-134029192D01*
X132029063Y-133968040D01*
X132022938Y-133967396D01*
X132022937Y-133967396D01*
X131829526Y-133947068D01*
X131829524Y-133947068D01*
X131823397Y-133946424D01*
X131697229Y-133957906D01*
X131623591Y-133964607D01*
X131623590Y-133964607D01*
X131617450Y-133965166D01*
X131419066Y-134023554D01*
X131413601Y-134026411D01*
X131241261Y-134116508D01*
X131241257Y-134116511D01*
X131235801Y-134119363D01*
X131074635Y-134248943D01*
X130941708Y-134407360D01*
X130842082Y-134588578D01*
X130779553Y-134785696D01*
X130756501Y-134991206D01*
X109601000Y-134991206D01*
X109601000Y-133604000D01*
X126440715Y-133604000D01*
X126459772Y-133748754D01*
X126515645Y-133883642D01*
X126520672Y-133890193D01*
X126578201Y-133965166D01*
X126604526Y-133999474D01*
X126611076Y-134004500D01*
X126611079Y-134004503D01*
X126713804Y-134083327D01*
X126720357Y-134088355D01*
X126855246Y-134144228D01*
X127000000Y-134163285D01*
X127008188Y-134162207D01*
X127136566Y-134145306D01*
X127144754Y-134144228D01*
X127279643Y-134088355D01*
X127286196Y-134083327D01*
X127388921Y-134004503D01*
X127388924Y-134004500D01*
X127395474Y-133999474D01*
X127421800Y-133965166D01*
X127479328Y-133890193D01*
X127484355Y-133883642D01*
X127540228Y-133748754D01*
X127559285Y-133604000D01*
X127540228Y-133459246D01*
X127484355Y-133324358D01*
X127439915Y-133266442D01*
X127400501Y-133215077D01*
X127400500Y-133215076D01*
X127395474Y-133208526D01*
X127388924Y-133203500D01*
X127388921Y-133203497D01*
X127286196Y-133124673D01*
X127286194Y-133124672D01*
X127279643Y-133119645D01*
X127144754Y-133063772D01*
X127000000Y-133044715D01*
X126991812Y-133045793D01*
X126863432Y-133062694D01*
X126863430Y-133062695D01*
X126855246Y-133063772D01*
X126812551Y-133081457D01*
X126727986Y-133116485D01*
X126727984Y-133116486D01*
X126720358Y-133119645D01*
X126604526Y-133208526D01*
X126515645Y-133324358D01*
X126459772Y-133459246D01*
X126440715Y-133604000D01*
X109601000Y-133604000D01*
X109601000Y-132651000D01*
X118375715Y-132651000D01*
X118394772Y-132795754D01*
X118397931Y-132803380D01*
X118417320Y-132850188D01*
X118450645Y-132930642D01*
X118539526Y-133046474D01*
X118546076Y-133051500D01*
X118546079Y-133051503D01*
X118641436Y-133124673D01*
X118655357Y-133135355D01*
X118790246Y-133191228D01*
X118935000Y-133210285D01*
X118943188Y-133209207D01*
X118986561Y-133203497D01*
X119079754Y-133191228D01*
X119214643Y-133135355D01*
X119228564Y-133124673D01*
X119323921Y-133051503D01*
X119323924Y-133051500D01*
X119330474Y-133046474D01*
X119419355Y-132930642D01*
X119452681Y-132850188D01*
X119472069Y-132803380D01*
X119475228Y-132795754D01*
X119494285Y-132651000D01*
X119491159Y-132627255D01*
X119476306Y-132514432D01*
X119476305Y-132514430D01*
X119475228Y-132506246D01*
X119452429Y-132451206D01*
X130756501Y-132451206D01*
X130773806Y-132657278D01*
X130830807Y-132856066D01*
X130833625Y-132861548D01*
X130833626Y-132861552D01*
X130922514Y-133034509D01*
X130922517Y-133034513D01*
X130925334Y-133039995D01*
X131053786Y-133202061D01*
X131058479Y-133206055D01*
X131058480Y-133206056D01*
X131206448Y-133331986D01*
X131211271Y-133336091D01*
X131391789Y-133436980D01*
X131588466Y-133500884D01*
X131793809Y-133525370D01*
X131799944Y-133524898D01*
X131799946Y-133524898D01*
X131993856Y-133509977D01*
X131993860Y-133509976D01*
X131999998Y-133509504D01*
X132199178Y-133453892D01*
X132204682Y-133451112D01*
X132204684Y-133451111D01*
X132378262Y-133363431D01*
X132378264Y-133363430D01*
X132383763Y-133360652D01*
X132546722Y-133233334D01*
X132550748Y-133228670D01*
X132550751Y-133228667D01*
X132677819Y-133081457D01*
X132677820Y-133081455D01*
X132681848Y-133076789D01*
X132783995Y-132896979D01*
X132849270Y-132700753D01*
X132875189Y-132495586D01*
X132875602Y-132466000D01*
X132874151Y-132451206D01*
X138376501Y-132451206D01*
X138393806Y-132657278D01*
X138450807Y-132856066D01*
X138453625Y-132861548D01*
X138453626Y-132861552D01*
X138542514Y-133034509D01*
X138542517Y-133034513D01*
X138545334Y-133039995D01*
X138673786Y-133202061D01*
X138678479Y-133206055D01*
X138678480Y-133206056D01*
X138826448Y-133331986D01*
X138831271Y-133336091D01*
X139011789Y-133436980D01*
X139208466Y-133500884D01*
X139413809Y-133525370D01*
X139419944Y-133524898D01*
X139419946Y-133524898D01*
X139613856Y-133509977D01*
X139613860Y-133509976D01*
X139619998Y-133509504D01*
X139819178Y-133453892D01*
X139824682Y-133451112D01*
X139824684Y-133451111D01*
X139998262Y-133363431D01*
X139998264Y-133363430D01*
X140003763Y-133360652D01*
X140166722Y-133233334D01*
X140170748Y-133228670D01*
X140170751Y-133228667D01*
X140297819Y-133081457D01*
X140297820Y-133081455D01*
X140301848Y-133076789D01*
X140403995Y-132896979D01*
X140422284Y-132842000D01*
X156412715Y-132842000D01*
X156413793Y-132850188D01*
X156423381Y-132923014D01*
X156431772Y-132986754D01*
X156434931Y-132994380D01*
X156471000Y-133081457D01*
X156487645Y-133121642D01*
X156500592Y-133138515D01*
X156550455Y-133203497D01*
X156576526Y-133237474D01*
X156583076Y-133242500D01*
X156583079Y-133242503D01*
X156681217Y-133317807D01*
X156692357Y-133326355D01*
X156827246Y-133382228D01*
X156972000Y-133401285D01*
X156980188Y-133400207D01*
X157108566Y-133383306D01*
X157116754Y-133382228D01*
X157251643Y-133326355D01*
X157262783Y-133317807D01*
X157360921Y-133242503D01*
X157360924Y-133242500D01*
X157367474Y-133237474D01*
X157393546Y-133203497D01*
X157443408Y-133138515D01*
X157456355Y-133121642D01*
X157473001Y-133081457D01*
X157509069Y-132994380D01*
X157512228Y-132986754D01*
X157520620Y-132923014D01*
X157530207Y-132850188D01*
X157531285Y-132842000D01*
X157512228Y-132697246D01*
X157492422Y-132649430D01*
X157459515Y-132569986D01*
X157459514Y-132569984D01*
X157456355Y-132562358D01*
X157402415Y-132492062D01*
X157372501Y-132453077D01*
X157372500Y-132453076D01*
X157367474Y-132446526D01*
X157360924Y-132441500D01*
X157360921Y-132441497D01*
X157258196Y-132362673D01*
X157258194Y-132362672D01*
X157251643Y-132357645D01*
X157116754Y-132301772D01*
X156972000Y-132282715D01*
X156963812Y-132283793D01*
X156835432Y-132300694D01*
X156835430Y-132300695D01*
X156827246Y-132301772D01*
X156779430Y-132321578D01*
X156699986Y-132354485D01*
X156699984Y-132354486D01*
X156692358Y-132357645D01*
X156576526Y-132446526D01*
X156571503Y-132453072D01*
X156561583Y-132466000D01*
X156487645Y-132562358D01*
X156484486Y-132569984D01*
X156484485Y-132569986D01*
X156451578Y-132649430D01*
X156431772Y-132697246D01*
X156412715Y-132842000D01*
X140422284Y-132842000D01*
X140469270Y-132700753D01*
X140495189Y-132495586D01*
X140495602Y-132466000D01*
X140475422Y-132260189D01*
X140415651Y-132062217D01*
X140318565Y-131879625D01*
X140314674Y-131874855D01*
X140314672Y-131874851D01*
X140191758Y-131724143D01*
X140191755Y-131724140D01*
X140187863Y-131719368D01*
X140180966Y-131713662D01*
X140033271Y-131591478D01*
X140033266Y-131591475D01*
X140028522Y-131587550D01*
X140023103Y-131584620D01*
X140023100Y-131584618D01*
X139852032Y-131492122D01*
X139852027Y-131492120D01*
X139846612Y-131489192D01*
X139649063Y-131428040D01*
X139642938Y-131427396D01*
X139642937Y-131427396D01*
X139449526Y-131407068D01*
X139449524Y-131407068D01*
X139443397Y-131406424D01*
X139317229Y-131417906D01*
X139243591Y-131424607D01*
X139243590Y-131424607D01*
X139237450Y-131425166D01*
X139039066Y-131483554D01*
X139033601Y-131486411D01*
X138861261Y-131576508D01*
X138861257Y-131576511D01*
X138855801Y-131579363D01*
X138694635Y-131708943D01*
X138561708Y-131867360D01*
X138462082Y-132048578D01*
X138399553Y-132245696D01*
X138398867Y-132251813D01*
X138398866Y-132251817D01*
X138384602Y-132378986D01*
X138376501Y-132451206D01*
X132874151Y-132451206D01*
X132855422Y-132260189D01*
X132795651Y-132062217D01*
X132698565Y-131879625D01*
X132694674Y-131874855D01*
X132694672Y-131874851D01*
X132571758Y-131724143D01*
X132571755Y-131724140D01*
X132567863Y-131719368D01*
X132560966Y-131713662D01*
X132413271Y-131591478D01*
X132413266Y-131591475D01*
X132408522Y-131587550D01*
X132403103Y-131584620D01*
X132403100Y-131584618D01*
X132232032Y-131492122D01*
X132232027Y-131492120D01*
X132226612Y-131489192D01*
X132029063Y-131428040D01*
X132022938Y-131427396D01*
X132022937Y-131427396D01*
X131829526Y-131407068D01*
X131829524Y-131407068D01*
X131823397Y-131406424D01*
X131697229Y-131417906D01*
X131623591Y-131424607D01*
X131623590Y-131424607D01*
X131617450Y-131425166D01*
X131419066Y-131483554D01*
X131413601Y-131486411D01*
X131241261Y-131576508D01*
X131241257Y-131576511D01*
X131235801Y-131579363D01*
X131074635Y-131708943D01*
X130941708Y-131867360D01*
X130842082Y-132048578D01*
X130779553Y-132245696D01*
X130778867Y-132251813D01*
X130778866Y-132251817D01*
X130764602Y-132378986D01*
X130756501Y-132451206D01*
X119452429Y-132451206D01*
X119419355Y-132371358D01*
X119330474Y-132255526D01*
X119323924Y-132250500D01*
X119323921Y-132250497D01*
X119221196Y-132171673D01*
X119221194Y-132171672D01*
X119214643Y-132166645D01*
X119079754Y-132110772D01*
X118935000Y-132091715D01*
X118926812Y-132092793D01*
X118798432Y-132109694D01*
X118798430Y-132109695D01*
X118790246Y-132110772D01*
X118742430Y-132130578D01*
X118662986Y-132163485D01*
X118662984Y-132163486D01*
X118655358Y-132166645D01*
X118539526Y-132255526D01*
X118450645Y-132371358D01*
X118394772Y-132506246D01*
X118393695Y-132514430D01*
X118393694Y-132514432D01*
X118378841Y-132627255D01*
X118375715Y-132651000D01*
X109601000Y-132651000D01*
X109601000Y-129911206D01*
X130756501Y-129911206D01*
X130773806Y-130117278D01*
X130830807Y-130316066D01*
X130833625Y-130321548D01*
X130833626Y-130321552D01*
X130922514Y-130494509D01*
X130922517Y-130494513D01*
X130925334Y-130499995D01*
X131053786Y-130662061D01*
X131211271Y-130796091D01*
X131391789Y-130896980D01*
X131588466Y-130960884D01*
X131793809Y-130985370D01*
X131799944Y-130984898D01*
X131799946Y-130984898D01*
X131993856Y-130969977D01*
X131993860Y-130969976D01*
X131999998Y-130969504D01*
X132199178Y-130913892D01*
X132204682Y-130911112D01*
X132204684Y-130911111D01*
X132378262Y-130823431D01*
X132378264Y-130823430D01*
X132383763Y-130820652D01*
X132546722Y-130693334D01*
X132550748Y-130688670D01*
X132550751Y-130688667D01*
X132677819Y-130541457D01*
X132677820Y-130541455D01*
X132681848Y-130536789D01*
X132783995Y-130356979D01*
X132849270Y-130160753D01*
X132875189Y-129955586D01*
X132875602Y-129926000D01*
X132874151Y-129911206D01*
X138376501Y-129911206D01*
X138393806Y-130117278D01*
X138450807Y-130316066D01*
X138453625Y-130321548D01*
X138453626Y-130321552D01*
X138542514Y-130494509D01*
X138542517Y-130494513D01*
X138545334Y-130499995D01*
X138673786Y-130662061D01*
X138831271Y-130796091D01*
X139011789Y-130896980D01*
X139208466Y-130960884D01*
X139413809Y-130985370D01*
X139419944Y-130984898D01*
X139419946Y-130984898D01*
X139613856Y-130969977D01*
X139613860Y-130969976D01*
X139619998Y-130969504D01*
X139819178Y-130913892D01*
X139824682Y-130911112D01*
X139824684Y-130911111D01*
X139998262Y-130823431D01*
X139998264Y-130823430D01*
X140003763Y-130820652D01*
X140166722Y-130693334D01*
X140170748Y-130688670D01*
X140170751Y-130688667D01*
X140297819Y-130541457D01*
X140297820Y-130541455D01*
X140301848Y-130536789D01*
X140403995Y-130356979D01*
X140469270Y-130160753D01*
X140495189Y-129955586D01*
X140495602Y-129926000D01*
X140475422Y-129720189D01*
X140415651Y-129522217D01*
X140343338Y-129386216D01*
X140321459Y-129345067D01*
X140321457Y-129345064D01*
X140318565Y-129339625D01*
X140314674Y-129334855D01*
X140314672Y-129334851D01*
X140191758Y-129184143D01*
X140191755Y-129184140D01*
X140187863Y-129179368D01*
X140180966Y-129173662D01*
X140033271Y-129051478D01*
X140033266Y-129051475D01*
X140028522Y-129047550D01*
X140023103Y-129044620D01*
X140023100Y-129044618D01*
X139852032Y-128952122D01*
X139852027Y-128952120D01*
X139846612Y-128949192D01*
X139649063Y-128888040D01*
X139642938Y-128887396D01*
X139642937Y-128887396D01*
X139449526Y-128867068D01*
X139449524Y-128867068D01*
X139443397Y-128866424D01*
X139317229Y-128877906D01*
X139243591Y-128884607D01*
X139243590Y-128884607D01*
X139237450Y-128885166D01*
X139039066Y-128943554D01*
X139033601Y-128946411D01*
X138861261Y-129036508D01*
X138861257Y-129036511D01*
X138855801Y-129039363D01*
X138694635Y-129168943D01*
X138561708Y-129327360D01*
X138462082Y-129508578D01*
X138399553Y-129705696D01*
X138376501Y-129911206D01*
X132874151Y-129911206D01*
X132855422Y-129720189D01*
X132795651Y-129522217D01*
X132723338Y-129386216D01*
X132701459Y-129345067D01*
X132701457Y-129345064D01*
X132698565Y-129339625D01*
X132694674Y-129334855D01*
X132694672Y-129334851D01*
X132571758Y-129184143D01*
X132571755Y-129184140D01*
X132567863Y-129179368D01*
X132560966Y-129173662D01*
X132413271Y-129051478D01*
X132413266Y-129051475D01*
X132408522Y-129047550D01*
X132403103Y-129044620D01*
X132403100Y-129044618D01*
X132232032Y-128952122D01*
X132232027Y-128952120D01*
X132226612Y-128949192D01*
X132029063Y-128888040D01*
X132022938Y-128887396D01*
X132022937Y-128887396D01*
X131829526Y-128867068D01*
X131829524Y-128867068D01*
X131823397Y-128866424D01*
X131697229Y-128877906D01*
X131623591Y-128884607D01*
X131623590Y-128884607D01*
X131617450Y-128885166D01*
X131419066Y-128943554D01*
X131413601Y-128946411D01*
X131241261Y-129036508D01*
X131241257Y-129036511D01*
X131235801Y-129039363D01*
X131074635Y-129168943D01*
X130941708Y-129327360D01*
X130842082Y-129508578D01*
X130779553Y-129705696D01*
X130756501Y-129911206D01*
X109601000Y-129911206D01*
X109601000Y-128828009D01*
X119516709Y-128828009D01*
X119517787Y-128836197D01*
X119533049Y-128952122D01*
X119535766Y-128972763D01*
X119538925Y-128980389D01*
X119578080Y-129074916D01*
X119591639Y-129107651D01*
X119680520Y-129223483D01*
X119687070Y-129228509D01*
X119687073Y-129228512D01*
X119789798Y-129307336D01*
X119796351Y-129312364D01*
X119931240Y-129368237D01*
X120075994Y-129387294D01*
X120084182Y-129386216D01*
X120212560Y-129369315D01*
X120220748Y-129368237D01*
X120355637Y-129312364D01*
X120362190Y-129307336D01*
X120464915Y-129228512D01*
X120464918Y-129228509D01*
X120471468Y-129223483D01*
X120560349Y-129107651D01*
X120573909Y-129074916D01*
X120613063Y-128980389D01*
X120616222Y-128972763D01*
X120618940Y-128952122D01*
X120634201Y-128836197D01*
X120635279Y-128828009D01*
X120629195Y-128781798D01*
X120617300Y-128691441D01*
X120617299Y-128691439D01*
X120616222Y-128683255D01*
X120560349Y-128548367D01*
X120504736Y-128475891D01*
X120485710Y-128451096D01*
X155370729Y-128451096D01*
X155388113Y-128608553D01*
X155390723Y-128615684D01*
X155390723Y-128615686D01*
X155415450Y-128683255D01*
X155442553Y-128757319D01*
X155446789Y-128763622D01*
X155446789Y-128763623D01*
X155515869Y-128866424D01*
X155530908Y-128888805D01*
X155536527Y-128893918D01*
X155536528Y-128893919D01*
X155597273Y-128949192D01*
X155648076Y-128995419D01*
X155787293Y-129071008D01*
X155940522Y-129111207D01*
X156024477Y-129112526D01*
X156091319Y-129113576D01*
X156091322Y-129113576D01*
X156098916Y-129113695D01*
X156253332Y-129078329D01*
X156336485Y-129036508D01*
X156388072Y-129010563D01*
X156388075Y-129010561D01*
X156394855Y-129007151D01*
X156400626Y-129002222D01*
X156400629Y-129002220D01*
X156509536Y-128909204D01*
X156509536Y-128909203D01*
X156515314Y-128904269D01*
X156607755Y-128775624D01*
X156666842Y-128628641D01*
X156689162Y-128471807D01*
X156689307Y-128458000D01*
X156670276Y-128300733D01*
X156614280Y-128152546D01*
X156524553Y-128021992D01*
X156406275Y-127916611D01*
X156398889Y-127912700D01*
X156272988Y-127846039D01*
X156272989Y-127846039D01*
X156266274Y-127842484D01*
X156112633Y-127803892D01*
X156105034Y-127803852D01*
X156105033Y-127803852D01*
X156039181Y-127803507D01*
X155954221Y-127803062D01*
X155946841Y-127804834D01*
X155946839Y-127804834D01*
X155807563Y-127838271D01*
X155807560Y-127838272D01*
X155800184Y-127840043D01*
X155659414Y-127912700D01*
X155540039Y-128016838D01*
X155448950Y-128146444D01*
X155443802Y-128159649D01*
X155396625Y-128280652D01*
X155391406Y-128294037D01*
X155390414Y-128301570D01*
X155390414Y-128301571D01*
X155372311Y-128439081D01*
X155370729Y-128451096D01*
X120485710Y-128451096D01*
X120476495Y-128439086D01*
X120476494Y-128439085D01*
X120471468Y-128432535D01*
X120464918Y-128427509D01*
X120464915Y-128427506D01*
X120362190Y-128348682D01*
X120362188Y-128348681D01*
X120355637Y-128343654D01*
X120220748Y-128287781D01*
X120075994Y-128268724D01*
X120067806Y-128269802D01*
X119939426Y-128286703D01*
X119939424Y-128286704D01*
X119931240Y-128287781D01*
X119897948Y-128301571D01*
X119803980Y-128340494D01*
X119803978Y-128340495D01*
X119796352Y-128343654D01*
X119680520Y-128432535D01*
X119675497Y-128439081D01*
X119670671Y-128445370D01*
X119591639Y-128548367D01*
X119535766Y-128683255D01*
X119534689Y-128691439D01*
X119534688Y-128691441D01*
X119522793Y-128781798D01*
X119516709Y-128828009D01*
X109601000Y-128828009D01*
X109601000Y-127371206D01*
X130756501Y-127371206D01*
X130773806Y-127577278D01*
X130830807Y-127776066D01*
X130833625Y-127781548D01*
X130833626Y-127781552D01*
X130922514Y-127954509D01*
X130922517Y-127954513D01*
X130925334Y-127959995D01*
X131053786Y-128122061D01*
X131211271Y-128256091D01*
X131391789Y-128356980D01*
X131588466Y-128420884D01*
X131793809Y-128445370D01*
X131799944Y-128444898D01*
X131799946Y-128444898D01*
X131993856Y-128429977D01*
X131993860Y-128429976D01*
X131999998Y-128429504D01*
X132199178Y-128373892D01*
X132204682Y-128371112D01*
X132204684Y-128371111D01*
X132378262Y-128283431D01*
X132378264Y-128283430D01*
X132383763Y-128280652D01*
X132546722Y-128153334D01*
X132550748Y-128148670D01*
X132550751Y-128148667D01*
X132677819Y-128001457D01*
X132677820Y-128001455D01*
X132681848Y-127996789D01*
X132767487Y-127846039D01*
X132780950Y-127822340D01*
X132780952Y-127822336D01*
X132783995Y-127816979D01*
X132849270Y-127620753D01*
X132875189Y-127415586D01*
X132875602Y-127386000D01*
X132874151Y-127371206D01*
X138376501Y-127371206D01*
X138393806Y-127577278D01*
X138450807Y-127776066D01*
X138453625Y-127781548D01*
X138453626Y-127781552D01*
X138542514Y-127954509D01*
X138542517Y-127954513D01*
X138545334Y-127959995D01*
X138673786Y-128122061D01*
X138831271Y-128256091D01*
X139011789Y-128356980D01*
X139208466Y-128420884D01*
X139413809Y-128445370D01*
X139419944Y-128444898D01*
X139419946Y-128444898D01*
X139613856Y-128429977D01*
X139613860Y-128429976D01*
X139619998Y-128429504D01*
X139819178Y-128373892D01*
X139824682Y-128371112D01*
X139824684Y-128371111D01*
X139998262Y-128283431D01*
X139998264Y-128283430D01*
X140003763Y-128280652D01*
X140166722Y-128153334D01*
X140170748Y-128148670D01*
X140170751Y-128148667D01*
X140297819Y-128001457D01*
X140297820Y-128001455D01*
X140301848Y-127996789D01*
X140387487Y-127846039D01*
X140400950Y-127822340D01*
X140400952Y-127822336D01*
X140403995Y-127816979D01*
X140469270Y-127620753D01*
X140495189Y-127415586D01*
X140495602Y-127386000D01*
X140475422Y-127180189D01*
X140415651Y-126982217D01*
X140318565Y-126799625D01*
X140314674Y-126794855D01*
X140314672Y-126794851D01*
X140191758Y-126644143D01*
X140191755Y-126644140D01*
X140187863Y-126639368D01*
X140180966Y-126633662D01*
X140033271Y-126511478D01*
X140033266Y-126511475D01*
X140028522Y-126507550D01*
X140023103Y-126504620D01*
X140023100Y-126504618D01*
X139852032Y-126412122D01*
X139852027Y-126412120D01*
X139846612Y-126409192D01*
X139649063Y-126348040D01*
X139642938Y-126347396D01*
X139642937Y-126347396D01*
X139449526Y-126327068D01*
X139449524Y-126327068D01*
X139443397Y-126326424D01*
X139317229Y-126337906D01*
X139243591Y-126344607D01*
X139243590Y-126344607D01*
X139237450Y-126345166D01*
X139039066Y-126403554D01*
X139033601Y-126406411D01*
X138861261Y-126496508D01*
X138861257Y-126496511D01*
X138855801Y-126499363D01*
X138694635Y-126628943D01*
X138561708Y-126787360D01*
X138462082Y-126968578D01*
X138399553Y-127165696D01*
X138376501Y-127371206D01*
X132874151Y-127371206D01*
X132855422Y-127180189D01*
X132795651Y-126982217D01*
X132698565Y-126799625D01*
X132694674Y-126794855D01*
X132694672Y-126794851D01*
X132571758Y-126644143D01*
X132571755Y-126644140D01*
X132567863Y-126639368D01*
X132560966Y-126633662D01*
X132413271Y-126511478D01*
X132413266Y-126511475D01*
X132408522Y-126507550D01*
X132403103Y-126504620D01*
X132403100Y-126504618D01*
X132232032Y-126412122D01*
X132232027Y-126412120D01*
X132226612Y-126409192D01*
X132029063Y-126348040D01*
X132022938Y-126347396D01*
X132022937Y-126347396D01*
X131829526Y-126327068D01*
X131829524Y-126327068D01*
X131823397Y-126326424D01*
X131697229Y-126337906D01*
X131623591Y-126344607D01*
X131623590Y-126344607D01*
X131617450Y-126345166D01*
X131419066Y-126403554D01*
X131413601Y-126406411D01*
X131241261Y-126496508D01*
X131241257Y-126496511D01*
X131235801Y-126499363D01*
X131074635Y-126628943D01*
X130941708Y-126787360D01*
X130842082Y-126968578D01*
X130779553Y-127165696D01*
X130756501Y-127371206D01*
X109601000Y-127371206D01*
X109601000Y-124831206D01*
X130756501Y-124831206D01*
X130773806Y-125037278D01*
X130830807Y-125236066D01*
X130833625Y-125241548D01*
X130833626Y-125241552D01*
X130922514Y-125414509D01*
X130922517Y-125414513D01*
X130925334Y-125419995D01*
X131053786Y-125582061D01*
X131211271Y-125716091D01*
X131391789Y-125816980D01*
X131588466Y-125880884D01*
X131793809Y-125905370D01*
X131799944Y-125904898D01*
X131799946Y-125904898D01*
X131993856Y-125889977D01*
X131993860Y-125889976D01*
X131999998Y-125889504D01*
X132199178Y-125833892D01*
X132204682Y-125831112D01*
X132204684Y-125831111D01*
X132378262Y-125743431D01*
X132378264Y-125743430D01*
X132383763Y-125740652D01*
X132546722Y-125613334D01*
X132550748Y-125608670D01*
X132550751Y-125608667D01*
X132677819Y-125461457D01*
X132677820Y-125461455D01*
X132681848Y-125456789D01*
X132783995Y-125276979D01*
X132849270Y-125080753D01*
X132875189Y-124875586D01*
X132875602Y-124846000D01*
X132874151Y-124831206D01*
X138376501Y-124831206D01*
X138393806Y-125037278D01*
X138450807Y-125236066D01*
X138453625Y-125241548D01*
X138453626Y-125241552D01*
X138542514Y-125414509D01*
X138542517Y-125414513D01*
X138545334Y-125419995D01*
X138673786Y-125582061D01*
X138831271Y-125716091D01*
X139011789Y-125816980D01*
X139208466Y-125880884D01*
X139413809Y-125905370D01*
X139419944Y-125904898D01*
X139419946Y-125904898D01*
X139613856Y-125889977D01*
X139613860Y-125889976D01*
X139619998Y-125889504D01*
X139819178Y-125833892D01*
X139824682Y-125831112D01*
X139824684Y-125831111D01*
X139998262Y-125743431D01*
X139998264Y-125743430D01*
X140003763Y-125740652D01*
X140166722Y-125613334D01*
X140170748Y-125608670D01*
X140170751Y-125608667D01*
X140297819Y-125461457D01*
X140297820Y-125461455D01*
X140301848Y-125456789D01*
X140403995Y-125276979D01*
X140469270Y-125080753D01*
X140495189Y-124875586D01*
X140495602Y-124846000D01*
X140475422Y-124640189D01*
X140415651Y-124442217D01*
X140353578Y-124325474D01*
X140321459Y-124265067D01*
X140321457Y-124265064D01*
X140318565Y-124259625D01*
X140314674Y-124254855D01*
X140314672Y-124254851D01*
X140191758Y-124104143D01*
X140191755Y-124104140D01*
X140187863Y-124099368D01*
X140180966Y-124093662D01*
X140033271Y-123971478D01*
X140033266Y-123971475D01*
X140028522Y-123967550D01*
X140023103Y-123964620D01*
X140023100Y-123964618D01*
X139999763Y-123952000D01*
X151840715Y-123952000D01*
X151841793Y-123960188D01*
X151858236Y-124085084D01*
X151859772Y-124096754D01*
X151862931Y-124104380D01*
X151909246Y-124216193D01*
X151915645Y-124231642D01*
X152004526Y-124347474D01*
X152011076Y-124352500D01*
X152011079Y-124352503D01*
X152113804Y-124431327D01*
X152120357Y-124436355D01*
X152255246Y-124492228D01*
X152400000Y-124511285D01*
X152408188Y-124510207D01*
X152536566Y-124493306D01*
X152544754Y-124492228D01*
X152679643Y-124436355D01*
X152686196Y-124431327D01*
X152788921Y-124352503D01*
X152788924Y-124352500D01*
X152795474Y-124347474D01*
X152884355Y-124231642D01*
X152890755Y-124216193D01*
X152937069Y-124104380D01*
X152940228Y-124096754D01*
X152941765Y-124085084D01*
X152958207Y-123960188D01*
X152959285Y-123952000D01*
X152948383Y-123869192D01*
X152941306Y-123815432D01*
X152941305Y-123815430D01*
X152940228Y-123807246D01*
X152884355Y-123672358D01*
X152795474Y-123556526D01*
X152788924Y-123551500D01*
X152788921Y-123551497D01*
X152686196Y-123472673D01*
X152686194Y-123472672D01*
X152679643Y-123467645D01*
X152544754Y-123411772D01*
X152400000Y-123392715D01*
X152391812Y-123393793D01*
X152263432Y-123410694D01*
X152263430Y-123410695D01*
X152255246Y-123411772D01*
X152207430Y-123431578D01*
X152127986Y-123464485D01*
X152127984Y-123464486D01*
X152120358Y-123467645D01*
X152039751Y-123529497D01*
X152024660Y-123541077D01*
X152004526Y-123556526D01*
X151915645Y-123672358D01*
X151859772Y-123807246D01*
X151858695Y-123815430D01*
X151858694Y-123815432D01*
X151851617Y-123869192D01*
X151840715Y-123952000D01*
X139999763Y-123952000D01*
X139852032Y-123872122D01*
X139852027Y-123872120D01*
X139846612Y-123869192D01*
X139649063Y-123808040D01*
X139642938Y-123807396D01*
X139642937Y-123807396D01*
X139449526Y-123787068D01*
X139449524Y-123787068D01*
X139443397Y-123786424D01*
X139317229Y-123797906D01*
X139243591Y-123804607D01*
X139243590Y-123804607D01*
X139237450Y-123805166D01*
X139039066Y-123863554D01*
X139033601Y-123866411D01*
X138861261Y-123956508D01*
X138861257Y-123956511D01*
X138855801Y-123959363D01*
X138694635Y-124088943D01*
X138561708Y-124247360D01*
X138462082Y-124428578D01*
X138399553Y-124625696D01*
X138376501Y-124831206D01*
X132874151Y-124831206D01*
X132855422Y-124640189D01*
X132795651Y-124442217D01*
X132733578Y-124325474D01*
X132701459Y-124265067D01*
X132701457Y-124265064D01*
X132698565Y-124259625D01*
X132694674Y-124254855D01*
X132694672Y-124254851D01*
X132571758Y-124104143D01*
X132571755Y-124104140D01*
X132567863Y-124099368D01*
X132560966Y-124093662D01*
X132413271Y-123971478D01*
X132413266Y-123971475D01*
X132408522Y-123967550D01*
X132403103Y-123964620D01*
X132403100Y-123964618D01*
X132232032Y-123872122D01*
X132232027Y-123872120D01*
X132226612Y-123869192D01*
X132029063Y-123808040D01*
X132022938Y-123807396D01*
X132022937Y-123807396D01*
X131829526Y-123787068D01*
X131829524Y-123787068D01*
X131823397Y-123786424D01*
X131697229Y-123797906D01*
X131623591Y-123804607D01*
X131623590Y-123804607D01*
X131617450Y-123805166D01*
X131419066Y-123863554D01*
X131413601Y-123866411D01*
X131241261Y-123956508D01*
X131241257Y-123956511D01*
X131235801Y-123959363D01*
X131074635Y-124088943D01*
X130941708Y-124247360D01*
X130842082Y-124428578D01*
X130779553Y-124625696D01*
X130756501Y-124831206D01*
X109601000Y-124831206D01*
X109601000Y-123930000D01*
X114060715Y-123930000D01*
X114079772Y-124074754D01*
X114135645Y-124209642D01*
X114224526Y-124325474D01*
X114231076Y-124330500D01*
X114231079Y-124330503D01*
X114333804Y-124409327D01*
X114340357Y-124414355D01*
X114475246Y-124470228D01*
X114620000Y-124489285D01*
X114628188Y-124488207D01*
X114756566Y-124471306D01*
X114764754Y-124470228D01*
X114899643Y-124414355D01*
X114906196Y-124409327D01*
X115008921Y-124330503D01*
X115008924Y-124330500D01*
X115015474Y-124325474D01*
X115104355Y-124209642D01*
X115160228Y-124074754D01*
X115179285Y-123930000D01*
X115171040Y-123867370D01*
X115161306Y-123793432D01*
X115161305Y-123793430D01*
X115160228Y-123785246D01*
X115140422Y-123737430D01*
X115107515Y-123657986D01*
X115107514Y-123657984D01*
X115104355Y-123650358D01*
X115015474Y-123534526D01*
X115008924Y-123529500D01*
X115008921Y-123529497D01*
X114906196Y-123450673D01*
X114906194Y-123450672D01*
X114899643Y-123445645D01*
X114764754Y-123389772D01*
X114620000Y-123370715D01*
X114611812Y-123371793D01*
X114483432Y-123388694D01*
X114483430Y-123388695D01*
X114475246Y-123389772D01*
X114465539Y-123393793D01*
X114347986Y-123442485D01*
X114347984Y-123442486D01*
X114340358Y-123445645D01*
X114224526Y-123534526D01*
X114135645Y-123650358D01*
X114132486Y-123657984D01*
X114132485Y-123657986D01*
X114099578Y-123737430D01*
X114079772Y-123785246D01*
X114078695Y-123793430D01*
X114078694Y-123793432D01*
X114068960Y-123867370D01*
X114060715Y-123930000D01*
X109601000Y-123930000D01*
X109601000Y-122291206D01*
X130756501Y-122291206D01*
X130773806Y-122497278D01*
X130830807Y-122696066D01*
X130833625Y-122701548D01*
X130833626Y-122701552D01*
X130922514Y-122874509D01*
X130922517Y-122874513D01*
X130925334Y-122879995D01*
X131053786Y-123042061D01*
X131211271Y-123176091D01*
X131391789Y-123276980D01*
X131588466Y-123340884D01*
X131793809Y-123365370D01*
X131799944Y-123364898D01*
X131799946Y-123364898D01*
X131993856Y-123349977D01*
X131993860Y-123349976D01*
X131999998Y-123349504D01*
X132199178Y-123293892D01*
X132204682Y-123291112D01*
X132204684Y-123291111D01*
X132378262Y-123203431D01*
X132378264Y-123203430D01*
X132383763Y-123200652D01*
X132546722Y-123073334D01*
X132550748Y-123068670D01*
X132550751Y-123068667D01*
X132677819Y-122921457D01*
X132677820Y-122921455D01*
X132681848Y-122916789D01*
X132783995Y-122736979D01*
X132849270Y-122540753D01*
X132875189Y-122335586D01*
X132875602Y-122306000D01*
X132855422Y-122100189D01*
X132795651Y-121902217D01*
X132715981Y-121752380D01*
X132701459Y-121725067D01*
X132701457Y-121725064D01*
X132698565Y-121719625D01*
X132694674Y-121714855D01*
X132694672Y-121714851D01*
X132571758Y-121564143D01*
X132571755Y-121564140D01*
X132567863Y-121559368D01*
X132560966Y-121553662D01*
X132413271Y-121431478D01*
X132413266Y-121431475D01*
X132408522Y-121427550D01*
X132403103Y-121424620D01*
X132403100Y-121424618D01*
X132232032Y-121332122D01*
X132232027Y-121332120D01*
X132226612Y-121329192D01*
X132029063Y-121268040D01*
X132022938Y-121267396D01*
X132022937Y-121267396D01*
X131829526Y-121247068D01*
X131829524Y-121247068D01*
X131823397Y-121246424D01*
X131697229Y-121257906D01*
X131623591Y-121264607D01*
X131623590Y-121264607D01*
X131617450Y-121265166D01*
X131419066Y-121323554D01*
X131413601Y-121326411D01*
X131241261Y-121416508D01*
X131241257Y-121416511D01*
X131235801Y-121419363D01*
X131074635Y-121548943D01*
X130941708Y-121707360D01*
X130842082Y-121888578D01*
X130779553Y-122085696D01*
X130778867Y-122091813D01*
X130778866Y-122091817D01*
X130757188Y-122285081D01*
X130756501Y-122291206D01*
X109601000Y-122291206D01*
X109601000Y-120537993D01*
X112777715Y-120537993D01*
X112778793Y-120546181D01*
X112793364Y-120656858D01*
X112796772Y-120682747D01*
X112799931Y-120690373D01*
X112844918Y-120798980D01*
X112852645Y-120817635D01*
X112941526Y-120933467D01*
X112948076Y-120938493D01*
X112948079Y-120938496D01*
X113050804Y-121017320D01*
X113057357Y-121022348D01*
X113192246Y-121078221D01*
X113200434Y-121079299D01*
X113264623Y-121087749D01*
X113337000Y-121097278D01*
X113345188Y-121096200D01*
X113473566Y-121079299D01*
X113481754Y-121078221D01*
X113616643Y-121022348D01*
X113623196Y-121017320D01*
X113725921Y-120938496D01*
X113725924Y-120938493D01*
X113732474Y-120933467D01*
X113821355Y-120817635D01*
X113829083Y-120798980D01*
X113874069Y-120690373D01*
X113877228Y-120682747D01*
X113880637Y-120656858D01*
X113895207Y-120546181D01*
X113896285Y-120537993D01*
X113881674Y-120427007D01*
X113878306Y-120401425D01*
X113878305Y-120401423D01*
X113877228Y-120393239D01*
X113821355Y-120258351D01*
X113732474Y-120142519D01*
X113725924Y-120137493D01*
X113725921Y-120137490D01*
X113623196Y-120058666D01*
X113623194Y-120058665D01*
X113616643Y-120053638D01*
X113481754Y-119997765D01*
X113457972Y-119994634D01*
X113345188Y-119979786D01*
X113337000Y-119978708D01*
X113328812Y-119979786D01*
X113200432Y-119996687D01*
X113200430Y-119996688D01*
X113192246Y-119997765D01*
X113144430Y-120017571D01*
X113064986Y-120050478D01*
X113064984Y-120050479D01*
X113057358Y-120053638D01*
X112941526Y-120142519D01*
X112852645Y-120258351D01*
X112796772Y-120393239D01*
X112795695Y-120401423D01*
X112795694Y-120401425D01*
X112792326Y-120427007D01*
X112777715Y-120537993D01*
X109601000Y-120537993D01*
X109601000Y-119751206D01*
X130756501Y-119751206D01*
X130773806Y-119957278D01*
X130830807Y-120156066D01*
X130833625Y-120161548D01*
X130833626Y-120161552D01*
X130922514Y-120334509D01*
X130922517Y-120334513D01*
X130925334Y-120339995D01*
X131053786Y-120502061D01*
X131211271Y-120636091D01*
X131391789Y-120736980D01*
X131588466Y-120800884D01*
X131793809Y-120825370D01*
X131799944Y-120824898D01*
X131799946Y-120824898D01*
X131993856Y-120809977D01*
X131993860Y-120809976D01*
X131999998Y-120809504D01*
X132199178Y-120753892D01*
X132204682Y-120751112D01*
X132204684Y-120751111D01*
X132378262Y-120663431D01*
X132378264Y-120663430D01*
X132383763Y-120660652D01*
X132546722Y-120533334D01*
X132550748Y-120528670D01*
X132550751Y-120528667D01*
X132677819Y-120381457D01*
X132677820Y-120381455D01*
X132681848Y-120376789D01*
X132783995Y-120196979D01*
X132830005Y-120058666D01*
X132838702Y-120032522D01*
X138153273Y-120032522D01*
X138200764Y-120209761D01*
X138204510Y-120220053D01*
X138296586Y-120417511D01*
X138302069Y-120427007D01*
X138427028Y-120605467D01*
X138434084Y-120613875D01*
X138588125Y-120767916D01*
X138596533Y-120774972D01*
X138774993Y-120899931D01*
X138784489Y-120905414D01*
X138981947Y-120997490D01*
X138992239Y-121001236D01*
X139157015Y-121045387D01*
X139217638Y-121082339D01*
X139248659Y-121146199D01*
X139240231Y-121216694D01*
X139195028Y-121271441D01*
X139159978Y-121287967D01*
X139039066Y-121323554D01*
X139033601Y-121326411D01*
X138861261Y-121416508D01*
X138861257Y-121416511D01*
X138855801Y-121419363D01*
X138694635Y-121548943D01*
X138561708Y-121707360D01*
X138462082Y-121888578D01*
X138399553Y-122085696D01*
X138398867Y-122091813D01*
X138398866Y-122091817D01*
X138377188Y-122285081D01*
X138376501Y-122291206D01*
X138393806Y-122497278D01*
X138450807Y-122696066D01*
X138453625Y-122701548D01*
X138453626Y-122701552D01*
X138542514Y-122874509D01*
X138542517Y-122874513D01*
X138545334Y-122879995D01*
X138673786Y-123042061D01*
X138831271Y-123176091D01*
X139011789Y-123276980D01*
X139208466Y-123340884D01*
X139413809Y-123365370D01*
X139419944Y-123364898D01*
X139419946Y-123364898D01*
X139613856Y-123349977D01*
X139613860Y-123349976D01*
X139619998Y-123349504D01*
X139819178Y-123293892D01*
X139824682Y-123291112D01*
X139824684Y-123291111D01*
X139998262Y-123203431D01*
X139998264Y-123203430D01*
X140003763Y-123200652D01*
X140166722Y-123073334D01*
X140170748Y-123068670D01*
X140170751Y-123068667D01*
X140297819Y-122921457D01*
X140297820Y-122921455D01*
X140301848Y-122916789D01*
X140403995Y-122736979D01*
X140469270Y-122540753D01*
X140495189Y-122335586D01*
X140495602Y-122306000D01*
X140475422Y-122100189D01*
X140415651Y-121902217D01*
X140335981Y-121752380D01*
X140321459Y-121725067D01*
X140321457Y-121725064D01*
X140318565Y-121719625D01*
X140314674Y-121714855D01*
X140314672Y-121714851D01*
X140221002Y-121600000D01*
X153830715Y-121600000D01*
X153831793Y-121608188D01*
X153846464Y-121719625D01*
X153849772Y-121744754D01*
X153905645Y-121879642D01*
X153994526Y-121995474D01*
X154001076Y-122000500D01*
X154001079Y-122000503D01*
X154103804Y-122079327D01*
X154110357Y-122084355D01*
X154245246Y-122140228D01*
X154390000Y-122159285D01*
X154398188Y-122158207D01*
X154526566Y-122141306D01*
X154534754Y-122140228D01*
X154669643Y-122084355D01*
X154676196Y-122079327D01*
X154778921Y-122000503D01*
X154778924Y-122000500D01*
X154785474Y-121995474D01*
X154874355Y-121879642D01*
X154930228Y-121744754D01*
X154933537Y-121719625D01*
X154948207Y-121608188D01*
X154949285Y-121600000D01*
X154930228Y-121455246D01*
X154879228Y-121332122D01*
X154877515Y-121327986D01*
X154877514Y-121327984D01*
X154874355Y-121320358D01*
X154818052Y-121246983D01*
X154790501Y-121211077D01*
X154790500Y-121211076D01*
X154785474Y-121204526D01*
X154778924Y-121199500D01*
X154778921Y-121199497D01*
X154676196Y-121120673D01*
X154676194Y-121120672D01*
X154669643Y-121115645D01*
X154534754Y-121059772D01*
X154390000Y-121040715D01*
X154381812Y-121041793D01*
X154253432Y-121058694D01*
X154253430Y-121058695D01*
X154245246Y-121059772D01*
X154200707Y-121078221D01*
X154117986Y-121112485D01*
X154117984Y-121112486D01*
X154110358Y-121115645D01*
X153994526Y-121204526D01*
X153905645Y-121320358D01*
X153902486Y-121327984D01*
X153902485Y-121327986D01*
X153900772Y-121332122D01*
X153849772Y-121455246D01*
X153830715Y-121600000D01*
X140221002Y-121600000D01*
X140191758Y-121564143D01*
X140191755Y-121564140D01*
X140187863Y-121559368D01*
X140180966Y-121553662D01*
X140033271Y-121431478D01*
X140033266Y-121431475D01*
X140028522Y-121427550D01*
X140023103Y-121424620D01*
X140023100Y-121424618D01*
X139852032Y-121332122D01*
X139852027Y-121332120D01*
X139846612Y-121329192D01*
X139711118Y-121287249D01*
X139651959Y-121247999D01*
X139623412Y-121182994D01*
X139634541Y-121112875D01*
X139681812Y-121059904D01*
X139715767Y-121045178D01*
X139879761Y-121001236D01*
X139890053Y-120997490D01*
X140087511Y-120905414D01*
X140097007Y-120899931D01*
X140275467Y-120774972D01*
X140283875Y-120767916D01*
X140437916Y-120613875D01*
X140444972Y-120605467D01*
X140569931Y-120427007D01*
X140575414Y-120417511D01*
X140667490Y-120220053D01*
X140671236Y-120209761D01*
X140717394Y-120037497D01*
X140717058Y-120023401D01*
X140709116Y-120020000D01*
X138168033Y-120020000D01*
X138154502Y-120023973D01*
X138153273Y-120032522D01*
X132838702Y-120032522D01*
X132847325Y-120006601D01*
X132847326Y-120006598D01*
X132849270Y-120000753D01*
X132875189Y-119795586D01*
X132875602Y-119766000D01*
X132855422Y-119560189D01*
X132835590Y-119494503D01*
X138154606Y-119494503D01*
X138154942Y-119508599D01*
X138162884Y-119512000D01*
X139163885Y-119512000D01*
X139179124Y-119507525D01*
X139180329Y-119506135D01*
X139182000Y-119498452D01*
X139182000Y-119493885D01*
X139690000Y-119493885D01*
X139694475Y-119509124D01*
X139695865Y-119510329D01*
X139703548Y-119512000D01*
X140703967Y-119512000D01*
X140717498Y-119508027D01*
X140718727Y-119499478D01*
X140671236Y-119322239D01*
X140667490Y-119311947D01*
X140575414Y-119114489D01*
X140569931Y-119104993D01*
X140495714Y-118999000D01*
X156105715Y-118999000D01*
X156124772Y-119143754D01*
X156180645Y-119278642D01*
X156185672Y-119285193D01*
X156240599Y-119356775D01*
X156269526Y-119394474D01*
X156276076Y-119399500D01*
X156276079Y-119399503D01*
X156378804Y-119478327D01*
X156385357Y-119483355D01*
X156520246Y-119539228D01*
X156665000Y-119558285D01*
X156673188Y-119557207D01*
X156801566Y-119540306D01*
X156809754Y-119539228D01*
X156944643Y-119483355D01*
X156951196Y-119478327D01*
X157053921Y-119399503D01*
X157053924Y-119399500D01*
X157060474Y-119394474D01*
X157089402Y-119356775D01*
X157144328Y-119285193D01*
X157149355Y-119278642D01*
X157205228Y-119143754D01*
X157224285Y-118999000D01*
X157205228Y-118854246D01*
X157179495Y-118792122D01*
X157152515Y-118726986D01*
X157152514Y-118726984D01*
X157149355Y-118719358D01*
X157060474Y-118603526D01*
X157053924Y-118598500D01*
X157053921Y-118598497D01*
X156951196Y-118519673D01*
X156951194Y-118519672D01*
X156944643Y-118514645D01*
X156809754Y-118458772D01*
X156665000Y-118439715D01*
X156656812Y-118440793D01*
X156528432Y-118457694D01*
X156528430Y-118457695D01*
X156520246Y-118458772D01*
X156472430Y-118478578D01*
X156392986Y-118511485D01*
X156392984Y-118511486D01*
X156385358Y-118514645D01*
X156352781Y-118539642D01*
X156288031Y-118589327D01*
X156269526Y-118603526D01*
X156180645Y-118719358D01*
X156177486Y-118726984D01*
X156177485Y-118726986D01*
X156150505Y-118792122D01*
X156124772Y-118854246D01*
X156105715Y-118999000D01*
X140495714Y-118999000D01*
X140444972Y-118926533D01*
X140437916Y-118918125D01*
X140283875Y-118764084D01*
X140275467Y-118757028D01*
X140097007Y-118632069D01*
X140087511Y-118626586D01*
X139890053Y-118534510D01*
X139879761Y-118530764D01*
X139707497Y-118484606D01*
X139693401Y-118484942D01*
X139690000Y-118492884D01*
X139690000Y-119493885D01*
X139182000Y-119493885D01*
X139182000Y-118498033D01*
X139178027Y-118484502D01*
X139169478Y-118483273D01*
X138992239Y-118530764D01*
X138981947Y-118534510D01*
X138784489Y-118626586D01*
X138774993Y-118632069D01*
X138596533Y-118757028D01*
X138588125Y-118764084D01*
X138434084Y-118918125D01*
X138427028Y-118926533D01*
X138302069Y-119104993D01*
X138296586Y-119114489D01*
X138204510Y-119311947D01*
X138200764Y-119322239D01*
X138154606Y-119494503D01*
X132835590Y-119494503D01*
X132795651Y-119362217D01*
X132698565Y-119179625D01*
X132694674Y-119174855D01*
X132694672Y-119174851D01*
X132571758Y-119024143D01*
X132571755Y-119024140D01*
X132567863Y-119019368D01*
X132560966Y-119013662D01*
X132413271Y-118891478D01*
X132413266Y-118891475D01*
X132408522Y-118887550D01*
X132403103Y-118884620D01*
X132403100Y-118884618D01*
X132232032Y-118792122D01*
X132232027Y-118792120D01*
X132226612Y-118789192D01*
X132029063Y-118728040D01*
X132022938Y-118727396D01*
X132022937Y-118727396D01*
X131829526Y-118707068D01*
X131829524Y-118707068D01*
X131823397Y-118706424D01*
X131697229Y-118717906D01*
X131623591Y-118724607D01*
X131623590Y-118724607D01*
X131617450Y-118725166D01*
X131419066Y-118783554D01*
X131413601Y-118786411D01*
X131241261Y-118876508D01*
X131241257Y-118876511D01*
X131235801Y-118879363D01*
X131074635Y-119008943D01*
X130941708Y-119167360D01*
X130842082Y-119348578D01*
X130779553Y-119545696D01*
X130778867Y-119551813D01*
X130778866Y-119551817D01*
X130777927Y-119560189D01*
X130756501Y-119751206D01*
X109601000Y-119751206D01*
X109601000Y-118260000D01*
X118990715Y-118260000D01*
X119009772Y-118404754D01*
X119024700Y-118440793D01*
X119061968Y-118530764D01*
X119065645Y-118539642D01*
X119154526Y-118655474D01*
X119161076Y-118660500D01*
X119161079Y-118660503D01*
X119263804Y-118739327D01*
X119270357Y-118744355D01*
X119405246Y-118800228D01*
X119550000Y-118819285D01*
X119558188Y-118818207D01*
X119686566Y-118801306D01*
X119694754Y-118800228D01*
X119829643Y-118744355D01*
X119836196Y-118739327D01*
X119938921Y-118660503D01*
X119938924Y-118660500D01*
X119945474Y-118655474D01*
X120034355Y-118539642D01*
X120038033Y-118530764D01*
X120075300Y-118440793D01*
X120090228Y-118404754D01*
X120109285Y-118260000D01*
X120090228Y-118115246D01*
X120088055Y-118110000D01*
X152221715Y-118110000D01*
X152240772Y-118254754D01*
X152296645Y-118389642D01*
X152335067Y-118439715D01*
X152369434Y-118484502D01*
X152385526Y-118505474D01*
X152392076Y-118510500D01*
X152392079Y-118510503D01*
X152494804Y-118589327D01*
X152501357Y-118594355D01*
X152636246Y-118650228D01*
X152781000Y-118669285D01*
X152789188Y-118668207D01*
X152917566Y-118651306D01*
X152925754Y-118650228D01*
X153060643Y-118594355D01*
X153067196Y-118589327D01*
X153169921Y-118510503D01*
X153169924Y-118510500D01*
X153176474Y-118505474D01*
X153192567Y-118484502D01*
X153226933Y-118439715D01*
X153265355Y-118389642D01*
X153321228Y-118254754D01*
X153340285Y-118110000D01*
X153330975Y-118039285D01*
X153322306Y-117973432D01*
X153322305Y-117973430D01*
X153321228Y-117965246D01*
X153282222Y-117871077D01*
X153268515Y-117837986D01*
X153268514Y-117837984D01*
X153265355Y-117830358D01*
X153220915Y-117772442D01*
X153181501Y-117721077D01*
X153181500Y-117721076D01*
X153176474Y-117714526D01*
X153169924Y-117709500D01*
X153169921Y-117709497D01*
X153067196Y-117630673D01*
X153067194Y-117630672D01*
X153060643Y-117625645D01*
X152925754Y-117569772D01*
X152781000Y-117550715D01*
X152772812Y-117551793D01*
X152644432Y-117568694D01*
X152644430Y-117568695D01*
X152636246Y-117569772D01*
X152588430Y-117589578D01*
X152508986Y-117622485D01*
X152508984Y-117622486D01*
X152501358Y-117625645D01*
X152385526Y-117714526D01*
X152296645Y-117830358D01*
X152293486Y-117837984D01*
X152293485Y-117837986D01*
X152279778Y-117871077D01*
X152240772Y-117965246D01*
X152239695Y-117973430D01*
X152239694Y-117973432D01*
X152231025Y-118039285D01*
X152221715Y-118110000D01*
X120088055Y-118110000D01*
X120058317Y-118038207D01*
X120037515Y-117987986D01*
X120037514Y-117987984D01*
X120034355Y-117980358D01*
X119945474Y-117864526D01*
X119938924Y-117859500D01*
X119938921Y-117859497D01*
X119836196Y-117780673D01*
X119836194Y-117780672D01*
X119829643Y-117775645D01*
X119694754Y-117719772D01*
X119550000Y-117700715D01*
X119541812Y-117701793D01*
X119413432Y-117718694D01*
X119413430Y-117718695D01*
X119405246Y-117719772D01*
X119357430Y-117739578D01*
X119277986Y-117772485D01*
X119277984Y-117772486D01*
X119270358Y-117775645D01*
X119154526Y-117864526D01*
X119065645Y-117980358D01*
X119062486Y-117987984D01*
X119062485Y-117987986D01*
X119041683Y-118038207D01*
X119009772Y-118115246D01*
X118990715Y-118260000D01*
X109601000Y-118260000D01*
X109601000Y-117480000D01*
X158490715Y-117480000D01*
X158491793Y-117488188D01*
X158502950Y-117572932D01*
X158509772Y-117624754D01*
X158512931Y-117632380D01*
X158550439Y-117722931D01*
X158565645Y-117759642D01*
X158570672Y-117766193D01*
X158614881Y-117823807D01*
X158654526Y-117875474D01*
X158661076Y-117880500D01*
X158661079Y-117880503D01*
X158763804Y-117959327D01*
X158770357Y-117964355D01*
X158905246Y-118020228D01*
X159050000Y-118039285D01*
X159058188Y-118038207D01*
X159186566Y-118021306D01*
X159194754Y-118020228D01*
X159329643Y-117964355D01*
X159336196Y-117959327D01*
X159438921Y-117880503D01*
X159438924Y-117880500D01*
X159445474Y-117875474D01*
X159485120Y-117823807D01*
X159529328Y-117766193D01*
X159534355Y-117759642D01*
X159549562Y-117722931D01*
X159587069Y-117632380D01*
X159590228Y-117624754D01*
X159597051Y-117572932D01*
X159608207Y-117488188D01*
X159609285Y-117480000D01*
X159590228Y-117335246D01*
X159534355Y-117200358D01*
X159445474Y-117084526D01*
X159438924Y-117079500D01*
X159438921Y-117079497D01*
X159336196Y-117000673D01*
X159336194Y-117000672D01*
X159329643Y-116995645D01*
X159194754Y-116939772D01*
X159050000Y-116920715D01*
X159041812Y-116921793D01*
X158913432Y-116938694D01*
X158913430Y-116938695D01*
X158905246Y-116939772D01*
X158857430Y-116959578D01*
X158777986Y-116992485D01*
X158777984Y-116992486D01*
X158770358Y-116995645D01*
X158654526Y-117084526D01*
X158565645Y-117200358D01*
X158509772Y-117335246D01*
X158490715Y-117480000D01*
X109601000Y-117480000D01*
X109601000Y-114427000D01*
X114629715Y-114427000D01*
X114631559Y-114441005D01*
X114647309Y-114560639D01*
X114648772Y-114571754D01*
X114651931Y-114579380D01*
X114692594Y-114677548D01*
X114704645Y-114706642D01*
X114793526Y-114822474D01*
X114800076Y-114827500D01*
X114800079Y-114827503D01*
X114902804Y-114906327D01*
X114909357Y-114911355D01*
X115044246Y-114967228D01*
X115189000Y-114986285D01*
X115197188Y-114985207D01*
X115325566Y-114968306D01*
X115333754Y-114967228D01*
X115468643Y-114911355D01*
X115475196Y-114906327D01*
X115577921Y-114827503D01*
X115577924Y-114827500D01*
X115584474Y-114822474D01*
X115673355Y-114706642D01*
X115685407Y-114677548D01*
X115726069Y-114579380D01*
X115729228Y-114571754D01*
X115730692Y-114560639D01*
X115746441Y-114441005D01*
X115748285Y-114427000D01*
X119328715Y-114427000D01*
X119330559Y-114441005D01*
X119346309Y-114560639D01*
X119347772Y-114571754D01*
X119350931Y-114579380D01*
X119391594Y-114677548D01*
X119403645Y-114706642D01*
X119492526Y-114822474D01*
X119499076Y-114827500D01*
X119499079Y-114827503D01*
X119601804Y-114906327D01*
X119608357Y-114911355D01*
X119743246Y-114967228D01*
X119888000Y-114986285D01*
X119896188Y-114985207D01*
X120024566Y-114968306D01*
X120032754Y-114967228D01*
X120167643Y-114911355D01*
X120174196Y-114906327D01*
X120276921Y-114827503D01*
X120276924Y-114827500D01*
X120283474Y-114822474D01*
X120372355Y-114706642D01*
X120384407Y-114677548D01*
X120425069Y-114579380D01*
X120428228Y-114571754D01*
X120429692Y-114560639D01*
X120445441Y-114441005D01*
X120447285Y-114427000D01*
X120433148Y-114319616D01*
X120429306Y-114290432D01*
X120429305Y-114290430D01*
X120429002Y-114288129D01*
X139792244Y-114288129D01*
X139793322Y-114296317D01*
X139809449Y-114418812D01*
X139811301Y-114432883D01*
X139814460Y-114440509D01*
X139859542Y-114549345D01*
X139867174Y-114567771D01*
X139876082Y-114579380D01*
X139941797Y-114665021D01*
X139956055Y-114683603D01*
X139962605Y-114688629D01*
X139962608Y-114688632D01*
X140065333Y-114767456D01*
X140071886Y-114772484D01*
X140206775Y-114828357D01*
X140351529Y-114847414D01*
X140359717Y-114846336D01*
X140488095Y-114829435D01*
X140496283Y-114828357D01*
X140631172Y-114772484D01*
X140684427Y-114731620D01*
X140750645Y-114706020D01*
X140820193Y-114720284D01*
X140837824Y-114731614D01*
X140891732Y-114772980D01*
X141026621Y-114828853D01*
X141171375Y-114847910D01*
X141179563Y-114846832D01*
X141197938Y-114844413D01*
X141316129Y-114828853D01*
X141451018Y-114772980D01*
X141457571Y-114767952D01*
X141560296Y-114689128D01*
X141560299Y-114689125D01*
X141566849Y-114684099D01*
X141572257Y-114677052D01*
X141613730Y-114623002D01*
X141655730Y-114568267D01*
X141711603Y-114433379D01*
X141730660Y-114288625D01*
X141727534Y-114264880D01*
X141712681Y-114152057D01*
X141712680Y-114152055D01*
X141711603Y-114143871D01*
X141691797Y-114096055D01*
X141658890Y-114016611D01*
X141658889Y-114016609D01*
X141655730Y-114008983D01*
X141597238Y-113932755D01*
X141571876Y-113899702D01*
X141571875Y-113899701D01*
X141566849Y-113893151D01*
X141560299Y-113888125D01*
X141560296Y-113888122D01*
X141457571Y-113809298D01*
X141457569Y-113809297D01*
X141451018Y-113804270D01*
X141316129Y-113748397D01*
X141171375Y-113729340D01*
X141163187Y-113730418D01*
X141034807Y-113747319D01*
X141034805Y-113747320D01*
X141026621Y-113748397D01*
X140995459Y-113761305D01*
X140899361Y-113801110D01*
X140899359Y-113801111D01*
X140891733Y-113804270D01*
X140872088Y-113819344D01*
X140838479Y-113845133D01*
X140772258Y-113870733D01*
X140702710Y-113856468D01*
X140685075Y-113845136D01*
X140631172Y-113803774D01*
X140496283Y-113747901D01*
X140351529Y-113728844D01*
X140343341Y-113729922D01*
X140214961Y-113746823D01*
X140214959Y-113746824D01*
X140206775Y-113747901D01*
X140197949Y-113751557D01*
X140079515Y-113800614D01*
X140079513Y-113800615D01*
X140071887Y-113803774D01*
X139956055Y-113892655D01*
X139867174Y-114008487D01*
X139864015Y-114016113D01*
X139864014Y-114016115D01*
X139857631Y-114031526D01*
X139811301Y-114143375D01*
X139810224Y-114151559D01*
X139810223Y-114151561D01*
X139801718Y-114216165D01*
X139792244Y-114288129D01*
X120429002Y-114288129D01*
X120428228Y-114282246D01*
X120400856Y-114216165D01*
X120375515Y-114154986D01*
X120375514Y-114154984D01*
X120372355Y-114147358D01*
X120283474Y-114031526D01*
X120276924Y-114026500D01*
X120276921Y-114026497D01*
X120174196Y-113947673D01*
X120174194Y-113947672D01*
X120167643Y-113942645D01*
X120032754Y-113886772D01*
X119888000Y-113867715D01*
X119879812Y-113868793D01*
X119751432Y-113885694D01*
X119751430Y-113885695D01*
X119743246Y-113886772D01*
X119727846Y-113893151D01*
X119615986Y-113939485D01*
X119615984Y-113939486D01*
X119608358Y-113942645D01*
X119492526Y-114031526D01*
X119403645Y-114147358D01*
X119400486Y-114154984D01*
X119400485Y-114154986D01*
X119375144Y-114216165D01*
X119347772Y-114282246D01*
X119346695Y-114290430D01*
X119346694Y-114290432D01*
X119342852Y-114319616D01*
X119328715Y-114427000D01*
X115748285Y-114427000D01*
X115734148Y-114319616D01*
X115730306Y-114290432D01*
X115730305Y-114290430D01*
X115729228Y-114282246D01*
X115701856Y-114216165D01*
X115676515Y-114154986D01*
X115676514Y-114154984D01*
X115673355Y-114147358D01*
X115584474Y-114031526D01*
X115577924Y-114026500D01*
X115577921Y-114026497D01*
X115475196Y-113947673D01*
X115475194Y-113947672D01*
X115468643Y-113942645D01*
X115333754Y-113886772D01*
X115189000Y-113867715D01*
X115180812Y-113868793D01*
X115052432Y-113885694D01*
X115052430Y-113885695D01*
X115044246Y-113886772D01*
X115028846Y-113893151D01*
X114916986Y-113939485D01*
X114916984Y-113939486D01*
X114909358Y-113942645D01*
X114793526Y-114031526D01*
X114704645Y-114147358D01*
X114701486Y-114154984D01*
X114701485Y-114154986D01*
X114676144Y-114216165D01*
X114648772Y-114282246D01*
X114647695Y-114290430D01*
X114647694Y-114290432D01*
X114643852Y-114319616D01*
X114629715Y-114427000D01*
X109601000Y-114427000D01*
X109601000Y-110363000D01*
X134568715Y-110363000D01*
X134569793Y-110371188D01*
X134579352Y-110443794D01*
X134587772Y-110507754D01*
X134590931Y-110515380D01*
X134639941Y-110633699D01*
X134643645Y-110642642D01*
X134732526Y-110758474D01*
X134739076Y-110763500D01*
X134739079Y-110763503D01*
X134774751Y-110790875D01*
X134848357Y-110847355D01*
X134983246Y-110903228D01*
X135128000Y-110922285D01*
X135136188Y-110921207D01*
X135264566Y-110904306D01*
X135272754Y-110903228D01*
X135407643Y-110847355D01*
X135481249Y-110790875D01*
X135516921Y-110763503D01*
X135516924Y-110763500D01*
X135523474Y-110758474D01*
X135612355Y-110642642D01*
X135616060Y-110633699D01*
X135628816Y-110602902D01*
X136863826Y-110602902D01*
X136882883Y-110747656D01*
X136886042Y-110755282D01*
X136933060Y-110868792D01*
X136938756Y-110882544D01*
X137027637Y-110998376D01*
X137034187Y-111003402D01*
X137034190Y-111003405D01*
X137102380Y-111055729D01*
X137143468Y-111087257D01*
X137278357Y-111143130D01*
X137423111Y-111162187D01*
X137431299Y-111161109D01*
X137472811Y-111155644D01*
X137567865Y-111143130D01*
X137702754Y-111087257D01*
X137743842Y-111055729D01*
X137812032Y-111003405D01*
X137812035Y-111003402D01*
X137818585Y-110998376D01*
X137907466Y-110882544D01*
X137913163Y-110868792D01*
X137960180Y-110755282D01*
X137963339Y-110747656D01*
X137982396Y-110602902D01*
X137963339Y-110458148D01*
X137923927Y-110363000D01*
X137910626Y-110330888D01*
X137910625Y-110330886D01*
X137907466Y-110323260D01*
X137872856Y-110278155D01*
X137847256Y-110211934D01*
X137861521Y-110142385D01*
X137872856Y-110124747D01*
X137897242Y-110092966D01*
X144098257Y-110092966D01*
X144128565Y-110227446D01*
X144131645Y-110237275D01*
X144211770Y-110434603D01*
X144216413Y-110443794D01*
X144327694Y-110625388D01*
X144333777Y-110633699D01*
X144473213Y-110794667D01*
X144480580Y-110801883D01*
X144644434Y-110937916D01*
X144652881Y-110943831D01*
X144836756Y-111051279D01*
X144846042Y-111055729D01*
X144995124Y-111112657D01*
X145051627Y-111155644D01*
X145075920Y-111222355D01*
X145060290Y-111291610D01*
X145009699Y-111341421D01*
X144993785Y-111348579D01*
X144952463Y-111363824D01*
X144778010Y-111467612D01*
X144773670Y-111471418D01*
X144773666Y-111471421D01*
X144732142Y-111507837D01*
X144625392Y-111601455D01*
X144499720Y-111760869D01*
X144497031Y-111765980D01*
X144497029Y-111765983D01*
X144484073Y-111790609D01*
X144405203Y-111940515D01*
X144345007Y-112134378D01*
X144321148Y-112335964D01*
X144334424Y-112538522D01*
X144335845Y-112544118D01*
X144335846Y-112544123D01*
X144355715Y-112622355D01*
X144384392Y-112735269D01*
X144386809Y-112740512D01*
X144424010Y-112821208D01*
X144469377Y-112919616D01*
X144586533Y-113085389D01*
X144731938Y-113227035D01*
X144900720Y-113339812D01*
X144906023Y-113342090D01*
X144906026Y-113342092D01*
X144994707Y-113380192D01*
X145087228Y-113419942D01*
X145160244Y-113436464D01*
X145279579Y-113463467D01*
X145279584Y-113463468D01*
X145285216Y-113464742D01*
X145290987Y-113464969D01*
X145290989Y-113464969D01*
X145350756Y-113467317D01*
X145488053Y-113472712D01*
X145588499Y-113458148D01*
X145683231Y-113444413D01*
X145683236Y-113444412D01*
X145688945Y-113443584D01*
X145694409Y-113441729D01*
X145694414Y-113441728D01*
X145875693Y-113380192D01*
X145875698Y-113380190D01*
X145881165Y-113378334D01*
X145890608Y-113373046D01*
X145957831Y-113335399D01*
X146058276Y-113279147D01*
X146120934Y-113227035D01*
X146209913Y-113153031D01*
X146214345Y-113149345D01*
X146315759Y-113027409D01*
X146340453Y-112997718D01*
X146340455Y-112997715D01*
X146344147Y-112993276D01*
X146443334Y-112816165D01*
X146445190Y-112810698D01*
X146445192Y-112810693D01*
X146506728Y-112629414D01*
X146506729Y-112629409D01*
X146508584Y-112623945D01*
X146509412Y-112618236D01*
X146509413Y-112618231D01*
X146537179Y-112426727D01*
X146537712Y-112423053D01*
X146539232Y-112365000D01*
X146520658Y-112162859D01*
X146519090Y-112157299D01*
X146467125Y-111973046D01*
X146467124Y-111973044D01*
X146465557Y-111967487D01*
X146454978Y-111946033D01*
X146378331Y-111790609D01*
X146375776Y-111785428D01*
X146254320Y-111622779D01*
X146113890Y-111492966D01*
X156488257Y-111492966D01*
X156518565Y-111627446D01*
X156521645Y-111637275D01*
X156601770Y-111834603D01*
X156606413Y-111843794D01*
X156717694Y-112025388D01*
X156723777Y-112033699D01*
X156863213Y-112194667D01*
X156870580Y-112201883D01*
X157034434Y-112337916D01*
X157042881Y-112343831D01*
X157226756Y-112451279D01*
X157236042Y-112455729D01*
X157385124Y-112512657D01*
X157441627Y-112555644D01*
X157465920Y-112622355D01*
X157450290Y-112691610D01*
X157399699Y-112741421D01*
X157383785Y-112748579D01*
X157342463Y-112763824D01*
X157168010Y-112867612D01*
X157163670Y-112871418D01*
X157163666Y-112871421D01*
X157030471Y-112988231D01*
X157015392Y-113001455D01*
X156889720Y-113160869D01*
X156887031Y-113165980D01*
X156887029Y-113165983D01*
X156874073Y-113190609D01*
X156795203Y-113340515D01*
X156735007Y-113534378D01*
X156711148Y-113735964D01*
X156724424Y-113938522D01*
X156725845Y-113944118D01*
X156725846Y-113944123D01*
X156747508Y-114029414D01*
X156774392Y-114135269D01*
X156776809Y-114140512D01*
X156814010Y-114221208D01*
X156859377Y-114319616D01*
X156976533Y-114485389D01*
X157121938Y-114627035D01*
X157290720Y-114739812D01*
X157296023Y-114742090D01*
X157296026Y-114742092D01*
X157471921Y-114817662D01*
X157477228Y-114819942D01*
X157550244Y-114836464D01*
X157669579Y-114863467D01*
X157669584Y-114863468D01*
X157675216Y-114864742D01*
X157680987Y-114864969D01*
X157680989Y-114864969D01*
X157740756Y-114867317D01*
X157878053Y-114872712D01*
X157978499Y-114858148D01*
X158073231Y-114844413D01*
X158073236Y-114844412D01*
X158078945Y-114843584D01*
X158084409Y-114841729D01*
X158084414Y-114841728D01*
X158265693Y-114780192D01*
X158265698Y-114780190D01*
X158271165Y-114778334D01*
X158280726Y-114772980D01*
X158354577Y-114731621D01*
X158448276Y-114679147D01*
X158510934Y-114627035D01*
X158587244Y-114563568D01*
X158604345Y-114549345D01*
X158694451Y-114441005D01*
X158730453Y-114397718D01*
X158730455Y-114397715D01*
X158734147Y-114393276D01*
X158833334Y-114216165D01*
X158835190Y-114210698D01*
X158835192Y-114210693D01*
X158896728Y-114029414D01*
X158896729Y-114029409D01*
X158898584Y-114023945D01*
X158899412Y-114018236D01*
X158899413Y-114018231D01*
X158922867Y-113856468D01*
X158927712Y-113823053D01*
X158929232Y-113765000D01*
X158910658Y-113562859D01*
X158909090Y-113557299D01*
X158857125Y-113373046D01*
X158857124Y-113373044D01*
X158855557Y-113367487D01*
X158844978Y-113346033D01*
X158768331Y-113190609D01*
X158765776Y-113185428D01*
X158738832Y-113149345D01*
X158691073Y-113085389D01*
X158644320Y-113022779D01*
X158495258Y-112884987D01*
X158490375Y-112881906D01*
X158490371Y-112881903D01*
X158328464Y-112779748D01*
X158323581Y-112776667D01*
X158251614Y-112747955D01*
X158195755Y-112704134D01*
X158172455Y-112637069D01*
X158189111Y-112568054D01*
X158240436Y-112519000D01*
X158262098Y-112510239D01*
X158312252Y-112495192D01*
X158321842Y-112491433D01*
X158513095Y-112397739D01*
X158521945Y-112392464D01*
X158695328Y-112268792D01*
X158703200Y-112262139D01*
X158854052Y-112111812D01*
X158860730Y-112103965D01*
X158985003Y-111931020D01*
X158990313Y-111922183D01*
X159084670Y-111731267D01*
X159088469Y-111721672D01*
X159150377Y-111517910D01*
X159152555Y-111507837D01*
X159153986Y-111496962D01*
X159151775Y-111482778D01*
X159138617Y-111479000D01*
X156503225Y-111479000D01*
X156489694Y-111482973D01*
X156488257Y-111492966D01*
X146113890Y-111492966D01*
X146105258Y-111484987D01*
X146100375Y-111481906D01*
X146100371Y-111481903D01*
X145938464Y-111379748D01*
X145933581Y-111376667D01*
X145861614Y-111347955D01*
X145805755Y-111304134D01*
X145782455Y-111237069D01*
X145799111Y-111168054D01*
X145850436Y-111119000D01*
X145872098Y-111110239D01*
X145922252Y-111095192D01*
X145931842Y-111091433D01*
X146123095Y-110997739D01*
X146131945Y-110992464D01*
X146178604Y-110959183D01*
X156484389Y-110959183D01*
X156485912Y-110967607D01*
X156498292Y-110971000D01*
X159138344Y-110971000D01*
X159151875Y-110967027D01*
X159153180Y-110957947D01*
X159111214Y-110790875D01*
X159107894Y-110781124D01*
X159022972Y-110585814D01*
X159018105Y-110576739D01*
X158902426Y-110397926D01*
X158896136Y-110389757D01*
X158752806Y-110232240D01*
X158745273Y-110225215D01*
X158578139Y-110093222D01*
X158569552Y-110087517D01*
X158457765Y-110025807D01*
X158407795Y-109975375D01*
X158393023Y-109905932D01*
X158418139Y-109839527D01*
X158475170Y-109797242D01*
X158518658Y-109789499D01*
X158695066Y-109789499D01*
X158730818Y-109782388D01*
X158757126Y-109777156D01*
X158757128Y-109777155D01*
X158769301Y-109774734D01*
X158779621Y-109767839D01*
X158779622Y-109767838D01*
X158843168Y-109725377D01*
X158853484Y-109718484D01*
X158909734Y-109634301D01*
X158924500Y-109560067D01*
X158924499Y-107809934D01*
X158909734Y-107735699D01*
X158897899Y-107717986D01*
X158860377Y-107661832D01*
X158853484Y-107651516D01*
X158769301Y-107595266D01*
X158695067Y-107580500D01*
X157820142Y-107580500D01*
X156944934Y-107580501D01*
X156909182Y-107587612D01*
X156882874Y-107592844D01*
X156882872Y-107592845D01*
X156870699Y-107595266D01*
X156860379Y-107602161D01*
X156860378Y-107602162D01*
X156799985Y-107642516D01*
X156786516Y-107651516D01*
X156730266Y-107735699D01*
X156715500Y-107809933D01*
X156715501Y-109560066D01*
X156716886Y-109567027D01*
X156727522Y-109620503D01*
X156730266Y-109634301D01*
X156737161Y-109644620D01*
X156737162Y-109644622D01*
X156744261Y-109655246D01*
X156786516Y-109718484D01*
X156796832Y-109725377D01*
X156848990Y-109760228D01*
X156870699Y-109774734D01*
X156944933Y-109789500D01*
X157121500Y-109789500D01*
X157189621Y-109809502D01*
X157236114Y-109863158D01*
X157246218Y-109933432D01*
X157216724Y-109998012D01*
X157179681Y-110027263D01*
X157098458Y-110069545D01*
X157089738Y-110075036D01*
X156919433Y-110202905D01*
X156911726Y-110209748D01*
X156764590Y-110363717D01*
X156758104Y-110371727D01*
X156638098Y-110547649D01*
X156633000Y-110556623D01*
X156543338Y-110749783D01*
X156539775Y-110759470D01*
X156484389Y-110959183D01*
X146178604Y-110959183D01*
X146305328Y-110868792D01*
X146313200Y-110862139D01*
X146464052Y-110711812D01*
X146470730Y-110703965D01*
X146595003Y-110531020D01*
X146600313Y-110522183D01*
X146694670Y-110331267D01*
X146698469Y-110321672D01*
X146760377Y-110117910D01*
X146762555Y-110107837D01*
X146763986Y-110096962D01*
X146761775Y-110082778D01*
X146748617Y-110079000D01*
X144113225Y-110079000D01*
X144099694Y-110082973D01*
X144098257Y-110092966D01*
X137897242Y-110092966D01*
X137902439Y-110086193D01*
X137907466Y-110079642D01*
X137911649Y-110069545D01*
X137955987Y-109962503D01*
X137963339Y-109944754D01*
X137971381Y-109883673D01*
X137981318Y-109808188D01*
X137982396Y-109800000D01*
X137978618Y-109771306D01*
X137964417Y-109663432D01*
X137964416Y-109663430D01*
X137963339Y-109655246D01*
X137928443Y-109571000D01*
X137923548Y-109559183D01*
X144094389Y-109559183D01*
X144095912Y-109567607D01*
X144108292Y-109571000D01*
X146748344Y-109571000D01*
X146761875Y-109567027D01*
X146763180Y-109557947D01*
X146721214Y-109390875D01*
X146717894Y-109381124D01*
X146632972Y-109185814D01*
X146628105Y-109176739D01*
X146512426Y-108997926D01*
X146506136Y-108989757D01*
X146362806Y-108832240D01*
X146355273Y-108825215D01*
X146188139Y-108693222D01*
X146179552Y-108687517D01*
X146067765Y-108625807D01*
X146017795Y-108575375D01*
X146003023Y-108505932D01*
X146028139Y-108439527D01*
X146085170Y-108397242D01*
X146128658Y-108389499D01*
X146305066Y-108389499D01*
X146340818Y-108382388D01*
X146367126Y-108377156D01*
X146367128Y-108377155D01*
X146379301Y-108374734D01*
X146389621Y-108367839D01*
X146389622Y-108367838D01*
X146453168Y-108325377D01*
X146463484Y-108318484D01*
X146519734Y-108234301D01*
X146534500Y-108160067D01*
X146534500Y-107990000D01*
X147420715Y-107990000D01*
X147439772Y-108134754D01*
X147442931Y-108142380D01*
X147475917Y-108222014D01*
X147495645Y-108269642D01*
X147500672Y-108276193D01*
X147578143Y-108377155D01*
X147584526Y-108385474D01*
X147591076Y-108390500D01*
X147591079Y-108390503D01*
X147693804Y-108469327D01*
X147700357Y-108474355D01*
X147835246Y-108530228D01*
X147980000Y-108549285D01*
X147988188Y-108548207D01*
X148116566Y-108531306D01*
X148124754Y-108530228D01*
X148259643Y-108474355D01*
X148266196Y-108469327D01*
X148368921Y-108390503D01*
X148368924Y-108390500D01*
X148375474Y-108385474D01*
X148381858Y-108377155D01*
X148459328Y-108276193D01*
X148464355Y-108269642D01*
X148484084Y-108222014D01*
X148517069Y-108142380D01*
X148520228Y-108134754D01*
X148539285Y-107990000D01*
X148520228Y-107845246D01*
X148500422Y-107797430D01*
X148467515Y-107717986D01*
X148467514Y-107717984D01*
X148464355Y-107710358D01*
X148413915Y-107644623D01*
X148380501Y-107601077D01*
X148380500Y-107601076D01*
X148375474Y-107594526D01*
X148368924Y-107589500D01*
X148368921Y-107589497D01*
X148266196Y-107510673D01*
X148266194Y-107510672D01*
X148259643Y-107505645D01*
X148124754Y-107449772D01*
X147980000Y-107430715D01*
X147971812Y-107431793D01*
X147843432Y-107448694D01*
X147843430Y-107448695D01*
X147835246Y-107449772D01*
X147796926Y-107465645D01*
X147707986Y-107502485D01*
X147707984Y-107502486D01*
X147700358Y-107505645D01*
X147584526Y-107594526D01*
X147495645Y-107710358D01*
X147492486Y-107717984D01*
X147492485Y-107717986D01*
X147459578Y-107797430D01*
X147439772Y-107845246D01*
X147420715Y-107990000D01*
X146534500Y-107990000D01*
X146534499Y-106409934D01*
X146527388Y-106374182D01*
X146522156Y-106347874D01*
X146522155Y-106347872D01*
X146519734Y-106335699D01*
X146463484Y-106251516D01*
X146379301Y-106195266D01*
X146305067Y-106180500D01*
X145430142Y-106180500D01*
X144554934Y-106180501D01*
X144519182Y-106187612D01*
X144492874Y-106192844D01*
X144492872Y-106192845D01*
X144480699Y-106195266D01*
X144470379Y-106202161D01*
X144470378Y-106202162D01*
X144409985Y-106242516D01*
X144396516Y-106251516D01*
X144340266Y-106335699D01*
X144325500Y-106409933D01*
X144325501Y-108160066D01*
X144340266Y-108234301D01*
X144396516Y-108318484D01*
X144480699Y-108374734D01*
X144554933Y-108389500D01*
X144731500Y-108389500D01*
X144799621Y-108409502D01*
X144846114Y-108463158D01*
X144856218Y-108533432D01*
X144826724Y-108598012D01*
X144789681Y-108627263D01*
X144708458Y-108669545D01*
X144699738Y-108675036D01*
X144529433Y-108802905D01*
X144521726Y-108809748D01*
X144374590Y-108963717D01*
X144368104Y-108971727D01*
X144248098Y-109147649D01*
X144243000Y-109156623D01*
X144153338Y-109349783D01*
X144149775Y-109359470D01*
X144094389Y-109559183D01*
X137923548Y-109559183D01*
X137910626Y-109527986D01*
X137910625Y-109527984D01*
X137907466Y-109520358D01*
X137818585Y-109404526D01*
X137812035Y-109399500D01*
X137812032Y-109399497D01*
X137709307Y-109320673D01*
X137709305Y-109320672D01*
X137702754Y-109315645D01*
X137567865Y-109259772D01*
X137423111Y-109240715D01*
X137414923Y-109241793D01*
X137286543Y-109258694D01*
X137286541Y-109258695D01*
X137278357Y-109259772D01*
X137230541Y-109279578D01*
X137151097Y-109312485D01*
X137151095Y-109312486D01*
X137143469Y-109315645D01*
X137027637Y-109404526D01*
X136938756Y-109520358D01*
X136935597Y-109527984D01*
X136935596Y-109527986D01*
X136917779Y-109571000D01*
X136882883Y-109655246D01*
X136881806Y-109663430D01*
X136881805Y-109663432D01*
X136867604Y-109771306D01*
X136863826Y-109800000D01*
X136864904Y-109808188D01*
X136874842Y-109883673D01*
X136882883Y-109944754D01*
X136890235Y-109962503D01*
X136934574Y-110069545D01*
X136938756Y-110079642D01*
X136943783Y-110086193D01*
X136973366Y-110124747D01*
X136998966Y-110190968D01*
X136984701Y-110260517D01*
X136973366Y-110278155D01*
X136938756Y-110323260D01*
X136935597Y-110330886D01*
X136935596Y-110330888D01*
X136922295Y-110363000D01*
X136882883Y-110458148D01*
X136863826Y-110602902D01*
X135628816Y-110602902D01*
X135665069Y-110515380D01*
X135668228Y-110507754D01*
X135676649Y-110443794D01*
X135686207Y-110371188D01*
X135687285Y-110363000D01*
X135670733Y-110237275D01*
X135669306Y-110226432D01*
X135669305Y-110226430D01*
X135668228Y-110218246D01*
X135612355Y-110083358D01*
X135523474Y-109967526D01*
X135516924Y-109962500D01*
X135516921Y-109962497D01*
X135414196Y-109883673D01*
X135414194Y-109883672D01*
X135407643Y-109878645D01*
X135272754Y-109822772D01*
X135128000Y-109803715D01*
X135119812Y-109804793D01*
X134991432Y-109821694D01*
X134991430Y-109821695D01*
X134983246Y-109822772D01*
X134942796Y-109839527D01*
X134855986Y-109875485D01*
X134855984Y-109875486D01*
X134848358Y-109878645D01*
X134732526Y-109967526D01*
X134643645Y-110083358D01*
X134587772Y-110218246D01*
X134586695Y-110226430D01*
X134586694Y-110226432D01*
X134585267Y-110237275D01*
X134568715Y-110363000D01*
X109601000Y-110363000D01*
X109601000Y-109230000D01*
X121370715Y-109230000D01*
X121371793Y-109238188D01*
X121386485Y-109349783D01*
X121389772Y-109374754D01*
X121402104Y-109404526D01*
X121441503Y-109499642D01*
X121445645Y-109509642D01*
X121534526Y-109625474D01*
X121541076Y-109630500D01*
X121541079Y-109630503D01*
X121641443Y-109707515D01*
X121650357Y-109714355D01*
X121785246Y-109770228D01*
X121930000Y-109789285D01*
X121938188Y-109788207D01*
X122066566Y-109771306D01*
X122074754Y-109770228D01*
X122209643Y-109714355D01*
X122218557Y-109707515D01*
X122318921Y-109630503D01*
X122318924Y-109630500D01*
X122325474Y-109625474D01*
X122414355Y-109509642D01*
X122418498Y-109499642D01*
X122457896Y-109404526D01*
X122470228Y-109374754D01*
X122473516Y-109349783D01*
X122488207Y-109238188D01*
X122489285Y-109230000D01*
X122487969Y-109220000D01*
X129650715Y-109220000D01*
X129651793Y-109228188D01*
X129663969Y-109320673D01*
X129669772Y-109364754D01*
X129725645Y-109499642D01*
X129814526Y-109615474D01*
X129821076Y-109620500D01*
X129821079Y-109620503D01*
X129923804Y-109699327D01*
X129930357Y-109704355D01*
X130065246Y-109760228D01*
X130073434Y-109761306D01*
X130123050Y-109767838D01*
X130210000Y-109779285D01*
X130218188Y-109778207D01*
X130226172Y-109777156D01*
X130296950Y-109767838D01*
X130346566Y-109761306D01*
X130354754Y-109760228D01*
X130489643Y-109704355D01*
X130496196Y-109699327D01*
X130598921Y-109620503D01*
X130598924Y-109620500D01*
X130605474Y-109615474D01*
X130694355Y-109499642D01*
X130750228Y-109364754D01*
X130756032Y-109320673D01*
X130768207Y-109228188D01*
X130769285Y-109220000D01*
X130750228Y-109075246D01*
X130701657Y-108957986D01*
X130697515Y-108947986D01*
X130697514Y-108947984D01*
X130694355Y-108940358D01*
X130605474Y-108824526D01*
X130598924Y-108819500D01*
X130598921Y-108819497D01*
X130496196Y-108740673D01*
X130496194Y-108740672D01*
X130489643Y-108735645D01*
X130354754Y-108679772D01*
X130210000Y-108660715D01*
X130201812Y-108661793D01*
X130073432Y-108678694D01*
X130073430Y-108678695D01*
X130065246Y-108679772D01*
X130046548Y-108687517D01*
X129937986Y-108732485D01*
X129937984Y-108732486D01*
X129930358Y-108735645D01*
X129814526Y-108824526D01*
X129725645Y-108940358D01*
X129722486Y-108947984D01*
X129722485Y-108947986D01*
X129718343Y-108957986D01*
X129669772Y-109075246D01*
X129650715Y-109220000D01*
X122487969Y-109220000D01*
X122479625Y-109156623D01*
X122471306Y-109093432D01*
X122471305Y-109093430D01*
X122470228Y-109085246D01*
X122430675Y-108989757D01*
X122417515Y-108957986D01*
X122417514Y-108957984D01*
X122414355Y-108950358D01*
X122325474Y-108834526D01*
X122318924Y-108829500D01*
X122318921Y-108829497D01*
X122216196Y-108750673D01*
X122216194Y-108750672D01*
X122209643Y-108745645D01*
X122074754Y-108689772D01*
X122057626Y-108687517D01*
X121990607Y-108678694D01*
X121930000Y-108670715D01*
X121921812Y-108671793D01*
X121793432Y-108688694D01*
X121793430Y-108688695D01*
X121785246Y-108689772D01*
X121776917Y-108693222D01*
X121657986Y-108742485D01*
X121657984Y-108742486D01*
X121650358Y-108745645D01*
X121534526Y-108834526D01*
X121445645Y-108950358D01*
X121442486Y-108957984D01*
X121442485Y-108957986D01*
X121429325Y-108989757D01*
X121389772Y-109085246D01*
X121388695Y-109093430D01*
X121388694Y-109093432D01*
X121380375Y-109156623D01*
X121370715Y-109230000D01*
X109601000Y-109230000D01*
X109601000Y-107950000D01*
X123265715Y-107950000D01*
X123266793Y-107958188D01*
X123274471Y-108016506D01*
X123284772Y-108094754D01*
X123340645Y-108229642D01*
X123429526Y-108345474D01*
X123436076Y-108350500D01*
X123436079Y-108350503D01*
X123512968Y-108409502D01*
X123545357Y-108434355D01*
X123680246Y-108490228D01*
X123825000Y-108509285D01*
X123833188Y-108508207D01*
X123961566Y-108491306D01*
X123969754Y-108490228D01*
X124104643Y-108434355D01*
X124137032Y-108409502D01*
X124213921Y-108350503D01*
X124213924Y-108350500D01*
X124220474Y-108345474D01*
X124301407Y-108240000D01*
X130720715Y-108240000D01*
X130739772Y-108384754D01*
X130742931Y-108392380D01*
X130783908Y-108491306D01*
X130795645Y-108519642D01*
X130884526Y-108635474D01*
X130891076Y-108640500D01*
X130891079Y-108640503D01*
X130993804Y-108719327D01*
X131000357Y-108724355D01*
X131135246Y-108780228D01*
X131280000Y-108799285D01*
X131288188Y-108798207D01*
X131416566Y-108781306D01*
X131424754Y-108780228D01*
X131559643Y-108724355D01*
X131566196Y-108719327D01*
X131668921Y-108640503D01*
X131668924Y-108640500D01*
X131675474Y-108635474D01*
X131764355Y-108519642D01*
X131776093Y-108491306D01*
X131817069Y-108392380D01*
X131820228Y-108384754D01*
X131839285Y-108240000D01*
X131820228Y-108095246D01*
X131800422Y-108047430D01*
X131767515Y-107967986D01*
X131767514Y-107967984D01*
X131764355Y-107960358D01*
X131675474Y-107844526D01*
X131668924Y-107839500D01*
X131668921Y-107839497D01*
X131566196Y-107760673D01*
X131566194Y-107760672D01*
X131559643Y-107755645D01*
X131424754Y-107699772D01*
X131280000Y-107680715D01*
X131271812Y-107681793D01*
X131143432Y-107698694D01*
X131143430Y-107698695D01*
X131135246Y-107699772D01*
X131091274Y-107717986D01*
X131007986Y-107752485D01*
X131007984Y-107752486D01*
X131000358Y-107755645D01*
X130884526Y-107844526D01*
X130795645Y-107960358D01*
X130792486Y-107967984D01*
X130792485Y-107967986D01*
X130759578Y-108047430D01*
X130739772Y-108095246D01*
X130720715Y-108240000D01*
X124301407Y-108240000D01*
X124309355Y-108229642D01*
X124365228Y-108094754D01*
X124375530Y-108016506D01*
X124383207Y-107958188D01*
X124384285Y-107950000D01*
X124366660Y-107816120D01*
X124366306Y-107813432D01*
X124366305Y-107813430D01*
X124365228Y-107805246D01*
X124332145Y-107725378D01*
X124312515Y-107677986D01*
X124312514Y-107677984D01*
X124309355Y-107670358D01*
X124249877Y-107592845D01*
X124225501Y-107561077D01*
X124225500Y-107561076D01*
X124220474Y-107554526D01*
X124213924Y-107549500D01*
X124213921Y-107549497D01*
X124187197Y-107528991D01*
X135878724Y-107528991D01*
X135879802Y-107537179D01*
X135896473Y-107663807D01*
X135897781Y-107673745D01*
X135900940Y-107681371D01*
X135930397Y-107752485D01*
X135953654Y-107808633D01*
X136042535Y-107924465D01*
X136049085Y-107929491D01*
X136049088Y-107929494D01*
X136151813Y-108008318D01*
X136158366Y-108013346D01*
X136293255Y-108069219D01*
X136438009Y-108088276D01*
X136446197Y-108087198D01*
X136450983Y-108086568D01*
X136582763Y-108069219D01*
X136717652Y-108013346D01*
X136724205Y-108008318D01*
X136826930Y-107929494D01*
X136826933Y-107929491D01*
X136833483Y-107924465D01*
X136922364Y-107808633D01*
X136945622Y-107752485D01*
X136975078Y-107681371D01*
X136978237Y-107673745D01*
X136979546Y-107663807D01*
X136996216Y-107537179D01*
X136997294Y-107528991D01*
X136989616Y-107470672D01*
X136979315Y-107392423D01*
X136979314Y-107392421D01*
X136978237Y-107384237D01*
X136922364Y-107249349D01*
X136833483Y-107133517D01*
X136826933Y-107128491D01*
X136826930Y-107128488D01*
X136724205Y-107049664D01*
X136724203Y-107049663D01*
X136717652Y-107044636D01*
X136582763Y-106988763D01*
X136438009Y-106969706D01*
X136429821Y-106970784D01*
X136301441Y-106987685D01*
X136301439Y-106987686D01*
X136293255Y-106988763D01*
X136245439Y-107008569D01*
X136165995Y-107041476D01*
X136165993Y-107041477D01*
X136158367Y-107044636D01*
X136042535Y-107133517D01*
X135953654Y-107249349D01*
X135897781Y-107384237D01*
X135896704Y-107392421D01*
X135896703Y-107392423D01*
X135886402Y-107470672D01*
X135878724Y-107528991D01*
X124187197Y-107528991D01*
X124111196Y-107470673D01*
X124111194Y-107470672D01*
X124104643Y-107465645D01*
X123969754Y-107409772D01*
X123825000Y-107390715D01*
X123801255Y-107393841D01*
X123688432Y-107408694D01*
X123688430Y-107408695D01*
X123680246Y-107409772D01*
X123632430Y-107429578D01*
X123552986Y-107462485D01*
X123552984Y-107462486D01*
X123545358Y-107465645D01*
X123429526Y-107554526D01*
X123340645Y-107670358D01*
X123337486Y-107677984D01*
X123337485Y-107677986D01*
X123317855Y-107725378D01*
X123284772Y-107805246D01*
X123283695Y-107813430D01*
X123283694Y-107813432D01*
X123283340Y-107816120D01*
X123265715Y-107950000D01*
X109601000Y-107950000D01*
X109601000Y-105776964D01*
X112048148Y-105776964D01*
X112061424Y-105979522D01*
X112062845Y-105985118D01*
X112062846Y-105985123D01*
X112083119Y-106064945D01*
X112111392Y-106176269D01*
X112113809Y-106181512D01*
X112150837Y-106261832D01*
X112196377Y-106360616D01*
X112199710Y-106365332D01*
X112307107Y-106517296D01*
X112313533Y-106526389D01*
X112317675Y-106530424D01*
X112374637Y-106585913D01*
X112458938Y-106668035D01*
X112627720Y-106780812D01*
X112633023Y-106783090D01*
X112633026Y-106783092D01*
X112721707Y-106821192D01*
X112814228Y-106860942D01*
X112887244Y-106877464D01*
X113006579Y-106904467D01*
X113006584Y-106904468D01*
X113012216Y-106905742D01*
X113017987Y-106905969D01*
X113017989Y-106905969D01*
X113077756Y-106908317D01*
X113215053Y-106913712D01*
X113315499Y-106899148D01*
X113410231Y-106885413D01*
X113410236Y-106885412D01*
X113415945Y-106884584D01*
X113421409Y-106882729D01*
X113421414Y-106882728D01*
X113602693Y-106821192D01*
X113602698Y-106821190D01*
X113608165Y-106819334D01*
X113785276Y-106720147D01*
X113793514Y-106713296D01*
X113936913Y-106594031D01*
X113941345Y-106590345D01*
X114005624Y-106513058D01*
X114067453Y-106438718D01*
X114067455Y-106438715D01*
X114071147Y-106434276D01*
X114170334Y-106257165D01*
X114172190Y-106251698D01*
X114172192Y-106251693D01*
X114199248Y-106171990D01*
X129234715Y-106171990D01*
X129235969Y-106181512D01*
X129245727Y-106255632D01*
X129253772Y-106316744D01*
X129266666Y-106347872D01*
X129304296Y-106438718D01*
X129309645Y-106451632D01*
X129354086Y-106509548D01*
X129373827Y-106535275D01*
X129398526Y-106567464D01*
X129405076Y-106572490D01*
X129405079Y-106572493D01*
X129433148Y-106594031D01*
X129514357Y-106656345D01*
X129649246Y-106712218D01*
X129794000Y-106731275D01*
X129802188Y-106730197D01*
X129930566Y-106713296D01*
X129938754Y-106712218D01*
X130073643Y-106656345D01*
X130154852Y-106594031D01*
X130182921Y-106572493D01*
X130182924Y-106572490D01*
X130189474Y-106567464D01*
X130214174Y-106535275D01*
X130233914Y-106509548D01*
X130278355Y-106451632D01*
X130283705Y-106438718D01*
X130321334Y-106347872D01*
X130334228Y-106316744D01*
X130342274Y-106255632D01*
X130352031Y-106181512D01*
X130353285Y-106171990D01*
X130345461Y-106112558D01*
X130335306Y-106035422D01*
X130335305Y-106035420D01*
X130334228Y-106027236D01*
X130313001Y-105975990D01*
X138759715Y-105975990D01*
X138778772Y-106120744D01*
X138781931Y-106128370D01*
X138808638Y-106192845D01*
X138834645Y-106255632D01*
X138839672Y-106262183D01*
X138896083Y-106335699D01*
X138923526Y-106371464D01*
X138930076Y-106376490D01*
X138930079Y-106376493D01*
X139011172Y-106438718D01*
X139039357Y-106460345D01*
X139174246Y-106516218D01*
X139319000Y-106535275D01*
X139327188Y-106534197D01*
X139455566Y-106517296D01*
X139463754Y-106516218D01*
X139598643Y-106460345D01*
X139626828Y-106438718D01*
X139707921Y-106376493D01*
X139707924Y-106376490D01*
X139714474Y-106371464D01*
X139741918Y-106335699D01*
X139798328Y-106262183D01*
X139803355Y-106255632D01*
X139829363Y-106192845D01*
X139856069Y-106128370D01*
X139859228Y-106120744D01*
X139878285Y-105975990D01*
X139868278Y-105899976D01*
X139860306Y-105839422D01*
X139860305Y-105839420D01*
X139859228Y-105831236D01*
X139803355Y-105696348D01*
X139740001Y-105613783D01*
X139719501Y-105587067D01*
X139719500Y-105587066D01*
X139714474Y-105580516D01*
X139707924Y-105575490D01*
X139707921Y-105575487D01*
X139605196Y-105496663D01*
X139605194Y-105496662D01*
X139598643Y-105491635D01*
X139463754Y-105435762D01*
X139319000Y-105416705D01*
X139310812Y-105417783D01*
X139182432Y-105434684D01*
X139182430Y-105434685D01*
X139174246Y-105435762D01*
X139126430Y-105455568D01*
X139046986Y-105488475D01*
X139046984Y-105488476D01*
X139039358Y-105491635D01*
X138923526Y-105580516D01*
X138834645Y-105696348D01*
X138778772Y-105831236D01*
X138777695Y-105839420D01*
X138777694Y-105839422D01*
X138769722Y-105899976D01*
X138759715Y-105975990D01*
X130313001Y-105975990D01*
X130278355Y-105892348D01*
X130231462Y-105831236D01*
X130194501Y-105783067D01*
X130194500Y-105783066D01*
X130189474Y-105776516D01*
X130182924Y-105771490D01*
X130182921Y-105771487D01*
X130080196Y-105692663D01*
X130080194Y-105692662D01*
X130073643Y-105687635D01*
X129938754Y-105631762D01*
X129794000Y-105612705D01*
X129785812Y-105613783D01*
X129657432Y-105630684D01*
X129657430Y-105630685D01*
X129649246Y-105631762D01*
X129601430Y-105651568D01*
X129521986Y-105684475D01*
X129521984Y-105684476D01*
X129514358Y-105687635D01*
X129398526Y-105776516D01*
X129309645Y-105892348D01*
X129253772Y-106027236D01*
X129252695Y-106035420D01*
X129252694Y-106035422D01*
X129242539Y-106112558D01*
X129234715Y-106171990D01*
X114199248Y-106171990D01*
X114233728Y-106070414D01*
X114233729Y-106070409D01*
X114235584Y-106064945D01*
X114236412Y-106059236D01*
X114236413Y-106059231D01*
X114264179Y-105867727D01*
X114264712Y-105864053D01*
X114266232Y-105806000D01*
X114247658Y-105603859D01*
X114242921Y-105587062D01*
X114194125Y-105414046D01*
X114194124Y-105414044D01*
X114192557Y-105408487D01*
X114181978Y-105387033D01*
X114105331Y-105231609D01*
X114102776Y-105226428D01*
X113981320Y-105063779D01*
X113832258Y-104925987D01*
X113827375Y-104922906D01*
X113827371Y-104922903D01*
X113665464Y-104820748D01*
X113660581Y-104817667D01*
X113472039Y-104742446D01*
X113466379Y-104741320D01*
X113466375Y-104741319D01*
X113278613Y-104703971D01*
X113278610Y-104703971D01*
X113272946Y-104702844D01*
X113267171Y-104702768D01*
X113267167Y-104702768D01*
X113165793Y-104701441D01*
X113069971Y-104700187D01*
X113064274Y-104701166D01*
X113064273Y-104701166D01*
X112875607Y-104733585D01*
X112869910Y-104734564D01*
X112679463Y-104804824D01*
X112505010Y-104908612D01*
X112500670Y-104912418D01*
X112500666Y-104912421D01*
X112480723Y-104929911D01*
X112352392Y-105042455D01*
X112226720Y-105201869D01*
X112224031Y-105206980D01*
X112224029Y-105206983D01*
X112211073Y-105231609D01*
X112132203Y-105381515D01*
X112072007Y-105575378D01*
X112048148Y-105776964D01*
X109601000Y-105776964D01*
X109601000Y-103236964D01*
X112048148Y-103236964D01*
X112061424Y-103439522D01*
X112062845Y-103445118D01*
X112062846Y-103445123D01*
X112094631Y-103570275D01*
X112111392Y-103636269D01*
X112113809Y-103641512D01*
X112151010Y-103722208D01*
X112196377Y-103820616D01*
X112313533Y-103986389D01*
X112458938Y-104128035D01*
X112627720Y-104240812D01*
X112633023Y-104243090D01*
X112633026Y-104243092D01*
X112721707Y-104281192D01*
X112814228Y-104320942D01*
X112887244Y-104337464D01*
X113006579Y-104364467D01*
X113006584Y-104364468D01*
X113012216Y-104365742D01*
X113017987Y-104365969D01*
X113017989Y-104365969D01*
X113077756Y-104368317D01*
X113215053Y-104373712D01*
X113315499Y-104359148D01*
X113410231Y-104345413D01*
X113410236Y-104345412D01*
X113415945Y-104344584D01*
X113421409Y-104342729D01*
X113421414Y-104342728D01*
X113602693Y-104281192D01*
X113602698Y-104281190D01*
X113608165Y-104279334D01*
X113785276Y-104180147D01*
X113847934Y-104128035D01*
X113936913Y-104054031D01*
X113941345Y-104050345D01*
X114071147Y-103894276D01*
X114170334Y-103717165D01*
X114172190Y-103711698D01*
X114172192Y-103711693D01*
X114233728Y-103530414D01*
X114233729Y-103530409D01*
X114235584Y-103524945D01*
X114236412Y-103519236D01*
X114236413Y-103519231D01*
X114264179Y-103327727D01*
X114264712Y-103324053D01*
X114266232Y-103266000D01*
X114252912Y-103121042D01*
X114248187Y-103069613D01*
X114248186Y-103069610D01*
X114247658Y-103063859D01*
X114242708Y-103046306D01*
X114194125Y-102874046D01*
X114194124Y-102874044D01*
X114192557Y-102868487D01*
X114187687Y-102858610D01*
X114105331Y-102691609D01*
X114102776Y-102686428D01*
X113981320Y-102523779D01*
X113857107Y-102408957D01*
X113836503Y-102389911D01*
X113832258Y-102385987D01*
X113827375Y-102382906D01*
X113827371Y-102382903D01*
X113666892Y-102281649D01*
X113660581Y-102277667D01*
X113472039Y-102202446D01*
X113466379Y-102201320D01*
X113466375Y-102201319D01*
X113278613Y-102163971D01*
X113278610Y-102163971D01*
X113272946Y-102162844D01*
X113267171Y-102162768D01*
X113267167Y-102162768D01*
X113165793Y-102161441D01*
X113069971Y-102160187D01*
X113064274Y-102161166D01*
X113064273Y-102161166D01*
X112875607Y-102193585D01*
X112869910Y-102194564D01*
X112679463Y-102264824D01*
X112674502Y-102267776D01*
X112674501Y-102267776D01*
X112673378Y-102268444D01*
X112505010Y-102368612D01*
X112500670Y-102372418D01*
X112500666Y-102372421D01*
X112358827Y-102496812D01*
X112352392Y-102502455D01*
X112226720Y-102661869D01*
X112224031Y-102666980D01*
X112224029Y-102666983D01*
X112193612Y-102724797D01*
X112132203Y-102841515D01*
X112105009Y-102929095D01*
X112076376Y-103021309D01*
X112072007Y-103035378D01*
X112048148Y-103236964D01*
X109601000Y-103236964D01*
X109601000Y-101994990D01*
X129361715Y-101994990D01*
X129362793Y-102003178D01*
X129377656Y-102116072D01*
X129380772Y-102139744D01*
X129390807Y-102163971D01*
X129431755Y-102262826D01*
X129436645Y-102274632D01*
X129525526Y-102390464D01*
X129532076Y-102395490D01*
X129532079Y-102395493D01*
X129634804Y-102474317D01*
X129641357Y-102479345D01*
X129776246Y-102535218D01*
X129921000Y-102554275D01*
X129929188Y-102553197D01*
X130057566Y-102536296D01*
X130065754Y-102535218D01*
X130138707Y-102505000D01*
X134585715Y-102505000D01*
X134586793Y-102513188D01*
X134600265Y-102615516D01*
X134604772Y-102649754D01*
X134660645Y-102784642D01*
X134682250Y-102812798D01*
X134729536Y-102874422D01*
X134749526Y-102900474D01*
X134756076Y-102905500D01*
X134756079Y-102905503D01*
X134858804Y-102984327D01*
X134865357Y-102989355D01*
X135000246Y-103045228D01*
X135145000Y-103064285D01*
X135153188Y-103063207D01*
X135281566Y-103046306D01*
X135289754Y-103045228D01*
X135372412Y-103010990D01*
X138872725Y-103010990D01*
X138874756Y-103026419D01*
X138890312Y-103144576D01*
X138891782Y-103155744D01*
X138894941Y-103163370D01*
X138924197Y-103233999D01*
X138947655Y-103290632D01*
X139036536Y-103406464D01*
X139043086Y-103411490D01*
X139043089Y-103411493D01*
X139145814Y-103490317D01*
X139152367Y-103495345D01*
X139287256Y-103551218D01*
X139432010Y-103570275D01*
X139440198Y-103569197D01*
X139568576Y-103552296D01*
X139576764Y-103551218D01*
X139711653Y-103495345D01*
X139718206Y-103490317D01*
X139820931Y-103411493D01*
X139820934Y-103411490D01*
X139827484Y-103406464D01*
X139916365Y-103290632D01*
X139939824Y-103233999D01*
X139969079Y-103163370D01*
X139972238Y-103155744D01*
X139973709Y-103144576D01*
X139989264Y-103026419D01*
X139991295Y-103010990D01*
X139981326Y-102935269D01*
X139973316Y-102874422D01*
X139973315Y-102874420D01*
X139972238Y-102866236D01*
X139941154Y-102791193D01*
X139919525Y-102738976D01*
X139919524Y-102738974D01*
X139916365Y-102731348D01*
X139851402Y-102646686D01*
X139832511Y-102622067D01*
X139832510Y-102622066D01*
X139827484Y-102615516D01*
X139820934Y-102610490D01*
X139820931Y-102610487D01*
X139718206Y-102531663D01*
X139718204Y-102531662D01*
X139711653Y-102526635D01*
X139604127Y-102482096D01*
X146787729Y-102482096D01*
X146793245Y-102532058D01*
X146801905Y-102610493D01*
X146805113Y-102639553D01*
X146807723Y-102646684D01*
X146807723Y-102646686D01*
X146838705Y-102731348D01*
X146859553Y-102788319D01*
X146863789Y-102794622D01*
X146863789Y-102794623D01*
X146928264Y-102890571D01*
X146947908Y-102919805D01*
X146953527Y-102924918D01*
X146953528Y-102924919D01*
X147057118Y-103019178D01*
X147065076Y-103026419D01*
X147204293Y-103102008D01*
X147357522Y-103142207D01*
X147441477Y-103143526D01*
X147508319Y-103144576D01*
X147508322Y-103144576D01*
X147515916Y-103144695D01*
X147670332Y-103109329D01*
X147760740Y-103063859D01*
X147805072Y-103041563D01*
X147805075Y-103041561D01*
X147811855Y-103038151D01*
X147817626Y-103033222D01*
X147817629Y-103033220D01*
X147926536Y-102940204D01*
X147926536Y-102940203D01*
X147932314Y-102935269D01*
X148024755Y-102806624D01*
X148083842Y-102659641D01*
X148096159Y-102573096D01*
X148490729Y-102573096D01*
X148496135Y-102622062D01*
X148502731Y-102681801D01*
X148508113Y-102730553D01*
X148510723Y-102737684D01*
X148510723Y-102737686D01*
X148556694Y-102863307D01*
X148562553Y-102879319D01*
X148566789Y-102885622D01*
X148566789Y-102885623D01*
X148638618Y-102992515D01*
X148650908Y-103010805D01*
X148656527Y-103015918D01*
X148656528Y-103015919D01*
X148747158Y-103098385D01*
X148768076Y-103117419D01*
X148907293Y-103193008D01*
X149060522Y-103233207D01*
X149144477Y-103234526D01*
X149211319Y-103235576D01*
X149211322Y-103235576D01*
X149218916Y-103235695D01*
X149373332Y-103200329D01*
X149443742Y-103164917D01*
X149508072Y-103132563D01*
X149508075Y-103132561D01*
X149514855Y-103129151D01*
X149520626Y-103124222D01*
X149520629Y-103124220D01*
X149629536Y-103031204D01*
X149629536Y-103031203D01*
X149635314Y-103026269D01*
X149727755Y-102897624D01*
X149786842Y-102750641D01*
X149801200Y-102649754D01*
X149808581Y-102597891D01*
X149808581Y-102597888D01*
X149809162Y-102593807D01*
X149809307Y-102580000D01*
X149790276Y-102422733D01*
X149734280Y-102274546D01*
X149683953Y-102201319D01*
X149648855Y-102150251D01*
X149648854Y-102150249D01*
X149644553Y-102143992D01*
X149526275Y-102038611D01*
X149518889Y-102034700D01*
X149392988Y-101968039D01*
X149392989Y-101968039D01*
X149386274Y-101964484D01*
X149232633Y-101925892D01*
X149225034Y-101925852D01*
X149225033Y-101925852D01*
X149159181Y-101925507D01*
X149074221Y-101925062D01*
X149066841Y-101926834D01*
X149066839Y-101926834D01*
X148927563Y-101960271D01*
X148927560Y-101960272D01*
X148920184Y-101962043D01*
X148779414Y-102034700D01*
X148660039Y-102138838D01*
X148568950Y-102268444D01*
X148563802Y-102281649D01*
X148519416Y-102395493D01*
X148511406Y-102416037D01*
X148510414Y-102423570D01*
X148510414Y-102423571D01*
X148493207Y-102554275D01*
X148490729Y-102573096D01*
X148096159Y-102573096D01*
X148101396Y-102536296D01*
X148105581Y-102506891D01*
X148105581Y-102506888D01*
X148106162Y-102502807D01*
X148106307Y-102489000D01*
X148087276Y-102331733D01*
X148031280Y-102183546D01*
X147980408Y-102109526D01*
X147945855Y-102059251D01*
X147945854Y-102059249D01*
X147941553Y-102052992D01*
X147931084Y-102043664D01*
X147901700Y-102017485D01*
X147823275Y-101947611D01*
X147815889Y-101943700D01*
X147689988Y-101877039D01*
X147689989Y-101877039D01*
X147683274Y-101873484D01*
X147529633Y-101834892D01*
X147522034Y-101834852D01*
X147522033Y-101834852D01*
X147456181Y-101834507D01*
X147371221Y-101834062D01*
X147363841Y-101835834D01*
X147363839Y-101835834D01*
X147224563Y-101869271D01*
X147224560Y-101869272D01*
X147217184Y-101871043D01*
X147076414Y-101943700D01*
X146957039Y-102047838D01*
X146865950Y-102177444D01*
X146858495Y-102196565D01*
X146825674Y-102280748D01*
X146808406Y-102325037D01*
X146807414Y-102332570D01*
X146807414Y-102332571D01*
X146794552Y-102430273D01*
X146787729Y-102482096D01*
X139604127Y-102482096D01*
X139576764Y-102470762D01*
X139432010Y-102451705D01*
X139423822Y-102452783D01*
X139295442Y-102469684D01*
X139295440Y-102469685D01*
X139287256Y-102470762D01*
X139278674Y-102474317D01*
X139159996Y-102523475D01*
X139159994Y-102523476D01*
X139152368Y-102526635D01*
X139036536Y-102615516D01*
X138947655Y-102731348D01*
X138944496Y-102738974D01*
X138944495Y-102738976D01*
X138922866Y-102791193D01*
X138891782Y-102866236D01*
X138890705Y-102874420D01*
X138890704Y-102874422D01*
X138882694Y-102935269D01*
X138872725Y-103010990D01*
X135372412Y-103010990D01*
X135424643Y-102989355D01*
X135431196Y-102984327D01*
X135533921Y-102905503D01*
X135533924Y-102905500D01*
X135540474Y-102900474D01*
X135560465Y-102874422D01*
X135607750Y-102812798D01*
X135629355Y-102784642D01*
X135685228Y-102649754D01*
X135689736Y-102615516D01*
X135703207Y-102513188D01*
X135704285Y-102505000D01*
X135701159Y-102481255D01*
X135686306Y-102368432D01*
X135686305Y-102368430D01*
X135685228Y-102360246D01*
X135647202Y-102268444D01*
X135632515Y-102232986D01*
X135632514Y-102232984D01*
X135629355Y-102225358D01*
X135562966Y-102138838D01*
X135545501Y-102116077D01*
X135545500Y-102116076D01*
X135540474Y-102109526D01*
X135533924Y-102104500D01*
X135533921Y-102104497D01*
X135431196Y-102025673D01*
X135431194Y-102025672D01*
X135424643Y-102020645D01*
X135289754Y-101964772D01*
X135145000Y-101945715D01*
X135136812Y-101946793D01*
X135008432Y-101963694D01*
X135008430Y-101963695D01*
X135000246Y-101964772D01*
X134992359Y-101968039D01*
X134872986Y-102017485D01*
X134872984Y-102017486D01*
X134865358Y-102020645D01*
X134749526Y-102109526D01*
X134660645Y-102225358D01*
X134657486Y-102232984D01*
X134657485Y-102232986D01*
X134642798Y-102268444D01*
X134604772Y-102360246D01*
X134603695Y-102368430D01*
X134603694Y-102368432D01*
X134588841Y-102481255D01*
X134585715Y-102505000D01*
X130138707Y-102505000D01*
X130200643Y-102479345D01*
X130207196Y-102474317D01*
X130309921Y-102395493D01*
X130309924Y-102395490D01*
X130316474Y-102390464D01*
X130405355Y-102274632D01*
X130410246Y-102262826D01*
X130451193Y-102163971D01*
X130461228Y-102139744D01*
X130464345Y-102116072D01*
X130479207Y-102003178D01*
X130480285Y-101994990D01*
X130476025Y-101962634D01*
X130462306Y-101858422D01*
X130462305Y-101858420D01*
X130461228Y-101850236D01*
X130416060Y-101741192D01*
X130408515Y-101722976D01*
X130408514Y-101722974D01*
X130405355Y-101715348D01*
X130316474Y-101599516D01*
X130309924Y-101594490D01*
X130309921Y-101594487D01*
X130236945Y-101538490D01*
X138512225Y-101538490D01*
X138513303Y-101546678D01*
X138521122Y-101606067D01*
X138531282Y-101683244D01*
X138541867Y-101708797D01*
X138581887Y-101805413D01*
X138587155Y-101818132D01*
X138676036Y-101933964D01*
X138682586Y-101938990D01*
X138682589Y-101938993D01*
X138785314Y-102017817D01*
X138791867Y-102022845D01*
X138926756Y-102078718D01*
X139071510Y-102097775D01*
X139079698Y-102096697D01*
X139208076Y-102079796D01*
X139216264Y-102078718D01*
X139351153Y-102022845D01*
X139357706Y-102017817D01*
X139460431Y-101938993D01*
X139460434Y-101938990D01*
X139466984Y-101933964D01*
X139555865Y-101818132D01*
X139561134Y-101805413D01*
X139601153Y-101708797D01*
X139611738Y-101683244D01*
X139621899Y-101606067D01*
X139629717Y-101546678D01*
X139630795Y-101538490D01*
X139618670Y-101446389D01*
X139612816Y-101401922D01*
X139612815Y-101401920D01*
X139611738Y-101393736D01*
X139579458Y-101315806D01*
X139559025Y-101266476D01*
X139559024Y-101266474D01*
X139555865Y-101258848D01*
X139497057Y-101182208D01*
X139472011Y-101149567D01*
X139472010Y-101149566D01*
X139466984Y-101143016D01*
X139460434Y-101137990D01*
X139460431Y-101137987D01*
X139357706Y-101059163D01*
X139357704Y-101059162D01*
X139351153Y-101054135D01*
X139216264Y-100998262D01*
X139071510Y-100979205D01*
X139063322Y-100980283D01*
X138934942Y-100997184D01*
X138934940Y-100997185D01*
X138926756Y-100998262D01*
X138878940Y-101018068D01*
X138799496Y-101050975D01*
X138799494Y-101050976D01*
X138791868Y-101054135D01*
X138676036Y-101143016D01*
X138587155Y-101258848D01*
X138583996Y-101266474D01*
X138583995Y-101266476D01*
X138563562Y-101315806D01*
X138531282Y-101393736D01*
X138530205Y-101401920D01*
X138530204Y-101401922D01*
X138524350Y-101446389D01*
X138512225Y-101538490D01*
X130236945Y-101538490D01*
X130207196Y-101515663D01*
X130207194Y-101515662D01*
X130200643Y-101510635D01*
X130065754Y-101454762D01*
X129921000Y-101435705D01*
X129912812Y-101436783D01*
X129784432Y-101453684D01*
X129784430Y-101453685D01*
X129776246Y-101454762D01*
X129728430Y-101474568D01*
X129648986Y-101507475D01*
X129648984Y-101507476D01*
X129641358Y-101510635D01*
X129525526Y-101599516D01*
X129436645Y-101715348D01*
X129433486Y-101722974D01*
X129433485Y-101722976D01*
X129425940Y-101741192D01*
X129380772Y-101850236D01*
X129379695Y-101858420D01*
X129379694Y-101858422D01*
X129365975Y-101962634D01*
X129361715Y-101994990D01*
X109601000Y-101994990D01*
X109601000Y-100696964D01*
X112048148Y-100696964D01*
X112061424Y-100899522D01*
X112062845Y-100905118D01*
X112062846Y-100905123D01*
X112098756Y-101046514D01*
X112111392Y-101096269D01*
X112113809Y-101101512D01*
X112151010Y-101182208D01*
X112196377Y-101280616D01*
X112313533Y-101446389D01*
X112458938Y-101588035D01*
X112627720Y-101700812D01*
X112633023Y-101703090D01*
X112633026Y-101703092D01*
X112721707Y-101741192D01*
X112814228Y-101780942D01*
X112887244Y-101797464D01*
X113006579Y-101824467D01*
X113006584Y-101824468D01*
X113012216Y-101825742D01*
X113017987Y-101825969D01*
X113017989Y-101825969D01*
X113077756Y-101828317D01*
X113215053Y-101833712D01*
X113322506Y-101818132D01*
X113410231Y-101805413D01*
X113410236Y-101805412D01*
X113415945Y-101804584D01*
X113421409Y-101802729D01*
X113421414Y-101802728D01*
X113602693Y-101741192D01*
X113602698Y-101741190D01*
X113608165Y-101739334D01*
X113637375Y-101722976D01*
X113722938Y-101675058D01*
X113785276Y-101640147D01*
X113826253Y-101606067D01*
X113936913Y-101514031D01*
X113941345Y-101510345D01*
X114031520Y-101401922D01*
X114067453Y-101358718D01*
X114067455Y-101358715D01*
X114071147Y-101354276D01*
X114170334Y-101177165D01*
X114172190Y-101171698D01*
X114172192Y-101171693D01*
X114233728Y-100990414D01*
X114233729Y-100990409D01*
X114235584Y-100984945D01*
X114236412Y-100979236D01*
X114236413Y-100979231D01*
X114264179Y-100787727D01*
X114264712Y-100784053D01*
X114264962Y-100774500D01*
X137346215Y-100774500D01*
X137347293Y-100782688D01*
X137363412Y-100905123D01*
X137365272Y-100919254D01*
X137368431Y-100926880D01*
X137397999Y-100998262D01*
X137421145Y-101054142D01*
X137426172Y-101060693D01*
X137485482Y-101137987D01*
X137510026Y-101169974D01*
X137516576Y-101175000D01*
X137516579Y-101175003D01*
X137619304Y-101253827D01*
X137625857Y-101258855D01*
X137760746Y-101314728D01*
X137905500Y-101333785D01*
X137913688Y-101332707D01*
X138042066Y-101315806D01*
X138050254Y-101314728D01*
X138185143Y-101258855D01*
X138191696Y-101253827D01*
X138294421Y-101175003D01*
X138294424Y-101175000D01*
X138300974Y-101169974D01*
X138325519Y-101137987D01*
X138384828Y-101060693D01*
X138389855Y-101054142D01*
X138413002Y-100998262D01*
X138442569Y-100926880D01*
X138445728Y-100919254D01*
X138447589Y-100905123D01*
X138463707Y-100782688D01*
X138464785Y-100774500D01*
X138458400Y-100726000D01*
X138446806Y-100637932D01*
X138446805Y-100637930D01*
X138445728Y-100629746D01*
X138425922Y-100581930D01*
X138393015Y-100502486D01*
X138393014Y-100502484D01*
X138389855Y-100494858D01*
X138300974Y-100379026D01*
X138294424Y-100374000D01*
X138294421Y-100373997D01*
X138191696Y-100295173D01*
X138191694Y-100295172D01*
X138185143Y-100290145D01*
X138050254Y-100234272D01*
X137905500Y-100215215D01*
X137897312Y-100216293D01*
X137768932Y-100233194D01*
X137768930Y-100233195D01*
X137760746Y-100234272D01*
X137712930Y-100254078D01*
X137633486Y-100286985D01*
X137633484Y-100286986D01*
X137625858Y-100290145D01*
X137510026Y-100379026D01*
X137421145Y-100494858D01*
X137417986Y-100502484D01*
X137417985Y-100502486D01*
X137385078Y-100581930D01*
X137365272Y-100629746D01*
X137364195Y-100637930D01*
X137364194Y-100637932D01*
X137352600Y-100726000D01*
X137346215Y-100774500D01*
X114264962Y-100774500D01*
X114266232Y-100726000D01*
X114248904Y-100537419D01*
X114248187Y-100529613D01*
X114248186Y-100529610D01*
X114247658Y-100523859D01*
X114241630Y-100502486D01*
X114194125Y-100334046D01*
X114194124Y-100334044D01*
X114192557Y-100328487D01*
X114181978Y-100307033D01*
X114105331Y-100151609D01*
X114102776Y-100146428D01*
X113988277Y-99993096D01*
X148670729Y-99993096D01*
X148679421Y-100071824D01*
X148687147Y-100141801D01*
X148688113Y-100150553D01*
X148690723Y-100157684D01*
X148690723Y-100157686D01*
X148739196Y-100290145D01*
X148742553Y-100299319D01*
X148746789Y-100305622D01*
X148746789Y-100305623D01*
X148800513Y-100385572D01*
X148830908Y-100430805D01*
X148836527Y-100435918D01*
X148836528Y-100435919D01*
X148847903Y-100446269D01*
X148948076Y-100537419D01*
X149087293Y-100613008D01*
X149240522Y-100653207D01*
X149324477Y-100654526D01*
X149391319Y-100655576D01*
X149391322Y-100655576D01*
X149398916Y-100655695D01*
X149553332Y-100620329D01*
X149623742Y-100584917D01*
X149688072Y-100552563D01*
X149688075Y-100552561D01*
X149694855Y-100549151D01*
X149700626Y-100544222D01*
X149700629Y-100544220D01*
X149809536Y-100451204D01*
X149809536Y-100451203D01*
X149815314Y-100446269D01*
X149907755Y-100317624D01*
X149966842Y-100170641D01*
X149989162Y-100013807D01*
X149989307Y-100000000D01*
X149970276Y-99842733D01*
X149914280Y-99694546D01*
X149891444Y-99661319D01*
X149828855Y-99570251D01*
X149828854Y-99570249D01*
X149824553Y-99563992D01*
X149706275Y-99458611D01*
X149698889Y-99454700D01*
X149572988Y-99388039D01*
X149572989Y-99388039D01*
X149566274Y-99384484D01*
X149412633Y-99345892D01*
X149405034Y-99345852D01*
X149405033Y-99345852D01*
X149339181Y-99345507D01*
X149254221Y-99345062D01*
X149246841Y-99346834D01*
X149246839Y-99346834D01*
X149107563Y-99380271D01*
X149107560Y-99380272D01*
X149100184Y-99382043D01*
X148959414Y-99454700D01*
X148840039Y-99558838D01*
X148748950Y-99688444D01*
X148691406Y-99836037D01*
X148690414Y-99843570D01*
X148690414Y-99843571D01*
X148671956Y-99983779D01*
X148670729Y-99993096D01*
X113988277Y-99993096D01*
X113981320Y-99983779D01*
X113832258Y-99845987D01*
X113827375Y-99842906D01*
X113827371Y-99842903D01*
X113665464Y-99740748D01*
X113660581Y-99737667D01*
X113472039Y-99662446D01*
X113466379Y-99661320D01*
X113466375Y-99661319D01*
X113278613Y-99623971D01*
X113278610Y-99623971D01*
X113272946Y-99622844D01*
X113267171Y-99622768D01*
X113267167Y-99622768D01*
X113165793Y-99621441D01*
X113069971Y-99620187D01*
X113064274Y-99621166D01*
X113064273Y-99621166D01*
X112875607Y-99653585D01*
X112869910Y-99654564D01*
X112679463Y-99724824D01*
X112505010Y-99828612D01*
X112500670Y-99832418D01*
X112500666Y-99832421D01*
X112480723Y-99849911D01*
X112352392Y-99962455D01*
X112348817Y-99966990D01*
X112348816Y-99966991D01*
X112331931Y-99988409D01*
X112226720Y-100121869D01*
X112224031Y-100126980D01*
X112224029Y-100126983D01*
X112197348Y-100177695D01*
X112132203Y-100301515D01*
X112072007Y-100495378D01*
X112048148Y-100696964D01*
X109601000Y-100696964D01*
X109601000Y-98156964D01*
X112048148Y-98156964D01*
X112061424Y-98359522D01*
X112062845Y-98365118D01*
X112062846Y-98365123D01*
X112083119Y-98444945D01*
X112111392Y-98556269D01*
X112113809Y-98561512D01*
X112151010Y-98642208D01*
X112196377Y-98740616D01*
X112313533Y-98906389D01*
X112458938Y-99048035D01*
X112627720Y-99160812D01*
X112633023Y-99163090D01*
X112633026Y-99163092D01*
X112721707Y-99201192D01*
X112814228Y-99240942D01*
X112887244Y-99257464D01*
X113006579Y-99284467D01*
X113006584Y-99284468D01*
X113012216Y-99285742D01*
X113017987Y-99285969D01*
X113017989Y-99285969D01*
X113077756Y-99288317D01*
X113215053Y-99293712D01*
X113315499Y-99279148D01*
X113410231Y-99265413D01*
X113410236Y-99265412D01*
X113415945Y-99264584D01*
X113421409Y-99262729D01*
X113421414Y-99262728D01*
X113602693Y-99201192D01*
X113602698Y-99201190D01*
X113608165Y-99199334D01*
X113785276Y-99100147D01*
X113847934Y-99048035D01*
X113936913Y-98974031D01*
X113941345Y-98970345D01*
X114071147Y-98814276D01*
X114170334Y-98637165D01*
X114172190Y-98631698D01*
X114172192Y-98631693D01*
X114233728Y-98450414D01*
X114233729Y-98450409D01*
X114235584Y-98444945D01*
X114236412Y-98439236D01*
X114236413Y-98439231D01*
X114264179Y-98247727D01*
X114264712Y-98244053D01*
X114266232Y-98186000D01*
X114247658Y-97983859D01*
X114246090Y-97978299D01*
X114194125Y-97794046D01*
X114194124Y-97794044D01*
X114192557Y-97788487D01*
X114181978Y-97767033D01*
X114105331Y-97611609D01*
X114102776Y-97606428D01*
X113981320Y-97443779D01*
X113832258Y-97305987D01*
X113827375Y-97302906D01*
X113827371Y-97302903D01*
X113665464Y-97200748D01*
X113660581Y-97197667D01*
X113472039Y-97122446D01*
X113466379Y-97121320D01*
X113466375Y-97121319D01*
X113278613Y-97083971D01*
X113278610Y-97083971D01*
X113272946Y-97082844D01*
X113267171Y-97082768D01*
X113267167Y-97082768D01*
X113165793Y-97081441D01*
X113069971Y-97080187D01*
X113064274Y-97081166D01*
X113064273Y-97081166D01*
X112875607Y-97113585D01*
X112869910Y-97114564D01*
X112679463Y-97184824D01*
X112505010Y-97288612D01*
X112500670Y-97292418D01*
X112500666Y-97292421D01*
X112480723Y-97309911D01*
X112352392Y-97422455D01*
X112226720Y-97581869D01*
X112224031Y-97586980D01*
X112224029Y-97586983D01*
X112211073Y-97611609D01*
X112132203Y-97761515D01*
X112072007Y-97955378D01*
X112048148Y-98156964D01*
X109601000Y-98156964D01*
X109601000Y-95616964D01*
X112048148Y-95616964D01*
X112061424Y-95819522D01*
X112062845Y-95825118D01*
X112062846Y-95825123D01*
X112083119Y-95904945D01*
X112111392Y-96016269D01*
X112113809Y-96021512D01*
X112151010Y-96102208D01*
X112196377Y-96200616D01*
X112313533Y-96366389D01*
X112458938Y-96508035D01*
X112627720Y-96620812D01*
X112633023Y-96623090D01*
X112633026Y-96623092D01*
X112721707Y-96661192D01*
X112814228Y-96700942D01*
X112887244Y-96717464D01*
X113006579Y-96744467D01*
X113006584Y-96744468D01*
X113012216Y-96745742D01*
X113017987Y-96745969D01*
X113017989Y-96745969D01*
X113077756Y-96748317D01*
X113215053Y-96753712D01*
X113315499Y-96739148D01*
X113410231Y-96725413D01*
X113410236Y-96725412D01*
X113415945Y-96724584D01*
X113421409Y-96722729D01*
X113421414Y-96722728D01*
X113602693Y-96661192D01*
X113602698Y-96661190D01*
X113608165Y-96659334D01*
X113785276Y-96560147D01*
X113847934Y-96508035D01*
X113936913Y-96434031D01*
X113941345Y-96430345D01*
X114071147Y-96274276D01*
X114170334Y-96097165D01*
X114172190Y-96091698D01*
X114172192Y-96091693D01*
X114233728Y-95910414D01*
X114233729Y-95910409D01*
X114235584Y-95904945D01*
X114236412Y-95899236D01*
X114236413Y-95899231D01*
X114264179Y-95707727D01*
X114264712Y-95704053D01*
X114266232Y-95646000D01*
X114247658Y-95443859D01*
X114246090Y-95438299D01*
X114194125Y-95254046D01*
X114194124Y-95254044D01*
X114192557Y-95248487D01*
X114181978Y-95227033D01*
X114105331Y-95071609D01*
X114102776Y-95066428D01*
X113981320Y-94903779D01*
X113832258Y-94765987D01*
X113827375Y-94762906D01*
X113827371Y-94762903D01*
X113665464Y-94660748D01*
X113660581Y-94657667D01*
X113472039Y-94582446D01*
X113466379Y-94581320D01*
X113466375Y-94581319D01*
X113278613Y-94543971D01*
X113278610Y-94543971D01*
X113272946Y-94542844D01*
X113267171Y-94542768D01*
X113267167Y-94542768D01*
X113165793Y-94541441D01*
X113069971Y-94540187D01*
X113064274Y-94541166D01*
X113064273Y-94541166D01*
X112875607Y-94573585D01*
X112869910Y-94574564D01*
X112679463Y-94644824D01*
X112505010Y-94748612D01*
X112500670Y-94752418D01*
X112500666Y-94752421D01*
X112480723Y-94769911D01*
X112352392Y-94882455D01*
X112226720Y-95041869D01*
X112224031Y-95046980D01*
X112224029Y-95046983D01*
X112211073Y-95071609D01*
X112132203Y-95221515D01*
X112072007Y-95415378D01*
X112048148Y-95616964D01*
X109601000Y-95616964D01*
X109601000Y-93076964D01*
X112048148Y-93076964D01*
X112061424Y-93279522D01*
X112062845Y-93285118D01*
X112062846Y-93285123D01*
X112083037Y-93364624D01*
X112111392Y-93476269D01*
X112196377Y-93660616D01*
X112313533Y-93826389D01*
X112458938Y-93968035D01*
X112627720Y-94080812D01*
X112633023Y-94083090D01*
X112633026Y-94083092D01*
X112721707Y-94121192D01*
X112814228Y-94160942D01*
X112887244Y-94177464D01*
X113006579Y-94204467D01*
X113006584Y-94204468D01*
X113012216Y-94205742D01*
X113017987Y-94205969D01*
X113017989Y-94205969D01*
X113077756Y-94208317D01*
X113215053Y-94213712D01*
X113315499Y-94199148D01*
X113410231Y-94185413D01*
X113410236Y-94185412D01*
X113415945Y-94184584D01*
X113421409Y-94182729D01*
X113421414Y-94182728D01*
X113602693Y-94121192D01*
X113602698Y-94121190D01*
X113608165Y-94119334D01*
X113785276Y-94020147D01*
X113847934Y-93968035D01*
X113936913Y-93894031D01*
X113941345Y-93890345D01*
X114071147Y-93734276D01*
X114170334Y-93557165D01*
X114172190Y-93551698D01*
X114172192Y-93551693D01*
X114233728Y-93370414D01*
X114233729Y-93370409D01*
X114235584Y-93364945D01*
X114236412Y-93359236D01*
X114236413Y-93359231D01*
X114264179Y-93167727D01*
X114264712Y-93164053D01*
X114266232Y-93106000D01*
X114260176Y-93040096D01*
X128797729Y-93040096D01*
X128815113Y-93197553D01*
X128817723Y-93204684D01*
X128817723Y-93204686D01*
X128847159Y-93285123D01*
X128869553Y-93346319D01*
X128873789Y-93352622D01*
X128873789Y-93352623D01*
X128878230Y-93359231D01*
X128957908Y-93477805D01*
X128963527Y-93482918D01*
X128963528Y-93482919D01*
X128974903Y-93493269D01*
X129075076Y-93584419D01*
X129214293Y-93660008D01*
X129367522Y-93700207D01*
X129451477Y-93701526D01*
X129518319Y-93702576D01*
X129518322Y-93702576D01*
X129525916Y-93702695D01*
X129680332Y-93667329D01*
X129750742Y-93631917D01*
X129815072Y-93599563D01*
X129815075Y-93599561D01*
X129821855Y-93596151D01*
X129827626Y-93591222D01*
X129827629Y-93591220D01*
X129936536Y-93498204D01*
X129936536Y-93498203D01*
X129942314Y-93493269D01*
X130034755Y-93364624D01*
X130093842Y-93217641D01*
X130116162Y-93060807D01*
X130116307Y-93047000D01*
X130097276Y-92889733D01*
X130041280Y-92741546D01*
X129951553Y-92610992D01*
X129833275Y-92505611D01*
X129825889Y-92501700D01*
X129699988Y-92435039D01*
X129699989Y-92435039D01*
X129693274Y-92431484D01*
X129539633Y-92392892D01*
X129532034Y-92392852D01*
X129532033Y-92392852D01*
X129466181Y-92392507D01*
X129381221Y-92392062D01*
X129373841Y-92393834D01*
X129373839Y-92393834D01*
X129234563Y-92427271D01*
X129234560Y-92427272D01*
X129227184Y-92429043D01*
X129086414Y-92501700D01*
X128967039Y-92605838D01*
X128875950Y-92735444D01*
X128818406Y-92883037D01*
X128797729Y-93040096D01*
X114260176Y-93040096D01*
X114247658Y-92903859D01*
X114241671Y-92882631D01*
X114194125Y-92714046D01*
X114194124Y-92714044D01*
X114192557Y-92708487D01*
X114181978Y-92687033D01*
X114105331Y-92531609D01*
X114102776Y-92526428D01*
X114091005Y-92510664D01*
X114003763Y-92393834D01*
X113981320Y-92363779D01*
X113832258Y-92225987D01*
X113827375Y-92222906D01*
X113827371Y-92222903D01*
X113665464Y-92120748D01*
X113660581Y-92117667D01*
X113472039Y-92042446D01*
X113466379Y-92041320D01*
X113466375Y-92041319D01*
X113278613Y-92003971D01*
X113278610Y-92003971D01*
X113272946Y-92002844D01*
X113267171Y-92002768D01*
X113267167Y-92002768D01*
X113165793Y-92001441D01*
X113069971Y-92000187D01*
X113064274Y-92001166D01*
X113064273Y-92001166D01*
X112875607Y-92033585D01*
X112869910Y-92034564D01*
X112679463Y-92104824D01*
X112505010Y-92208612D01*
X112500670Y-92212418D01*
X112500666Y-92212421D01*
X112399223Y-92301385D01*
X112352392Y-92342455D01*
X112226720Y-92501869D01*
X112224031Y-92506980D01*
X112224029Y-92506983D01*
X112211073Y-92531609D01*
X112132203Y-92681515D01*
X112072007Y-92875378D01*
X112048148Y-93076964D01*
X109601000Y-93076964D01*
X109601000Y-91685096D01*
X120518729Y-91685096D01*
X120522509Y-91719331D01*
X120532469Y-91809545D01*
X120536113Y-91842553D01*
X120538723Y-91849684D01*
X120538723Y-91849686D01*
X120586054Y-91979024D01*
X120590553Y-91991319D01*
X120594789Y-91997622D01*
X120594789Y-91997623D01*
X120665483Y-92102826D01*
X120678908Y-92122805D01*
X120684527Y-92127918D01*
X120684528Y-92127919D01*
X120695903Y-92138269D01*
X120796076Y-92229419D01*
X120935293Y-92305008D01*
X121088522Y-92345207D01*
X121172477Y-92346526D01*
X121239319Y-92347576D01*
X121239322Y-92347576D01*
X121246916Y-92347695D01*
X121401332Y-92312329D01*
X121471742Y-92276917D01*
X121536072Y-92244563D01*
X121536075Y-92244561D01*
X121542855Y-92241151D01*
X121548626Y-92236222D01*
X121548629Y-92236220D01*
X121657536Y-92143204D01*
X121657536Y-92143203D01*
X121663314Y-92138269D01*
X121755755Y-92009624D01*
X121814842Y-91862641D01*
X121828851Y-91764204D01*
X121836581Y-91709891D01*
X121836581Y-91709888D01*
X121837162Y-91705807D01*
X121837307Y-91692000D01*
X121835952Y-91680798D01*
X121829026Y-91623571D01*
X121818276Y-91534733D01*
X121762280Y-91386546D01*
X121732053Y-91342565D01*
X121676855Y-91262251D01*
X121676854Y-91262249D01*
X121672553Y-91255992D01*
X121554275Y-91150611D01*
X121546889Y-91146700D01*
X121537009Y-91141469D01*
X131122500Y-91141469D01*
X131137062Y-91271290D01*
X131139379Y-91277943D01*
X131139379Y-91277944D01*
X131154959Y-91322682D01*
X131194574Y-91436442D01*
X131198307Y-91442416D01*
X131198308Y-91442418D01*
X131251809Y-91528037D01*
X131287246Y-91584748D01*
X131292209Y-91589746D01*
X131292210Y-91589747D01*
X131300616Y-91598212D01*
X131410472Y-91708838D01*
X131416418Y-91712612D01*
X131416420Y-91712613D01*
X131427006Y-91719331D01*
X131558128Y-91802543D01*
X131564771Y-91804908D01*
X131564770Y-91804908D01*
X131716239Y-91858844D01*
X131716244Y-91858845D01*
X131722874Y-91861206D01*
X131729862Y-91862039D01*
X131729865Y-91862040D01*
X131850259Y-91876396D01*
X131896524Y-91881913D01*
X131903527Y-91881177D01*
X131903528Y-91881177D01*
X131951392Y-91876146D01*
X132070445Y-91863633D01*
X132077111Y-91861364D01*
X132077114Y-91861363D01*
X132229328Y-91809545D01*
X132229331Y-91809544D01*
X132235995Y-91807275D01*
X132384945Y-91715641D01*
X132509891Y-91593284D01*
X132604625Y-91446286D01*
X132610100Y-91431245D01*
X132662026Y-91288577D01*
X132664437Y-91281953D01*
X132681500Y-91146890D01*
X132681500Y-90556934D01*
X132701502Y-90488813D01*
X132755158Y-90442320D01*
X132825432Y-90432216D01*
X132890012Y-90461710D01*
X132895980Y-90467266D01*
X132900866Y-90473634D01*
X132907416Y-90478660D01*
X133009424Y-90556934D01*
X133027142Y-90570530D01*
X133034772Y-90573690D01*
X133034773Y-90573691D01*
X133166566Y-90628281D01*
X133166570Y-90628282D01*
X133174194Y-90631440D01*
X133182374Y-90632517D01*
X133182378Y-90632518D01*
X133278399Y-90645159D01*
X133292381Y-90647000D01*
X133371619Y-90647000D01*
X133385601Y-90645159D01*
X133481622Y-90632518D01*
X133481626Y-90632517D01*
X133489806Y-90631440D01*
X133497430Y-90628282D01*
X133497434Y-90628281D01*
X133629227Y-90573691D01*
X133629228Y-90573690D01*
X133636858Y-90570530D01*
X133654577Y-90556934D01*
X133756584Y-90478660D01*
X133763134Y-90473634D01*
X133787162Y-90442320D01*
X133855002Y-90353911D01*
X133855003Y-90353909D01*
X133860030Y-90347358D01*
X133864992Y-90335378D01*
X133917781Y-90207934D01*
X133917782Y-90207930D01*
X133920940Y-90200306D01*
X133941716Y-90042500D01*
X138502284Y-90042500D01*
X138523060Y-90200306D01*
X138526218Y-90207930D01*
X138526219Y-90207934D01*
X138579008Y-90335378D01*
X138583970Y-90347358D01*
X138588997Y-90353909D01*
X138588998Y-90353911D01*
X138656838Y-90442320D01*
X138680866Y-90473634D01*
X138687416Y-90478660D01*
X138789424Y-90556934D01*
X138807142Y-90570530D01*
X138814772Y-90573690D01*
X138814773Y-90573691D01*
X138946566Y-90628281D01*
X138946570Y-90628282D01*
X138954194Y-90631440D01*
X138962374Y-90632517D01*
X138962378Y-90632518D01*
X139058399Y-90645159D01*
X139072381Y-90647000D01*
X139151619Y-90647000D01*
X139165601Y-90645159D01*
X139261622Y-90632518D01*
X139261626Y-90632517D01*
X139269806Y-90631440D01*
X139277430Y-90628282D01*
X139277434Y-90628281D01*
X139409227Y-90573691D01*
X139409228Y-90573690D01*
X139416858Y-90570530D01*
X139434577Y-90556934D01*
X139536584Y-90478660D01*
X139543134Y-90473634D01*
X139547707Y-90467674D01*
X139609717Y-90433813D01*
X139680532Y-90438878D01*
X139737368Y-90481425D01*
X139762179Y-90547945D01*
X139762500Y-90556934D01*
X139762500Y-91141469D01*
X139777062Y-91271290D01*
X139779379Y-91277943D01*
X139779379Y-91277944D01*
X139794959Y-91322682D01*
X139834574Y-91436442D01*
X139838307Y-91442416D01*
X139838308Y-91442418D01*
X139891809Y-91528037D01*
X139927246Y-91584748D01*
X139932209Y-91589746D01*
X139932210Y-91589747D01*
X139940616Y-91598212D01*
X140050472Y-91708838D01*
X140056418Y-91712612D01*
X140056420Y-91712613D01*
X140067006Y-91719331D01*
X140198128Y-91802543D01*
X140204771Y-91804908D01*
X140204770Y-91804908D01*
X140356239Y-91858844D01*
X140356244Y-91858845D01*
X140362874Y-91861206D01*
X140369862Y-91862039D01*
X140369865Y-91862040D01*
X140490259Y-91876396D01*
X140536524Y-91881913D01*
X140543527Y-91881177D01*
X140543528Y-91881177D01*
X140591392Y-91876146D01*
X140710445Y-91863633D01*
X140717111Y-91861364D01*
X140717114Y-91861363D01*
X140869328Y-91809545D01*
X140869331Y-91809544D01*
X140875995Y-91807275D01*
X141024945Y-91715641D01*
X141149891Y-91593284D01*
X141244625Y-91446286D01*
X141250100Y-91431245D01*
X141295650Y-91306096D01*
X155550729Y-91306096D01*
X155557418Y-91366682D01*
X155566207Y-91446286D01*
X155568113Y-91463553D01*
X155570723Y-91470684D01*
X155570723Y-91470686D01*
X155617391Y-91598212D01*
X155622553Y-91612319D01*
X155626789Y-91618622D01*
X155626789Y-91618623D01*
X155691983Y-91715641D01*
X155710908Y-91743805D01*
X155716527Y-91748918D01*
X155716528Y-91748919D01*
X155778060Y-91804908D01*
X155828076Y-91850419D01*
X155967293Y-91926008D01*
X156120522Y-91966207D01*
X156204477Y-91967526D01*
X156271319Y-91968576D01*
X156271322Y-91968576D01*
X156278916Y-91968695D01*
X156433332Y-91933329D01*
X156520857Y-91889309D01*
X156568072Y-91865563D01*
X156568075Y-91865561D01*
X156574855Y-91862151D01*
X156580626Y-91857222D01*
X156580629Y-91857220D01*
X156689536Y-91764204D01*
X156689536Y-91764203D01*
X156695314Y-91759269D01*
X156787755Y-91630624D01*
X156846842Y-91483641D01*
X156865848Y-91350096D01*
X158217729Y-91350096D01*
X158225889Y-91424002D01*
X158233252Y-91490695D01*
X158235113Y-91507553D01*
X158237723Y-91514684D01*
X158237723Y-91514686D01*
X158285259Y-91644584D01*
X158289553Y-91656319D01*
X158293789Y-91662622D01*
X158293789Y-91662623D01*
X158358733Y-91759269D01*
X158377908Y-91787805D01*
X158383527Y-91792918D01*
X158383528Y-91792919D01*
X158480415Y-91881079D01*
X158495076Y-91894419D01*
X158634293Y-91970008D01*
X158787522Y-92010207D01*
X158871477Y-92011526D01*
X158938319Y-92012576D01*
X158938322Y-92012576D01*
X158945916Y-92012695D01*
X159100332Y-91977329D01*
X159187817Y-91933329D01*
X159235072Y-91909563D01*
X159235075Y-91909561D01*
X159241855Y-91906151D01*
X159247626Y-91901222D01*
X159247629Y-91901220D01*
X159356536Y-91808204D01*
X159356536Y-91808203D01*
X159362314Y-91803269D01*
X159454755Y-91674624D01*
X159513842Y-91527641D01*
X159527561Y-91431245D01*
X159535581Y-91374891D01*
X159535581Y-91374888D01*
X159536162Y-91370807D01*
X159536307Y-91357000D01*
X159517276Y-91199733D01*
X159461280Y-91051546D01*
X159437651Y-91017165D01*
X159375855Y-90927251D01*
X159375854Y-90927249D01*
X159371553Y-90920992D01*
X159253275Y-90815611D01*
X159245889Y-90811700D01*
X159119988Y-90745039D01*
X159119989Y-90745039D01*
X159113274Y-90741484D01*
X158959633Y-90702892D01*
X158952034Y-90702852D01*
X158952033Y-90702852D01*
X158886181Y-90702507D01*
X158801221Y-90702062D01*
X158793841Y-90703834D01*
X158793839Y-90703834D01*
X158654563Y-90737271D01*
X158654560Y-90737272D01*
X158647184Y-90739043D01*
X158506414Y-90811700D01*
X158387039Y-90915838D01*
X158295950Y-91045444D01*
X158283848Y-91076484D01*
X158256334Y-91147055D01*
X158238406Y-91193037D01*
X158237414Y-91200570D01*
X158237414Y-91200571D01*
X158222528Y-91313646D01*
X158217729Y-91350096D01*
X156865848Y-91350096D01*
X156866443Y-91345913D01*
X156868581Y-91330891D01*
X156868581Y-91330888D01*
X156869162Y-91326807D01*
X156869307Y-91313000D01*
X156850276Y-91155733D01*
X156794280Y-91007546D01*
X156704553Y-90876992D01*
X156586275Y-90771611D01*
X156578889Y-90767700D01*
X156452988Y-90701039D01*
X156452989Y-90701039D01*
X156446274Y-90697484D01*
X156292633Y-90658892D01*
X156285034Y-90658852D01*
X156285033Y-90658852D01*
X156219181Y-90658507D01*
X156134221Y-90658062D01*
X156126841Y-90659834D01*
X156126839Y-90659834D01*
X155987563Y-90693271D01*
X155987560Y-90693272D01*
X155980184Y-90695043D01*
X155839414Y-90767700D01*
X155720039Y-90871838D01*
X155628950Y-91001444D01*
X155615063Y-91037062D01*
X155574357Y-91141469D01*
X155571406Y-91149037D01*
X155570414Y-91156570D01*
X155570414Y-91156571D01*
X155553945Y-91281669D01*
X155550729Y-91306096D01*
X141295650Y-91306096D01*
X141302026Y-91288577D01*
X141304437Y-91281953D01*
X141321500Y-91146890D01*
X141321500Y-90003531D01*
X141306938Y-89873710D01*
X141249426Y-89708558D01*
X141239575Y-89692792D01*
X141160487Y-89566226D01*
X141156754Y-89560252D01*
X141148278Y-89551716D01*
X141038490Y-89441159D01*
X141033528Y-89436162D01*
X141022809Y-89429359D01*
X140976244Y-89399809D01*
X140885872Y-89342457D01*
X140858882Y-89332846D01*
X140727761Y-89286156D01*
X140727756Y-89286155D01*
X140721126Y-89283794D01*
X140714138Y-89282961D01*
X140714135Y-89282960D01*
X140593741Y-89268604D01*
X140547476Y-89263087D01*
X140540473Y-89263823D01*
X140540472Y-89263823D01*
X140492608Y-89268854D01*
X140373555Y-89281367D01*
X140366889Y-89283636D01*
X140366886Y-89283637D01*
X140214672Y-89335455D01*
X140214669Y-89335456D01*
X140208005Y-89337725D01*
X140059055Y-89429359D01*
X140023711Y-89463971D01*
X139984422Y-89502446D01*
X139934109Y-89551716D01*
X139924758Y-89566226D01*
X139843195Y-89692787D01*
X139839375Y-89698714D01*
X139838497Y-89701127D01*
X139791493Y-89751949D01*
X139722760Y-89769734D01*
X139655323Y-89747536D01*
X139626879Y-89720504D01*
X139617713Y-89708558D01*
X139543134Y-89611366D01*
X139470007Y-89555253D01*
X139423411Y-89519498D01*
X139423409Y-89519497D01*
X139416858Y-89514470D01*
X139392996Y-89504586D01*
X139277434Y-89456719D01*
X139277430Y-89456718D01*
X139269806Y-89453560D01*
X139261626Y-89452483D01*
X139261622Y-89452482D01*
X139155705Y-89438538D01*
X139155706Y-89438538D01*
X139151619Y-89438000D01*
X139072381Y-89438000D01*
X139068294Y-89438538D01*
X139068295Y-89438538D01*
X138962378Y-89452482D01*
X138962374Y-89452483D01*
X138954194Y-89453560D01*
X138946570Y-89456718D01*
X138946566Y-89456719D01*
X138831004Y-89504586D01*
X138807142Y-89514470D01*
X138800591Y-89519497D01*
X138800589Y-89519498D01*
X138753993Y-89555253D01*
X138680866Y-89611366D01*
X138675840Y-89617916D01*
X138597121Y-89720504D01*
X138583970Y-89737642D01*
X138580810Y-89745272D01*
X138580809Y-89745273D01*
X138526219Y-89877066D01*
X138526218Y-89877070D01*
X138523060Y-89884694D01*
X138502284Y-90042500D01*
X133941716Y-90042500D01*
X133920940Y-89884694D01*
X133917782Y-89877070D01*
X133917781Y-89877066D01*
X133863191Y-89745273D01*
X133863190Y-89745272D01*
X133860030Y-89737642D01*
X133846880Y-89720504D01*
X133768160Y-89617916D01*
X133763134Y-89611366D01*
X133690007Y-89555253D01*
X133643411Y-89519498D01*
X133643409Y-89519497D01*
X133636858Y-89514470D01*
X133612996Y-89504586D01*
X133497434Y-89456719D01*
X133497430Y-89456718D01*
X133489806Y-89453560D01*
X133481626Y-89452483D01*
X133481622Y-89452482D01*
X133375705Y-89438538D01*
X133375706Y-89438538D01*
X133371619Y-89438000D01*
X133292381Y-89438000D01*
X133288294Y-89438538D01*
X133288295Y-89438538D01*
X133182378Y-89452482D01*
X133182374Y-89452483D01*
X133174194Y-89453560D01*
X133166570Y-89456718D01*
X133166566Y-89456719D01*
X133051004Y-89504586D01*
X133027142Y-89514470D01*
X133020591Y-89519497D01*
X133020589Y-89519498D01*
X132973993Y-89555253D01*
X132900866Y-89611366D01*
X132828757Y-89705340D01*
X132817173Y-89720436D01*
X132759835Y-89762303D01*
X132688964Y-89766525D01*
X132627061Y-89731761D01*
X132610412Y-89707942D01*
X132609426Y-89708558D01*
X132520487Y-89566226D01*
X132516754Y-89560252D01*
X132508278Y-89551716D01*
X132398490Y-89441159D01*
X132393528Y-89436162D01*
X132382809Y-89429359D01*
X132336244Y-89399809D01*
X132245872Y-89342457D01*
X132218882Y-89332846D01*
X132087761Y-89286156D01*
X132087756Y-89286155D01*
X132081126Y-89283794D01*
X132074138Y-89282961D01*
X132074135Y-89282960D01*
X131953741Y-89268604D01*
X131907476Y-89263087D01*
X131900473Y-89263823D01*
X131900472Y-89263823D01*
X131852608Y-89268854D01*
X131733555Y-89281367D01*
X131726889Y-89283636D01*
X131726886Y-89283637D01*
X131574672Y-89335455D01*
X131574669Y-89335456D01*
X131568005Y-89337725D01*
X131419055Y-89429359D01*
X131383711Y-89463971D01*
X131344422Y-89502446D01*
X131294109Y-89551716D01*
X131199375Y-89698714D01*
X131196964Y-89705337D01*
X131196963Y-89705340D01*
X131153855Y-89823779D01*
X131139563Y-89863047D01*
X131122500Y-89998110D01*
X131122500Y-91141469D01*
X121537009Y-91141469D01*
X121506531Y-91125332D01*
X121414274Y-91076484D01*
X121260633Y-91037892D01*
X121253034Y-91037852D01*
X121253033Y-91037852D01*
X121187181Y-91037507D01*
X121102221Y-91037062D01*
X121094841Y-91038834D01*
X121094839Y-91038834D01*
X120955563Y-91072271D01*
X120955560Y-91072272D01*
X120948184Y-91074043D01*
X120807414Y-91146700D01*
X120688039Y-91250838D01*
X120596950Y-91380444D01*
X120578395Y-91428035D01*
X120542495Y-91520115D01*
X120539406Y-91528037D01*
X120538414Y-91535570D01*
X120538414Y-91535571D01*
X120520108Y-91674624D01*
X120518729Y-91685096D01*
X109601000Y-91685096D01*
X109601000Y-90536964D01*
X112048148Y-90536964D01*
X112061424Y-90739522D01*
X112062845Y-90745118D01*
X112062846Y-90745123D01*
X112097927Y-90883251D01*
X112111392Y-90936269D01*
X112113809Y-90941512D01*
X112151010Y-91022208D01*
X112196377Y-91120616D01*
X112199710Y-91125332D01*
X112307565Y-91277944D01*
X112313533Y-91286389D01*
X112458938Y-91428035D01*
X112463742Y-91431245D01*
X112531400Y-91476453D01*
X112627720Y-91540812D01*
X112633023Y-91543090D01*
X112633026Y-91543092D01*
X112794157Y-91612319D01*
X112814228Y-91620942D01*
X112884302Y-91636798D01*
X113006579Y-91664467D01*
X113006584Y-91664468D01*
X113012216Y-91665742D01*
X113017987Y-91665969D01*
X113017989Y-91665969D01*
X113077756Y-91668317D01*
X113215053Y-91673712D01*
X113315499Y-91659148D01*
X113410231Y-91645413D01*
X113410236Y-91645412D01*
X113415945Y-91644584D01*
X113421409Y-91642729D01*
X113421414Y-91642728D01*
X113602693Y-91581192D01*
X113602698Y-91581190D01*
X113608165Y-91579334D01*
X113785276Y-91480147D01*
X113825990Y-91446286D01*
X113928373Y-91361134D01*
X113941345Y-91350345D01*
X114001561Y-91277944D01*
X114067453Y-91198718D01*
X114067455Y-91198715D01*
X114071147Y-91194276D01*
X114170334Y-91017165D01*
X114172190Y-91011698D01*
X114172192Y-91011693D01*
X114233728Y-90830414D01*
X114233729Y-90830409D01*
X114235584Y-90824945D01*
X114236412Y-90819236D01*
X114236413Y-90819231D01*
X114259524Y-90659834D01*
X114264712Y-90624053D01*
X114266232Y-90566000D01*
X114247658Y-90363859D01*
X114243004Y-90347358D01*
X114194125Y-90174046D01*
X114194124Y-90174044D01*
X114192557Y-90168487D01*
X114181978Y-90147033D01*
X114105331Y-89991609D01*
X114102776Y-89986428D01*
X113981320Y-89823779D01*
X113832258Y-89685987D01*
X113827375Y-89682906D01*
X113827371Y-89682903D01*
X113665464Y-89580748D01*
X113660581Y-89577667D01*
X113472039Y-89502446D01*
X113466379Y-89501320D01*
X113466375Y-89501319D01*
X113278613Y-89463971D01*
X113278610Y-89463971D01*
X113272946Y-89462844D01*
X113267171Y-89462768D01*
X113267167Y-89462768D01*
X113165793Y-89461441D01*
X113069971Y-89460187D01*
X113064274Y-89461166D01*
X113064273Y-89461166D01*
X112875607Y-89493585D01*
X112869910Y-89494564D01*
X112679463Y-89564824D01*
X112505010Y-89668612D01*
X112500670Y-89672418D01*
X112500666Y-89672421D01*
X112417595Y-89745273D01*
X112352392Y-89802455D01*
X112226720Y-89961869D01*
X112224031Y-89966980D01*
X112224029Y-89966983D01*
X112204800Y-90003531D01*
X112132203Y-90141515D01*
X112072007Y-90335378D01*
X112048148Y-90536964D01*
X109601000Y-90536964D01*
X109601000Y-87150933D01*
X112052500Y-87150933D01*
X112052501Y-88901066D01*
X112067266Y-88975301D01*
X112123516Y-89059484D01*
X112207699Y-89115734D01*
X112281933Y-89130500D01*
X113156858Y-89130500D01*
X114032066Y-89130499D01*
X114067818Y-89123388D01*
X114094126Y-89118156D01*
X114094128Y-89118155D01*
X114106301Y-89115734D01*
X114116621Y-89108839D01*
X114116622Y-89108838D01*
X114180168Y-89066377D01*
X114190484Y-89059484D01*
X114246734Y-88975301D01*
X114261500Y-88901067D01*
X114261499Y-87150934D01*
X114254388Y-87115182D01*
X114249156Y-87088874D01*
X114249155Y-87088872D01*
X114246734Y-87076699D01*
X114190484Y-86992516D01*
X114106301Y-86936266D01*
X114032067Y-86921500D01*
X113157142Y-86921500D01*
X112281934Y-86921501D01*
X112246182Y-86928612D01*
X112219874Y-86933844D01*
X112219872Y-86933845D01*
X112207699Y-86936266D01*
X112197379Y-86943161D01*
X112197378Y-86943162D01*
X112155986Y-86970820D01*
X112123516Y-86992516D01*
X112067266Y-87076699D01*
X112052500Y-87150933D01*
X109601000Y-87150933D01*
X109601000Y-85216000D01*
X109621002Y-85147879D01*
X109674658Y-85101386D01*
X109727000Y-85090000D01*
X131273034Y-85090000D01*
X131341155Y-85110002D01*
G37*
%TD.AperFunction*%
%TD*%
M02*
