%TF.GenerationSoftware,KiCad,Pcbnew,(6.0.6)*%
%TF.CreationDate,2022-10-30T13:06:07-04:00*%
%TF.ProjectId,RP2040_AS3394,52503230-3430-45f4-9153-333339342e6b,rev?*%
%TF.SameCoordinates,Original*%
%TF.FileFunction,Copper,L4,Bot*%
%TF.FilePolarity,Positive*%
%FSLAX46Y46*%
G04 Gerber Fmt 4.6, Leading zero omitted, Abs format (unit mm)*
G04 Created by KiCad (PCBNEW (6.0.6)) date 2022-10-30 13:06:07*
%MOMM*%
%LPD*%
G01*
G04 APERTURE LIST*
%TA.AperFunction,ComponentPad*%
%ADD10O,1.050000X2.100000*%
%TD*%
%TA.AperFunction,ComponentPad*%
%ADD11R,1.700000X1.700000*%
%TD*%
%TA.AperFunction,ComponentPad*%
%ADD12O,1.700000X1.700000*%
%TD*%
%TA.AperFunction,ComponentPad*%
%ADD13R,1.600000X1.600000*%
%TD*%
%TA.AperFunction,ComponentPad*%
%ADD14O,1.600000X1.600000*%
%TD*%
%TA.AperFunction,ViaPad*%
%ADD15C,0.600000*%
%TD*%
%TA.AperFunction,ViaPad*%
%ADD16C,0.800000*%
%TD*%
%TA.AperFunction,Conductor*%
%ADD17C,0.250000*%
%TD*%
%TA.AperFunction,Conductor*%
%ADD18C,0.254000*%
%TD*%
%TA.AperFunction,Conductor*%
%ADD19C,0.127000*%
%TD*%
%TA.AperFunction,Conductor*%
%ADD20C,0.205740*%
%TD*%
%TA.AperFunction,Conductor*%
%ADD21C,0.199898*%
%TD*%
G04 APERTURE END LIST*
D10*
%TO.P,J2,S1,SHIELD*%
%TO.N,unconnected-(J2-PadS1)*%
X140542000Y-90572500D03*
%TO.P,J2,S2,SHIELD*%
%TO.N,unconnected-(J2-PadS2)*%
X131902000Y-90572500D03*
%TO.P,J2,S3,SHIELD*%
%TO.N,unconnected-(J2-PadS3)*%
X140542000Y-86392500D03*
%TO.P,J2,S4,SHIELD*%
%TO.N,unconnected-(J2-PadS4)*%
X131902000Y-86392500D03*
%TD*%
D11*
%TO.P,J4,1,Pin_1*%
%TO.N,Net-(J4-Pad1)*%
X113157000Y-88026000D03*
D12*
%TO.P,J4,2,Pin_2*%
%TO.N,Net-(J4-Pad2)*%
X113157000Y-90566000D03*
%TO.P,J4,3,Pin_3*%
%TO.N,Net-(J4-Pad3)*%
X113157000Y-93106000D03*
%TO.P,J4,4,Pin_4*%
%TO.N,Net-(J4-Pad4)*%
X113157000Y-95646000D03*
%TO.P,J4,5,Pin_5*%
%TO.N,Net-(J4-Pad5)*%
X113157000Y-98186000D03*
%TO.P,J4,6,Pin_6*%
%TO.N,Net-(J4-Pad6)*%
X113157000Y-100726000D03*
%TO.P,J4,7,Pin_7*%
%TO.N,Net-(J4-Pad7)*%
X113157000Y-103266000D03*
%TO.P,J4,8,Pin_8*%
%TO.N,Net-(J4-Pad8)*%
X113157000Y-105806000D03*
%TD*%
D13*
%TO.P,U5,1,IRef*%
%TO.N,Net-(R15-Pad1)*%
X139436000Y-147706000D03*
D14*
%TO.P,U5,2,VCO_Freq_CV*%
%TO.N,/AS3394_PWM/VCO_Freq_CV*%
X139436000Y-145166000D03*
%TO.P,U5,3,Vee*%
%TO.N,VEE*%
X139436000Y-142626000D03*
%TO.P,U5,4,Ct*%
%TO.N,Net-(C17-Pad2)*%
X139436000Y-140086000D03*
%TO.P,U5,5,Pulse_Out_F/2*%
%TO.N,/AS3394_PWM/Ext_Input2*%
X139436000Y-137546000D03*
%TO.P,U5,6,Mod_Amt_CV*%
%TO.N,/AS3394_PWM/Mod_Amt_Cv*%
X139436000Y-135006000D03*
%TO.P,U5,7,Wave_Select_CV*%
%TO.N,/AS3394_PWM/Wave_Select_CV*%
X139436000Y-132466000D03*
%TO.P,U5,8,Pulse_Width_CV*%
%TO.N,/AS3394_PWM/Pulse_Width_CV*%
X139436000Y-129926000D03*
%TO.P,U5,9,Saw_Out*%
%TO.N,/AS3394_PWM/Saw_Out*%
X139436000Y-127386000D03*
%TO.P,U5,10,Wave_Out*%
%TO.N,/AS3394_PWM/Wave_Out*%
X139436000Y-124846000D03*
%TO.P,U5,11,Ext_Input1*%
X139436000Y-122306000D03*
%TO.P,U5,12,GND*%
%TO.N,GND*%
X139436000Y-119766000D03*
%TO.P,U5,13,Mixer_Balance_CV*%
%TO.N,/AS3394_PWM/Mixer_Balance_CV*%
X131816000Y-119766000D03*
%TO.P,U5,14,Ext_Input2*%
%TO.N,Net-(R35-Pad1)*%
X131816000Y-122306000D03*
%TO.P,U5,15,Filter_Res_CV*%
%TO.N,/AS3394_PWM/Filter_Res_CV*%
X131816000Y-124846000D03*
%TO.P,U5,16,C1*%
%TO.N,Net-(C37-Pad1)*%
X131816000Y-127386000D03*
%TO.P,U5,17,C2*%
%TO.N,Net-(C35-Pad1)*%
X131816000Y-129926000D03*
%TO.P,U5,18,C3*%
%TO.N,Net-(C33-Pad1)*%
X131816000Y-132466000D03*
%TO.P,U5,19,C4*%
%TO.N,Net-(C31-Pad1)*%
X131816000Y-135006000D03*
%TO.P,U5,20,Filter_Freq_CV*%
%TO.N,/AS3394_PWM/Filter_Freq_CV*%
X131816000Y-137546000D03*
%TO.P,U5,21*%
%TO.N,Net-(C34-Pad1)*%
X131816000Y-140086000D03*
%TO.P,U5,22,Final_Gain_CV*%
%TO.N,/AS3394_PWM/Final_Gain_CV*%
X131816000Y-142626000D03*
%TO.P,U5,23,Voice_Out*%
%TO.N,/AS3394_PWM/Out*%
X131816000Y-145166000D03*
%TO.P,U5,24,Vcc*%
%TO.N,Net-(C28-Pad1)*%
X131816000Y-147706000D03*
%TD*%
D11*
%TO.P,J1,1,Pin_1*%
%TO.N,Net-(J1-Pad1)*%
X145430000Y-107285000D03*
D12*
%TO.P,J1,2,Pin_2*%
%TO.N,GND*%
X145430000Y-109825000D03*
%TO.P,J1,3,Pin_3*%
%TO.N,Net-(J1-Pad3)*%
X145430000Y-112365000D03*
%TD*%
D11*
%TO.P,J3,1,Pin_1*%
%TO.N,/AMP_OUT*%
X158000000Y-144845000D03*
D12*
%TO.P,J3,2,Pin_2*%
%TO.N,GND*%
X158000000Y-142305000D03*
%TD*%
D11*
%TO.P,J5,1,Pin_1*%
%TO.N,VCC*%
X157820000Y-108685000D03*
D12*
%TO.P,J5,2,Pin_2*%
%TO.N,GND*%
X157820000Y-111225000D03*
%TO.P,J5,3,Pin_3*%
%TO.N,VEE*%
X157820000Y-113765000D03*
%TD*%
D15*
%TO.N,GND*%
X158130000Y-117460000D03*
X152280000Y-102500000D03*
X152019000Y-105410000D03*
X151765000Y-118999000D03*
D16*
X122159000Y-86263000D03*
D15*
X125857000Y-123190000D03*
X122936000Y-131826000D03*
X133350000Y-95885000D03*
X155194000Y-142621000D03*
X134840000Y-111800000D03*
X120460000Y-118020000D03*
D16*
X135522000Y-131178000D03*
D15*
X136906000Y-113060000D03*
X133310000Y-111660000D03*
X113170000Y-126611000D03*
X130280000Y-111040000D03*
X145616000Y-128966000D03*
D16*
X137287000Y-129540000D03*
D15*
X129540000Y-149479000D03*
X152270000Y-101730000D03*
D16*
X137287000Y-122682000D03*
D15*
X153289000Y-123952000D03*
X126238000Y-149479000D03*
X133370000Y-104940000D03*
D16*
X133731000Y-124587000D03*
D15*
X135910000Y-106210000D03*
D16*
X123952000Y-98425000D03*
D15*
X147955000Y-139700000D03*
X141950000Y-101540000D03*
X157861000Y-137160000D03*
D16*
X116448000Y-143902000D03*
D15*
X130370000Y-116970000D03*
D16*
X134719000Y-133886000D03*
D15*
X134500000Y-116460000D03*
X121940000Y-110090000D03*
X134640000Y-104940000D03*
D16*
X126238000Y-91313000D03*
D15*
X155702000Y-101727000D03*
X123830000Y-107080000D03*
X114300000Y-112649000D03*
D16*
X138889000Y-94351000D03*
D15*
X122273000Y-113185000D03*
X135910000Y-103670000D03*
X152995000Y-109097500D03*
D16*
X145415000Y-144697000D03*
X141971000Y-120980000D03*
D15*
X152400000Y-120269000D03*
X142300000Y-102990000D03*
X135710000Y-113060000D03*
X150876000Y-134620000D03*
X125857000Y-121793000D03*
D16*
X140540000Y-92954000D03*
D15*
X114480000Y-120537993D03*
X125349000Y-114427000D03*
X134640000Y-106210000D03*
X124460000Y-112776000D03*
X128316500Y-149479000D03*
X126743000Y-106172000D03*
X135910000Y-104940000D03*
X134874000Y-140081000D03*
D16*
X115443000Y-139065000D03*
D15*
X134493000Y-95885000D03*
X142304000Y-105976000D03*
D16*
X132285000Y-92954000D03*
D15*
X152995000Y-112907500D03*
X126873000Y-101981000D03*
X150569000Y-122362000D03*
X157861000Y-127381000D03*
X156464000Y-101727000D03*
X139319000Y-97663000D03*
X133370000Y-103670000D03*
D16*
X135522000Y-128638000D03*
D15*
X133370000Y-106210000D03*
X134640000Y-103670000D03*
X122190000Y-129400000D03*
X138176000Y-96901000D03*
X119275995Y-128828009D03*
%TO.N,+3V3*%
X129794000Y-106171990D03*
D16*
X149150000Y-102580000D03*
X147447000Y-102489000D03*
D15*
X135145000Y-102505000D03*
X139071510Y-101538490D03*
X129921000Y-101994990D03*
D16*
X149330000Y-100000000D03*
D15*
X139432010Y-103010990D03*
X139319000Y-105975990D03*
X137905500Y-100774500D03*
X135128000Y-110363000D03*
D16*
X129457000Y-93047000D03*
X121178000Y-91692000D03*
D15*
%TO.N,Net-(C23-Pad2)*%
X152287000Y-136459000D03*
X157940000Y-135570000D03*
%TO.N,/AS3394_PWM/Final_Gain_CV*%
X127000000Y-133604000D03*
%TO.N,VCC*%
X156972000Y-132842000D03*
X155194000Y-143510000D03*
D16*
X156210000Y-91313000D03*
D15*
X125095000Y-147320000D03*
D16*
X158877000Y-91357000D03*
D15*
X120075994Y-128828009D03*
X152400000Y-123952000D03*
X113337000Y-120537993D03*
%TO.N,Net-(C38-Pad2)*%
X115189000Y-114427000D03*
X119888000Y-114427000D03*
%TO.N,VEE*%
X119550000Y-118260000D03*
X118935000Y-132651000D03*
X152273000Y-134620000D03*
X146558000Y-146939000D03*
X154390000Y-121600000D03*
%TO.N,/AS3394_PWM/Mixer_Balance_CV*%
X114620000Y-123930000D03*
%TO.N,Net-(J1-Pad1)*%
X137423111Y-109800000D03*
%TO.N,Net-(J1-Pad3)*%
X137423111Y-110602902D03*
%TO.N,/USB_D-*%
X136475000Y-90280000D03*
X135245000Y-90240000D03*
%TO.N,/AS3394_PWM/Final_Gain_PWM*%
X123825000Y-107950000D03*
X131280000Y-108240000D03*
%TO.N,/AS3394_PWM/Wave_Select_2*%
X152781000Y-118110000D03*
X140351529Y-114288129D03*
%TO.N,/AS3394_PWM/Wave_Select_1*%
X156665000Y-118999000D03*
X141171375Y-114288625D03*
D16*
%TO.N,/AS3394_PWM/Wave_Select_CV*%
X156030000Y-128458000D03*
D15*
%TO.N,/AS3394_PWM/Mixer_Balance_PWM*%
X121930000Y-109230000D03*
X130210000Y-109220000D03*
%TO.N,/RUN*%
X147980000Y-107990000D03*
X136438009Y-107528991D03*
%TO.N,/AMP_OUT*%
X159050000Y-117480000D03*
%TD*%
D17*
%TO.N,Net-(C23-Pad2)*%
X157051000Y-136459000D02*
X152287000Y-136459000D01*
X157940000Y-135570000D02*
X157051000Y-136459000D01*
D18*
%TO.N,/AS3394_PWM/Final_Gain_CV*%
X129667000Y-137160000D02*
X129667000Y-140477000D01*
X127000000Y-134493000D02*
X129667000Y-137160000D01*
X127000000Y-133604000D02*
X127000000Y-134493000D01*
X129667000Y-140477000D02*
X131816000Y-142626000D01*
%TO.N,Net-(C38-Pad2)*%
X119888000Y-114427000D02*
X115189000Y-114427000D01*
%TO.N,/AS3394_PWM/Mixer_Balance_CV*%
X130292000Y-119766000D02*
X131816000Y-119766000D01*
X114620000Y-123930000D02*
X114630000Y-123940000D01*
X126118000Y-123940000D02*
X130292000Y-119766000D01*
X114630000Y-123940000D02*
X126118000Y-123940000D01*
D19*
%TO.N,Net-(J1-Pad1)*%
X141580000Y-109800000D02*
X144095000Y-107285000D01*
X144095000Y-107285000D02*
X145430000Y-107285000D01*
X137423111Y-109800000D02*
X141580000Y-109800000D01*
%TO.N,Net-(J1-Pad3)*%
X137423111Y-110602902D02*
X143667902Y-110602902D01*
X143667902Y-110602902D02*
X145430000Y-112365000D01*
D20*
%TO.N,/USB_D-*%
X135285000Y-90280000D02*
X135245000Y-90240000D01*
X136475000Y-90280000D02*
X135285000Y-90280000D01*
D21*
%TO.N,/AS3394_PWM/Final_Gain_PWM*%
X131280000Y-108240000D02*
X130990000Y-107950000D01*
X130990000Y-107950000D02*
X123825000Y-107950000D01*
%TO.N,/AS3394_PWM/Wave_Select_2*%
X152418898Y-117747898D02*
X152781000Y-118110000D01*
X140351529Y-114316529D02*
X140351529Y-114288129D01*
X143782898Y-117747898D02*
X140351529Y-114316529D01*
X143782898Y-117747898D02*
X152418898Y-117747898D01*
%TO.N,/AS3394_PWM/Wave_Select_1*%
X156665000Y-118999000D02*
X155014000Y-117348000D01*
X155014000Y-117348000D02*
X144230750Y-117348000D01*
X144230750Y-117348000D02*
X141171375Y-114288625D01*
%TO.N,/AS3394_PWM/Wave_Select_CV*%
X152022000Y-132466000D02*
X139436000Y-132466000D01*
X156030000Y-128458000D02*
X152022000Y-132466000D01*
%TO.N,/AS3394_PWM/Mixer_Balance_PWM*%
X121940000Y-109220000D02*
X121930000Y-109230000D01*
X130210000Y-109220000D02*
X121940000Y-109220000D01*
%TO.N,/RUN*%
X146360000Y-105230000D02*
X147980000Y-106850000D01*
X147980000Y-106850000D02*
X147980000Y-107990000D01*
X142361009Y-107528991D02*
X144660000Y-105230000D01*
X144660000Y-105230000D02*
X146360000Y-105230000D01*
X136438009Y-107528991D02*
X142361009Y-107528991D01*
%TO.N,/AMP_OUT*%
X159750000Y-139480000D02*
X159750000Y-144290000D01*
X159050000Y-138780000D02*
X159750000Y-139480000D01*
X159195000Y-144845000D02*
X158000000Y-144845000D01*
X159750000Y-144290000D02*
X159195000Y-144845000D01*
X159050000Y-117480000D02*
X159050000Y-138780000D01*
%TD*%
M02*
