%TF.GenerationSoftware,KiCad,Pcbnew,(6.0.6)*%
%TF.CreationDate,2022-10-30T13:06:07-04:00*%
%TF.ProjectId,RP2040_AS3394,52503230-3430-45f4-9153-333339342e6b,rev?*%
%TF.SameCoordinates,Original*%
%TF.FileFunction,Legend,Top*%
%TF.FilePolarity,Positive*%
%FSLAX46Y46*%
G04 Gerber Fmt 4.6, Leading zero omitted, Abs format (unit mm)*
G04 Created by KiCad (PCBNEW (6.0.6)) date 2022-10-30 13:06:07*
%MOMM*%
%LPD*%
G01*
G04 APERTURE LIST*
G04 Aperture macros list*
%AMRoundRect*
0 Rectangle with rounded corners*
0 $1 Rounding radius*
0 $2 $3 $4 $5 $6 $7 $8 $9 X,Y pos of 4 corners*
0 Add a 4 corners polygon primitive as box body*
4,1,4,$2,$3,$4,$5,$6,$7,$8,$9,$2,$3,0*
0 Add four circle primitives for the rounded corners*
1,1,$1+$1,$2,$3*
1,1,$1+$1,$4,$5*
1,1,$1+$1,$6,$7*
1,1,$1+$1,$8,$9*
0 Add four rect primitives between the rounded corners*
20,1,$1+$1,$2,$3,$4,$5,0*
20,1,$1+$1,$4,$5,$6,$7,0*
20,1,$1+$1,$6,$7,$8,$9,0*
20,1,$1+$1,$8,$9,$2,$3,0*%
G04 Aperture macros list end*
%ADD10C,0.150000*%
%ADD11C,0.127000*%
%ADD12C,0.120000*%
%ADD13C,0.200000*%
%ADD14RoundRect,0.225000X-0.225000X-0.250000X0.225000X-0.250000X0.225000X0.250000X-0.225000X0.250000X0*%
%ADD15RoundRect,0.135000X-0.185000X0.135000X-0.185000X-0.135000X0.185000X-0.135000X0.185000X0.135000X0*%
%ADD16RoundRect,0.225000X0.250000X-0.225000X0.250000X0.225000X-0.250000X0.225000X-0.250000X-0.225000X0*%
%ADD17RoundRect,0.225000X0.225000X0.250000X-0.225000X0.250000X-0.225000X-0.250000X0.225000X-0.250000X0*%
%ADD18RoundRect,0.135000X0.185000X-0.135000X0.185000X0.135000X-0.185000X0.135000X-0.185000X-0.135000X0*%
%ADD19RoundRect,0.200000X-0.275000X0.200000X-0.275000X-0.200000X0.275000X-0.200000X0.275000X0.200000X0*%
%ADD20RoundRect,0.140000X0.140000X0.170000X-0.140000X0.170000X-0.140000X-0.170000X0.140000X-0.170000X0*%
%ADD21RoundRect,0.200000X-0.200000X-0.275000X0.200000X-0.275000X0.200000X0.275000X-0.200000X0.275000X0*%
%ADD22RoundRect,0.140000X0.170000X-0.140000X0.170000X0.140000X-0.170000X0.140000X-0.170000X-0.140000X0*%
%ADD23RoundRect,0.140000X-0.140000X-0.170000X0.140000X-0.170000X0.140000X0.170000X-0.140000X0.170000X0*%
%ADD24RoundRect,0.250000X0.450000X-0.262500X0.450000X0.262500X-0.450000X0.262500X-0.450000X-0.262500X0*%
%ADD25R,0.750000X1.000000*%
%ADD26RoundRect,0.135000X-0.135000X-0.185000X0.135000X-0.185000X0.135000X0.185000X-0.135000X0.185000X0*%
%ADD27RoundRect,0.200000X0.200000X0.275000X-0.200000X0.275000X-0.200000X-0.275000X0.200000X-0.275000X0*%
%ADD28R,2.000000X1.500000*%
%ADD29R,2.000000X3.800000*%
%ADD30C,0.700000*%
%ADD31R,0.600000X1.450000*%
%ADD32R,0.300000X1.450000*%
%ADD33O,1.050000X2.100000*%
%ADD34R,1.700000X1.700000*%
%ADD35O,1.700000X1.700000*%
%ADD36RoundRect,0.150000X0.150000X-0.825000X0.150000X0.825000X-0.150000X0.825000X-0.150000X-0.825000X0*%
%ADD37R,1.200000X1.400000*%
%ADD38R,2.500000X1.800000*%
%ADD39R,1.600000X1.600000*%
%ADD40O,1.600000X1.600000*%
%ADD41RoundRect,0.218750X0.218750X0.381250X-0.218750X0.381250X-0.218750X-0.381250X0.218750X-0.381250X0*%
%ADD42RoundRect,0.250000X0.325000X0.650000X-0.325000X0.650000X-0.325000X-0.650000X0.325000X-0.650000X0*%
%ADD43R,1.800000X2.500000*%
%ADD44RoundRect,0.140000X-0.170000X0.140000X-0.170000X-0.140000X0.170000X-0.140000X0.170000X0.140000X0*%
%ADD45RoundRect,0.150000X-0.650000X-0.150000X0.650000X-0.150000X0.650000X0.150000X-0.650000X0.150000X0*%
%ADD46RoundRect,0.135000X0.135000X0.185000X-0.135000X0.185000X-0.135000X-0.185000X0.135000X-0.185000X0*%
%ADD47RoundRect,0.200000X0.275000X-0.200000X0.275000X0.200000X-0.275000X0.200000X-0.275000X-0.200000X0*%
%ADD48RoundRect,0.150000X-0.825000X-0.150000X0.825000X-0.150000X0.825000X0.150000X-0.825000X0.150000X0*%
%ADD49RoundRect,0.225000X-0.250000X0.225000X-0.250000X-0.225000X0.250000X-0.225000X0.250000X0.225000X0*%
%ADD50RoundRect,0.050000X-0.387500X-0.050000X0.387500X-0.050000X0.387500X0.050000X-0.387500X0.050000X0*%
%ADD51RoundRect,0.050000X-0.050000X-0.387500X0.050000X-0.387500X0.050000X0.387500X-0.050000X0.387500X0*%
%ADD52R,3.200000X3.200000*%
%ADD53RoundRect,0.250000X1.050000X0.550000X-1.050000X0.550000X-1.050000X-0.550000X1.050000X-0.550000X0*%
%ADD54RoundRect,0.150000X-0.150000X0.825000X-0.150000X-0.825000X0.150000X-0.825000X0.150000X0.825000X0*%
%ADD55RoundRect,0.250000X0.250000X0.475000X-0.250000X0.475000X-0.250000X-0.475000X0.250000X-0.475000X0*%
%ADD56R,1.000000X0.750000*%
G04 APERTURE END LIST*
D10*
X144233809Y-88487619D02*
X144281428Y-88440000D01*
X144376666Y-88392380D01*
X144614761Y-88392380D01*
X144710000Y-88440000D01*
X144757619Y-88487619D01*
X144805238Y-88582857D01*
X144805238Y-88678095D01*
X144757619Y-88820952D01*
X144186190Y-89392380D01*
X144805238Y-89392380D01*
X145424285Y-88392380D02*
X145519523Y-88392380D01*
X145614761Y-88440000D01*
X145662380Y-88487619D01*
X145710000Y-88582857D01*
X145757619Y-88773333D01*
X145757619Y-89011428D01*
X145710000Y-89201904D01*
X145662380Y-89297142D01*
X145614761Y-89344761D01*
X145519523Y-89392380D01*
X145424285Y-89392380D01*
X145329047Y-89344761D01*
X145281428Y-89297142D01*
X145233809Y-89201904D01*
X145186190Y-89011428D01*
X145186190Y-88773333D01*
X145233809Y-88582857D01*
X145281428Y-88487619D01*
X145329047Y-88440000D01*
X145424285Y-88392380D01*
X146138571Y-88487619D02*
X146186190Y-88440000D01*
X146281428Y-88392380D01*
X146519523Y-88392380D01*
X146614761Y-88440000D01*
X146662380Y-88487619D01*
X146710000Y-88582857D01*
X146710000Y-88678095D01*
X146662380Y-88820952D01*
X146090952Y-89392380D01*
X146710000Y-89392380D01*
X147090952Y-88487619D02*
X147138571Y-88440000D01*
X147233809Y-88392380D01*
X147471904Y-88392380D01*
X147567142Y-88440000D01*
X147614761Y-88487619D01*
X147662380Y-88582857D01*
X147662380Y-88678095D01*
X147614761Y-88820952D01*
X147043333Y-89392380D01*
X147662380Y-89392380D01*
X149424285Y-89392380D02*
X149090952Y-88916190D01*
X148852857Y-89392380D02*
X148852857Y-88392380D01*
X149233809Y-88392380D01*
X149329047Y-88440000D01*
X149376666Y-88487619D01*
X149424285Y-88582857D01*
X149424285Y-88725714D01*
X149376666Y-88820952D01*
X149329047Y-88868571D01*
X149233809Y-88916190D01*
X148852857Y-88916190D01*
X150233809Y-89344761D02*
X150138571Y-89392380D01*
X149948095Y-89392380D01*
X149852857Y-89344761D01*
X149805238Y-89249523D01*
X149805238Y-88868571D01*
X149852857Y-88773333D01*
X149948095Y-88725714D01*
X150138571Y-88725714D01*
X150233809Y-88773333D01*
X150281428Y-88868571D01*
X150281428Y-88963809D01*
X149805238Y-89059047D01*
X150614761Y-88725714D02*
X150852857Y-89392380D01*
X151090952Y-88725714D01*
X152757619Y-89392380D02*
X152186190Y-89392380D01*
X152471904Y-89392380D02*
X152471904Y-88392380D01*
X152376666Y-88535238D01*
X152281428Y-88630476D01*
X152186190Y-88678095D01*
X153186190Y-89297142D02*
X153233809Y-89344761D01*
X153186190Y-89392380D01*
X153138571Y-89344761D01*
X153186190Y-89297142D01*
X153186190Y-89392380D01*
X153852857Y-88392380D02*
X153948095Y-88392380D01*
X154043333Y-88440000D01*
X154090952Y-88487619D01*
X154138571Y-88582857D01*
X154186190Y-88773333D01*
X154186190Y-89011428D01*
X154138571Y-89201904D01*
X154090952Y-89297142D01*
X154043333Y-89344761D01*
X153948095Y-89392380D01*
X153852857Y-89392380D01*
X153757619Y-89344761D01*
X153710000Y-89297142D01*
X153662380Y-89201904D01*
X153614761Y-89011428D01*
X153614761Y-88773333D01*
X153662380Y-88582857D01*
X153710000Y-88487619D01*
X153757619Y-88440000D01*
X153852857Y-88392380D01*
X147160952Y-129282380D02*
X147160952Y-129996666D01*
X147113333Y-130139523D01*
X147018095Y-130234761D01*
X146875238Y-130282380D01*
X146780000Y-130282380D01*
X148113333Y-130282380D02*
X147637142Y-130282380D01*
X147637142Y-129282380D01*
X149018095Y-130187142D02*
X148970476Y-130234761D01*
X148827619Y-130282380D01*
X148732380Y-130282380D01*
X148589523Y-130234761D01*
X148494285Y-130139523D01*
X148446666Y-130044285D01*
X148399047Y-129853809D01*
X148399047Y-129710952D01*
X148446666Y-129520476D01*
X148494285Y-129425238D01*
X148589523Y-129330000D01*
X148732380Y-129282380D01*
X148827619Y-129282380D01*
X148970476Y-129330000D01*
X149018095Y-129377619D01*
X149732380Y-129282380D02*
X149732380Y-129996666D01*
X149684761Y-130139523D01*
X149589523Y-130234761D01*
X149446666Y-130282380D01*
X149351428Y-130282380D01*
X150684761Y-130282380D02*
X150208571Y-130282380D01*
X150208571Y-129282380D01*
X151589523Y-130187142D02*
X151541904Y-130234761D01*
X151399047Y-130282380D01*
X151303809Y-130282380D01*
X151160952Y-130234761D01*
X151065714Y-130139523D01*
X151018095Y-130044285D01*
X150970476Y-129853809D01*
X150970476Y-129710952D01*
X151018095Y-129520476D01*
X151065714Y-129425238D01*
X151160952Y-129330000D01*
X151303809Y-129282380D01*
X151399047Y-129282380D01*
X151541904Y-129330000D01*
X151589523Y-129377619D01*
X152303809Y-129282380D02*
X152303809Y-129996666D01*
X152256190Y-130139523D01*
X152160952Y-130234761D01*
X152018095Y-130282380D01*
X151922857Y-130282380D01*
X153256190Y-130282380D02*
X152780000Y-130282380D01*
X152780000Y-129282380D01*
X154160952Y-130187142D02*
X154113333Y-130234761D01*
X153970476Y-130282380D01*
X153875238Y-130282380D01*
X153732380Y-130234761D01*
X153637142Y-130139523D01*
X153589523Y-130044285D01*
X153541904Y-129853809D01*
X153541904Y-129710952D01*
X153589523Y-129520476D01*
X153637142Y-129425238D01*
X153732380Y-129330000D01*
X153875238Y-129282380D01*
X153970476Y-129282380D01*
X154113333Y-129330000D01*
X154160952Y-129377619D01*
X154875238Y-129282380D02*
X154875238Y-129996666D01*
X154827619Y-130139523D01*
X154732380Y-130234761D01*
X154589523Y-130282380D01*
X154494285Y-130282380D01*
X155827619Y-130282380D02*
X155351428Y-130282380D01*
X155351428Y-129282380D01*
X156732380Y-130187142D02*
X156684761Y-130234761D01*
X156541904Y-130282380D01*
X156446666Y-130282380D01*
X156303809Y-130234761D01*
X156208571Y-130139523D01*
X156160952Y-130044285D01*
X156113333Y-129853809D01*
X156113333Y-129710952D01*
X156160952Y-129520476D01*
X156208571Y-129425238D01*
X156303809Y-129330000D01*
X156446666Y-129282380D01*
X156541904Y-129282380D01*
X156684761Y-129330000D01*
X156732380Y-129377619D01*
X144834285Y-87622380D02*
X144500952Y-87146190D01*
X144262857Y-87622380D02*
X144262857Y-86622380D01*
X144643809Y-86622380D01*
X144739047Y-86670000D01*
X144786666Y-86717619D01*
X144834285Y-86812857D01*
X144834285Y-86955714D01*
X144786666Y-87050952D01*
X144739047Y-87098571D01*
X144643809Y-87146190D01*
X144262857Y-87146190D01*
X145262857Y-87622380D02*
X145262857Y-86622380D01*
X145643809Y-86622380D01*
X145739047Y-86670000D01*
X145786666Y-86717619D01*
X145834285Y-86812857D01*
X145834285Y-86955714D01*
X145786666Y-87050952D01*
X145739047Y-87098571D01*
X145643809Y-87146190D01*
X145262857Y-87146190D01*
X146215238Y-86717619D02*
X146262857Y-86670000D01*
X146358095Y-86622380D01*
X146596190Y-86622380D01*
X146691428Y-86670000D01*
X146739047Y-86717619D01*
X146786666Y-86812857D01*
X146786666Y-86908095D01*
X146739047Y-87050952D01*
X146167619Y-87622380D01*
X146786666Y-87622380D01*
X147405714Y-86622380D02*
X147500952Y-86622380D01*
X147596190Y-86670000D01*
X147643809Y-86717619D01*
X147691428Y-86812857D01*
X147739047Y-87003333D01*
X147739047Y-87241428D01*
X147691428Y-87431904D01*
X147643809Y-87527142D01*
X147596190Y-87574761D01*
X147500952Y-87622380D01*
X147405714Y-87622380D01*
X147310476Y-87574761D01*
X147262857Y-87527142D01*
X147215238Y-87431904D01*
X147167619Y-87241428D01*
X147167619Y-87003333D01*
X147215238Y-86812857D01*
X147262857Y-86717619D01*
X147310476Y-86670000D01*
X147405714Y-86622380D01*
X148596190Y-86955714D02*
X148596190Y-87622380D01*
X148358095Y-86574761D02*
X148120000Y-87289047D01*
X148739047Y-87289047D01*
X149310476Y-86622380D02*
X149405714Y-86622380D01*
X149500952Y-86670000D01*
X149548571Y-86717619D01*
X149596190Y-86812857D01*
X149643809Y-87003333D01*
X149643809Y-87241428D01*
X149596190Y-87431904D01*
X149548571Y-87527142D01*
X149500952Y-87574761D01*
X149405714Y-87622380D01*
X149310476Y-87622380D01*
X149215238Y-87574761D01*
X149167619Y-87527142D01*
X149120000Y-87431904D01*
X149072380Y-87241428D01*
X149072380Y-87003333D01*
X149120000Y-86812857D01*
X149167619Y-86717619D01*
X149215238Y-86670000D01*
X149310476Y-86622380D01*
X149834285Y-87717619D02*
X150596190Y-87717619D01*
X150786666Y-87336666D02*
X151262857Y-87336666D01*
X150691428Y-87622380D02*
X151024761Y-86622380D01*
X151358095Y-87622380D01*
X151643809Y-87574761D02*
X151786666Y-87622380D01*
X152024761Y-87622380D01*
X152120000Y-87574761D01*
X152167619Y-87527142D01*
X152215238Y-87431904D01*
X152215238Y-87336666D01*
X152167619Y-87241428D01*
X152120000Y-87193809D01*
X152024761Y-87146190D01*
X151834285Y-87098571D01*
X151739047Y-87050952D01*
X151691428Y-87003333D01*
X151643809Y-86908095D01*
X151643809Y-86812857D01*
X151691428Y-86717619D01*
X151739047Y-86670000D01*
X151834285Y-86622380D01*
X152072380Y-86622380D01*
X152215238Y-86670000D01*
X152548571Y-86622380D02*
X153167619Y-86622380D01*
X152834285Y-87003333D01*
X152977142Y-87003333D01*
X153072380Y-87050952D01*
X153120000Y-87098571D01*
X153167619Y-87193809D01*
X153167619Y-87431904D01*
X153120000Y-87527142D01*
X153072380Y-87574761D01*
X152977142Y-87622380D01*
X152691428Y-87622380D01*
X152596190Y-87574761D01*
X152548571Y-87527142D01*
X153500952Y-86622380D02*
X154120000Y-86622380D01*
X153786666Y-87003333D01*
X153929523Y-87003333D01*
X154024761Y-87050952D01*
X154072380Y-87098571D01*
X154120000Y-87193809D01*
X154120000Y-87431904D01*
X154072380Y-87527142D01*
X154024761Y-87574761D01*
X153929523Y-87622380D01*
X153643809Y-87622380D01*
X153548571Y-87574761D01*
X153500952Y-87527142D01*
X154596190Y-87622380D02*
X154786666Y-87622380D01*
X154881904Y-87574761D01*
X154929523Y-87527142D01*
X155024761Y-87384285D01*
X155072380Y-87193809D01*
X155072380Y-86812857D01*
X155024761Y-86717619D01*
X154977142Y-86670000D01*
X154881904Y-86622380D01*
X154691428Y-86622380D01*
X154596190Y-86670000D01*
X154548571Y-86717619D01*
X154500952Y-86812857D01*
X154500952Y-87050952D01*
X154548571Y-87146190D01*
X154596190Y-87193809D01*
X154691428Y-87241428D01*
X154881904Y-87241428D01*
X154977142Y-87193809D01*
X155024761Y-87146190D01*
X155072380Y-87050952D01*
X155929523Y-86955714D02*
X155929523Y-87622380D01*
X155691428Y-86574761D02*
X155453333Y-87289047D01*
X156072380Y-87289047D01*
D11*
%TO.C,C33*%
X133713428Y-131491428D02*
X133689238Y-131515619D01*
X133616666Y-131539809D01*
X133568285Y-131539809D01*
X133495714Y-131515619D01*
X133447333Y-131467238D01*
X133423142Y-131418857D01*
X133398952Y-131322095D01*
X133398952Y-131249523D01*
X133423142Y-131152761D01*
X133447333Y-131104380D01*
X133495714Y-131056000D01*
X133568285Y-131031809D01*
X133616666Y-131031809D01*
X133689238Y-131056000D01*
X133713428Y-131080190D01*
X133882761Y-131031809D02*
X134197238Y-131031809D01*
X134027904Y-131225333D01*
X134100476Y-131225333D01*
X134148857Y-131249523D01*
X134173047Y-131273714D01*
X134197238Y-131322095D01*
X134197238Y-131443047D01*
X134173047Y-131491428D01*
X134148857Y-131515619D01*
X134100476Y-131539809D01*
X133955333Y-131539809D01*
X133906952Y-131515619D01*
X133882761Y-131491428D01*
X134366571Y-131031809D02*
X134681047Y-131031809D01*
X134511714Y-131225333D01*
X134584285Y-131225333D01*
X134632666Y-131249523D01*
X134656857Y-131273714D01*
X134681047Y-131322095D01*
X134681047Y-131443047D01*
X134656857Y-131491428D01*
X134632666Y-131515619D01*
X134584285Y-131539809D01*
X134439142Y-131539809D01*
X134390761Y-131515619D01*
X134366571Y-131491428D01*
D10*
%TO.C,R31*%
X118897142Y-110932380D02*
X118563809Y-110456190D01*
X118325714Y-110932380D02*
X118325714Y-109932380D01*
X118706666Y-109932380D01*
X118801904Y-109980000D01*
X118849523Y-110027619D01*
X118897142Y-110122857D01*
X118897142Y-110265714D01*
X118849523Y-110360952D01*
X118801904Y-110408571D01*
X118706666Y-110456190D01*
X118325714Y-110456190D01*
X119230476Y-109932380D02*
X119849523Y-109932380D01*
X119516190Y-110313333D01*
X119659047Y-110313333D01*
X119754285Y-110360952D01*
X119801904Y-110408571D01*
X119849523Y-110503809D01*
X119849523Y-110741904D01*
X119801904Y-110837142D01*
X119754285Y-110884761D01*
X119659047Y-110932380D01*
X119373333Y-110932380D01*
X119278095Y-110884761D01*
X119230476Y-110837142D01*
X120801904Y-110932380D02*
X120230476Y-110932380D01*
X120516190Y-110932380D02*
X120516190Y-109932380D01*
X120420952Y-110075238D01*
X120325714Y-110170476D01*
X120230476Y-110218095D01*
%TO.C,C30*%
X144543142Y-131259857D02*
X144590761Y-131307476D01*
X144638380Y-131450333D01*
X144638380Y-131545571D01*
X144590761Y-131688428D01*
X144495523Y-131783666D01*
X144400285Y-131831285D01*
X144209809Y-131878904D01*
X144066952Y-131878904D01*
X143876476Y-131831285D01*
X143781238Y-131783666D01*
X143686000Y-131688428D01*
X143638380Y-131545571D01*
X143638380Y-131450333D01*
X143686000Y-131307476D01*
X143733619Y-131259857D01*
X143638380Y-130926523D02*
X143638380Y-130307476D01*
X144019333Y-130640809D01*
X144019333Y-130497952D01*
X144066952Y-130402714D01*
X144114571Y-130355095D01*
X144209809Y-130307476D01*
X144447904Y-130307476D01*
X144543142Y-130355095D01*
X144590761Y-130402714D01*
X144638380Y-130497952D01*
X144638380Y-130783666D01*
X144590761Y-130878904D01*
X144543142Y-130926523D01*
X143638380Y-129688428D02*
X143638380Y-129593190D01*
X143686000Y-129497952D01*
X143733619Y-129450333D01*
X143828857Y-129402714D01*
X144019333Y-129355095D01*
X144257428Y-129355095D01*
X144447904Y-129402714D01*
X144543142Y-129450333D01*
X144590761Y-129497952D01*
X144638380Y-129593190D01*
X144638380Y-129688428D01*
X144590761Y-129783666D01*
X144543142Y-129831285D01*
X144447904Y-129878904D01*
X144257428Y-129926523D01*
X144019333Y-129926523D01*
X143828857Y-129878904D01*
X143733619Y-129831285D01*
X143686000Y-129783666D01*
X143638380Y-129688428D01*
%TO.C,C45*%
X143487142Y-124545142D02*
X143439523Y-124592761D01*
X143296666Y-124640380D01*
X143201428Y-124640380D01*
X143058571Y-124592761D01*
X142963333Y-124497523D01*
X142915714Y-124402285D01*
X142868095Y-124211809D01*
X142868095Y-124068952D01*
X142915714Y-123878476D01*
X142963333Y-123783238D01*
X143058571Y-123688000D01*
X143201428Y-123640380D01*
X143296666Y-123640380D01*
X143439523Y-123688000D01*
X143487142Y-123735619D01*
X144344285Y-123973714D02*
X144344285Y-124640380D01*
X144106190Y-123592761D02*
X143868095Y-124307047D01*
X144487142Y-124307047D01*
X145344285Y-123640380D02*
X144868095Y-123640380D01*
X144820476Y-124116571D01*
X144868095Y-124068952D01*
X144963333Y-124021333D01*
X145201428Y-124021333D01*
X145296666Y-124068952D01*
X145344285Y-124116571D01*
X145391904Y-124211809D01*
X145391904Y-124449904D01*
X145344285Y-124545142D01*
X145296666Y-124592761D01*
X145201428Y-124640380D01*
X144963333Y-124640380D01*
X144868095Y-124592761D01*
X144820476Y-124545142D01*
%TO.C,R54*%
X124177142Y-109842380D02*
X123843809Y-109366190D01*
X123605714Y-109842380D02*
X123605714Y-108842380D01*
X123986666Y-108842380D01*
X124081904Y-108890000D01*
X124129523Y-108937619D01*
X124177142Y-109032857D01*
X124177142Y-109175714D01*
X124129523Y-109270952D01*
X124081904Y-109318571D01*
X123986666Y-109366190D01*
X123605714Y-109366190D01*
X125081904Y-108842380D02*
X124605714Y-108842380D01*
X124558095Y-109318571D01*
X124605714Y-109270952D01*
X124700952Y-109223333D01*
X124939047Y-109223333D01*
X125034285Y-109270952D01*
X125081904Y-109318571D01*
X125129523Y-109413809D01*
X125129523Y-109651904D01*
X125081904Y-109747142D01*
X125034285Y-109794761D01*
X124939047Y-109842380D01*
X124700952Y-109842380D01*
X124605714Y-109794761D01*
X124558095Y-109747142D01*
X125986666Y-109175714D02*
X125986666Y-109842380D01*
X125748571Y-108794761D02*
X125510476Y-109509047D01*
X126129523Y-109509047D01*
%TO.C,C27*%
X145816857Y-134552857D02*
X145768476Y-134601238D01*
X145623333Y-134649619D01*
X145526571Y-134649619D01*
X145381428Y-134601238D01*
X145284666Y-134504476D01*
X145236285Y-134407714D01*
X145187904Y-134214190D01*
X145187904Y-134069047D01*
X145236285Y-133875523D01*
X145284666Y-133778761D01*
X145381428Y-133682000D01*
X145526571Y-133633619D01*
X145623333Y-133633619D01*
X145768476Y-133682000D01*
X145816857Y-133730380D01*
X146203904Y-133730380D02*
X146252285Y-133682000D01*
X146349047Y-133633619D01*
X146590952Y-133633619D01*
X146687714Y-133682000D01*
X146736095Y-133730380D01*
X146784476Y-133827142D01*
X146784476Y-133923904D01*
X146736095Y-134069047D01*
X146155523Y-134649619D01*
X146784476Y-134649619D01*
X147123142Y-133633619D02*
X147800476Y-133633619D01*
X147365047Y-134649619D01*
%TO.C,R52*%
X143487142Y-118224380D02*
X143153809Y-117748190D01*
X142915714Y-118224380D02*
X142915714Y-117224380D01*
X143296666Y-117224380D01*
X143391904Y-117272000D01*
X143439523Y-117319619D01*
X143487142Y-117414857D01*
X143487142Y-117557714D01*
X143439523Y-117652952D01*
X143391904Y-117700571D01*
X143296666Y-117748190D01*
X142915714Y-117748190D01*
X144391904Y-117224380D02*
X143915714Y-117224380D01*
X143868095Y-117700571D01*
X143915714Y-117652952D01*
X144010952Y-117605333D01*
X144249047Y-117605333D01*
X144344285Y-117652952D01*
X144391904Y-117700571D01*
X144439523Y-117795809D01*
X144439523Y-118033904D01*
X144391904Y-118129142D01*
X144344285Y-118176761D01*
X144249047Y-118224380D01*
X144010952Y-118224380D01*
X143915714Y-118176761D01*
X143868095Y-118129142D01*
X144820476Y-117319619D02*
X144868095Y-117272000D01*
X144963333Y-117224380D01*
X145201428Y-117224380D01*
X145296666Y-117272000D01*
X145344285Y-117319619D01*
X145391904Y-117414857D01*
X145391904Y-117510095D01*
X145344285Y-117652952D01*
X144772857Y-118224380D01*
X145391904Y-118224380D01*
D11*
%TO.C,R17*%
X150493428Y-123419809D02*
X150324095Y-123177904D01*
X150203142Y-123419809D02*
X150203142Y-122911809D01*
X150396666Y-122911809D01*
X150445047Y-122936000D01*
X150469238Y-122960190D01*
X150493428Y-123008571D01*
X150493428Y-123081142D01*
X150469238Y-123129523D01*
X150445047Y-123153714D01*
X150396666Y-123177904D01*
X150203142Y-123177904D01*
X150977238Y-123419809D02*
X150686952Y-123419809D01*
X150832095Y-123419809D02*
X150832095Y-122911809D01*
X150783714Y-122984380D01*
X150735333Y-123032761D01*
X150686952Y-123056952D01*
X151146571Y-122911809D02*
X151485238Y-122911809D01*
X151267523Y-123419809D01*
D10*
%TO.C,C14*%
X131347142Y-110847142D02*
X131299523Y-110894761D01*
X131156666Y-110942380D01*
X131061428Y-110942380D01*
X130918571Y-110894761D01*
X130823333Y-110799523D01*
X130775714Y-110704285D01*
X130728095Y-110513809D01*
X130728095Y-110370952D01*
X130775714Y-110180476D01*
X130823333Y-110085238D01*
X130918571Y-109990000D01*
X131061428Y-109942380D01*
X131156666Y-109942380D01*
X131299523Y-109990000D01*
X131347142Y-110037619D01*
X132299523Y-110942380D02*
X131728095Y-110942380D01*
X132013809Y-110942380D02*
X132013809Y-109942380D01*
X131918571Y-110085238D01*
X131823333Y-110180476D01*
X131728095Y-110228095D01*
X133156666Y-110275714D02*
X133156666Y-110942380D01*
X132918571Y-109894761D02*
X132680476Y-110609047D01*
X133299523Y-110609047D01*
%TO.C,C51*%
X144612142Y-146819857D02*
X144659761Y-146867476D01*
X144707380Y-147010333D01*
X144707380Y-147105571D01*
X144659761Y-147248428D01*
X144564523Y-147343666D01*
X144469285Y-147391285D01*
X144278809Y-147438904D01*
X144135952Y-147438904D01*
X143945476Y-147391285D01*
X143850238Y-147343666D01*
X143755000Y-147248428D01*
X143707380Y-147105571D01*
X143707380Y-147010333D01*
X143755000Y-146867476D01*
X143802619Y-146819857D01*
X143707380Y-145915095D02*
X143707380Y-146391285D01*
X144183571Y-146438904D01*
X144135952Y-146391285D01*
X144088333Y-146296047D01*
X144088333Y-146057952D01*
X144135952Y-145962714D01*
X144183571Y-145915095D01*
X144278809Y-145867476D01*
X144516904Y-145867476D01*
X144612142Y-145915095D01*
X144659761Y-145962714D01*
X144707380Y-146057952D01*
X144707380Y-146296047D01*
X144659761Y-146391285D01*
X144612142Y-146438904D01*
X144707380Y-144915095D02*
X144707380Y-145486523D01*
X144707380Y-145200809D02*
X143707380Y-145200809D01*
X143850238Y-145296047D01*
X143945476Y-145391285D01*
X143993095Y-145486523D01*
%TO.C,C8*%
X143463333Y-101917142D02*
X143415714Y-101964761D01*
X143272857Y-102012380D01*
X143177619Y-102012380D01*
X143034761Y-101964761D01*
X142939523Y-101869523D01*
X142891904Y-101774285D01*
X142844285Y-101583809D01*
X142844285Y-101440952D01*
X142891904Y-101250476D01*
X142939523Y-101155238D01*
X143034761Y-101060000D01*
X143177619Y-101012380D01*
X143272857Y-101012380D01*
X143415714Y-101060000D01*
X143463333Y-101107619D01*
X144034761Y-101440952D02*
X143939523Y-101393333D01*
X143891904Y-101345714D01*
X143844285Y-101250476D01*
X143844285Y-101202857D01*
X143891904Y-101107619D01*
X143939523Y-101060000D01*
X144034761Y-101012380D01*
X144225238Y-101012380D01*
X144320476Y-101060000D01*
X144368095Y-101107619D01*
X144415714Y-101202857D01*
X144415714Y-101250476D01*
X144368095Y-101345714D01*
X144320476Y-101393333D01*
X144225238Y-101440952D01*
X144034761Y-101440952D01*
X143939523Y-101488571D01*
X143891904Y-101536190D01*
X143844285Y-101631428D01*
X143844285Y-101821904D01*
X143891904Y-101917142D01*
X143939523Y-101964761D01*
X144034761Y-102012380D01*
X144225238Y-102012380D01*
X144320476Y-101964761D01*
X144368095Y-101917142D01*
X144415714Y-101821904D01*
X144415714Y-101631428D01*
X144368095Y-101536190D01*
X144320476Y-101488571D01*
X144225238Y-101440952D01*
%TO.C,R21*%
X158377142Y-135122380D02*
X158043809Y-134646190D01*
X157805714Y-135122380D02*
X157805714Y-134122380D01*
X158186666Y-134122380D01*
X158281904Y-134170000D01*
X158329523Y-134217619D01*
X158377142Y-134312857D01*
X158377142Y-134455714D01*
X158329523Y-134550952D01*
X158281904Y-134598571D01*
X158186666Y-134646190D01*
X157805714Y-134646190D01*
X158758095Y-134217619D02*
X158805714Y-134170000D01*
X158900952Y-134122380D01*
X159139047Y-134122380D01*
X159234285Y-134170000D01*
X159281904Y-134217619D01*
X159329523Y-134312857D01*
X159329523Y-134408095D01*
X159281904Y-134550952D01*
X158710476Y-135122380D01*
X159329523Y-135122380D01*
X160281904Y-135122380D02*
X159710476Y-135122380D01*
X159996190Y-135122380D02*
X159996190Y-134122380D01*
X159900952Y-134265238D01*
X159805714Y-134360476D01*
X159710476Y-134408095D01*
%TO.C,R13*%
X119960380Y-132087857D02*
X119484190Y-132421190D01*
X119960380Y-132659285D02*
X118960380Y-132659285D01*
X118960380Y-132278333D01*
X119008000Y-132183095D01*
X119055619Y-132135476D01*
X119150857Y-132087857D01*
X119293714Y-132087857D01*
X119388952Y-132135476D01*
X119436571Y-132183095D01*
X119484190Y-132278333D01*
X119484190Y-132659285D01*
X119960380Y-131135476D02*
X119960380Y-131706904D01*
X119960380Y-131421190D02*
X118960380Y-131421190D01*
X119103238Y-131516428D01*
X119198476Y-131611666D01*
X119246095Y-131706904D01*
X118960380Y-130802142D02*
X118960380Y-130183095D01*
X119341333Y-130516428D01*
X119341333Y-130373571D01*
X119388952Y-130278333D01*
X119436571Y-130230714D01*
X119531809Y-130183095D01*
X119769904Y-130183095D01*
X119865142Y-130230714D01*
X119912761Y-130278333D01*
X119960380Y-130373571D01*
X119960380Y-130659285D01*
X119912761Y-130754523D01*
X119865142Y-130802142D01*
%TO.C,C15*%
X133877142Y-117887142D02*
X133829523Y-117934761D01*
X133686666Y-117982380D01*
X133591428Y-117982380D01*
X133448571Y-117934761D01*
X133353333Y-117839523D01*
X133305714Y-117744285D01*
X133258095Y-117553809D01*
X133258095Y-117410952D01*
X133305714Y-117220476D01*
X133353333Y-117125238D01*
X133448571Y-117030000D01*
X133591428Y-116982380D01*
X133686666Y-116982380D01*
X133829523Y-117030000D01*
X133877142Y-117077619D01*
X134829523Y-117982380D02*
X134258095Y-117982380D01*
X134543809Y-117982380D02*
X134543809Y-116982380D01*
X134448571Y-117125238D01*
X134353333Y-117220476D01*
X134258095Y-117268095D01*
X135734285Y-116982380D02*
X135258095Y-116982380D01*
X135210476Y-117458571D01*
X135258095Y-117410952D01*
X135353333Y-117363333D01*
X135591428Y-117363333D01*
X135686666Y-117410952D01*
X135734285Y-117458571D01*
X135781904Y-117553809D01*
X135781904Y-117791904D01*
X135734285Y-117887142D01*
X135686666Y-117934761D01*
X135591428Y-117982380D01*
X135353333Y-117982380D01*
X135258095Y-117934761D01*
X135210476Y-117887142D01*
%TO.C,S2*%
X151537761Y-111786404D02*
X151585380Y-111643547D01*
X151585380Y-111405452D01*
X151537761Y-111310214D01*
X151490142Y-111262595D01*
X151394904Y-111214976D01*
X151299666Y-111214976D01*
X151204428Y-111262595D01*
X151156809Y-111310214D01*
X151109190Y-111405452D01*
X151061571Y-111595928D01*
X151013952Y-111691166D01*
X150966333Y-111738785D01*
X150871095Y-111786404D01*
X150775857Y-111786404D01*
X150680619Y-111738785D01*
X150633000Y-111691166D01*
X150585380Y-111595928D01*
X150585380Y-111357833D01*
X150633000Y-111214976D01*
X150680619Y-110834023D02*
X150633000Y-110786404D01*
X150585380Y-110691166D01*
X150585380Y-110453071D01*
X150633000Y-110357833D01*
X150680619Y-110310214D01*
X150775857Y-110262595D01*
X150871095Y-110262595D01*
X151013952Y-110310214D01*
X151585380Y-110881642D01*
X151585380Y-110262595D01*
%TO.C,C22*%
X126457142Y-132087857D02*
X126504761Y-132135476D01*
X126552380Y-132278333D01*
X126552380Y-132373571D01*
X126504761Y-132516428D01*
X126409523Y-132611666D01*
X126314285Y-132659285D01*
X126123809Y-132706904D01*
X125980952Y-132706904D01*
X125790476Y-132659285D01*
X125695238Y-132611666D01*
X125600000Y-132516428D01*
X125552380Y-132373571D01*
X125552380Y-132278333D01*
X125600000Y-132135476D01*
X125647619Y-132087857D01*
X125647619Y-131706904D02*
X125600000Y-131659285D01*
X125552380Y-131564047D01*
X125552380Y-131325952D01*
X125600000Y-131230714D01*
X125647619Y-131183095D01*
X125742857Y-131135476D01*
X125838095Y-131135476D01*
X125980952Y-131183095D01*
X126552380Y-131754523D01*
X126552380Y-131135476D01*
X125647619Y-130754523D02*
X125600000Y-130706904D01*
X125552380Y-130611666D01*
X125552380Y-130373571D01*
X125600000Y-130278333D01*
X125647619Y-130230714D01*
X125742857Y-130183095D01*
X125838095Y-130183095D01*
X125980952Y-130230714D01*
X126552380Y-130802142D01*
X126552380Y-130183095D01*
%TO.C,R6*%
X123992380Y-92366666D02*
X123516190Y-92700000D01*
X123992380Y-92938095D02*
X122992380Y-92938095D01*
X122992380Y-92557142D01*
X123040000Y-92461904D01*
X123087619Y-92414285D01*
X123182857Y-92366666D01*
X123325714Y-92366666D01*
X123420952Y-92414285D01*
X123468571Y-92461904D01*
X123516190Y-92557142D01*
X123516190Y-92938095D01*
X122992380Y-91509523D02*
X122992380Y-91700000D01*
X123040000Y-91795238D01*
X123087619Y-91842857D01*
X123230476Y-91938095D01*
X123420952Y-91985714D01*
X123801904Y-91985714D01*
X123897142Y-91938095D01*
X123944761Y-91890476D01*
X123992380Y-91795238D01*
X123992380Y-91604761D01*
X123944761Y-91509523D01*
X123897142Y-91461904D01*
X123801904Y-91414285D01*
X123563809Y-91414285D01*
X123468571Y-91461904D01*
X123420952Y-91509523D01*
X123373333Y-91604761D01*
X123373333Y-91795238D01*
X123420952Y-91890476D01*
X123468571Y-91938095D01*
X123563809Y-91985714D01*
%TO.C,R2*%
X137863333Y-96002380D02*
X137530000Y-95526190D01*
X137291904Y-96002380D02*
X137291904Y-95002380D01*
X137672857Y-95002380D01*
X137768095Y-95050000D01*
X137815714Y-95097619D01*
X137863333Y-95192857D01*
X137863333Y-95335714D01*
X137815714Y-95430952D01*
X137768095Y-95478571D01*
X137672857Y-95526190D01*
X137291904Y-95526190D01*
X138244285Y-95097619D02*
X138291904Y-95050000D01*
X138387142Y-95002380D01*
X138625238Y-95002380D01*
X138720476Y-95050000D01*
X138768095Y-95097619D01*
X138815714Y-95192857D01*
X138815714Y-95288095D01*
X138768095Y-95430952D01*
X138196666Y-96002380D01*
X138815714Y-96002380D01*
%TO.C,R47*%
X157487142Y-124922380D02*
X157153809Y-124446190D01*
X156915714Y-124922380D02*
X156915714Y-123922380D01*
X157296666Y-123922380D01*
X157391904Y-123970000D01*
X157439523Y-124017619D01*
X157487142Y-124112857D01*
X157487142Y-124255714D01*
X157439523Y-124350952D01*
X157391904Y-124398571D01*
X157296666Y-124446190D01*
X156915714Y-124446190D01*
X158344285Y-124255714D02*
X158344285Y-124922380D01*
X158106190Y-123874761D02*
X157868095Y-124589047D01*
X158487142Y-124589047D01*
X158772857Y-123922380D02*
X159439523Y-123922380D01*
X159010952Y-124922380D01*
%TO.C,R53*%
X146437261Y-121398214D02*
X146134880Y-121609880D01*
X146437261Y-121761071D02*
X145802261Y-121761071D01*
X145802261Y-121519166D01*
X145832500Y-121458690D01*
X145862738Y-121428452D01*
X145923214Y-121398214D01*
X146013928Y-121398214D01*
X146074404Y-121428452D01*
X146104642Y-121458690D01*
X146134880Y-121519166D01*
X146134880Y-121761071D01*
X145802261Y-120823690D02*
X145802261Y-121126071D01*
X146104642Y-121156309D01*
X146074404Y-121126071D01*
X146044166Y-121065595D01*
X146044166Y-120914404D01*
X146074404Y-120853928D01*
X146104642Y-120823690D01*
X146165119Y-120793452D01*
X146316309Y-120793452D01*
X146376785Y-120823690D01*
X146407023Y-120853928D01*
X146437261Y-120914404D01*
X146437261Y-121065595D01*
X146407023Y-121126071D01*
X146376785Y-121156309D01*
X145802261Y-120581785D02*
X145802261Y-120188690D01*
X146044166Y-120400357D01*
X146044166Y-120309642D01*
X146074404Y-120249166D01*
X146104642Y-120218928D01*
X146165119Y-120188690D01*
X146316309Y-120188690D01*
X146376785Y-120218928D01*
X146407023Y-120249166D01*
X146437261Y-120309642D01*
X146437261Y-120491071D01*
X146407023Y-120551547D01*
X146376785Y-120581785D01*
%TO.C,U2*%
X150362380Y-100521904D02*
X151171904Y-100521904D01*
X151267142Y-100474285D01*
X151314761Y-100426666D01*
X151362380Y-100331428D01*
X151362380Y-100140952D01*
X151314761Y-100045714D01*
X151267142Y-99998095D01*
X151171904Y-99950476D01*
X150362380Y-99950476D01*
X150457619Y-99521904D02*
X150410000Y-99474285D01*
X150362380Y-99379047D01*
X150362380Y-99140952D01*
X150410000Y-99045714D01*
X150457619Y-98998095D01*
X150552857Y-98950476D01*
X150648095Y-98950476D01*
X150790952Y-98998095D01*
X151362380Y-99569523D01*
X151362380Y-98950476D01*
%TO.C,J2*%
X135906666Y-85852380D02*
X135906666Y-86566666D01*
X135859047Y-86709523D01*
X135763809Y-86804761D01*
X135620952Y-86852380D01*
X135525714Y-86852380D01*
X136335238Y-85947619D02*
X136382857Y-85900000D01*
X136478095Y-85852380D01*
X136716190Y-85852380D01*
X136811428Y-85900000D01*
X136859047Y-85947619D01*
X136906666Y-86042857D01*
X136906666Y-86138095D01*
X136859047Y-86280952D01*
X136287619Y-86852380D01*
X136906666Y-86852380D01*
%TO.C,J4*%
X115656666Y-96702380D02*
X115656666Y-97416666D01*
X115609047Y-97559523D01*
X115513809Y-97654761D01*
X115370952Y-97702380D01*
X115275714Y-97702380D01*
X116561428Y-97035714D02*
X116561428Y-97702380D01*
X116323333Y-96654761D02*
X116085238Y-97369047D01*
X116704285Y-97369047D01*
%TO.C,C31*%
X133897142Y-136627142D02*
X133849523Y-136674761D01*
X133706666Y-136722380D01*
X133611428Y-136722380D01*
X133468571Y-136674761D01*
X133373333Y-136579523D01*
X133325714Y-136484285D01*
X133278095Y-136293809D01*
X133278095Y-136150952D01*
X133325714Y-135960476D01*
X133373333Y-135865238D01*
X133468571Y-135770000D01*
X133611428Y-135722380D01*
X133706666Y-135722380D01*
X133849523Y-135770000D01*
X133897142Y-135817619D01*
X134230476Y-135722380D02*
X134849523Y-135722380D01*
X134516190Y-136103333D01*
X134659047Y-136103333D01*
X134754285Y-136150952D01*
X134801904Y-136198571D01*
X134849523Y-136293809D01*
X134849523Y-136531904D01*
X134801904Y-136627142D01*
X134754285Y-136674761D01*
X134659047Y-136722380D01*
X134373333Y-136722380D01*
X134278095Y-136674761D01*
X134230476Y-136627142D01*
X135801904Y-136722380D02*
X135230476Y-136722380D01*
X135516190Y-136722380D02*
X135516190Y-135722380D01*
X135420952Y-135865238D01*
X135325714Y-135960476D01*
X135230476Y-136008095D01*
%TO.C,R10*%
X122407142Y-134482380D02*
X122073809Y-134006190D01*
X121835714Y-134482380D02*
X121835714Y-133482380D01*
X122216666Y-133482380D01*
X122311904Y-133530000D01*
X122359523Y-133577619D01*
X122407142Y-133672857D01*
X122407142Y-133815714D01*
X122359523Y-133910952D01*
X122311904Y-133958571D01*
X122216666Y-134006190D01*
X121835714Y-134006190D01*
X123359523Y-134482380D02*
X122788095Y-134482380D01*
X123073809Y-134482380D02*
X123073809Y-133482380D01*
X122978571Y-133625238D01*
X122883333Y-133720476D01*
X122788095Y-133768095D01*
X123978571Y-133482380D02*
X124073809Y-133482380D01*
X124169047Y-133530000D01*
X124216666Y-133577619D01*
X124264285Y-133672857D01*
X124311904Y-133863333D01*
X124311904Y-134101428D01*
X124264285Y-134291904D01*
X124216666Y-134387142D01*
X124169047Y-134434761D01*
X124073809Y-134482380D01*
X123978571Y-134482380D01*
X123883333Y-134434761D01*
X123835714Y-134387142D01*
X123788095Y-134291904D01*
X123740476Y-134101428D01*
X123740476Y-133863333D01*
X123788095Y-133672857D01*
X123835714Y-133577619D01*
X123883333Y-133530000D01*
X123978571Y-133482380D01*
%TO.C,U6*%
X119582380Y-124101904D02*
X120391904Y-124101904D01*
X120487142Y-124054285D01*
X120534761Y-124006666D01*
X120582380Y-123911428D01*
X120582380Y-123720952D01*
X120534761Y-123625714D01*
X120487142Y-123578095D01*
X120391904Y-123530476D01*
X119582380Y-123530476D01*
X119582380Y-122625714D02*
X119582380Y-122816190D01*
X119630000Y-122911428D01*
X119677619Y-122959047D01*
X119820476Y-123054285D01*
X120010952Y-123101904D01*
X120391904Y-123101904D01*
X120487142Y-123054285D01*
X120534761Y-123006666D01*
X120582380Y-122911428D01*
X120582380Y-122720952D01*
X120534761Y-122625714D01*
X120487142Y-122578095D01*
X120391904Y-122530476D01*
X120153809Y-122530476D01*
X120058571Y-122578095D01*
X120010952Y-122625714D01*
X119963333Y-122720952D01*
X119963333Y-122911428D01*
X120010952Y-123006666D01*
X120058571Y-123054285D01*
X120153809Y-123101904D01*
%TO.C,Y1*%
X129326190Y-114816190D02*
X129802380Y-114816190D01*
X128802380Y-115149523D02*
X129326190Y-114816190D01*
X128802380Y-114482857D01*
X129802380Y-113625714D02*
X129802380Y-114197142D01*
X129802380Y-113911428D02*
X128802380Y-113911428D01*
X128945238Y-114006666D01*
X129040476Y-114101904D01*
X129088095Y-114197142D01*
%TO.C,D4*%
X128711904Y-137692380D02*
X128711904Y-136692380D01*
X128950000Y-136692380D01*
X129092857Y-136740000D01*
X129188095Y-136835238D01*
X129235714Y-136930476D01*
X129283333Y-137120952D01*
X129283333Y-137263809D01*
X129235714Y-137454285D01*
X129188095Y-137549523D01*
X129092857Y-137644761D01*
X128950000Y-137692380D01*
X128711904Y-137692380D01*
X130140476Y-137025714D02*
X130140476Y-137692380D01*
X129902380Y-136644761D02*
X129664285Y-137359047D01*
X130283333Y-137359047D01*
%TO.C,R34*%
X112817142Y-114912380D02*
X112483809Y-114436190D01*
X112245714Y-114912380D02*
X112245714Y-113912380D01*
X112626666Y-113912380D01*
X112721904Y-113960000D01*
X112769523Y-114007619D01*
X112817142Y-114102857D01*
X112817142Y-114245714D01*
X112769523Y-114340952D01*
X112721904Y-114388571D01*
X112626666Y-114436190D01*
X112245714Y-114436190D01*
X113150476Y-113912380D02*
X113769523Y-113912380D01*
X113436190Y-114293333D01*
X113579047Y-114293333D01*
X113674285Y-114340952D01*
X113721904Y-114388571D01*
X113769523Y-114483809D01*
X113769523Y-114721904D01*
X113721904Y-114817142D01*
X113674285Y-114864761D01*
X113579047Y-114912380D01*
X113293333Y-114912380D01*
X113198095Y-114864761D01*
X113150476Y-114817142D01*
X114626666Y-114245714D02*
X114626666Y-114912380D01*
X114388571Y-113864761D02*
X114150476Y-114579047D01*
X114769523Y-114579047D01*
%TO.C,U5*%
X134864095Y-149488380D02*
X134864095Y-150297904D01*
X134911714Y-150393142D01*
X134959333Y-150440761D01*
X135054571Y-150488380D01*
X135245047Y-150488380D01*
X135340285Y-150440761D01*
X135387904Y-150393142D01*
X135435523Y-150297904D01*
X135435523Y-149488380D01*
X136387904Y-149488380D02*
X135911714Y-149488380D01*
X135864095Y-149964571D01*
X135911714Y-149916952D01*
X136006952Y-149869333D01*
X136245047Y-149869333D01*
X136340285Y-149916952D01*
X136387904Y-149964571D01*
X136435523Y-150059809D01*
X136435523Y-150297904D01*
X136387904Y-150393142D01*
X136340285Y-150440761D01*
X136245047Y-150488380D01*
X136006952Y-150488380D01*
X135911714Y-150440761D01*
X135864095Y-150393142D01*
%TO.C,C50*%
X154817142Y-146172857D02*
X154864761Y-146220476D01*
X154912380Y-146363333D01*
X154912380Y-146458571D01*
X154864761Y-146601428D01*
X154769523Y-146696666D01*
X154674285Y-146744285D01*
X154483809Y-146791904D01*
X154340952Y-146791904D01*
X154150476Y-146744285D01*
X154055238Y-146696666D01*
X153960000Y-146601428D01*
X153912380Y-146458571D01*
X153912380Y-146363333D01*
X153960000Y-146220476D01*
X154007619Y-146172857D01*
X153912380Y-145268095D02*
X153912380Y-145744285D01*
X154388571Y-145791904D01*
X154340952Y-145744285D01*
X154293333Y-145649047D01*
X154293333Y-145410952D01*
X154340952Y-145315714D01*
X154388571Y-145268095D01*
X154483809Y-145220476D01*
X154721904Y-145220476D01*
X154817142Y-145268095D01*
X154864761Y-145315714D01*
X154912380Y-145410952D01*
X154912380Y-145649047D01*
X154864761Y-145744285D01*
X154817142Y-145791904D01*
X153912380Y-144601428D02*
X153912380Y-144506190D01*
X153960000Y-144410952D01*
X154007619Y-144363333D01*
X154102857Y-144315714D01*
X154293333Y-144268095D01*
X154531428Y-144268095D01*
X154721904Y-144315714D01*
X154817142Y-144363333D01*
X154864761Y-144410952D01*
X154912380Y-144506190D01*
X154912380Y-144601428D01*
X154864761Y-144696666D01*
X154817142Y-144744285D01*
X154721904Y-144791904D01*
X154531428Y-144839523D01*
X154293333Y-144839523D01*
X154102857Y-144791904D01*
X154007619Y-144744285D01*
X153960000Y-144696666D01*
X153912380Y-144601428D01*
%TO.C,FB1*%
X126886666Y-144538571D02*
X126553333Y-144538571D01*
X126553333Y-145062380D02*
X126553333Y-144062380D01*
X127029523Y-144062380D01*
X127743809Y-144538571D02*
X127886666Y-144586190D01*
X127934285Y-144633809D01*
X127981904Y-144729047D01*
X127981904Y-144871904D01*
X127934285Y-144967142D01*
X127886666Y-145014761D01*
X127791428Y-145062380D01*
X127410476Y-145062380D01*
X127410476Y-144062380D01*
X127743809Y-144062380D01*
X127839047Y-144110000D01*
X127886666Y-144157619D01*
X127934285Y-144252857D01*
X127934285Y-144348095D01*
X127886666Y-144443333D01*
X127839047Y-144490952D01*
X127743809Y-144538571D01*
X127410476Y-144538571D01*
X128934285Y-145062380D02*
X128362857Y-145062380D01*
X128648571Y-145062380D02*
X128648571Y-144062380D01*
X128553333Y-144205238D01*
X128458095Y-144300476D01*
X128362857Y-144348095D01*
D11*
%TO.C,C37*%
X133813428Y-126431428D02*
X133789238Y-126455619D01*
X133716666Y-126479809D01*
X133668285Y-126479809D01*
X133595714Y-126455619D01*
X133547333Y-126407238D01*
X133523142Y-126358857D01*
X133498952Y-126262095D01*
X133498952Y-126189523D01*
X133523142Y-126092761D01*
X133547333Y-126044380D01*
X133595714Y-125996000D01*
X133668285Y-125971809D01*
X133716666Y-125971809D01*
X133789238Y-125996000D01*
X133813428Y-126020190D01*
X133982761Y-125971809D02*
X134297238Y-125971809D01*
X134127904Y-126165333D01*
X134200476Y-126165333D01*
X134248857Y-126189523D01*
X134273047Y-126213714D01*
X134297238Y-126262095D01*
X134297238Y-126383047D01*
X134273047Y-126431428D01*
X134248857Y-126455619D01*
X134200476Y-126479809D01*
X134055333Y-126479809D01*
X134006952Y-126455619D01*
X133982761Y-126431428D01*
X134466571Y-125971809D02*
X134805238Y-125971809D01*
X134587523Y-126479809D01*
D10*
%TO.C,R32*%
X115357142Y-117232380D02*
X115023809Y-116756190D01*
X114785714Y-117232380D02*
X114785714Y-116232380D01*
X115166666Y-116232380D01*
X115261904Y-116280000D01*
X115309523Y-116327619D01*
X115357142Y-116422857D01*
X115357142Y-116565714D01*
X115309523Y-116660952D01*
X115261904Y-116708571D01*
X115166666Y-116756190D01*
X114785714Y-116756190D01*
X115690476Y-116232380D02*
X116309523Y-116232380D01*
X115976190Y-116613333D01*
X116119047Y-116613333D01*
X116214285Y-116660952D01*
X116261904Y-116708571D01*
X116309523Y-116803809D01*
X116309523Y-117041904D01*
X116261904Y-117137142D01*
X116214285Y-117184761D01*
X116119047Y-117232380D01*
X115833333Y-117232380D01*
X115738095Y-117184761D01*
X115690476Y-117137142D01*
X116690476Y-116327619D02*
X116738095Y-116280000D01*
X116833333Y-116232380D01*
X117071428Y-116232380D01*
X117166666Y-116280000D01*
X117214285Y-116327619D01*
X117261904Y-116422857D01*
X117261904Y-116518095D01*
X117214285Y-116660952D01*
X116642857Y-117232380D01*
X117261904Y-117232380D01*
%TO.C,C42*%
X111717142Y-129057142D02*
X111669523Y-129104761D01*
X111526666Y-129152380D01*
X111431428Y-129152380D01*
X111288571Y-129104761D01*
X111193333Y-129009523D01*
X111145714Y-128914285D01*
X111098095Y-128723809D01*
X111098095Y-128580952D01*
X111145714Y-128390476D01*
X111193333Y-128295238D01*
X111288571Y-128200000D01*
X111431428Y-128152380D01*
X111526666Y-128152380D01*
X111669523Y-128200000D01*
X111717142Y-128247619D01*
X112574285Y-128485714D02*
X112574285Y-129152380D01*
X112336190Y-128104761D02*
X112098095Y-128819047D01*
X112717142Y-128819047D01*
X113050476Y-128247619D02*
X113098095Y-128200000D01*
X113193333Y-128152380D01*
X113431428Y-128152380D01*
X113526666Y-128200000D01*
X113574285Y-128247619D01*
X113621904Y-128342857D01*
X113621904Y-128438095D01*
X113574285Y-128580952D01*
X113002857Y-129152380D01*
X113621904Y-129152380D01*
%TO.C,D2*%
X155489380Y-94127095D02*
X154489380Y-94127095D01*
X154489380Y-93889000D01*
X154537000Y-93746142D01*
X154632238Y-93650904D01*
X154727476Y-93603285D01*
X154917952Y-93555666D01*
X155060809Y-93555666D01*
X155251285Y-93603285D01*
X155346523Y-93650904D01*
X155441761Y-93746142D01*
X155489380Y-93889000D01*
X155489380Y-94127095D01*
X154584619Y-93174714D02*
X154537000Y-93127095D01*
X154489380Y-93031857D01*
X154489380Y-92793761D01*
X154537000Y-92698523D01*
X154584619Y-92650904D01*
X154679857Y-92603285D01*
X154775095Y-92603285D01*
X154917952Y-92650904D01*
X155489380Y-93222333D01*
X155489380Y-92603285D01*
%TO.C,R50*%
X116597142Y-134582380D02*
X116263809Y-134106190D01*
X116025714Y-134582380D02*
X116025714Y-133582380D01*
X116406666Y-133582380D01*
X116501904Y-133630000D01*
X116549523Y-133677619D01*
X116597142Y-133772857D01*
X116597142Y-133915714D01*
X116549523Y-134010952D01*
X116501904Y-134058571D01*
X116406666Y-134106190D01*
X116025714Y-134106190D01*
X117501904Y-133582380D02*
X117025714Y-133582380D01*
X116978095Y-134058571D01*
X117025714Y-134010952D01*
X117120952Y-133963333D01*
X117359047Y-133963333D01*
X117454285Y-134010952D01*
X117501904Y-134058571D01*
X117549523Y-134153809D01*
X117549523Y-134391904D01*
X117501904Y-134487142D01*
X117454285Y-134534761D01*
X117359047Y-134582380D01*
X117120952Y-134582380D01*
X117025714Y-134534761D01*
X116978095Y-134487142D01*
X118168571Y-133582380D02*
X118263809Y-133582380D01*
X118359047Y-133630000D01*
X118406666Y-133677619D01*
X118454285Y-133772857D01*
X118501904Y-133963333D01*
X118501904Y-134201428D01*
X118454285Y-134391904D01*
X118406666Y-134487142D01*
X118359047Y-134534761D01*
X118263809Y-134582380D01*
X118168571Y-134582380D01*
X118073333Y-134534761D01*
X118025714Y-134487142D01*
X117978095Y-134391904D01*
X117930476Y-134201428D01*
X117930476Y-133963333D01*
X117978095Y-133772857D01*
X118025714Y-133677619D01*
X118073333Y-133630000D01*
X118168571Y-133582380D01*
%TO.C,C28*%
X126577142Y-151017142D02*
X126529523Y-151064761D01*
X126386666Y-151112380D01*
X126291428Y-151112380D01*
X126148571Y-151064761D01*
X126053333Y-150969523D01*
X126005714Y-150874285D01*
X125958095Y-150683809D01*
X125958095Y-150540952D01*
X126005714Y-150350476D01*
X126053333Y-150255238D01*
X126148571Y-150160000D01*
X126291428Y-150112380D01*
X126386666Y-150112380D01*
X126529523Y-150160000D01*
X126577142Y-150207619D01*
X126958095Y-150207619D02*
X127005714Y-150160000D01*
X127100952Y-150112380D01*
X127339047Y-150112380D01*
X127434285Y-150160000D01*
X127481904Y-150207619D01*
X127529523Y-150302857D01*
X127529523Y-150398095D01*
X127481904Y-150540952D01*
X126910476Y-151112380D01*
X127529523Y-151112380D01*
X128100952Y-150540952D02*
X128005714Y-150493333D01*
X127958095Y-150445714D01*
X127910476Y-150350476D01*
X127910476Y-150302857D01*
X127958095Y-150207619D01*
X128005714Y-150160000D01*
X128100952Y-150112380D01*
X128291428Y-150112380D01*
X128386666Y-150160000D01*
X128434285Y-150207619D01*
X128481904Y-150302857D01*
X128481904Y-150350476D01*
X128434285Y-150445714D01*
X128386666Y-150493333D01*
X128291428Y-150540952D01*
X128100952Y-150540952D01*
X128005714Y-150588571D01*
X127958095Y-150636190D01*
X127910476Y-150731428D01*
X127910476Y-150921904D01*
X127958095Y-151017142D01*
X128005714Y-151064761D01*
X128100952Y-151112380D01*
X128291428Y-151112380D01*
X128386666Y-151064761D01*
X128434285Y-151017142D01*
X128481904Y-150921904D01*
X128481904Y-150731428D01*
X128434285Y-150636190D01*
X128386666Y-150588571D01*
X128291428Y-150540952D01*
%TO.C,C12*%
X147957142Y-112302857D02*
X148004761Y-112350476D01*
X148052380Y-112493333D01*
X148052380Y-112588571D01*
X148004761Y-112731428D01*
X147909523Y-112826666D01*
X147814285Y-112874285D01*
X147623809Y-112921904D01*
X147480952Y-112921904D01*
X147290476Y-112874285D01*
X147195238Y-112826666D01*
X147100000Y-112731428D01*
X147052380Y-112588571D01*
X147052380Y-112493333D01*
X147100000Y-112350476D01*
X147147619Y-112302857D01*
X148052380Y-111350476D02*
X148052380Y-111921904D01*
X148052380Y-111636190D02*
X147052380Y-111636190D01*
X147195238Y-111731428D01*
X147290476Y-111826666D01*
X147338095Y-111921904D01*
X147147619Y-110969523D02*
X147100000Y-110921904D01*
X147052380Y-110826666D01*
X147052380Y-110588571D01*
X147100000Y-110493333D01*
X147147619Y-110445714D01*
X147242857Y-110398095D01*
X147338095Y-110398095D01*
X147480952Y-110445714D01*
X148052380Y-111017142D01*
X148052380Y-110398095D01*
%TO.C,U3*%
X125095095Y-92412380D02*
X125095095Y-93221904D01*
X125142714Y-93317142D01*
X125190333Y-93364761D01*
X125285571Y-93412380D01*
X125476047Y-93412380D01*
X125571285Y-93364761D01*
X125618904Y-93317142D01*
X125666523Y-93221904D01*
X125666523Y-92412380D01*
X126047476Y-92412380D02*
X126666523Y-92412380D01*
X126333190Y-92793333D01*
X126476047Y-92793333D01*
X126571285Y-92840952D01*
X126618904Y-92888571D01*
X126666523Y-92983809D01*
X126666523Y-93221904D01*
X126618904Y-93317142D01*
X126571285Y-93364761D01*
X126476047Y-93412380D01*
X126190333Y-93412380D01*
X126095095Y-93364761D01*
X126047476Y-93317142D01*
%TO.C,R8*%
X157603333Y-140272380D02*
X157270000Y-139796190D01*
X157031904Y-140272380D02*
X157031904Y-139272380D01*
X157412857Y-139272380D01*
X157508095Y-139320000D01*
X157555714Y-139367619D01*
X157603333Y-139462857D01*
X157603333Y-139605714D01*
X157555714Y-139700952D01*
X157508095Y-139748571D01*
X157412857Y-139796190D01*
X157031904Y-139796190D01*
X158174761Y-139700952D02*
X158079523Y-139653333D01*
X158031904Y-139605714D01*
X157984285Y-139510476D01*
X157984285Y-139462857D01*
X158031904Y-139367619D01*
X158079523Y-139320000D01*
X158174761Y-139272380D01*
X158365238Y-139272380D01*
X158460476Y-139320000D01*
X158508095Y-139367619D01*
X158555714Y-139462857D01*
X158555714Y-139510476D01*
X158508095Y-139605714D01*
X158460476Y-139653333D01*
X158365238Y-139700952D01*
X158174761Y-139700952D01*
X158079523Y-139748571D01*
X158031904Y-139796190D01*
X157984285Y-139891428D01*
X157984285Y-140081904D01*
X158031904Y-140177142D01*
X158079523Y-140224761D01*
X158174761Y-140272380D01*
X158365238Y-140272380D01*
X158460476Y-140224761D01*
X158508095Y-140177142D01*
X158555714Y-140081904D01*
X158555714Y-139891428D01*
X158508095Y-139796190D01*
X158460476Y-139748571D01*
X158365238Y-139700952D01*
%TO.C,R15*%
X136077142Y-143542380D02*
X135743809Y-143066190D01*
X135505714Y-143542380D02*
X135505714Y-142542380D01*
X135886666Y-142542380D01*
X135981904Y-142590000D01*
X136029523Y-142637619D01*
X136077142Y-142732857D01*
X136077142Y-142875714D01*
X136029523Y-142970952D01*
X135981904Y-143018571D01*
X135886666Y-143066190D01*
X135505714Y-143066190D01*
X137029523Y-143542380D02*
X136458095Y-143542380D01*
X136743809Y-143542380D02*
X136743809Y-142542380D01*
X136648571Y-142685238D01*
X136553333Y-142780476D01*
X136458095Y-142828095D01*
X137934285Y-142542380D02*
X137458095Y-142542380D01*
X137410476Y-143018571D01*
X137458095Y-142970952D01*
X137553333Y-142923333D01*
X137791428Y-142923333D01*
X137886666Y-142970952D01*
X137934285Y-143018571D01*
X137981904Y-143113809D01*
X137981904Y-143351904D01*
X137934285Y-143447142D01*
X137886666Y-143494761D01*
X137791428Y-143542380D01*
X137553333Y-143542380D01*
X137458095Y-143494761D01*
X137410476Y-143447142D01*
%TO.C,R56*%
X112297142Y-131392380D02*
X111963809Y-130916190D01*
X111725714Y-131392380D02*
X111725714Y-130392380D01*
X112106666Y-130392380D01*
X112201904Y-130440000D01*
X112249523Y-130487619D01*
X112297142Y-130582857D01*
X112297142Y-130725714D01*
X112249523Y-130820952D01*
X112201904Y-130868571D01*
X112106666Y-130916190D01*
X111725714Y-130916190D01*
X113201904Y-130392380D02*
X112725714Y-130392380D01*
X112678095Y-130868571D01*
X112725714Y-130820952D01*
X112820952Y-130773333D01*
X113059047Y-130773333D01*
X113154285Y-130820952D01*
X113201904Y-130868571D01*
X113249523Y-130963809D01*
X113249523Y-131201904D01*
X113201904Y-131297142D01*
X113154285Y-131344761D01*
X113059047Y-131392380D01*
X112820952Y-131392380D01*
X112725714Y-131344761D01*
X112678095Y-131297142D01*
X114106666Y-130392380D02*
X113916190Y-130392380D01*
X113820952Y-130440000D01*
X113773333Y-130487619D01*
X113678095Y-130630476D01*
X113630476Y-130820952D01*
X113630476Y-131201904D01*
X113678095Y-131297142D01*
X113725714Y-131344761D01*
X113820952Y-131392380D01*
X114011428Y-131392380D01*
X114106666Y-131344761D01*
X114154285Y-131297142D01*
X114201904Y-131201904D01*
X114201904Y-130963809D01*
X114154285Y-130868571D01*
X114106666Y-130820952D01*
X114011428Y-130773333D01*
X113820952Y-130773333D01*
X113725714Y-130820952D01*
X113678095Y-130868571D01*
X113630476Y-130963809D01*
%TO.C,U7*%
X149078095Y-143662380D02*
X149078095Y-144471904D01*
X149125714Y-144567142D01*
X149173333Y-144614761D01*
X149268571Y-144662380D01*
X149459047Y-144662380D01*
X149554285Y-144614761D01*
X149601904Y-144567142D01*
X149649523Y-144471904D01*
X149649523Y-143662380D01*
X150030476Y-143662380D02*
X150697142Y-143662380D01*
X150268571Y-144662380D01*
%TO.C,R11*%
X137772380Y-132062857D02*
X137296190Y-132396190D01*
X137772380Y-132634285D02*
X136772380Y-132634285D01*
X136772380Y-132253333D01*
X136820000Y-132158095D01*
X136867619Y-132110476D01*
X136962857Y-132062857D01*
X137105714Y-132062857D01*
X137200952Y-132110476D01*
X137248571Y-132158095D01*
X137296190Y-132253333D01*
X137296190Y-132634285D01*
X137772380Y-131110476D02*
X137772380Y-131681904D01*
X137772380Y-131396190D02*
X136772380Y-131396190D01*
X136915238Y-131491428D01*
X137010476Y-131586666D01*
X137058095Y-131681904D01*
X137772380Y-130158095D02*
X137772380Y-130729523D01*
X137772380Y-130443809D02*
X136772380Y-130443809D01*
X136915238Y-130539047D01*
X137010476Y-130634285D01*
X137058095Y-130729523D01*
%TO.C,R9*%
X150152380Y-117536666D02*
X149676190Y-117870000D01*
X150152380Y-118108095D02*
X149152380Y-118108095D01*
X149152380Y-117727142D01*
X149200000Y-117631904D01*
X149247619Y-117584285D01*
X149342857Y-117536666D01*
X149485714Y-117536666D01*
X149580952Y-117584285D01*
X149628571Y-117631904D01*
X149676190Y-117727142D01*
X149676190Y-118108095D01*
X150152380Y-117060476D02*
X150152380Y-116870000D01*
X150104761Y-116774761D01*
X150057142Y-116727142D01*
X149914285Y-116631904D01*
X149723809Y-116584285D01*
X149342857Y-116584285D01*
X149247619Y-116631904D01*
X149200000Y-116679523D01*
X149152380Y-116774761D01*
X149152380Y-116965238D01*
X149200000Y-117060476D01*
X149247619Y-117108095D01*
X149342857Y-117155714D01*
X149580952Y-117155714D01*
X149676190Y-117108095D01*
X149723809Y-117060476D01*
X149771428Y-116965238D01*
X149771428Y-116774761D01*
X149723809Y-116679523D01*
X149676190Y-116631904D01*
X149580952Y-116584285D01*
%TO.C,C19*%
X151337142Y-117602857D02*
X151384761Y-117650476D01*
X151432380Y-117793333D01*
X151432380Y-117888571D01*
X151384761Y-118031428D01*
X151289523Y-118126666D01*
X151194285Y-118174285D01*
X151003809Y-118221904D01*
X150860952Y-118221904D01*
X150670476Y-118174285D01*
X150575238Y-118126666D01*
X150480000Y-118031428D01*
X150432380Y-117888571D01*
X150432380Y-117793333D01*
X150480000Y-117650476D01*
X150527619Y-117602857D01*
X151432380Y-116650476D02*
X151432380Y-117221904D01*
X151432380Y-116936190D02*
X150432380Y-116936190D01*
X150575238Y-117031428D01*
X150670476Y-117126666D01*
X150718095Y-117221904D01*
X151432380Y-116174285D02*
X151432380Y-115983809D01*
X151384761Y-115888571D01*
X151337142Y-115840952D01*
X151194285Y-115745714D01*
X151003809Y-115698095D01*
X150622857Y-115698095D01*
X150527619Y-115745714D01*
X150480000Y-115793333D01*
X150432380Y-115888571D01*
X150432380Y-116079047D01*
X150480000Y-116174285D01*
X150527619Y-116221904D01*
X150622857Y-116269523D01*
X150860952Y-116269523D01*
X150956190Y-116221904D01*
X151003809Y-116174285D01*
X151051428Y-116079047D01*
X151051428Y-115888571D01*
X151003809Y-115793333D01*
X150956190Y-115745714D01*
X150860952Y-115698095D01*
%TO.C,R46*%
X122898142Y-114852380D02*
X122564809Y-114376190D01*
X122326714Y-114852380D02*
X122326714Y-113852380D01*
X122707666Y-113852380D01*
X122802904Y-113900000D01*
X122850523Y-113947619D01*
X122898142Y-114042857D01*
X122898142Y-114185714D01*
X122850523Y-114280952D01*
X122802904Y-114328571D01*
X122707666Y-114376190D01*
X122326714Y-114376190D01*
X123755285Y-114185714D02*
X123755285Y-114852380D01*
X123517190Y-113804761D02*
X123279095Y-114519047D01*
X123898142Y-114519047D01*
X124707666Y-113852380D02*
X124517190Y-113852380D01*
X124421952Y-113900000D01*
X124374333Y-113947619D01*
X124279095Y-114090476D01*
X124231476Y-114280952D01*
X124231476Y-114661904D01*
X124279095Y-114757142D01*
X124326714Y-114804761D01*
X124421952Y-114852380D01*
X124612428Y-114852380D01*
X124707666Y-114804761D01*
X124755285Y-114757142D01*
X124802904Y-114661904D01*
X124802904Y-114423809D01*
X124755285Y-114328571D01*
X124707666Y-114280952D01*
X124612428Y-114233333D01*
X124421952Y-114233333D01*
X124326714Y-114280952D01*
X124279095Y-114328571D01*
X124231476Y-114423809D01*
%TO.C,C52*%
X151727142Y-149917142D02*
X151679523Y-149964761D01*
X151536666Y-150012380D01*
X151441428Y-150012380D01*
X151298571Y-149964761D01*
X151203333Y-149869523D01*
X151155714Y-149774285D01*
X151108095Y-149583809D01*
X151108095Y-149440952D01*
X151155714Y-149250476D01*
X151203333Y-149155238D01*
X151298571Y-149060000D01*
X151441428Y-149012380D01*
X151536666Y-149012380D01*
X151679523Y-149060000D01*
X151727142Y-149107619D01*
X152631904Y-149012380D02*
X152155714Y-149012380D01*
X152108095Y-149488571D01*
X152155714Y-149440952D01*
X152250952Y-149393333D01*
X152489047Y-149393333D01*
X152584285Y-149440952D01*
X152631904Y-149488571D01*
X152679523Y-149583809D01*
X152679523Y-149821904D01*
X152631904Y-149917142D01*
X152584285Y-149964761D01*
X152489047Y-150012380D01*
X152250952Y-150012380D01*
X152155714Y-149964761D01*
X152108095Y-149917142D01*
X153060476Y-149107619D02*
X153108095Y-149060000D01*
X153203333Y-149012380D01*
X153441428Y-149012380D01*
X153536666Y-149060000D01*
X153584285Y-149107619D01*
X153631904Y-149202857D01*
X153631904Y-149298095D01*
X153584285Y-149440952D01*
X153012857Y-150012380D01*
X153631904Y-150012380D01*
%TO.C,J1*%
X145136666Y-114047380D02*
X145136666Y-114761666D01*
X145089047Y-114904523D01*
X144993809Y-114999761D01*
X144850952Y-115047380D01*
X144755714Y-115047380D01*
X146136666Y-115047380D02*
X145565238Y-115047380D01*
X145850952Y-115047380D02*
X145850952Y-114047380D01*
X145755714Y-114190238D01*
X145660476Y-114285476D01*
X145565238Y-114333095D01*
%TO.C,R37*%
X135502380Y-121042857D02*
X135026190Y-121376190D01*
X135502380Y-121614285D02*
X134502380Y-121614285D01*
X134502380Y-121233333D01*
X134550000Y-121138095D01*
X134597619Y-121090476D01*
X134692857Y-121042857D01*
X134835714Y-121042857D01*
X134930952Y-121090476D01*
X134978571Y-121138095D01*
X135026190Y-121233333D01*
X135026190Y-121614285D01*
X134502380Y-120709523D02*
X134502380Y-120090476D01*
X134883333Y-120423809D01*
X134883333Y-120280952D01*
X134930952Y-120185714D01*
X134978571Y-120138095D01*
X135073809Y-120090476D01*
X135311904Y-120090476D01*
X135407142Y-120138095D01*
X135454761Y-120185714D01*
X135502380Y-120280952D01*
X135502380Y-120566666D01*
X135454761Y-120661904D01*
X135407142Y-120709523D01*
X134502380Y-119757142D02*
X134502380Y-119090476D01*
X135502380Y-119519047D01*
%TO.C,C4*%
X140957142Y-99466666D02*
X141004761Y-99514285D01*
X141052380Y-99657142D01*
X141052380Y-99752380D01*
X141004761Y-99895238D01*
X140909523Y-99990476D01*
X140814285Y-100038095D01*
X140623809Y-100085714D01*
X140480952Y-100085714D01*
X140290476Y-100038095D01*
X140195238Y-99990476D01*
X140100000Y-99895238D01*
X140052380Y-99752380D01*
X140052380Y-99657142D01*
X140100000Y-99514285D01*
X140147619Y-99466666D01*
X140385714Y-98609523D02*
X141052380Y-98609523D01*
X140004761Y-98847619D02*
X140719047Y-99085714D01*
X140719047Y-98466666D01*
D11*
%TO.C,R22*%
X150483428Y-124889809D02*
X150314095Y-124647904D01*
X150193142Y-124889809D02*
X150193142Y-124381809D01*
X150386666Y-124381809D01*
X150435047Y-124406000D01*
X150459238Y-124430190D01*
X150483428Y-124478571D01*
X150483428Y-124551142D01*
X150459238Y-124599523D01*
X150435047Y-124623714D01*
X150386666Y-124647904D01*
X150193142Y-124647904D01*
X150676952Y-124430190D02*
X150701142Y-124406000D01*
X150749523Y-124381809D01*
X150870476Y-124381809D01*
X150918857Y-124406000D01*
X150943047Y-124430190D01*
X150967238Y-124478571D01*
X150967238Y-124526952D01*
X150943047Y-124599523D01*
X150652761Y-124889809D01*
X150967238Y-124889809D01*
X151160761Y-124430190D02*
X151184952Y-124406000D01*
X151233333Y-124381809D01*
X151354285Y-124381809D01*
X151402666Y-124406000D01*
X151426857Y-124430190D01*
X151451047Y-124478571D01*
X151451047Y-124526952D01*
X151426857Y-124599523D01*
X151136571Y-124889809D01*
X151451047Y-124889809D01*
D10*
%TO.C,R55*%
X125860142Y-116049380D02*
X125526809Y-115573190D01*
X125288714Y-116049380D02*
X125288714Y-115049380D01*
X125669666Y-115049380D01*
X125764904Y-115097000D01*
X125812523Y-115144619D01*
X125860142Y-115239857D01*
X125860142Y-115382714D01*
X125812523Y-115477952D01*
X125764904Y-115525571D01*
X125669666Y-115573190D01*
X125288714Y-115573190D01*
X126764904Y-115049380D02*
X126288714Y-115049380D01*
X126241095Y-115525571D01*
X126288714Y-115477952D01*
X126383952Y-115430333D01*
X126622047Y-115430333D01*
X126717285Y-115477952D01*
X126764904Y-115525571D01*
X126812523Y-115620809D01*
X126812523Y-115858904D01*
X126764904Y-115954142D01*
X126717285Y-116001761D01*
X126622047Y-116049380D01*
X126383952Y-116049380D01*
X126288714Y-116001761D01*
X126241095Y-115954142D01*
X127717285Y-115049380D02*
X127241095Y-115049380D01*
X127193476Y-115525571D01*
X127241095Y-115477952D01*
X127336333Y-115430333D01*
X127574428Y-115430333D01*
X127669666Y-115477952D01*
X127717285Y-115525571D01*
X127764904Y-115620809D01*
X127764904Y-115858904D01*
X127717285Y-115954142D01*
X127669666Y-116001761D01*
X127574428Y-116049380D01*
X127336333Y-116049380D01*
X127241095Y-116001761D01*
X127193476Y-115954142D01*
%TO.C,C32*%
X115397142Y-111437142D02*
X115349523Y-111484761D01*
X115206666Y-111532380D01*
X115111428Y-111532380D01*
X114968571Y-111484761D01*
X114873333Y-111389523D01*
X114825714Y-111294285D01*
X114778095Y-111103809D01*
X114778095Y-110960952D01*
X114825714Y-110770476D01*
X114873333Y-110675238D01*
X114968571Y-110580000D01*
X115111428Y-110532380D01*
X115206666Y-110532380D01*
X115349523Y-110580000D01*
X115397142Y-110627619D01*
X115730476Y-110532380D02*
X116349523Y-110532380D01*
X116016190Y-110913333D01*
X116159047Y-110913333D01*
X116254285Y-110960952D01*
X116301904Y-111008571D01*
X116349523Y-111103809D01*
X116349523Y-111341904D01*
X116301904Y-111437142D01*
X116254285Y-111484761D01*
X116159047Y-111532380D01*
X115873333Y-111532380D01*
X115778095Y-111484761D01*
X115730476Y-111437142D01*
X116730476Y-110627619D02*
X116778095Y-110580000D01*
X116873333Y-110532380D01*
X117111428Y-110532380D01*
X117206666Y-110580000D01*
X117254285Y-110627619D01*
X117301904Y-110722857D01*
X117301904Y-110818095D01*
X117254285Y-110960952D01*
X116682857Y-111532380D01*
X117301904Y-111532380D01*
%TO.C,D1*%
X147551904Y-91772380D02*
X147551904Y-90772380D01*
X147790000Y-90772380D01*
X147932857Y-90820000D01*
X148028095Y-90915238D01*
X148075714Y-91010476D01*
X148123333Y-91200952D01*
X148123333Y-91343809D01*
X148075714Y-91534285D01*
X148028095Y-91629523D01*
X147932857Y-91724761D01*
X147790000Y-91772380D01*
X147551904Y-91772380D01*
X149075714Y-91772380D02*
X148504285Y-91772380D01*
X148790000Y-91772380D02*
X148790000Y-90772380D01*
X148694761Y-90915238D01*
X148599523Y-91010476D01*
X148504285Y-91058095D01*
%TO.C,R1*%
X133793333Y-95002380D02*
X133460000Y-94526190D01*
X133221904Y-95002380D02*
X133221904Y-94002380D01*
X133602857Y-94002380D01*
X133698095Y-94050000D01*
X133745714Y-94097619D01*
X133793333Y-94192857D01*
X133793333Y-94335714D01*
X133745714Y-94430952D01*
X133698095Y-94478571D01*
X133602857Y-94526190D01*
X133221904Y-94526190D01*
X134745714Y-95002380D02*
X134174285Y-95002380D01*
X134460000Y-95002380D02*
X134460000Y-94002380D01*
X134364761Y-94145238D01*
X134269523Y-94240476D01*
X134174285Y-94288095D01*
%TO.C,C21*%
X146976785Y-123208214D02*
X147007023Y-123238452D01*
X147037261Y-123329166D01*
X147037261Y-123389642D01*
X147007023Y-123480357D01*
X146946547Y-123540833D01*
X146886071Y-123571071D01*
X146765119Y-123601309D01*
X146674404Y-123601309D01*
X146553452Y-123571071D01*
X146492976Y-123540833D01*
X146432500Y-123480357D01*
X146402261Y-123389642D01*
X146402261Y-123329166D01*
X146432500Y-123238452D01*
X146462738Y-123208214D01*
X146462738Y-122966309D02*
X146432500Y-122936071D01*
X146402261Y-122875595D01*
X146402261Y-122724404D01*
X146432500Y-122663928D01*
X146462738Y-122633690D01*
X146523214Y-122603452D01*
X146583690Y-122603452D01*
X146674404Y-122633690D01*
X147037261Y-122996547D01*
X147037261Y-122603452D01*
X147037261Y-121998690D02*
X147037261Y-122361547D01*
X147037261Y-122180119D02*
X146402261Y-122180119D01*
X146492976Y-122240595D01*
X146553452Y-122301071D01*
X146583690Y-122361547D01*
%TO.C,R23*%
X125983142Y-128682380D02*
X125649809Y-128206190D01*
X125411714Y-128682380D02*
X125411714Y-127682380D01*
X125792666Y-127682380D01*
X125887904Y-127730000D01*
X125935523Y-127777619D01*
X125983142Y-127872857D01*
X125983142Y-128015714D01*
X125935523Y-128110952D01*
X125887904Y-128158571D01*
X125792666Y-128206190D01*
X125411714Y-128206190D01*
X126364095Y-127777619D02*
X126411714Y-127730000D01*
X126506952Y-127682380D01*
X126745047Y-127682380D01*
X126840285Y-127730000D01*
X126887904Y-127777619D01*
X126935523Y-127872857D01*
X126935523Y-127968095D01*
X126887904Y-128110952D01*
X126316476Y-128682380D01*
X126935523Y-128682380D01*
X127268857Y-127682380D02*
X127887904Y-127682380D01*
X127554571Y-128063333D01*
X127697428Y-128063333D01*
X127792666Y-128110952D01*
X127840285Y-128158571D01*
X127887904Y-128253809D01*
X127887904Y-128491904D01*
X127840285Y-128587142D01*
X127792666Y-128634761D01*
X127697428Y-128682380D01*
X127411714Y-128682380D01*
X127316476Y-128634761D01*
X127268857Y-128587142D01*
%TO.C,J3*%
X157666666Y-146627380D02*
X157666666Y-147341666D01*
X157619047Y-147484523D01*
X157523809Y-147579761D01*
X157380952Y-147627380D01*
X157285714Y-147627380D01*
X158047619Y-146627380D02*
X158666666Y-146627380D01*
X158333333Y-147008333D01*
X158476190Y-147008333D01*
X158571428Y-147055952D01*
X158619047Y-147103571D01*
X158666666Y-147198809D01*
X158666666Y-147436904D01*
X158619047Y-147532142D01*
X158571428Y-147579761D01*
X158476190Y-147627380D01*
X158190476Y-147627380D01*
X158095238Y-147579761D01*
X158047619Y-147532142D01*
%TO.C,C10*%
X127726142Y-103498142D02*
X127678523Y-103545761D01*
X127535666Y-103593380D01*
X127440428Y-103593380D01*
X127297571Y-103545761D01*
X127202333Y-103450523D01*
X127154714Y-103355285D01*
X127107095Y-103164809D01*
X127107095Y-103021952D01*
X127154714Y-102831476D01*
X127202333Y-102736238D01*
X127297571Y-102641000D01*
X127440428Y-102593380D01*
X127535666Y-102593380D01*
X127678523Y-102641000D01*
X127726142Y-102688619D01*
X128678523Y-103593380D02*
X128107095Y-103593380D01*
X128392809Y-103593380D02*
X128392809Y-102593380D01*
X128297571Y-102736238D01*
X128202333Y-102831476D01*
X128107095Y-102879095D01*
X129297571Y-102593380D02*
X129392809Y-102593380D01*
X129488047Y-102641000D01*
X129535666Y-102688619D01*
X129583285Y-102783857D01*
X129630904Y-102974333D01*
X129630904Y-103212428D01*
X129583285Y-103402904D01*
X129535666Y-103498142D01*
X129488047Y-103545761D01*
X129392809Y-103593380D01*
X129297571Y-103593380D01*
X129202333Y-103545761D01*
X129154714Y-103498142D01*
X129107095Y-103402904D01*
X129059476Y-103212428D01*
X129059476Y-102974333D01*
X129107095Y-102783857D01*
X129154714Y-102688619D01*
X129202333Y-102641000D01*
X129297571Y-102593380D01*
D11*
%TO.C,R12*%
X152439809Y-121946571D02*
X152197904Y-122115904D01*
X152439809Y-122236857D02*
X151931809Y-122236857D01*
X151931809Y-122043333D01*
X151956000Y-121994952D01*
X151980190Y-121970761D01*
X152028571Y-121946571D01*
X152101142Y-121946571D01*
X152149523Y-121970761D01*
X152173714Y-121994952D01*
X152197904Y-122043333D01*
X152197904Y-122236857D01*
X152439809Y-121462761D02*
X152439809Y-121753047D01*
X152439809Y-121607904D02*
X151931809Y-121607904D01*
X152004380Y-121656285D01*
X152052761Y-121704666D01*
X152076952Y-121753047D01*
X151980190Y-121269238D02*
X151956000Y-121245047D01*
X151931809Y-121196666D01*
X151931809Y-121075714D01*
X151956000Y-121027333D01*
X151980190Y-121003142D01*
X152028571Y-120978952D01*
X152076952Y-120978952D01*
X152149523Y-121003142D01*
X152439809Y-121293428D01*
X152439809Y-120978952D01*
D10*
%TO.C,R48*%
X124067154Y-119222374D02*
X123733821Y-118746184D01*
X123495726Y-119222374D02*
X123495726Y-118222374D01*
X123876678Y-118222374D01*
X123971916Y-118269994D01*
X124019535Y-118317613D01*
X124067154Y-118412851D01*
X124067154Y-118555708D01*
X124019535Y-118650946D01*
X123971916Y-118698565D01*
X123876678Y-118746184D01*
X123495726Y-118746184D01*
X124924297Y-118555708D02*
X124924297Y-119222374D01*
X124686202Y-118174755D02*
X124448107Y-118889041D01*
X125067154Y-118889041D01*
X125590964Y-118650946D02*
X125495726Y-118603327D01*
X125448107Y-118555708D01*
X125400488Y-118460470D01*
X125400488Y-118412851D01*
X125448107Y-118317613D01*
X125495726Y-118269994D01*
X125590964Y-118222374D01*
X125781440Y-118222374D01*
X125876678Y-118269994D01*
X125924297Y-118317613D01*
X125971916Y-118412851D01*
X125971916Y-118460470D01*
X125924297Y-118555708D01*
X125876678Y-118603327D01*
X125781440Y-118650946D01*
X125590964Y-118650946D01*
X125495726Y-118698565D01*
X125448107Y-118746184D01*
X125400488Y-118841422D01*
X125400488Y-119031898D01*
X125448107Y-119127136D01*
X125495726Y-119174755D01*
X125590964Y-119222374D01*
X125781440Y-119222374D01*
X125876678Y-119174755D01*
X125924297Y-119127136D01*
X125971916Y-119031898D01*
X125971916Y-118841422D01*
X125924297Y-118746184D01*
X125876678Y-118698565D01*
X125781440Y-118650946D01*
%TO.C,C29*%
X129957142Y-151067142D02*
X129909523Y-151114761D01*
X129766666Y-151162380D01*
X129671428Y-151162380D01*
X129528571Y-151114761D01*
X129433333Y-151019523D01*
X129385714Y-150924285D01*
X129338095Y-150733809D01*
X129338095Y-150590952D01*
X129385714Y-150400476D01*
X129433333Y-150305238D01*
X129528571Y-150210000D01*
X129671428Y-150162380D01*
X129766666Y-150162380D01*
X129909523Y-150210000D01*
X129957142Y-150257619D01*
X130338095Y-150257619D02*
X130385714Y-150210000D01*
X130480952Y-150162380D01*
X130719047Y-150162380D01*
X130814285Y-150210000D01*
X130861904Y-150257619D01*
X130909523Y-150352857D01*
X130909523Y-150448095D01*
X130861904Y-150590952D01*
X130290476Y-151162380D01*
X130909523Y-151162380D01*
X131385714Y-151162380D02*
X131576190Y-151162380D01*
X131671428Y-151114761D01*
X131719047Y-151067142D01*
X131814285Y-150924285D01*
X131861904Y-150733809D01*
X131861904Y-150352857D01*
X131814285Y-150257619D01*
X131766666Y-150210000D01*
X131671428Y-150162380D01*
X131480952Y-150162380D01*
X131385714Y-150210000D01*
X131338095Y-150257619D01*
X131290476Y-150352857D01*
X131290476Y-150590952D01*
X131338095Y-150686190D01*
X131385714Y-150733809D01*
X131480952Y-150781428D01*
X131671428Y-150781428D01*
X131766666Y-150733809D01*
X131814285Y-150686190D01*
X131861904Y-150590952D01*
%TO.C,C34*%
X119372142Y-149226142D02*
X119324523Y-149273761D01*
X119181666Y-149321380D01*
X119086428Y-149321380D01*
X118943571Y-149273761D01*
X118848333Y-149178523D01*
X118800714Y-149083285D01*
X118753095Y-148892809D01*
X118753095Y-148749952D01*
X118800714Y-148559476D01*
X118848333Y-148464238D01*
X118943571Y-148369000D01*
X119086428Y-148321380D01*
X119181666Y-148321380D01*
X119324523Y-148369000D01*
X119372142Y-148416619D01*
X119705476Y-148321380D02*
X120324523Y-148321380D01*
X119991190Y-148702333D01*
X120134047Y-148702333D01*
X120229285Y-148749952D01*
X120276904Y-148797571D01*
X120324523Y-148892809D01*
X120324523Y-149130904D01*
X120276904Y-149226142D01*
X120229285Y-149273761D01*
X120134047Y-149321380D01*
X119848333Y-149321380D01*
X119753095Y-149273761D01*
X119705476Y-149226142D01*
X121181666Y-148654714D02*
X121181666Y-149321380D01*
X120943571Y-148273761D02*
X120705476Y-148988047D01*
X121324523Y-148988047D01*
%TO.C,R49*%
X112287142Y-132932380D02*
X111953809Y-132456190D01*
X111715714Y-132932380D02*
X111715714Y-131932380D01*
X112096666Y-131932380D01*
X112191904Y-131980000D01*
X112239523Y-132027619D01*
X112287142Y-132122857D01*
X112287142Y-132265714D01*
X112239523Y-132360952D01*
X112191904Y-132408571D01*
X112096666Y-132456190D01*
X111715714Y-132456190D01*
X113144285Y-132265714D02*
X113144285Y-132932380D01*
X112906190Y-131884761D02*
X112668095Y-132599047D01*
X113287142Y-132599047D01*
X113715714Y-132932380D02*
X113906190Y-132932380D01*
X114001428Y-132884761D01*
X114049047Y-132837142D01*
X114144285Y-132694285D01*
X114191904Y-132503809D01*
X114191904Y-132122857D01*
X114144285Y-132027619D01*
X114096666Y-131980000D01*
X114001428Y-131932380D01*
X113810952Y-131932380D01*
X113715714Y-131980000D01*
X113668095Y-132027619D01*
X113620476Y-132122857D01*
X113620476Y-132360952D01*
X113668095Y-132456190D01*
X113715714Y-132503809D01*
X113810952Y-132551428D01*
X114001428Y-132551428D01*
X114096666Y-132503809D01*
X114144285Y-132456190D01*
X114191904Y-132360952D01*
%TO.C,C46*%
X123797142Y-111787142D02*
X123749523Y-111834761D01*
X123606666Y-111882380D01*
X123511428Y-111882380D01*
X123368571Y-111834761D01*
X123273333Y-111739523D01*
X123225714Y-111644285D01*
X123178095Y-111453809D01*
X123178095Y-111310952D01*
X123225714Y-111120476D01*
X123273333Y-111025238D01*
X123368571Y-110930000D01*
X123511428Y-110882380D01*
X123606666Y-110882380D01*
X123749523Y-110930000D01*
X123797142Y-110977619D01*
X124654285Y-111215714D02*
X124654285Y-111882380D01*
X124416190Y-110834761D02*
X124178095Y-111549047D01*
X124797142Y-111549047D01*
X125606666Y-110882380D02*
X125416190Y-110882380D01*
X125320952Y-110930000D01*
X125273333Y-110977619D01*
X125178095Y-111120476D01*
X125130476Y-111310952D01*
X125130476Y-111691904D01*
X125178095Y-111787142D01*
X125225714Y-111834761D01*
X125320952Y-111882380D01*
X125511428Y-111882380D01*
X125606666Y-111834761D01*
X125654285Y-111787142D01*
X125701904Y-111691904D01*
X125701904Y-111453809D01*
X125654285Y-111358571D01*
X125606666Y-111310952D01*
X125511428Y-111263333D01*
X125320952Y-111263333D01*
X125225714Y-111310952D01*
X125178095Y-111358571D01*
X125130476Y-111453809D01*
%TO.C,R19*%
X154057261Y-136888214D02*
X153754880Y-137099880D01*
X154057261Y-137251071D02*
X153422261Y-137251071D01*
X153422261Y-137009166D01*
X153452500Y-136948690D01*
X153482738Y-136918452D01*
X153543214Y-136888214D01*
X153633928Y-136888214D01*
X153694404Y-136918452D01*
X153724642Y-136948690D01*
X153754880Y-137009166D01*
X153754880Y-137251071D01*
X154057261Y-136283452D02*
X154057261Y-136646309D01*
X154057261Y-136464880D02*
X153422261Y-136464880D01*
X153512976Y-136525357D01*
X153573452Y-136585833D01*
X153603690Y-136646309D01*
X154057261Y-135981071D02*
X154057261Y-135860119D01*
X154027023Y-135799642D01*
X153996785Y-135769404D01*
X153906071Y-135708928D01*
X153785119Y-135678690D01*
X153543214Y-135678690D01*
X153482738Y-135708928D01*
X153452500Y-135739166D01*
X153422261Y-135799642D01*
X153422261Y-135920595D01*
X153452500Y-135981071D01*
X153482738Y-136011309D01*
X153543214Y-136041547D01*
X153694404Y-136041547D01*
X153754880Y-136011309D01*
X153785119Y-135981071D01*
X153815357Y-135920595D01*
X153815357Y-135799642D01*
X153785119Y-135739166D01*
X153754880Y-135708928D01*
X153694404Y-135678690D01*
%TO.C,R39*%
X154244142Y-118469380D02*
X153910809Y-117993190D01*
X153672714Y-118469380D02*
X153672714Y-117469380D01*
X154053666Y-117469380D01*
X154148904Y-117517000D01*
X154196523Y-117564619D01*
X154244142Y-117659857D01*
X154244142Y-117802714D01*
X154196523Y-117897952D01*
X154148904Y-117945571D01*
X154053666Y-117993190D01*
X153672714Y-117993190D01*
X154577476Y-117469380D02*
X155196523Y-117469380D01*
X154863190Y-117850333D01*
X155006047Y-117850333D01*
X155101285Y-117897952D01*
X155148904Y-117945571D01*
X155196523Y-118040809D01*
X155196523Y-118278904D01*
X155148904Y-118374142D01*
X155101285Y-118421761D01*
X155006047Y-118469380D01*
X154720333Y-118469380D01*
X154625095Y-118421761D01*
X154577476Y-118374142D01*
X155672714Y-118469380D02*
X155863190Y-118469380D01*
X155958428Y-118421761D01*
X156006047Y-118374142D01*
X156101285Y-118231285D01*
X156148904Y-118040809D01*
X156148904Y-117659857D01*
X156101285Y-117564619D01*
X156053666Y-117517000D01*
X155958428Y-117469380D01*
X155767952Y-117469380D01*
X155672714Y-117517000D01*
X155625095Y-117564619D01*
X155577476Y-117659857D01*
X155577476Y-117897952D01*
X155625095Y-117993190D01*
X155672714Y-118040809D01*
X155767952Y-118088428D01*
X155958428Y-118088428D01*
X156053666Y-118040809D01*
X156101285Y-117993190D01*
X156148904Y-117897952D01*
%TO.C,C41*%
X128947142Y-121282857D02*
X128994761Y-121330476D01*
X129042380Y-121473333D01*
X129042380Y-121568571D01*
X128994761Y-121711428D01*
X128899523Y-121806666D01*
X128804285Y-121854285D01*
X128613809Y-121901904D01*
X128470952Y-121901904D01*
X128280476Y-121854285D01*
X128185238Y-121806666D01*
X128090000Y-121711428D01*
X128042380Y-121568571D01*
X128042380Y-121473333D01*
X128090000Y-121330476D01*
X128137619Y-121282857D01*
X128375714Y-120425714D02*
X129042380Y-120425714D01*
X127994761Y-120663809D02*
X128709047Y-120901904D01*
X128709047Y-120282857D01*
X129042380Y-119378095D02*
X129042380Y-119949523D01*
X129042380Y-119663809D02*
X128042380Y-119663809D01*
X128185238Y-119759047D01*
X128280476Y-119854285D01*
X128328095Y-119949523D01*
%TO.C,C1*%
X138423142Y-111926666D02*
X138470761Y-111974285D01*
X138518380Y-112117142D01*
X138518380Y-112212380D01*
X138470761Y-112355238D01*
X138375523Y-112450476D01*
X138280285Y-112498095D01*
X138089809Y-112545714D01*
X137946952Y-112545714D01*
X137756476Y-112498095D01*
X137661238Y-112450476D01*
X137566000Y-112355238D01*
X137518380Y-112212380D01*
X137518380Y-112117142D01*
X137566000Y-111974285D01*
X137613619Y-111926666D01*
X138518380Y-110974285D02*
X138518380Y-111545714D01*
X138518380Y-111260000D02*
X137518380Y-111260000D01*
X137661238Y-111355238D01*
X137756476Y-111450476D01*
X137804095Y-111545714D01*
%TO.C,C26*%
X145487142Y-140037142D02*
X145439523Y-140084761D01*
X145296666Y-140132380D01*
X145201428Y-140132380D01*
X145058571Y-140084761D01*
X144963333Y-139989523D01*
X144915714Y-139894285D01*
X144868095Y-139703809D01*
X144868095Y-139560952D01*
X144915714Y-139370476D01*
X144963333Y-139275238D01*
X145058571Y-139180000D01*
X145201428Y-139132380D01*
X145296666Y-139132380D01*
X145439523Y-139180000D01*
X145487142Y-139227619D01*
X145868095Y-139227619D02*
X145915714Y-139180000D01*
X146010952Y-139132380D01*
X146249047Y-139132380D01*
X146344285Y-139180000D01*
X146391904Y-139227619D01*
X146439523Y-139322857D01*
X146439523Y-139418095D01*
X146391904Y-139560952D01*
X145820476Y-140132380D01*
X146439523Y-140132380D01*
X147296666Y-139132380D02*
X147106190Y-139132380D01*
X147010952Y-139180000D01*
X146963333Y-139227619D01*
X146868095Y-139370476D01*
X146820476Y-139560952D01*
X146820476Y-139941904D01*
X146868095Y-140037142D01*
X146915714Y-140084761D01*
X147010952Y-140132380D01*
X147201428Y-140132380D01*
X147296666Y-140084761D01*
X147344285Y-140037142D01*
X147391904Y-139941904D01*
X147391904Y-139703809D01*
X147344285Y-139608571D01*
X147296666Y-139560952D01*
X147201428Y-139513333D01*
X147010952Y-139513333D01*
X146915714Y-139560952D01*
X146868095Y-139608571D01*
X146820476Y-139703809D01*
%TO.C,C39*%
X120897142Y-112407142D02*
X120849523Y-112454761D01*
X120706666Y-112502380D01*
X120611428Y-112502380D01*
X120468571Y-112454761D01*
X120373333Y-112359523D01*
X120325714Y-112264285D01*
X120278095Y-112073809D01*
X120278095Y-111930952D01*
X120325714Y-111740476D01*
X120373333Y-111645238D01*
X120468571Y-111550000D01*
X120611428Y-111502380D01*
X120706666Y-111502380D01*
X120849523Y-111550000D01*
X120897142Y-111597619D01*
X121230476Y-111502380D02*
X121849523Y-111502380D01*
X121516190Y-111883333D01*
X121659047Y-111883333D01*
X121754285Y-111930952D01*
X121801904Y-111978571D01*
X121849523Y-112073809D01*
X121849523Y-112311904D01*
X121801904Y-112407142D01*
X121754285Y-112454761D01*
X121659047Y-112502380D01*
X121373333Y-112502380D01*
X121278095Y-112454761D01*
X121230476Y-112407142D01*
X122325714Y-112502380D02*
X122516190Y-112502380D01*
X122611428Y-112454761D01*
X122659047Y-112407142D01*
X122754285Y-112264285D01*
X122801904Y-112073809D01*
X122801904Y-111692857D01*
X122754285Y-111597619D01*
X122706666Y-111550000D01*
X122611428Y-111502380D01*
X122420952Y-111502380D01*
X122325714Y-111550000D01*
X122278095Y-111597619D01*
X122230476Y-111692857D01*
X122230476Y-111930952D01*
X122278095Y-112026190D01*
X122325714Y-112073809D01*
X122420952Y-112121428D01*
X122611428Y-112121428D01*
X122706666Y-112073809D01*
X122754285Y-112026190D01*
X122801904Y-111930952D01*
%TO.C,C17*%
X136009142Y-139008142D02*
X135961523Y-139055761D01*
X135818666Y-139103380D01*
X135723428Y-139103380D01*
X135580571Y-139055761D01*
X135485333Y-138960523D01*
X135437714Y-138865285D01*
X135390095Y-138674809D01*
X135390095Y-138531952D01*
X135437714Y-138341476D01*
X135485333Y-138246238D01*
X135580571Y-138151000D01*
X135723428Y-138103380D01*
X135818666Y-138103380D01*
X135961523Y-138151000D01*
X136009142Y-138198619D01*
X136961523Y-139103380D02*
X136390095Y-139103380D01*
X136675809Y-139103380D02*
X136675809Y-138103380D01*
X136580571Y-138246238D01*
X136485333Y-138341476D01*
X136390095Y-138389095D01*
X137294857Y-138103380D02*
X137961523Y-138103380D01*
X137532952Y-139103380D01*
%TO.C,R29*%
X147438380Y-137609857D02*
X146962190Y-137943190D01*
X147438380Y-138181285D02*
X146438380Y-138181285D01*
X146438380Y-137800333D01*
X146486000Y-137705095D01*
X146533619Y-137657476D01*
X146628857Y-137609857D01*
X146771714Y-137609857D01*
X146866952Y-137657476D01*
X146914571Y-137705095D01*
X146962190Y-137800333D01*
X146962190Y-138181285D01*
X146533619Y-137228904D02*
X146486000Y-137181285D01*
X146438380Y-137086047D01*
X146438380Y-136847952D01*
X146486000Y-136752714D01*
X146533619Y-136705095D01*
X146628857Y-136657476D01*
X146724095Y-136657476D01*
X146866952Y-136705095D01*
X147438380Y-137276523D01*
X147438380Y-136657476D01*
X147438380Y-136181285D02*
X147438380Y-135990809D01*
X147390761Y-135895571D01*
X147343142Y-135847952D01*
X147200285Y-135752714D01*
X147009809Y-135705095D01*
X146628857Y-135705095D01*
X146533619Y-135752714D01*
X146486000Y-135800333D01*
X146438380Y-135895571D01*
X146438380Y-136086047D01*
X146486000Y-136181285D01*
X146533619Y-136228904D01*
X146628857Y-136276523D01*
X146866952Y-136276523D01*
X146962190Y-136228904D01*
X147009809Y-136181285D01*
X147057428Y-136086047D01*
X147057428Y-135895571D01*
X147009809Y-135800333D01*
X146962190Y-135752714D01*
X146866952Y-135705095D01*
D11*
%TO.C,C43*%
X154401428Y-124816571D02*
X154425619Y-124840761D01*
X154449809Y-124913333D01*
X154449809Y-124961714D01*
X154425619Y-125034285D01*
X154377238Y-125082666D01*
X154328857Y-125106857D01*
X154232095Y-125131047D01*
X154159523Y-125131047D01*
X154062761Y-125106857D01*
X154014380Y-125082666D01*
X153966000Y-125034285D01*
X153941809Y-124961714D01*
X153941809Y-124913333D01*
X153966000Y-124840761D01*
X153990190Y-124816571D01*
X154111142Y-124381142D02*
X154449809Y-124381142D01*
X153917619Y-124502095D02*
X154280476Y-124623047D01*
X154280476Y-124308571D01*
X153941809Y-124163428D02*
X153941809Y-123848952D01*
X154135333Y-124018285D01*
X154135333Y-123945714D01*
X154159523Y-123897333D01*
X154183714Y-123873142D01*
X154232095Y-123848952D01*
X154353047Y-123848952D01*
X154401428Y-123873142D01*
X154425619Y-123897333D01*
X154449809Y-123945714D01*
X154449809Y-124090857D01*
X154425619Y-124139238D01*
X154401428Y-124163428D01*
D10*
%TO.C,R27*%
X152711785Y-138787261D02*
X152500119Y-138484880D01*
X152348928Y-138787261D02*
X152348928Y-138152261D01*
X152590833Y-138152261D01*
X152651309Y-138182500D01*
X152681547Y-138212738D01*
X152711785Y-138273214D01*
X152711785Y-138363928D01*
X152681547Y-138424404D01*
X152651309Y-138454642D01*
X152590833Y-138484880D01*
X152348928Y-138484880D01*
X152953690Y-138212738D02*
X152983928Y-138182500D01*
X153044404Y-138152261D01*
X153195595Y-138152261D01*
X153256071Y-138182500D01*
X153286309Y-138212738D01*
X153316547Y-138273214D01*
X153316547Y-138333690D01*
X153286309Y-138424404D01*
X152923452Y-138787261D01*
X153316547Y-138787261D01*
X153528214Y-138152261D02*
X153951547Y-138152261D01*
X153679404Y-138787261D01*
%TO.C,R26*%
X125747142Y-127332380D02*
X125413809Y-126856190D01*
X125175714Y-127332380D02*
X125175714Y-126332380D01*
X125556666Y-126332380D01*
X125651904Y-126380000D01*
X125699523Y-126427619D01*
X125747142Y-126522857D01*
X125747142Y-126665714D01*
X125699523Y-126760952D01*
X125651904Y-126808571D01*
X125556666Y-126856190D01*
X125175714Y-126856190D01*
X126128095Y-126427619D02*
X126175714Y-126380000D01*
X126270952Y-126332380D01*
X126509047Y-126332380D01*
X126604285Y-126380000D01*
X126651904Y-126427619D01*
X126699523Y-126522857D01*
X126699523Y-126618095D01*
X126651904Y-126760952D01*
X126080476Y-127332380D01*
X126699523Y-127332380D01*
X127556666Y-126332380D02*
X127366190Y-126332380D01*
X127270952Y-126380000D01*
X127223333Y-126427619D01*
X127128095Y-126570476D01*
X127080476Y-126760952D01*
X127080476Y-127141904D01*
X127128095Y-127237142D01*
X127175714Y-127284761D01*
X127270952Y-127332380D01*
X127461428Y-127332380D01*
X127556666Y-127284761D01*
X127604285Y-127237142D01*
X127651904Y-127141904D01*
X127651904Y-126903809D01*
X127604285Y-126808571D01*
X127556666Y-126760952D01*
X127461428Y-126713333D01*
X127270952Y-126713333D01*
X127175714Y-126760952D01*
X127128095Y-126808571D01*
X127080476Y-126903809D01*
%TO.C,R33*%
X112134380Y-122459850D02*
X111658190Y-122793183D01*
X112134380Y-123031278D02*
X111134380Y-123031278D01*
X111134380Y-122650326D01*
X111182000Y-122555088D01*
X111229619Y-122507469D01*
X111324857Y-122459850D01*
X111467714Y-122459850D01*
X111562952Y-122507469D01*
X111610571Y-122555088D01*
X111658190Y-122650326D01*
X111658190Y-123031278D01*
X111134380Y-122126516D02*
X111134380Y-121507469D01*
X111515333Y-121840802D01*
X111515333Y-121697945D01*
X111562952Y-121602707D01*
X111610571Y-121555088D01*
X111705809Y-121507469D01*
X111943904Y-121507469D01*
X112039142Y-121555088D01*
X112086761Y-121602707D01*
X112134380Y-121697945D01*
X112134380Y-121983659D01*
X112086761Y-122078897D01*
X112039142Y-122126516D01*
X111134380Y-121174135D02*
X111134380Y-120555088D01*
X111515333Y-120888421D01*
X111515333Y-120745564D01*
X111562952Y-120650326D01*
X111610571Y-120602707D01*
X111705809Y-120555088D01*
X111943904Y-120555088D01*
X112039142Y-120602707D01*
X112086761Y-120650326D01*
X112134380Y-120745564D01*
X112134380Y-121031278D01*
X112086761Y-121126516D01*
X112039142Y-121174135D01*
%TO.C,C16*%
X127987142Y-90207142D02*
X127939523Y-90254761D01*
X127796666Y-90302380D01*
X127701428Y-90302380D01*
X127558571Y-90254761D01*
X127463333Y-90159523D01*
X127415714Y-90064285D01*
X127368095Y-89873809D01*
X127368095Y-89730952D01*
X127415714Y-89540476D01*
X127463333Y-89445238D01*
X127558571Y-89350000D01*
X127701428Y-89302380D01*
X127796666Y-89302380D01*
X127939523Y-89350000D01*
X127987142Y-89397619D01*
X128939523Y-90302380D02*
X128368095Y-90302380D01*
X128653809Y-90302380D02*
X128653809Y-89302380D01*
X128558571Y-89445238D01*
X128463333Y-89540476D01*
X128368095Y-89588095D01*
X129796666Y-89302380D02*
X129606190Y-89302380D01*
X129510952Y-89350000D01*
X129463333Y-89397619D01*
X129368095Y-89540476D01*
X129320476Y-89730952D01*
X129320476Y-90111904D01*
X129368095Y-90207142D01*
X129415714Y-90254761D01*
X129510952Y-90302380D01*
X129701428Y-90302380D01*
X129796666Y-90254761D01*
X129844285Y-90207142D01*
X129891904Y-90111904D01*
X129891904Y-89873809D01*
X129844285Y-89778571D01*
X129796666Y-89730952D01*
X129701428Y-89683333D01*
X129510952Y-89683333D01*
X129415714Y-89730952D01*
X129368095Y-89778571D01*
X129320476Y-89873809D01*
%TO.C,D5*%
X112061904Y-141532380D02*
X112061904Y-140532380D01*
X112300000Y-140532380D01*
X112442857Y-140580000D01*
X112538095Y-140675238D01*
X112585714Y-140770476D01*
X112633333Y-140960952D01*
X112633333Y-141103809D01*
X112585714Y-141294285D01*
X112538095Y-141389523D01*
X112442857Y-141484761D01*
X112300000Y-141532380D01*
X112061904Y-141532380D01*
X113538095Y-140532380D02*
X113061904Y-140532380D01*
X113014285Y-141008571D01*
X113061904Y-140960952D01*
X113157142Y-140913333D01*
X113395238Y-140913333D01*
X113490476Y-140960952D01*
X113538095Y-141008571D01*
X113585714Y-141103809D01*
X113585714Y-141341904D01*
X113538095Y-141437142D01*
X113490476Y-141484761D01*
X113395238Y-141532380D01*
X113157142Y-141532380D01*
X113061904Y-141484761D01*
X113014285Y-141437142D01*
%TO.C,R20*%
X160052380Y-132912857D02*
X159576190Y-133246190D01*
X160052380Y-133484285D02*
X159052380Y-133484285D01*
X159052380Y-133103333D01*
X159100000Y-133008095D01*
X159147619Y-132960476D01*
X159242857Y-132912857D01*
X159385714Y-132912857D01*
X159480952Y-132960476D01*
X159528571Y-133008095D01*
X159576190Y-133103333D01*
X159576190Y-133484285D01*
X159147619Y-132531904D02*
X159100000Y-132484285D01*
X159052380Y-132389047D01*
X159052380Y-132150952D01*
X159100000Y-132055714D01*
X159147619Y-132008095D01*
X159242857Y-131960476D01*
X159338095Y-131960476D01*
X159480952Y-132008095D01*
X160052380Y-132579523D01*
X160052380Y-131960476D01*
X159052380Y-131341428D02*
X159052380Y-131246190D01*
X159100000Y-131150952D01*
X159147619Y-131103333D01*
X159242857Y-131055714D01*
X159433333Y-131008095D01*
X159671428Y-131008095D01*
X159861904Y-131055714D01*
X159957142Y-131103333D01*
X160004761Y-131150952D01*
X160052380Y-131246190D01*
X160052380Y-131341428D01*
X160004761Y-131436666D01*
X159957142Y-131484285D01*
X159861904Y-131531904D01*
X159671428Y-131579523D01*
X159433333Y-131579523D01*
X159242857Y-131531904D01*
X159147619Y-131484285D01*
X159100000Y-131436666D01*
X159052380Y-131341428D01*
%TO.C,R14*%
X137772380Y-121442857D02*
X137296190Y-121776190D01*
X137772380Y-122014285D02*
X136772380Y-122014285D01*
X136772380Y-121633333D01*
X136820000Y-121538095D01*
X136867619Y-121490476D01*
X136962857Y-121442857D01*
X137105714Y-121442857D01*
X137200952Y-121490476D01*
X137248571Y-121538095D01*
X137296190Y-121633333D01*
X137296190Y-122014285D01*
X137772380Y-120490476D02*
X137772380Y-121061904D01*
X137772380Y-120776190D02*
X136772380Y-120776190D01*
X136915238Y-120871428D01*
X137010476Y-120966666D01*
X137058095Y-121061904D01*
X137105714Y-119633333D02*
X137772380Y-119633333D01*
X136724761Y-119871428D02*
X137439047Y-120109523D01*
X137439047Y-119490476D01*
%TO.C,D6*%
X112031904Y-137792380D02*
X112031904Y-136792380D01*
X112270000Y-136792380D01*
X112412857Y-136840000D01*
X112508095Y-136935238D01*
X112555714Y-137030476D01*
X112603333Y-137220952D01*
X112603333Y-137363809D01*
X112555714Y-137554285D01*
X112508095Y-137649523D01*
X112412857Y-137744761D01*
X112270000Y-137792380D01*
X112031904Y-137792380D01*
X113460476Y-136792380D02*
X113270000Y-136792380D01*
X113174761Y-136840000D01*
X113127142Y-136887619D01*
X113031904Y-137030476D01*
X112984285Y-137220952D01*
X112984285Y-137601904D01*
X113031904Y-137697142D01*
X113079523Y-137744761D01*
X113174761Y-137792380D01*
X113365238Y-137792380D01*
X113460476Y-137744761D01*
X113508095Y-137697142D01*
X113555714Y-137601904D01*
X113555714Y-137363809D01*
X113508095Y-137268571D01*
X113460476Y-137220952D01*
X113365238Y-137173333D01*
X113174761Y-137173333D01*
X113079523Y-137220952D01*
X113031904Y-137268571D01*
X112984285Y-137363809D01*
%TO.C,R35*%
X134212380Y-121002857D02*
X133736190Y-121336190D01*
X134212380Y-121574285D02*
X133212380Y-121574285D01*
X133212380Y-121193333D01*
X133260000Y-121098095D01*
X133307619Y-121050476D01*
X133402857Y-121002857D01*
X133545714Y-121002857D01*
X133640952Y-121050476D01*
X133688571Y-121098095D01*
X133736190Y-121193333D01*
X133736190Y-121574285D01*
X133212380Y-120669523D02*
X133212380Y-120050476D01*
X133593333Y-120383809D01*
X133593333Y-120240952D01*
X133640952Y-120145714D01*
X133688571Y-120098095D01*
X133783809Y-120050476D01*
X134021904Y-120050476D01*
X134117142Y-120098095D01*
X134164761Y-120145714D01*
X134212380Y-120240952D01*
X134212380Y-120526666D01*
X134164761Y-120621904D01*
X134117142Y-120669523D01*
X133212380Y-119145714D02*
X133212380Y-119621904D01*
X133688571Y-119669523D01*
X133640952Y-119621904D01*
X133593333Y-119526666D01*
X133593333Y-119288571D01*
X133640952Y-119193333D01*
X133688571Y-119145714D01*
X133783809Y-119098095D01*
X134021904Y-119098095D01*
X134117142Y-119145714D01*
X134164761Y-119193333D01*
X134212380Y-119288571D01*
X134212380Y-119526666D01*
X134164761Y-119621904D01*
X134117142Y-119669523D01*
%TO.C,R42*%
X158327142Y-121432380D02*
X157993809Y-120956190D01*
X157755714Y-121432380D02*
X157755714Y-120432380D01*
X158136666Y-120432380D01*
X158231904Y-120480000D01*
X158279523Y-120527619D01*
X158327142Y-120622857D01*
X158327142Y-120765714D01*
X158279523Y-120860952D01*
X158231904Y-120908571D01*
X158136666Y-120956190D01*
X157755714Y-120956190D01*
X159184285Y-120765714D02*
X159184285Y-121432380D01*
X158946190Y-120384761D02*
X158708095Y-121099047D01*
X159327142Y-121099047D01*
X159660476Y-120527619D02*
X159708095Y-120480000D01*
X159803333Y-120432380D01*
X160041428Y-120432380D01*
X160136666Y-120480000D01*
X160184285Y-120527619D01*
X160231904Y-120622857D01*
X160231904Y-120718095D01*
X160184285Y-120860952D01*
X159612857Y-121432380D01*
X160231904Y-121432380D01*
%TO.C,C11*%
X127627142Y-107689142D02*
X127579523Y-107736761D01*
X127436666Y-107784380D01*
X127341428Y-107784380D01*
X127198571Y-107736761D01*
X127103333Y-107641523D01*
X127055714Y-107546285D01*
X127008095Y-107355809D01*
X127008095Y-107212952D01*
X127055714Y-107022476D01*
X127103333Y-106927238D01*
X127198571Y-106832000D01*
X127341428Y-106784380D01*
X127436666Y-106784380D01*
X127579523Y-106832000D01*
X127627142Y-106879619D01*
X128579523Y-107784380D02*
X128008095Y-107784380D01*
X128293809Y-107784380D02*
X128293809Y-106784380D01*
X128198571Y-106927238D01*
X128103333Y-107022476D01*
X128008095Y-107070095D01*
X129531904Y-107784380D02*
X128960476Y-107784380D01*
X129246190Y-107784380D02*
X129246190Y-106784380D01*
X129150952Y-106927238D01*
X129055714Y-107022476D01*
X128960476Y-107070095D01*
%TO.C,C40*%
X125387142Y-117747142D02*
X125339523Y-117794761D01*
X125196666Y-117842380D01*
X125101428Y-117842380D01*
X124958571Y-117794761D01*
X124863333Y-117699523D01*
X124815714Y-117604285D01*
X124768095Y-117413809D01*
X124768095Y-117270952D01*
X124815714Y-117080476D01*
X124863333Y-116985238D01*
X124958571Y-116890000D01*
X125101428Y-116842380D01*
X125196666Y-116842380D01*
X125339523Y-116890000D01*
X125387142Y-116937619D01*
X126244285Y-117175714D02*
X126244285Y-117842380D01*
X126006190Y-116794761D02*
X125768095Y-117509047D01*
X126387142Y-117509047D01*
X126958571Y-116842380D02*
X127053809Y-116842380D01*
X127149047Y-116890000D01*
X127196666Y-116937619D01*
X127244285Y-117032857D01*
X127291904Y-117223333D01*
X127291904Y-117461428D01*
X127244285Y-117651904D01*
X127196666Y-117747142D01*
X127149047Y-117794761D01*
X127053809Y-117842380D01*
X126958571Y-117842380D01*
X126863333Y-117794761D01*
X126815714Y-117747142D01*
X126768095Y-117651904D01*
X126720476Y-117461428D01*
X126720476Y-117223333D01*
X126768095Y-117032857D01*
X126815714Y-116937619D01*
X126863333Y-116890000D01*
X126958571Y-116842380D01*
%TO.C,C5*%
X142343333Y-105377142D02*
X142295714Y-105424761D01*
X142152857Y-105472380D01*
X142057619Y-105472380D01*
X141914761Y-105424761D01*
X141819523Y-105329523D01*
X141771904Y-105234285D01*
X141724285Y-105043809D01*
X141724285Y-104900952D01*
X141771904Y-104710476D01*
X141819523Y-104615238D01*
X141914761Y-104520000D01*
X142057619Y-104472380D01*
X142152857Y-104472380D01*
X142295714Y-104520000D01*
X142343333Y-104567619D01*
X143248095Y-104472380D02*
X142771904Y-104472380D01*
X142724285Y-104948571D01*
X142771904Y-104900952D01*
X142867142Y-104853333D01*
X143105238Y-104853333D01*
X143200476Y-104900952D01*
X143248095Y-104948571D01*
X143295714Y-105043809D01*
X143295714Y-105281904D01*
X143248095Y-105377142D01*
X143200476Y-105424761D01*
X143105238Y-105472380D01*
X142867142Y-105472380D01*
X142771904Y-105424761D01*
X142724285Y-105377142D01*
%TO.C,C25*%
X128957142Y-124662857D02*
X129004761Y-124710476D01*
X129052380Y-124853333D01*
X129052380Y-124948571D01*
X129004761Y-125091428D01*
X128909523Y-125186666D01*
X128814285Y-125234285D01*
X128623809Y-125281904D01*
X128480952Y-125281904D01*
X128290476Y-125234285D01*
X128195238Y-125186666D01*
X128100000Y-125091428D01*
X128052380Y-124948571D01*
X128052380Y-124853333D01*
X128100000Y-124710476D01*
X128147619Y-124662857D01*
X128147619Y-124281904D02*
X128100000Y-124234285D01*
X128052380Y-124139047D01*
X128052380Y-123900952D01*
X128100000Y-123805714D01*
X128147619Y-123758095D01*
X128242857Y-123710476D01*
X128338095Y-123710476D01*
X128480952Y-123758095D01*
X129052380Y-124329523D01*
X129052380Y-123710476D01*
X128052380Y-122805714D02*
X128052380Y-123281904D01*
X128528571Y-123329523D01*
X128480952Y-123281904D01*
X128433333Y-123186666D01*
X128433333Y-122948571D01*
X128480952Y-122853333D01*
X128528571Y-122805714D01*
X128623809Y-122758095D01*
X128861904Y-122758095D01*
X128957142Y-122805714D01*
X129004761Y-122853333D01*
X129052380Y-122948571D01*
X129052380Y-123186666D01*
X129004761Y-123281904D01*
X128957142Y-123329523D01*
%TO.C,C9*%
X143463333Y-103367142D02*
X143415714Y-103414761D01*
X143272857Y-103462380D01*
X143177619Y-103462380D01*
X143034761Y-103414761D01*
X142939523Y-103319523D01*
X142891904Y-103224285D01*
X142844285Y-103033809D01*
X142844285Y-102890952D01*
X142891904Y-102700476D01*
X142939523Y-102605238D01*
X143034761Y-102510000D01*
X143177619Y-102462380D01*
X143272857Y-102462380D01*
X143415714Y-102510000D01*
X143463333Y-102557619D01*
X143939523Y-103462380D02*
X144130000Y-103462380D01*
X144225238Y-103414761D01*
X144272857Y-103367142D01*
X144368095Y-103224285D01*
X144415714Y-103033809D01*
X144415714Y-102652857D01*
X144368095Y-102557619D01*
X144320476Y-102510000D01*
X144225238Y-102462380D01*
X144034761Y-102462380D01*
X143939523Y-102510000D01*
X143891904Y-102557619D01*
X143844285Y-102652857D01*
X143844285Y-102890952D01*
X143891904Y-102986190D01*
X143939523Y-103033809D01*
X144034761Y-103081428D01*
X144225238Y-103081428D01*
X144320476Y-103033809D01*
X144368095Y-102986190D01*
X144415714Y-102890952D01*
%TO.C,R25*%
X143721785Y-125597261D02*
X143510119Y-125294880D01*
X143358928Y-125597261D02*
X143358928Y-124962261D01*
X143600833Y-124962261D01*
X143661309Y-124992500D01*
X143691547Y-125022738D01*
X143721785Y-125083214D01*
X143721785Y-125173928D01*
X143691547Y-125234404D01*
X143661309Y-125264642D01*
X143600833Y-125294880D01*
X143358928Y-125294880D01*
X143963690Y-125022738D02*
X143993928Y-124992500D01*
X144054404Y-124962261D01*
X144205595Y-124962261D01*
X144266071Y-124992500D01*
X144296309Y-125022738D01*
X144326547Y-125083214D01*
X144326547Y-125143690D01*
X144296309Y-125234404D01*
X143933452Y-125597261D01*
X144326547Y-125597261D01*
X144901071Y-124962261D02*
X144598690Y-124962261D01*
X144568452Y-125264642D01*
X144598690Y-125234404D01*
X144659166Y-125204166D01*
X144810357Y-125204166D01*
X144870833Y-125234404D01*
X144901071Y-125264642D01*
X144931309Y-125325119D01*
X144931309Y-125476309D01*
X144901071Y-125536785D01*
X144870833Y-125567023D01*
X144810357Y-125597261D01*
X144659166Y-125597261D01*
X144598690Y-125567023D01*
X144568452Y-125536785D01*
%TO.C,C18*%
X158357142Y-138467142D02*
X158309523Y-138514761D01*
X158166666Y-138562380D01*
X158071428Y-138562380D01*
X157928571Y-138514761D01*
X157833333Y-138419523D01*
X157785714Y-138324285D01*
X157738095Y-138133809D01*
X157738095Y-137990952D01*
X157785714Y-137800476D01*
X157833333Y-137705238D01*
X157928571Y-137610000D01*
X158071428Y-137562380D01*
X158166666Y-137562380D01*
X158309523Y-137610000D01*
X158357142Y-137657619D01*
X159309523Y-138562380D02*
X158738095Y-138562380D01*
X159023809Y-138562380D02*
X159023809Y-137562380D01*
X158928571Y-137705238D01*
X158833333Y-137800476D01*
X158738095Y-137848095D01*
X159880952Y-137990952D02*
X159785714Y-137943333D01*
X159738095Y-137895714D01*
X159690476Y-137800476D01*
X159690476Y-137752857D01*
X159738095Y-137657619D01*
X159785714Y-137610000D01*
X159880952Y-137562380D01*
X160071428Y-137562380D01*
X160166666Y-137610000D01*
X160214285Y-137657619D01*
X160261904Y-137752857D01*
X160261904Y-137800476D01*
X160214285Y-137895714D01*
X160166666Y-137943333D01*
X160071428Y-137990952D01*
X159880952Y-137990952D01*
X159785714Y-138038571D01*
X159738095Y-138086190D01*
X159690476Y-138181428D01*
X159690476Y-138371904D01*
X159738095Y-138467142D01*
X159785714Y-138514761D01*
X159880952Y-138562380D01*
X160071428Y-138562380D01*
X160166666Y-138514761D01*
X160214285Y-138467142D01*
X160261904Y-138371904D01*
X160261904Y-138181428D01*
X160214285Y-138086190D01*
X160166666Y-138038571D01*
X160071428Y-137990952D01*
%TO.C,R30*%
X143047142Y-133352380D02*
X142713809Y-132876190D01*
X142475714Y-133352380D02*
X142475714Y-132352380D01*
X142856666Y-132352380D01*
X142951904Y-132400000D01*
X142999523Y-132447619D01*
X143047142Y-132542857D01*
X143047142Y-132685714D01*
X142999523Y-132780952D01*
X142951904Y-132828571D01*
X142856666Y-132876190D01*
X142475714Y-132876190D01*
X143380476Y-132352380D02*
X143999523Y-132352380D01*
X143666190Y-132733333D01*
X143809047Y-132733333D01*
X143904285Y-132780952D01*
X143951904Y-132828571D01*
X143999523Y-132923809D01*
X143999523Y-133161904D01*
X143951904Y-133257142D01*
X143904285Y-133304761D01*
X143809047Y-133352380D01*
X143523333Y-133352380D01*
X143428095Y-133304761D01*
X143380476Y-133257142D01*
X144618571Y-132352380D02*
X144713809Y-132352380D01*
X144809047Y-132400000D01*
X144856666Y-132447619D01*
X144904285Y-132542857D01*
X144951904Y-132733333D01*
X144951904Y-132971428D01*
X144904285Y-133161904D01*
X144856666Y-133257142D01*
X144809047Y-133304761D01*
X144713809Y-133352380D01*
X144618571Y-133352380D01*
X144523333Y-133304761D01*
X144475714Y-133257142D01*
X144428095Y-133161904D01*
X144380476Y-132971428D01*
X144380476Y-132733333D01*
X144428095Y-132542857D01*
X144475714Y-132447619D01*
X144523333Y-132400000D01*
X144618571Y-132352380D01*
%TO.C,R16*%
X151787142Y-148422380D02*
X151453809Y-147946190D01*
X151215714Y-148422380D02*
X151215714Y-147422380D01*
X151596666Y-147422380D01*
X151691904Y-147470000D01*
X151739523Y-147517619D01*
X151787142Y-147612857D01*
X151787142Y-147755714D01*
X151739523Y-147850952D01*
X151691904Y-147898571D01*
X151596666Y-147946190D01*
X151215714Y-147946190D01*
X152739523Y-148422380D02*
X152168095Y-148422380D01*
X152453809Y-148422380D02*
X152453809Y-147422380D01*
X152358571Y-147565238D01*
X152263333Y-147660476D01*
X152168095Y-147708095D01*
X153596666Y-147422380D02*
X153406190Y-147422380D01*
X153310952Y-147470000D01*
X153263333Y-147517619D01*
X153168095Y-147660476D01*
X153120476Y-147850952D01*
X153120476Y-148231904D01*
X153168095Y-148327142D01*
X153215714Y-148374761D01*
X153310952Y-148422380D01*
X153501428Y-148422380D01*
X153596666Y-148374761D01*
X153644285Y-148327142D01*
X153691904Y-148231904D01*
X153691904Y-147993809D01*
X153644285Y-147898571D01*
X153596666Y-147850952D01*
X153501428Y-147803333D01*
X153310952Y-147803333D01*
X153215714Y-147850952D01*
X153168095Y-147898571D01*
X153120476Y-147993809D01*
D11*
%TO.C,C35*%
X133773428Y-128961428D02*
X133749238Y-128985619D01*
X133676666Y-129009809D01*
X133628285Y-129009809D01*
X133555714Y-128985619D01*
X133507333Y-128937238D01*
X133483142Y-128888857D01*
X133458952Y-128792095D01*
X133458952Y-128719523D01*
X133483142Y-128622761D01*
X133507333Y-128574380D01*
X133555714Y-128526000D01*
X133628285Y-128501809D01*
X133676666Y-128501809D01*
X133749238Y-128526000D01*
X133773428Y-128550190D01*
X133942761Y-128501809D02*
X134257238Y-128501809D01*
X134087904Y-128695333D01*
X134160476Y-128695333D01*
X134208857Y-128719523D01*
X134233047Y-128743714D01*
X134257238Y-128792095D01*
X134257238Y-128913047D01*
X134233047Y-128961428D01*
X134208857Y-128985619D01*
X134160476Y-129009809D01*
X134015333Y-129009809D01*
X133966952Y-128985619D01*
X133942761Y-128961428D01*
X134716857Y-128501809D02*
X134474952Y-128501809D01*
X134450761Y-128743714D01*
X134474952Y-128719523D01*
X134523333Y-128695333D01*
X134644285Y-128695333D01*
X134692666Y-128719523D01*
X134716857Y-128743714D01*
X134741047Y-128792095D01*
X134741047Y-128913047D01*
X134716857Y-128961428D01*
X134692666Y-128985619D01*
X134644285Y-129009809D01*
X134523333Y-129009809D01*
X134474952Y-128985619D01*
X134450761Y-128961428D01*
D10*
%TO.C,C3*%
X132617142Y-96026666D02*
X132664761Y-96074285D01*
X132712380Y-96217142D01*
X132712380Y-96312380D01*
X132664761Y-96455238D01*
X132569523Y-96550476D01*
X132474285Y-96598095D01*
X132283809Y-96645714D01*
X132140952Y-96645714D01*
X131950476Y-96598095D01*
X131855238Y-96550476D01*
X131760000Y-96455238D01*
X131712380Y-96312380D01*
X131712380Y-96217142D01*
X131760000Y-96074285D01*
X131807619Y-96026666D01*
X131712380Y-95693333D02*
X131712380Y-95074285D01*
X132093333Y-95407619D01*
X132093333Y-95264761D01*
X132140952Y-95169523D01*
X132188571Y-95121904D01*
X132283809Y-95074285D01*
X132521904Y-95074285D01*
X132617142Y-95121904D01*
X132664761Y-95169523D01*
X132712380Y-95264761D01*
X132712380Y-95550476D01*
X132664761Y-95645714D01*
X132617142Y-95693333D01*
%TO.C,R7*%
X136452380Y-114636666D02*
X135976190Y-114970000D01*
X136452380Y-115208095D02*
X135452380Y-115208095D01*
X135452380Y-114827142D01*
X135500000Y-114731904D01*
X135547619Y-114684285D01*
X135642857Y-114636666D01*
X135785714Y-114636666D01*
X135880952Y-114684285D01*
X135928571Y-114731904D01*
X135976190Y-114827142D01*
X135976190Y-115208095D01*
X135452380Y-114303333D02*
X135452380Y-113636666D01*
X136452380Y-114065238D01*
%TO.C,C38*%
X113833142Y-119202135D02*
X113785523Y-119249754D01*
X113642666Y-119297373D01*
X113547428Y-119297373D01*
X113404571Y-119249754D01*
X113309333Y-119154516D01*
X113261714Y-119059278D01*
X113214095Y-118868802D01*
X113214095Y-118725945D01*
X113261714Y-118535469D01*
X113309333Y-118440231D01*
X113404571Y-118344993D01*
X113547428Y-118297373D01*
X113642666Y-118297373D01*
X113785523Y-118344993D01*
X113833142Y-118392612D01*
X114166476Y-118297373D02*
X114785523Y-118297373D01*
X114452190Y-118678326D01*
X114595047Y-118678326D01*
X114690285Y-118725945D01*
X114737904Y-118773564D01*
X114785523Y-118868802D01*
X114785523Y-119106897D01*
X114737904Y-119202135D01*
X114690285Y-119249754D01*
X114595047Y-119297373D01*
X114309333Y-119297373D01*
X114214095Y-119249754D01*
X114166476Y-119202135D01*
X115356952Y-118725945D02*
X115261714Y-118678326D01*
X115214095Y-118630707D01*
X115166476Y-118535469D01*
X115166476Y-118487850D01*
X115214095Y-118392612D01*
X115261714Y-118344993D01*
X115356952Y-118297373D01*
X115547428Y-118297373D01*
X115642666Y-118344993D01*
X115690285Y-118392612D01*
X115737904Y-118487850D01*
X115737904Y-118535469D01*
X115690285Y-118630707D01*
X115642666Y-118678326D01*
X115547428Y-118725945D01*
X115356952Y-118725945D01*
X115261714Y-118773564D01*
X115214095Y-118821183D01*
X115166476Y-118916421D01*
X115166476Y-119106897D01*
X115214095Y-119202135D01*
X115261714Y-119249754D01*
X115356952Y-119297373D01*
X115547428Y-119297373D01*
X115642666Y-119249754D01*
X115690285Y-119202135D01*
X115737904Y-119106897D01*
X115737904Y-118916421D01*
X115690285Y-118821183D01*
X115642666Y-118773564D01*
X115547428Y-118725945D01*
%TO.C,S1*%
X121388095Y-88484761D02*
X121530952Y-88532380D01*
X121769047Y-88532380D01*
X121864285Y-88484761D01*
X121911904Y-88437142D01*
X121959523Y-88341904D01*
X121959523Y-88246666D01*
X121911904Y-88151428D01*
X121864285Y-88103809D01*
X121769047Y-88056190D01*
X121578571Y-88008571D01*
X121483333Y-87960952D01*
X121435714Y-87913333D01*
X121388095Y-87818095D01*
X121388095Y-87722857D01*
X121435714Y-87627619D01*
X121483333Y-87580000D01*
X121578571Y-87532380D01*
X121816666Y-87532380D01*
X121959523Y-87580000D01*
X122911904Y-88532380D02*
X122340476Y-88532380D01*
X122626190Y-88532380D02*
X122626190Y-87532380D01*
X122530952Y-87675238D01*
X122435714Y-87770476D01*
X122340476Y-87818095D01*
%TO.C,J5*%
X157486666Y-105807380D02*
X157486666Y-106521666D01*
X157439047Y-106664523D01*
X157343809Y-106759761D01*
X157200952Y-106807380D01*
X157105714Y-106807380D01*
X158439047Y-105807380D02*
X157962857Y-105807380D01*
X157915238Y-106283571D01*
X157962857Y-106235952D01*
X158058095Y-106188333D01*
X158296190Y-106188333D01*
X158391428Y-106235952D01*
X158439047Y-106283571D01*
X158486666Y-106378809D01*
X158486666Y-106616904D01*
X158439047Y-106712142D01*
X158391428Y-106759761D01*
X158296190Y-106807380D01*
X158058095Y-106807380D01*
X157962857Y-106759761D01*
X157915238Y-106712142D01*
%TO.C,C49*%
X112073142Y-125634857D02*
X112120761Y-125682476D01*
X112168380Y-125825333D01*
X112168380Y-125920571D01*
X112120761Y-126063428D01*
X112025523Y-126158666D01*
X111930285Y-126206285D01*
X111739809Y-126253904D01*
X111596952Y-126253904D01*
X111406476Y-126206285D01*
X111311238Y-126158666D01*
X111216000Y-126063428D01*
X111168380Y-125920571D01*
X111168380Y-125825333D01*
X111216000Y-125682476D01*
X111263619Y-125634857D01*
X111501714Y-124777714D02*
X112168380Y-124777714D01*
X111120761Y-125015809D02*
X111835047Y-125253904D01*
X111835047Y-124634857D01*
X112168380Y-124206285D02*
X112168380Y-124015809D01*
X112120761Y-123920571D01*
X112073142Y-123872952D01*
X111930285Y-123777714D01*
X111739809Y-123730095D01*
X111358857Y-123730095D01*
X111263619Y-123777714D01*
X111216000Y-123825333D01*
X111168380Y-123920571D01*
X111168380Y-124111047D01*
X111216000Y-124206285D01*
X111263619Y-124253904D01*
X111358857Y-124301523D01*
X111596952Y-124301523D01*
X111692190Y-124253904D01*
X111739809Y-124206285D01*
X111787428Y-124111047D01*
X111787428Y-123920571D01*
X111739809Y-123825333D01*
X111692190Y-123777714D01*
X111596952Y-123730095D01*
%TO.C,R5*%
X119533333Y-94532380D02*
X119200000Y-94056190D01*
X118961904Y-94532380D02*
X118961904Y-93532380D01*
X119342857Y-93532380D01*
X119438095Y-93580000D01*
X119485714Y-93627619D01*
X119533333Y-93722857D01*
X119533333Y-93865714D01*
X119485714Y-93960952D01*
X119438095Y-94008571D01*
X119342857Y-94056190D01*
X118961904Y-94056190D01*
X120438095Y-93532380D02*
X119961904Y-93532380D01*
X119914285Y-94008571D01*
X119961904Y-93960952D01*
X120057142Y-93913333D01*
X120295238Y-93913333D01*
X120390476Y-93960952D01*
X120438095Y-94008571D01*
X120485714Y-94103809D01*
X120485714Y-94341904D01*
X120438095Y-94437142D01*
X120390476Y-94484761D01*
X120295238Y-94532380D01*
X120057142Y-94532380D01*
X119961904Y-94484761D01*
X119914285Y-94437142D01*
%TO.C,C24*%
X144497142Y-128032857D02*
X144544761Y-128080476D01*
X144592380Y-128223333D01*
X144592380Y-128318571D01*
X144544761Y-128461428D01*
X144449523Y-128556666D01*
X144354285Y-128604285D01*
X144163809Y-128651904D01*
X144020952Y-128651904D01*
X143830476Y-128604285D01*
X143735238Y-128556666D01*
X143640000Y-128461428D01*
X143592380Y-128318571D01*
X143592380Y-128223333D01*
X143640000Y-128080476D01*
X143687619Y-128032857D01*
X143687619Y-127651904D02*
X143640000Y-127604285D01*
X143592380Y-127509047D01*
X143592380Y-127270952D01*
X143640000Y-127175714D01*
X143687619Y-127128095D01*
X143782857Y-127080476D01*
X143878095Y-127080476D01*
X144020952Y-127128095D01*
X144592380Y-127699523D01*
X144592380Y-127080476D01*
X143925714Y-126223333D02*
X144592380Y-126223333D01*
X143544761Y-126461428D02*
X144259047Y-126699523D01*
X144259047Y-126080476D01*
%TO.C,C7*%
X157917142Y-100056666D02*
X157964761Y-100104285D01*
X158012380Y-100247142D01*
X158012380Y-100342380D01*
X157964761Y-100485238D01*
X157869523Y-100580476D01*
X157774285Y-100628095D01*
X157583809Y-100675714D01*
X157440952Y-100675714D01*
X157250476Y-100628095D01*
X157155238Y-100580476D01*
X157060000Y-100485238D01*
X157012380Y-100342380D01*
X157012380Y-100247142D01*
X157060000Y-100104285D01*
X157107619Y-100056666D01*
X157012380Y-99723333D02*
X157012380Y-99056666D01*
X158012380Y-99485238D01*
%TO.C,D3*%
X128731904Y-141542380D02*
X128731904Y-140542380D01*
X128970000Y-140542380D01*
X129112857Y-140590000D01*
X129208095Y-140685238D01*
X129255714Y-140780476D01*
X129303333Y-140970952D01*
X129303333Y-141113809D01*
X129255714Y-141304285D01*
X129208095Y-141399523D01*
X129112857Y-141494761D01*
X128970000Y-141542380D01*
X128731904Y-141542380D01*
X129636666Y-140542380D02*
X130255714Y-140542380D01*
X129922380Y-140923333D01*
X130065238Y-140923333D01*
X130160476Y-140970952D01*
X130208095Y-141018571D01*
X130255714Y-141113809D01*
X130255714Y-141351904D01*
X130208095Y-141447142D01*
X130160476Y-141494761D01*
X130065238Y-141542380D01*
X129779523Y-141542380D01*
X129684285Y-141494761D01*
X129636666Y-141447142D01*
%TO.C,R43*%
X158327142Y-123422380D02*
X157993809Y-122946190D01*
X157755714Y-123422380D02*
X157755714Y-122422380D01*
X158136666Y-122422380D01*
X158231904Y-122470000D01*
X158279523Y-122517619D01*
X158327142Y-122612857D01*
X158327142Y-122755714D01*
X158279523Y-122850952D01*
X158231904Y-122898571D01*
X158136666Y-122946190D01*
X157755714Y-122946190D01*
X159184285Y-122755714D02*
X159184285Y-123422380D01*
X158946190Y-122374761D02*
X158708095Y-123089047D01*
X159327142Y-123089047D01*
X159612857Y-122422380D02*
X160231904Y-122422380D01*
X159898571Y-122803333D01*
X160041428Y-122803333D01*
X160136666Y-122850952D01*
X160184285Y-122898571D01*
X160231904Y-122993809D01*
X160231904Y-123231904D01*
X160184285Y-123327142D01*
X160136666Y-123374761D01*
X160041428Y-123422380D01*
X159755714Y-123422380D01*
X159660476Y-123374761D01*
X159612857Y-123327142D01*
%TO.C,C36*%
X125347142Y-149892857D02*
X125394761Y-149940476D01*
X125442380Y-150083333D01*
X125442380Y-150178571D01*
X125394761Y-150321428D01*
X125299523Y-150416666D01*
X125204285Y-150464285D01*
X125013809Y-150511904D01*
X124870952Y-150511904D01*
X124680476Y-150464285D01*
X124585238Y-150416666D01*
X124490000Y-150321428D01*
X124442380Y-150178571D01*
X124442380Y-150083333D01*
X124490000Y-149940476D01*
X124537619Y-149892857D01*
X124442380Y-149559523D02*
X124442380Y-148940476D01*
X124823333Y-149273809D01*
X124823333Y-149130952D01*
X124870952Y-149035714D01*
X124918571Y-148988095D01*
X125013809Y-148940476D01*
X125251904Y-148940476D01*
X125347142Y-148988095D01*
X125394761Y-149035714D01*
X125442380Y-149130952D01*
X125442380Y-149416666D01*
X125394761Y-149511904D01*
X125347142Y-149559523D01*
X124442380Y-148083333D02*
X124442380Y-148273809D01*
X124490000Y-148369047D01*
X124537619Y-148416666D01*
X124680476Y-148511904D01*
X124870952Y-148559523D01*
X125251904Y-148559523D01*
X125347142Y-148511904D01*
X125394761Y-148464285D01*
X125442380Y-148369047D01*
X125442380Y-148178571D01*
X125394761Y-148083333D01*
X125347142Y-148035714D01*
X125251904Y-147988095D01*
X125013809Y-147988095D01*
X124918571Y-148035714D01*
X124870952Y-148083333D01*
X124823333Y-148178571D01*
X124823333Y-148369047D01*
X124870952Y-148464285D01*
X124918571Y-148511904D01*
X125013809Y-148559523D01*
%TO.C,R24*%
X160012380Y-129742857D02*
X159536190Y-130076190D01*
X160012380Y-130314285D02*
X159012380Y-130314285D01*
X159012380Y-129933333D01*
X159060000Y-129838095D01*
X159107619Y-129790476D01*
X159202857Y-129742857D01*
X159345714Y-129742857D01*
X159440952Y-129790476D01*
X159488571Y-129838095D01*
X159536190Y-129933333D01*
X159536190Y-130314285D01*
X159107619Y-129361904D02*
X159060000Y-129314285D01*
X159012380Y-129219047D01*
X159012380Y-128980952D01*
X159060000Y-128885714D01*
X159107619Y-128838095D01*
X159202857Y-128790476D01*
X159298095Y-128790476D01*
X159440952Y-128838095D01*
X160012380Y-129409523D01*
X160012380Y-128790476D01*
X159345714Y-127933333D02*
X160012380Y-127933333D01*
X158964761Y-128171428D02*
X159679047Y-128409523D01*
X159679047Y-127790476D01*
D12*
%TO.C,C33*%
X134606420Y-132971000D02*
X134887580Y-132971000D01*
X134606420Y-131951000D02*
X134887580Y-131951000D01*
%TO.C,R31*%
X117984000Y-111987359D02*
X117984000Y-112294641D01*
X118744000Y-111987359D02*
X118744000Y-112294641D01*
%TO.C,C30*%
X146126000Y-130757580D02*
X146126000Y-130476420D01*
X145106000Y-130757580D02*
X145106000Y-130476420D01*
%TO.C,C45*%
X144270580Y-122248000D02*
X143989420Y-122248000D01*
X144270580Y-123268000D02*
X143989420Y-123268000D01*
%TO.C,R18*%
X123316000Y-130582641D02*
X123316000Y-130275359D01*
X122556000Y-130582641D02*
X122556000Y-130275359D01*
%TO.C,R54*%
X126490500Y-109992742D02*
X126490500Y-110467258D01*
X127535500Y-109992742D02*
X127535500Y-110467258D01*
%TO.C,C27*%
X149152836Y-133432000D02*
X148937164Y-133432000D01*
X149152836Y-134152000D02*
X148937164Y-134152000D01*
%TO.C,R52*%
X143892742Y-118679500D02*
X144367258Y-118679500D01*
X143892742Y-119724500D02*
X144367258Y-119724500D01*
%TO.C,C48*%
X120884836Y-119232000D02*
X120669164Y-119232000D01*
X120884836Y-118512000D02*
X120669164Y-118512000D01*
%TO.C,R17*%
X149173000Y-122716359D02*
X149173000Y-123023641D01*
X149933000Y-122716359D02*
X149933000Y-123023641D01*
%TO.C,C14*%
X132107836Y-111260000D02*
X131892164Y-111260000D01*
X132107836Y-111980000D02*
X131892164Y-111980000D01*
%TO.C,C51*%
X145775000Y-146284836D02*
X145775000Y-146069164D01*
X145055000Y-146284836D02*
X145055000Y-146069164D01*
%TO.C,C8*%
X140481164Y-101178490D02*
X140696836Y-101178490D01*
X140481164Y-101898490D02*
X140696836Y-101898490D01*
%TO.C,R57*%
X115000000Y-125633641D02*
X115000000Y-125326359D01*
X114240000Y-125633641D02*
X114240000Y-125326359D01*
%TO.C,R21*%
X155792742Y-135045500D02*
X156267258Y-135045500D01*
X155792742Y-136090500D02*
X156267258Y-136090500D01*
%TO.C,R13*%
X121893000Y-131672064D02*
X121893000Y-131217936D01*
X120423000Y-131672064D02*
X120423000Y-131217936D01*
%TO.C,C15*%
X131852164Y-116880000D02*
X132067836Y-116880000D01*
X131852164Y-117600000D02*
X132067836Y-117600000D01*
D11*
%TO.C,S2*%
X148570000Y-108782500D02*
X148570000Y-113282500D01*
X153670000Y-108782500D02*
X153670000Y-113282500D01*
X152300000Y-108482500D02*
X149940000Y-108482500D01*
X149940000Y-113582500D02*
X152300000Y-113582500D01*
D13*
X149345000Y-115282500D02*
G75*
G03*
X149345000Y-115282500I-100000J0D01*
G01*
D12*
%TO.C,R41*%
X119508000Y-115797359D02*
X119508000Y-116104641D01*
X120268000Y-115797359D02*
X120268000Y-116104641D01*
%TO.C,C22*%
X124970000Y-131585580D02*
X124970000Y-131304420D01*
X123950000Y-131585580D02*
X123950000Y-131304420D01*
%TO.C,R6*%
X121877000Y-92048359D02*
X121877000Y-92355641D01*
X122637000Y-92048359D02*
X122637000Y-92355641D01*
%TO.C,R2*%
X138380000Y-93996641D02*
X138380000Y-93689359D01*
X137620000Y-93996641D02*
X137620000Y-93689359D01*
%TO.C,R47*%
X155368359Y-124012000D02*
X155675641Y-124012000D01*
X155368359Y-124772000D02*
X155675641Y-124772000D01*
%TO.C,R53*%
X144367258Y-120457500D02*
X143892742Y-120457500D01*
X144367258Y-121502500D02*
X143892742Y-121502500D01*
%TO.C,U2*%
X152529000Y-96456000D02*
X148769000Y-96456000D01*
X154779000Y-103276000D02*
X148769000Y-103276000D01*
X148769000Y-96456000D02*
X148769000Y-97716000D01*
X148769000Y-103276000D02*
X148769000Y-102016000D01*
D11*
%TO.C,J2*%
X131752000Y-89202500D02*
X131752000Y-87762500D01*
X140692000Y-89202500D02*
X140692000Y-87762500D01*
X131752000Y-83792500D02*
X140692000Y-83792500D01*
X131752000Y-85022500D02*
X131752000Y-83792500D01*
X140692000Y-83792500D02*
X140692000Y-85022500D01*
D13*
X139722000Y-92792500D02*
G75*
G03*
X139722000Y-92792500I-100000J0D01*
G01*
D12*
%TO.C,J4*%
X111827000Y-86696000D02*
X113157000Y-86696000D01*
X111827000Y-89296000D02*
X111827000Y-107136000D01*
X111827000Y-89296000D02*
X114487000Y-89296000D01*
X111827000Y-88026000D02*
X111827000Y-86696000D01*
X114487000Y-89296000D02*
X114487000Y-107136000D01*
X111827000Y-107136000D02*
X114487000Y-107136000D01*
%TO.C,C31*%
X134131164Y-134641000D02*
X134346836Y-134641000D01*
X134131164Y-135361000D02*
X134346836Y-135361000D01*
%TO.C,R10*%
X120496359Y-134238000D02*
X120803641Y-134238000D01*
X120496359Y-133478000D02*
X120803641Y-133478000D01*
%TO.C,U6*%
X124577000Y-123317000D02*
X124577000Y-125267000D01*
X115707000Y-123317000D02*
X115707000Y-126767000D01*
X124577000Y-123317000D02*
X124577000Y-121367000D01*
X115707000Y-123317000D02*
X115707000Y-121367000D01*
%TO.C,Y1*%
X133603000Y-112300000D02*
X130303000Y-112300000D01*
X130303000Y-112300000D02*
X130303000Y-116300000D01*
%TO.C,D4*%
X128463000Y-135510000D02*
X123063000Y-135510000D01*
X128463000Y-138810000D02*
X123063000Y-138810000D01*
X128463000Y-138810000D02*
X128463000Y-135510000D01*
%TO.C,R34*%
X117549258Y-114949500D02*
X117074742Y-114949500D01*
X117549258Y-113904500D02*
X117074742Y-113904500D01*
%TO.C,R44*%
X153850000Y-122236359D02*
X153850000Y-122543641D01*
X153090000Y-122236359D02*
X153090000Y-122543641D01*
%TO.C,U5*%
X130486000Y-149096000D02*
X140766000Y-149096000D01*
X132976000Y-149036000D02*
X134626000Y-149036000D01*
X138276000Y-118436000D02*
X132976000Y-118436000D01*
X132976000Y-118436000D02*
X132976000Y-149036000D01*
X130486000Y-118376000D02*
X130486000Y-149096000D01*
X138276000Y-149036000D02*
X138276000Y-118436000D01*
X140766000Y-149096000D02*
X140766000Y-118376000D01*
X140766000Y-118376000D02*
X130486000Y-118376000D01*
X136626000Y-149036000D02*
X138276000Y-149036000D01*
X136626000Y-149036000D02*
G75*
G03*
X134626000Y-149036000I-1000000J0D01*
G01*
%TO.C,R45*%
X122061500Y-116157734D02*
X122061500Y-116632250D01*
X121016500Y-116157734D02*
X121016500Y-116632250D01*
%TO.C,C50*%
X154050000Y-143202836D02*
X154050000Y-142987164D01*
X154770000Y-143202836D02*
X154770000Y-142987164D01*
%TO.C,FB1*%
X127653622Y-146737000D02*
X126854378Y-146737000D01*
X127653622Y-145617000D02*
X126854378Y-145617000D01*
%TO.C,C37*%
X134606420Y-127891000D02*
X134887580Y-127891000D01*
X134606420Y-126871000D02*
X134887580Y-126871000D01*
%TO.C,R32*%
X118363000Y-116686359D02*
X118363000Y-116993641D01*
X117603000Y-116686359D02*
X117603000Y-116993641D01*
%TO.C,C42*%
X116916252Y-127741000D02*
X115493748Y-127741000D01*
X116916252Y-129561000D02*
X115493748Y-129561000D01*
%TO.C,D2*%
X155887000Y-96789000D02*
X155887000Y-91389000D01*
X159187000Y-96789000D02*
X159187000Y-91389000D01*
X155887000Y-96789000D02*
X159187000Y-96789000D01*
%TO.C,R50*%
X117206500Y-131588742D02*
X117206500Y-132063258D01*
X118251500Y-131588742D02*
X118251500Y-132063258D01*
%TO.C,C28*%
X128676500Y-148101164D02*
X128676500Y-148316836D01*
X127956500Y-148101164D02*
X127956500Y-148316836D01*
%TO.C,C12*%
X150989420Y-103757000D02*
X151270580Y-103757000D01*
X150989420Y-104777000D02*
X151270580Y-104777000D01*
%TO.C,U3*%
X123132000Y-94055000D02*
X121457000Y-94055000D01*
X123132000Y-93795000D02*
X123132000Y-94055000D01*
X125857000Y-93795000D02*
X123132000Y-93795000D01*
X128582000Y-93795000D02*
X128582000Y-94055000D01*
X128582000Y-99245000D02*
X128582000Y-98985000D01*
X125857000Y-99245000D02*
X128582000Y-99245000D01*
X125857000Y-99245000D02*
X123132000Y-99245000D01*
X123132000Y-99245000D02*
X123132000Y-98985000D01*
X125857000Y-93795000D02*
X128582000Y-93795000D01*
%TO.C,R8*%
X155929641Y-138619000D02*
X155622359Y-138619000D01*
X155929641Y-139379000D02*
X155622359Y-139379000D01*
%TO.C,R15*%
X136637500Y-145525258D02*
X136637500Y-145050742D01*
X137682500Y-145525258D02*
X137682500Y-145050742D01*
%TO.C,R56*%
X115596641Y-130621000D02*
X115289359Y-130621000D01*
X115596641Y-131381000D02*
X115289359Y-131381000D01*
%TO.C,U7*%
X149860000Y-141650000D02*
X146410000Y-141650000D01*
X149860000Y-146770000D02*
X147910000Y-146770000D01*
X149860000Y-141650000D02*
X151810000Y-141650000D01*
X149860000Y-146770000D02*
X151810000Y-146770000D01*
%TO.C,R11*%
X136907000Y-128042641D02*
X136907000Y-127735359D01*
X137667000Y-128042641D02*
X137667000Y-127735359D01*
%TO.C,R9*%
X149300000Y-119285359D02*
X149300000Y-119592641D01*
X150060000Y-119285359D02*
X150060000Y-119592641D01*
%TO.C,R3*%
X135256000Y-98271359D02*
X135256000Y-98578641D01*
X136016000Y-98271359D02*
X136016000Y-98578641D01*
%TO.C,C19*%
X150590000Y-119546836D02*
X150590000Y-119331164D01*
X151310000Y-119546836D02*
X151310000Y-119331164D01*
%TO.C,R36*%
X114227000Y-121963641D02*
X114227000Y-121656359D01*
X114987000Y-121963641D02*
X114987000Y-121656359D01*
%TO.C,R46*%
X123387359Y-115950000D02*
X123694641Y-115950000D01*
X123387359Y-115190000D02*
X123694641Y-115190000D01*
%TO.C,C52*%
X149752164Y-148740000D02*
X149967836Y-148740000D01*
X149752164Y-149460000D02*
X149967836Y-149460000D01*
%TO.C,C20*%
X121772000Y-128332164D02*
X121772000Y-128547836D01*
X121052000Y-128332164D02*
X121052000Y-128547836D01*
%TO.C,J1*%
X144100000Y-113695000D02*
X146760000Y-113695000D01*
X144100000Y-108555000D02*
X144100000Y-113695000D01*
X144100000Y-105955000D02*
X145430000Y-105955000D01*
X144100000Y-108555000D02*
X146760000Y-108555000D01*
X144100000Y-107285000D02*
X144100000Y-105955000D01*
X146760000Y-108555000D02*
X146760000Y-113695000D01*
%TO.C,R37*%
X134621000Y-122655359D02*
X134621000Y-122962641D01*
X135381000Y-122655359D02*
X135381000Y-122962641D01*
%TO.C,R28*%
X150679258Y-136219500D02*
X150204742Y-136219500D01*
X150679258Y-135174500D02*
X150204742Y-135174500D01*
%TO.C,C4*%
X139679000Y-99421836D02*
X139679000Y-99206164D01*
X138959000Y-99421836D02*
X138959000Y-99206164D01*
%TO.C,R22*%
X149198641Y-125028000D02*
X148891359Y-125028000D01*
X149198641Y-124268000D02*
X148891359Y-124268000D01*
%TO.C,R55*%
X126656641Y-114047000D02*
X126349359Y-114047000D01*
X126656641Y-114807000D02*
X126349359Y-114807000D01*
%TO.C,C32*%
X116218580Y-113159000D02*
X115937420Y-113159000D01*
X116218580Y-112139000D02*
X115937420Y-112139000D01*
%TO.C,C6*%
X134853000Y-97516836D02*
X134853000Y-97301164D01*
X134133000Y-97516836D02*
X134133000Y-97301164D01*
%TO.C,C44*%
X151692836Y-133432000D02*
X151477164Y-133432000D01*
X151692836Y-134152000D02*
X151477164Y-134152000D01*
%TO.C,D1*%
X151666000Y-92120000D02*
X146266000Y-92120000D01*
X151666000Y-95420000D02*
X146266000Y-95420000D01*
X151666000Y-95420000D02*
X151666000Y-92120000D01*
%TO.C,R1*%
X133801359Y-93000000D02*
X134108641Y-93000000D01*
X133801359Y-93760000D02*
X134108641Y-93760000D01*
%TO.C,C21*%
X147519000Y-122092420D02*
X147519000Y-122373580D01*
X148539000Y-122092420D02*
X148539000Y-122373580D01*
%TO.C,C2*%
X138536000Y-98532836D02*
X138536000Y-98317164D01*
X137816000Y-98532836D02*
X137816000Y-98317164D01*
%TO.C,R23*%
X123462742Y-128792500D02*
X123937258Y-128792500D01*
X123462742Y-127747500D02*
X123937258Y-127747500D01*
%TO.C,J3*%
X159330000Y-143575000D02*
X159330000Y-140975000D01*
X159330000Y-146175000D02*
X158000000Y-146175000D01*
X159330000Y-143575000D02*
X156670000Y-143575000D01*
X156670000Y-143575000D02*
X156670000Y-140975000D01*
X159330000Y-144845000D02*
X159330000Y-146175000D01*
X159330000Y-140975000D02*
X156670000Y-140975000D01*
%TO.C,C10*%
X128476836Y-101621000D02*
X128261164Y-101621000D01*
X128476836Y-102341000D02*
X128261164Y-102341000D01*
%TO.C,R12*%
X150669359Y-121599000D02*
X150976641Y-121599000D01*
X150669359Y-120839000D02*
X150976641Y-120839000D01*
%TO.C,U1*%
X137598009Y-108585990D02*
X138248009Y-108585990D01*
X131028009Y-108585990D02*
X131028009Y-107935990D01*
X138248009Y-108585990D02*
X138248009Y-107935990D01*
X131678009Y-108585990D02*
X131028009Y-108585990D01*
X131678009Y-101365990D02*
X131028009Y-101365990D01*
X138248009Y-101365990D02*
X138248009Y-102015990D01*
X137598009Y-101365990D02*
X138248009Y-101365990D01*
%TO.C,R4*%
X137286000Y-98271359D02*
X137286000Y-98578641D01*
X136526000Y-98271359D02*
X136526000Y-98578641D01*
%TO.C,R48*%
X125856000Y-120485641D02*
X125856000Y-120178359D01*
X125096000Y-120485641D02*
X125096000Y-120178359D01*
%TO.C,C29*%
X129180000Y-148101164D02*
X129180000Y-148316836D01*
X129900000Y-148101164D02*
X129900000Y-148316836D01*
%TO.C,R38*%
X153463359Y-120837000D02*
X153770641Y-120837000D01*
X153463359Y-120077000D02*
X153770641Y-120077000D01*
%TO.C,C34*%
X117755000Y-143409000D02*
X117755000Y-144609000D01*
X122275000Y-144473437D02*
X121210563Y-143409000D01*
X122275000Y-146864563D02*
X121210563Y-147929000D01*
X122275000Y-144473437D02*
X122275000Y-144609000D01*
X117755000Y-147929000D02*
X117755000Y-146729000D01*
X121210563Y-147929000D02*
X117755000Y-147929000D01*
X122765000Y-147479000D02*
X122765000Y-146979000D01*
X122275000Y-146864563D02*
X122275000Y-146729000D01*
X121210563Y-143409000D02*
X117755000Y-143409000D01*
X123015000Y-147229000D02*
X122515000Y-147229000D01*
%TO.C,R49*%
X115289359Y-131954000D02*
X115596641Y-131954000D01*
X115289359Y-132714000D02*
X115596641Y-132714000D01*
%TO.C,U4*%
X147785000Y-129220000D02*
X147785000Y-131170000D01*
X156655000Y-129220000D02*
X156655000Y-131170000D01*
X147785000Y-129220000D02*
X147785000Y-127270000D01*
X156655000Y-129220000D02*
X156655000Y-125770000D01*
%TO.C,C46*%
X126378580Y-112266000D02*
X126097420Y-112266000D01*
X126378580Y-113286000D02*
X126097420Y-113286000D01*
%TO.C,R19*%
X153364000Y-134705641D02*
X153364000Y-134398359D01*
X154124000Y-134705641D02*
X154124000Y-134398359D01*
%TO.C,R39*%
X154733359Y-119567000D02*
X155040641Y-119567000D01*
X154733359Y-118807000D02*
X155040641Y-118807000D01*
%TO.C,C41*%
X127510000Y-120456420D02*
X127510000Y-120737580D01*
X126490000Y-120456420D02*
X126490000Y-120737580D01*
%TO.C,C1*%
X137266000Y-111652164D02*
X137266000Y-111867836D01*
X136546000Y-111652164D02*
X136546000Y-111867836D01*
%TO.C,C13*%
X135350000Y-111652164D02*
X135350000Y-111867836D01*
X136070000Y-111652164D02*
X136070000Y-111867836D01*
%TO.C,C26*%
X150578252Y-140369000D02*
X150055748Y-140369000D01*
X150578252Y-138899000D02*
X150055748Y-138899000D01*
%TO.C,C39*%
X121179000Y-113772836D02*
X121179000Y-113557164D01*
X121899000Y-113772836D02*
X121899000Y-113557164D01*
%TO.C,C17*%
X136511420Y-140591000D02*
X136792580Y-140591000D01*
X136511420Y-139571000D02*
X136792580Y-139571000D01*
%TO.C,R29*%
X148536000Y-137120641D02*
X148536000Y-136813359D01*
X147776000Y-137120641D02*
X147776000Y-136813359D01*
%TO.C,C43*%
X152747164Y-125008000D02*
X152962836Y-125008000D01*
X152747164Y-124288000D02*
X152962836Y-124288000D01*
%TO.C,R27*%
X151930641Y-137855000D02*
X151623359Y-137855000D01*
X151930641Y-137095000D02*
X151623359Y-137095000D01*
%TO.C,R26*%
X125856000Y-125375641D02*
X125856000Y-125068359D01*
X125096000Y-125375641D02*
X125096000Y-125068359D01*
%TO.C,R33*%
X113590000Y-121654352D02*
X113590000Y-121961634D01*
X112830000Y-121654352D02*
X112830000Y-121961634D01*
%TO.C,C16*%
X128822580Y-90803000D02*
X128541420Y-90803000D01*
X128822580Y-91823000D02*
X128541420Y-91823000D01*
%TO.C,D5*%
X114043000Y-139447000D02*
X114043000Y-142747000D01*
X114043000Y-142747000D02*
X119443000Y-142747000D01*
X114043000Y-139447000D02*
X119443000Y-139447000D01*
%TO.C,R20*%
X158457500Y-132577258D02*
X158457500Y-132102742D01*
X157412500Y-132577258D02*
X157412500Y-132102742D01*
%TO.C,R14*%
X136907000Y-124179359D02*
X136907000Y-124486641D01*
X137667000Y-124179359D02*
X137667000Y-124486641D01*
%TO.C,D6*%
X120843000Y-138810000D02*
X120843000Y-135510000D01*
X120843000Y-135510000D02*
X115443000Y-135510000D01*
X120843000Y-138810000D02*
X115443000Y-138810000D01*
%TO.C,R35*%
X134111000Y-122655359D02*
X134111000Y-122962641D01*
X133351000Y-122655359D02*
X133351000Y-122962641D01*
%TO.C,R42*%
X156285000Y-120811359D02*
X156285000Y-121118641D01*
X157045000Y-120811359D02*
X157045000Y-121118641D01*
%TO.C,C11*%
X128377836Y-106532000D02*
X128162164Y-106532000D01*
X128377836Y-105812000D02*
X128162164Y-105812000D01*
%TO.C,C40*%
X123463164Y-117708000D02*
X123678836Y-117708000D01*
X123463164Y-116988000D02*
X123678836Y-116988000D01*
%TO.C,C5*%
X140735164Y-106336000D02*
X140950836Y-106336000D01*
X140735164Y-105616000D02*
X140950836Y-105616000D01*
%TO.C,C25*%
X126490000Y-124077580D02*
X126490000Y-123796420D01*
X127510000Y-124077580D02*
X127510000Y-123796420D01*
%TO.C,C9*%
X140862164Y-102637000D02*
X141077836Y-102637000D01*
X140862164Y-103357000D02*
X141077836Y-103357000D01*
%TO.C,R25*%
X146277641Y-125536000D02*
X145970359Y-125536000D01*
X146277641Y-124776000D02*
X145970359Y-124776000D01*
%TO.C,C18*%
X155889420Y-136838000D02*
X156170580Y-136838000D01*
X155889420Y-137858000D02*
X156170580Y-137858000D01*
%TO.C,C23*%
X155414164Y-134404000D02*
X155629836Y-134404000D01*
X155414164Y-133684000D02*
X155629836Y-133684000D01*
%TO.C,R30*%
X146277641Y-132396000D02*
X145970359Y-132396000D01*
X146277641Y-133156000D02*
X145970359Y-133156000D01*
%TO.C,R16*%
X149706359Y-147450000D02*
X150013641Y-147450000D01*
X149706359Y-148210000D02*
X150013641Y-148210000D01*
%TO.C,R40*%
X155015000Y-120811359D02*
X155015000Y-121118641D01*
X155775000Y-120811359D02*
X155775000Y-121118641D01*
%TO.C,C35*%
X134606420Y-129411000D02*
X134887580Y-129411000D01*
X134606420Y-130431000D02*
X134887580Y-130431000D01*
%TO.C,C3*%
X132990000Y-97516836D02*
X132990000Y-97301164D01*
X133710000Y-97516836D02*
X133710000Y-97301164D01*
%TO.C,R7*%
X135088000Y-114623641D02*
X135088000Y-114316359D01*
X134328000Y-114623641D02*
X134328000Y-114316359D01*
%TO.C,C38*%
X117074836Y-119105000D02*
X116859164Y-119105000D01*
X117074836Y-118385000D02*
X116859164Y-118385000D01*
D11*
%TO.C,S1*%
X124724000Y-89318000D02*
X124724000Y-86958000D01*
X119624000Y-86958000D02*
X119624000Y-89318000D01*
X124424000Y-85588000D02*
X119924000Y-85588000D01*
X124424000Y-90688000D02*
X119924000Y-90688000D01*
D13*
X118024000Y-86263000D02*
G75*
G03*
X118024000Y-86263000I-100000J0D01*
G01*
D12*
%TO.C,J5*%
X156490000Y-108685000D02*
X156490000Y-107355000D01*
X156490000Y-109955000D02*
X156490000Y-115095000D01*
X156490000Y-109955000D02*
X159150000Y-109955000D01*
X159150000Y-109955000D02*
X159150000Y-115095000D01*
X156490000Y-107355000D02*
X157820000Y-107355000D01*
X156490000Y-115095000D02*
X159150000Y-115095000D01*
%TO.C,C49*%
X112660000Y-124819420D02*
X112660000Y-125100580D01*
X113680000Y-124819420D02*
X113680000Y-125100580D01*
%TO.C,R5*%
X119530359Y-93092000D02*
X119837641Y-93092000D01*
X119530359Y-92332000D02*
X119837641Y-92332000D01*
%TO.C,C24*%
X145106000Y-127174420D02*
X145106000Y-127455580D01*
X146126000Y-127174420D02*
X146126000Y-127455580D01*
%TO.C,C7*%
X156593000Y-99725420D02*
X156593000Y-100006580D01*
X155573000Y-99725420D02*
X155573000Y-100006580D01*
%TO.C,D3*%
X121663000Y-139447000D02*
X127063000Y-139447000D01*
X121663000Y-139447000D02*
X121663000Y-142747000D01*
X121663000Y-142747000D02*
X127063000Y-142747000D01*
%TO.C,R43*%
X156074258Y-123392500D02*
X155599742Y-123392500D01*
X156074258Y-122347500D02*
X155599742Y-122347500D01*
%TO.C,C36*%
X126598000Y-148101164D02*
X126598000Y-148316836D01*
X125878000Y-148101164D02*
X125878000Y-148316836D01*
%TO.C,C47*%
X119562164Y-128300000D02*
X119777836Y-128300000D01*
X119562164Y-127580000D02*
X119777836Y-127580000D01*
%TO.C,R24*%
X158457500Y-129330258D02*
X158457500Y-128855742D01*
X157412500Y-129330258D02*
X157412500Y-128855742D01*
%TD*%
%LPC*%
D14*
%TO.C,C33*%
X133972000Y-132461000D03*
X135522000Y-132461000D03*
%TD*%
D15*
%TO.C,R31*%
X118364000Y-111631000D03*
X118364000Y-112651000D03*
%TD*%
D16*
%TO.C,C30*%
X145616000Y-131392000D03*
X145616000Y-129842000D03*
%TD*%
D17*
%TO.C,C45*%
X144905000Y-122758000D03*
X143355000Y-122758000D03*
%TD*%
D18*
%TO.C,R18*%
X122936000Y-130939000D03*
X122936000Y-129919000D03*
%TD*%
D19*
%TO.C,R54*%
X127013000Y-109405000D03*
X127013000Y-111055000D03*
%TD*%
D20*
%TO.C,C27*%
X149525000Y-133792000D03*
X148565000Y-133792000D03*
%TD*%
D21*
%TO.C,R52*%
X143305000Y-119202000D03*
X144955000Y-119202000D03*
%TD*%
D20*
%TO.C,C48*%
X121257000Y-118872000D03*
X120297000Y-118872000D03*
%TD*%
D15*
%TO.C,R17*%
X149553000Y-122360000D03*
X149553000Y-123380000D03*
%TD*%
D20*
%TO.C,C14*%
X132480000Y-111620000D03*
X131520000Y-111620000D03*
%TD*%
D22*
%TO.C,C51*%
X145415000Y-146657000D03*
X145415000Y-145697000D03*
%TD*%
D23*
%TO.C,C8*%
X140109000Y-101538490D03*
X141069000Y-101538490D03*
%TD*%
D18*
%TO.C,R57*%
X114620000Y-125990000D03*
X114620000Y-124970000D03*
%TD*%
D21*
%TO.C,R21*%
X155205000Y-135568000D03*
X156855000Y-135568000D03*
%TD*%
D24*
%TO.C,R13*%
X121158000Y-132357500D03*
X121158000Y-130532500D03*
%TD*%
D23*
%TO.C,C15*%
X131480000Y-117240000D03*
X132440000Y-117240000D03*
%TD*%
D25*
%TO.C,S2*%
X149245000Y-114032500D03*
X149245000Y-108032500D03*
X152995000Y-114032500D03*
X152995000Y-108032500D03*
%TD*%
D15*
%TO.C,R41*%
X119888000Y-115441000D03*
X119888000Y-116461000D03*
%TD*%
D16*
%TO.C,C22*%
X124460000Y-132220000D03*
X124460000Y-130670000D03*
%TD*%
D15*
%TO.C,R6*%
X122257000Y-91692000D03*
X122257000Y-92712000D03*
%TD*%
D18*
%TO.C,R2*%
X138000000Y-94353000D03*
X138000000Y-93333000D03*
%TD*%
D26*
%TO.C,R47*%
X155012000Y-124392000D03*
X156032000Y-124392000D03*
%TD*%
D27*
%TO.C,R53*%
X144955000Y-120980000D03*
X143305000Y-120980000D03*
%TD*%
D28*
%TO.C,U2*%
X153829000Y-102166000D03*
D29*
X147529000Y-99866000D03*
D28*
X153829000Y-99866000D03*
X153829000Y-97566000D03*
%TD*%
D30*
%TO.C,J2*%
X139112000Y-90042500D03*
X133332000Y-90042500D03*
D31*
X139472000Y-91487500D03*
X138672000Y-91487500D03*
D32*
X137472000Y-91487500D03*
X136472000Y-91487500D03*
X135972000Y-91487500D03*
X134972000Y-91487500D03*
D31*
X132972000Y-91487500D03*
X133772000Y-91487500D03*
D32*
X134472000Y-91487500D03*
X135472000Y-91487500D03*
X136972000Y-91487500D03*
X137972000Y-91487500D03*
D33*
X140542000Y-90572500D03*
X131902000Y-90572500D03*
X140542000Y-86392500D03*
X131902000Y-86392500D03*
%TD*%
D34*
%TO.C,J4*%
X113157000Y-88026000D03*
D35*
X113157000Y-90566000D03*
X113157000Y-93106000D03*
X113157000Y-95646000D03*
X113157000Y-98186000D03*
X113157000Y-100726000D03*
X113157000Y-103266000D03*
X113157000Y-105806000D03*
%TD*%
D23*
%TO.C,C31*%
X133759000Y-135001000D03*
X134719000Y-135001000D03*
%TD*%
D26*
%TO.C,R10*%
X120140000Y-133858000D03*
X121160000Y-133858000D03*
%TD*%
D36*
%TO.C,U6*%
X116332000Y-125792000D03*
X117602000Y-125792000D03*
X118872000Y-125792000D03*
X120142000Y-125792000D03*
X121412000Y-125792000D03*
X122682000Y-125792000D03*
X123952000Y-125792000D03*
X123952000Y-120842000D03*
X122682000Y-120842000D03*
X121412000Y-120842000D03*
X120142000Y-120842000D03*
X118872000Y-120842000D03*
X117602000Y-120842000D03*
X116332000Y-120842000D03*
%TD*%
D37*
%TO.C,Y1*%
X131103000Y-113200000D03*
X131103000Y-115400000D03*
X132803000Y-115400000D03*
X132803000Y-113200000D03*
%TD*%
D38*
%TO.C,D4*%
X127063000Y-137160000D03*
X123063000Y-137160000D03*
%TD*%
D27*
%TO.C,R34*%
X118137000Y-114427000D03*
X116487000Y-114427000D03*
%TD*%
D15*
%TO.C,R44*%
X153470000Y-121880000D03*
X153470000Y-122900000D03*
%TD*%
D39*
%TO.C,U5*%
X139436000Y-147706000D03*
D40*
X139436000Y-145166000D03*
X139436000Y-142626000D03*
X139436000Y-140086000D03*
X139436000Y-137546000D03*
X139436000Y-135006000D03*
X139436000Y-132466000D03*
X139436000Y-129926000D03*
X139436000Y-127386000D03*
X139436000Y-124846000D03*
X139436000Y-122306000D03*
X139436000Y-119766000D03*
X131816000Y-119766000D03*
X131816000Y-122306000D03*
X131816000Y-124846000D03*
X131816000Y-127386000D03*
X131816000Y-129926000D03*
X131816000Y-132466000D03*
X131816000Y-135006000D03*
X131816000Y-137546000D03*
X131816000Y-140086000D03*
X131816000Y-142626000D03*
X131816000Y-145166000D03*
X131816000Y-147706000D03*
%TD*%
D19*
%TO.C,R45*%
X121539000Y-115569992D03*
X121539000Y-117219992D03*
%TD*%
D22*
%TO.C,C50*%
X154410000Y-143575000D03*
X154410000Y-142615000D03*
%TD*%
D41*
%TO.C,FB1*%
X128316500Y-146177000D03*
X126191500Y-146177000D03*
%TD*%
D14*
%TO.C,C37*%
X133972000Y-127381000D03*
X135522000Y-127381000D03*
%TD*%
D15*
%TO.C,R32*%
X117983000Y-116330000D03*
X117983000Y-117350000D03*
%TD*%
D42*
%TO.C,C42*%
X117680000Y-128651000D03*
X114730000Y-128651000D03*
%TD*%
D43*
%TO.C,D2*%
X157537000Y-95389000D03*
X157537000Y-91389000D03*
%TD*%
D19*
%TO.C,R50*%
X117729000Y-131001000D03*
X117729000Y-132651000D03*
%TD*%
D44*
%TO.C,C28*%
X128316500Y-147729000D03*
X128316500Y-148689000D03*
%TD*%
D14*
%TO.C,C12*%
X150355000Y-104267000D03*
X151905000Y-104267000D03*
%TD*%
D45*
%TO.C,U3*%
X122257000Y-94615000D03*
X122257000Y-95885000D03*
X122257000Y-97155000D03*
X122257000Y-98425000D03*
X129457000Y-98425000D03*
X129457000Y-97155000D03*
X129457000Y-95885000D03*
X129457000Y-94615000D03*
%TD*%
D46*
%TO.C,R8*%
X156286000Y-138999000D03*
X155266000Y-138999000D03*
%TD*%
D47*
%TO.C,R15*%
X137160000Y-146113000D03*
X137160000Y-144463000D03*
%TD*%
D46*
%TO.C,R56*%
X115953000Y-131001000D03*
X114933000Y-131001000D03*
%TD*%
D48*
%TO.C,U7*%
X147385000Y-142305000D03*
X147385000Y-143575000D03*
X147385000Y-144845000D03*
X147385000Y-146115000D03*
X152335000Y-146115000D03*
X152335000Y-144845000D03*
X152335000Y-143575000D03*
X152335000Y-142305000D03*
%TD*%
D18*
%TO.C,R11*%
X137287000Y-128399000D03*
X137287000Y-127379000D03*
%TD*%
D15*
%TO.C,R9*%
X149680000Y-118929000D03*
X149680000Y-119949000D03*
%TD*%
%TO.C,R3*%
X135636000Y-97915000D03*
X135636000Y-98935000D03*
%TD*%
D22*
%TO.C,C19*%
X150950000Y-119919000D03*
X150950000Y-118959000D03*
%TD*%
D18*
%TO.C,R36*%
X114607000Y-122320000D03*
X114607000Y-121300000D03*
%TD*%
D26*
%TO.C,R46*%
X123031000Y-115570000D03*
X124051000Y-115570000D03*
%TD*%
D23*
%TO.C,C52*%
X149380000Y-149100000D03*
X150340000Y-149100000D03*
%TD*%
D44*
%TO.C,C20*%
X121412000Y-127960000D03*
X121412000Y-128920000D03*
%TD*%
D34*
%TO.C,J1*%
X145430000Y-107285000D03*
D35*
X145430000Y-109825000D03*
X145430000Y-112365000D03*
%TD*%
D15*
%TO.C,R37*%
X135001000Y-122299000D03*
X135001000Y-123319000D03*
%TD*%
D27*
%TO.C,R28*%
X151267000Y-135697000D03*
X149617000Y-135697000D03*
%TD*%
D22*
%TO.C,C4*%
X139319000Y-99794000D03*
X139319000Y-98834000D03*
%TD*%
D46*
%TO.C,R22*%
X149555000Y-124648000D03*
X148535000Y-124648000D03*
%TD*%
%TO.C,R55*%
X127013000Y-114427000D03*
X125993000Y-114427000D03*
%TD*%
D17*
%TO.C,C32*%
X116853000Y-112649000D03*
X115303000Y-112649000D03*
%TD*%
D22*
%TO.C,C6*%
X134493000Y-97889000D03*
X134493000Y-96929000D03*
%TD*%
D20*
%TO.C,C44*%
X152065000Y-133792000D03*
X151105000Y-133792000D03*
%TD*%
D38*
%TO.C,D1*%
X150266000Y-93770000D03*
X146266000Y-93770000D03*
%TD*%
D26*
%TO.C,R1*%
X133445000Y-93380000D03*
X134465000Y-93380000D03*
%TD*%
D49*
%TO.C,C21*%
X148029000Y-121458000D03*
X148029000Y-123008000D03*
%TD*%
D22*
%TO.C,C2*%
X138176000Y-98905000D03*
X138176000Y-97945000D03*
%TD*%
D21*
%TO.C,R23*%
X122875000Y-128270000D03*
X124525000Y-128270000D03*
%TD*%
D34*
%TO.C,J3*%
X158000000Y-144845000D03*
D35*
X158000000Y-142305000D03*
%TD*%
D20*
%TO.C,C10*%
X128849000Y-101981000D03*
X127889000Y-101981000D03*
%TD*%
D26*
%TO.C,R12*%
X150313000Y-121219000D03*
X151333000Y-121219000D03*
%TD*%
D50*
%TO.C,U1*%
X131200509Y-102375990D03*
X131200509Y-102775990D03*
X131200509Y-103175990D03*
X131200509Y-103575990D03*
X131200509Y-103975990D03*
X131200509Y-104375990D03*
X131200509Y-104775990D03*
X131200509Y-105175990D03*
X131200509Y-105575990D03*
X131200509Y-105975990D03*
X131200509Y-106375990D03*
X131200509Y-106775990D03*
X131200509Y-107175990D03*
X131200509Y-107575990D03*
D51*
X132038009Y-108413490D03*
X132438009Y-108413490D03*
X132838009Y-108413490D03*
X133238009Y-108413490D03*
X133638009Y-108413490D03*
X134038009Y-108413490D03*
X134438009Y-108413490D03*
X134838009Y-108413490D03*
X135238009Y-108413490D03*
X135638009Y-108413490D03*
X136038009Y-108413490D03*
X136438009Y-108413490D03*
X136838009Y-108413490D03*
X137238009Y-108413490D03*
D50*
X138075509Y-107575990D03*
X138075509Y-107175990D03*
X138075509Y-106775990D03*
X138075509Y-106375990D03*
X138075509Y-105975990D03*
X138075509Y-105575990D03*
X138075509Y-105175990D03*
X138075509Y-104775990D03*
X138075509Y-104375990D03*
X138075509Y-103975990D03*
X138075509Y-103575990D03*
X138075509Y-103175990D03*
X138075509Y-102775990D03*
X138075509Y-102375990D03*
D51*
X137238009Y-101538490D03*
X136838009Y-101538490D03*
X136438009Y-101538490D03*
X136038009Y-101538490D03*
X135638009Y-101538490D03*
X135238009Y-101538490D03*
X134838009Y-101538490D03*
X134438009Y-101538490D03*
X134038009Y-101538490D03*
X133638009Y-101538490D03*
X133238009Y-101538490D03*
X132838009Y-101538490D03*
X132438009Y-101538490D03*
X132038009Y-101538490D03*
D52*
X134638009Y-104975990D03*
%TD*%
D15*
%TO.C,R4*%
X136906000Y-97915000D03*
X136906000Y-98935000D03*
%TD*%
D18*
%TO.C,R48*%
X125476000Y-120842000D03*
X125476000Y-119822000D03*
%TD*%
D44*
%TO.C,C29*%
X129540000Y-147729000D03*
X129540000Y-148689000D03*
%TD*%
D26*
%TO.C,R38*%
X153107000Y-120457000D03*
X154127000Y-120457000D03*
%TD*%
D53*
%TO.C,C34*%
X121815000Y-145669000D03*
X118215000Y-145669000D03*
%TD*%
D26*
%TO.C,R49*%
X114933000Y-132334000D03*
X115953000Y-132334000D03*
%TD*%
D54*
%TO.C,U4*%
X156030000Y-126745000D03*
X154760000Y-126745000D03*
X153490000Y-126745000D03*
X152220000Y-126745000D03*
X150950000Y-126745000D03*
X149680000Y-126745000D03*
X148410000Y-126745000D03*
X148410000Y-131695000D03*
X149680000Y-131695000D03*
X150950000Y-131695000D03*
X152220000Y-131695000D03*
X153490000Y-131695000D03*
X154760000Y-131695000D03*
X156030000Y-131695000D03*
%TD*%
D17*
%TO.C,C46*%
X127013000Y-112776000D03*
X125463000Y-112776000D03*
%TD*%
D18*
%TO.C,R19*%
X153744000Y-135062000D03*
X153744000Y-134042000D03*
%TD*%
D26*
%TO.C,R39*%
X154377000Y-119187000D03*
X155397000Y-119187000D03*
%TD*%
D49*
%TO.C,C41*%
X127000000Y-119822000D03*
X127000000Y-121372000D03*
%TD*%
D44*
%TO.C,C1*%
X136906000Y-111280000D03*
X136906000Y-112240000D03*
%TD*%
%TO.C,C13*%
X135710000Y-111280000D03*
X135710000Y-112240000D03*
%TD*%
D55*
%TO.C,C26*%
X151267000Y-139634000D03*
X149367000Y-139634000D03*
%TD*%
D22*
%TO.C,C39*%
X121539000Y-114145000D03*
X121539000Y-113185000D03*
%TD*%
D14*
%TO.C,C17*%
X135877000Y-140081000D03*
X137427000Y-140081000D03*
%TD*%
D18*
%TO.C,R29*%
X148156000Y-137477000D03*
X148156000Y-136457000D03*
%TD*%
D23*
%TO.C,C43*%
X152375000Y-124648000D03*
X153335000Y-124648000D03*
%TD*%
D46*
%TO.C,R27*%
X152287000Y-137475000D03*
X151267000Y-137475000D03*
%TD*%
D18*
%TO.C,R26*%
X125476000Y-125732000D03*
X125476000Y-124712000D03*
%TD*%
D15*
%TO.C,R33*%
X113210000Y-121297993D03*
X113210000Y-122317993D03*
%TD*%
D17*
%TO.C,C16*%
X129457000Y-91313000D03*
X127907000Y-91313000D03*
%TD*%
D38*
%TO.C,D5*%
X115443000Y-141097000D03*
X119443000Y-141097000D03*
%TD*%
D47*
%TO.C,R20*%
X157935000Y-133165000D03*
X157935000Y-131515000D03*
%TD*%
D15*
%TO.C,R14*%
X137287000Y-123823000D03*
X137287000Y-124843000D03*
%TD*%
D38*
%TO.C,D6*%
X119443000Y-137160000D03*
X115443000Y-137160000D03*
%TD*%
D15*
%TO.C,R35*%
X133731000Y-122299000D03*
X133731000Y-123319000D03*
%TD*%
%TO.C,R42*%
X156665000Y-120455000D03*
X156665000Y-121475000D03*
%TD*%
D20*
%TO.C,C11*%
X128750000Y-106172000D03*
X127790000Y-106172000D03*
%TD*%
D23*
%TO.C,C40*%
X123091000Y-117348000D03*
X124051000Y-117348000D03*
%TD*%
%TO.C,C5*%
X140363000Y-105976000D03*
X141323000Y-105976000D03*
%TD*%
D16*
%TO.C,C25*%
X127000000Y-124712000D03*
X127000000Y-123162000D03*
%TD*%
D23*
%TO.C,C9*%
X140490000Y-102997000D03*
X141450000Y-102997000D03*
%TD*%
D46*
%TO.C,R25*%
X146634000Y-125156000D03*
X145614000Y-125156000D03*
%TD*%
D14*
%TO.C,C18*%
X155255000Y-137348000D03*
X156805000Y-137348000D03*
%TD*%
D23*
%TO.C,C23*%
X155042000Y-134044000D03*
X156002000Y-134044000D03*
%TD*%
D46*
%TO.C,R30*%
X146634000Y-132776000D03*
X145614000Y-132776000D03*
%TD*%
D26*
%TO.C,R16*%
X149350000Y-147830000D03*
X150370000Y-147830000D03*
%TD*%
D15*
%TO.C,R40*%
X155395000Y-120455000D03*
X155395000Y-121475000D03*
%TD*%
D14*
%TO.C,C35*%
X133972000Y-129921000D03*
X135522000Y-129921000D03*
%TD*%
D22*
%TO.C,C3*%
X133350000Y-97889000D03*
X133350000Y-96929000D03*
%TD*%
D18*
%TO.C,R7*%
X134708000Y-114980000D03*
X134708000Y-113960000D03*
%TD*%
D20*
%TO.C,C38*%
X117447000Y-118745000D03*
X116487000Y-118745000D03*
%TD*%
D56*
%TO.C,S1*%
X119174000Y-86263000D03*
X125174000Y-86263000D03*
X119174000Y-90013000D03*
X125174000Y-90013000D03*
%TD*%
D34*
%TO.C,J5*%
X157820000Y-108685000D03*
D35*
X157820000Y-111225000D03*
X157820000Y-113765000D03*
%TD*%
D49*
%TO.C,C49*%
X113170000Y-124185000D03*
X113170000Y-125735000D03*
%TD*%
D26*
%TO.C,R5*%
X119174000Y-92712000D03*
X120194000Y-92712000D03*
%TD*%
D49*
%TO.C,C24*%
X145616000Y-126540000D03*
X145616000Y-128090000D03*
%TD*%
%TO.C,C7*%
X156083000Y-99091000D03*
X156083000Y-100641000D03*
%TD*%
D38*
%TO.C,D3*%
X123063000Y-141097000D03*
X127063000Y-141097000D03*
%TD*%
D27*
%TO.C,R43*%
X156662000Y-122870000D03*
X155012000Y-122870000D03*
%TD*%
D44*
%TO.C,C36*%
X126238000Y-147729000D03*
X126238000Y-148689000D03*
%TD*%
D23*
%TO.C,C47*%
X119190000Y-127940000D03*
X120150000Y-127940000D03*
%TD*%
D47*
%TO.C,R24*%
X157935000Y-129918000D03*
X157935000Y-128268000D03*
%TD*%
M02*
