%TF.GenerationSoftware,KiCad,Pcbnew,(6.0.6)*%
%TF.CreationDate,2022-10-30T13:06:07-04:00*%
%TF.ProjectId,RP2040_AS3394,52503230-3430-45f4-9153-333339342e6b,rev?*%
%TF.SameCoordinates,Original*%
%TF.FileFunction,Copper,L1,Top*%
%TF.FilePolarity,Positive*%
%FSLAX46Y46*%
G04 Gerber Fmt 4.6, Leading zero omitted, Abs format (unit mm)*
G04 Created by KiCad (PCBNEW (6.0.6)) date 2022-10-30 13:06:07*
%MOMM*%
%LPD*%
G01*
G04 APERTURE LIST*
G04 Aperture macros list*
%AMRoundRect*
0 Rectangle with rounded corners*
0 $1 Rounding radius*
0 $2 $3 $4 $5 $6 $7 $8 $9 X,Y pos of 4 corners*
0 Add a 4 corners polygon primitive as box body*
4,1,4,$2,$3,$4,$5,$6,$7,$8,$9,$2,$3,0*
0 Add four circle primitives for the rounded corners*
1,1,$1+$1,$2,$3*
1,1,$1+$1,$4,$5*
1,1,$1+$1,$6,$7*
1,1,$1+$1,$8,$9*
0 Add four rect primitives between the rounded corners*
20,1,$1+$1,$2,$3,$4,$5,0*
20,1,$1+$1,$4,$5,$6,$7,0*
20,1,$1+$1,$6,$7,$8,$9,0*
20,1,$1+$1,$8,$9,$2,$3,0*%
G04 Aperture macros list end*
%TA.AperFunction,SMDPad,CuDef*%
%ADD10RoundRect,0.225000X-0.225000X-0.250000X0.225000X-0.250000X0.225000X0.250000X-0.225000X0.250000X0*%
%TD*%
%TA.AperFunction,SMDPad,CuDef*%
%ADD11RoundRect,0.135000X-0.185000X0.135000X-0.185000X-0.135000X0.185000X-0.135000X0.185000X0.135000X0*%
%TD*%
%TA.AperFunction,SMDPad,CuDef*%
%ADD12RoundRect,0.225000X0.250000X-0.225000X0.250000X0.225000X-0.250000X0.225000X-0.250000X-0.225000X0*%
%TD*%
%TA.AperFunction,SMDPad,CuDef*%
%ADD13RoundRect,0.225000X0.225000X0.250000X-0.225000X0.250000X-0.225000X-0.250000X0.225000X-0.250000X0*%
%TD*%
%TA.AperFunction,SMDPad,CuDef*%
%ADD14RoundRect,0.135000X0.185000X-0.135000X0.185000X0.135000X-0.185000X0.135000X-0.185000X-0.135000X0*%
%TD*%
%TA.AperFunction,SMDPad,CuDef*%
%ADD15RoundRect,0.200000X-0.275000X0.200000X-0.275000X-0.200000X0.275000X-0.200000X0.275000X0.200000X0*%
%TD*%
%TA.AperFunction,SMDPad,CuDef*%
%ADD16RoundRect,0.140000X0.140000X0.170000X-0.140000X0.170000X-0.140000X-0.170000X0.140000X-0.170000X0*%
%TD*%
%TA.AperFunction,SMDPad,CuDef*%
%ADD17RoundRect,0.200000X-0.200000X-0.275000X0.200000X-0.275000X0.200000X0.275000X-0.200000X0.275000X0*%
%TD*%
%TA.AperFunction,SMDPad,CuDef*%
%ADD18RoundRect,0.140000X0.170000X-0.140000X0.170000X0.140000X-0.170000X0.140000X-0.170000X-0.140000X0*%
%TD*%
%TA.AperFunction,SMDPad,CuDef*%
%ADD19RoundRect,0.140000X-0.140000X-0.170000X0.140000X-0.170000X0.140000X0.170000X-0.140000X0.170000X0*%
%TD*%
%TA.AperFunction,SMDPad,CuDef*%
%ADD20RoundRect,0.250000X0.450000X-0.262500X0.450000X0.262500X-0.450000X0.262500X-0.450000X-0.262500X0*%
%TD*%
%TA.AperFunction,SMDPad,CuDef*%
%ADD21R,0.750000X1.000000*%
%TD*%
%TA.AperFunction,SMDPad,CuDef*%
%ADD22RoundRect,0.135000X-0.135000X-0.185000X0.135000X-0.185000X0.135000X0.185000X-0.135000X0.185000X0*%
%TD*%
%TA.AperFunction,SMDPad,CuDef*%
%ADD23RoundRect,0.200000X0.200000X0.275000X-0.200000X0.275000X-0.200000X-0.275000X0.200000X-0.275000X0*%
%TD*%
%TA.AperFunction,SMDPad,CuDef*%
%ADD24R,2.000000X1.500000*%
%TD*%
%TA.AperFunction,SMDPad,CuDef*%
%ADD25R,2.000000X3.800000*%
%TD*%
%TA.AperFunction,SMDPad,CuDef*%
%ADD26R,0.600000X1.450000*%
%TD*%
%TA.AperFunction,SMDPad,CuDef*%
%ADD27R,0.300000X1.450000*%
%TD*%
%TA.AperFunction,ComponentPad*%
%ADD28O,1.050000X2.100000*%
%TD*%
%TA.AperFunction,ComponentPad*%
%ADD29R,1.700000X1.700000*%
%TD*%
%TA.AperFunction,ComponentPad*%
%ADD30O,1.700000X1.700000*%
%TD*%
%TA.AperFunction,SMDPad,CuDef*%
%ADD31RoundRect,0.150000X0.150000X-0.825000X0.150000X0.825000X-0.150000X0.825000X-0.150000X-0.825000X0*%
%TD*%
%TA.AperFunction,SMDPad,CuDef*%
%ADD32R,1.200000X1.400000*%
%TD*%
%TA.AperFunction,SMDPad,CuDef*%
%ADD33R,2.500000X1.800000*%
%TD*%
%TA.AperFunction,ComponentPad*%
%ADD34R,1.600000X1.600000*%
%TD*%
%TA.AperFunction,ComponentPad*%
%ADD35O,1.600000X1.600000*%
%TD*%
%TA.AperFunction,SMDPad,CuDef*%
%ADD36RoundRect,0.218750X0.218750X0.381250X-0.218750X0.381250X-0.218750X-0.381250X0.218750X-0.381250X0*%
%TD*%
%TA.AperFunction,SMDPad,CuDef*%
%ADD37RoundRect,0.250000X0.325000X0.650000X-0.325000X0.650000X-0.325000X-0.650000X0.325000X-0.650000X0*%
%TD*%
%TA.AperFunction,SMDPad,CuDef*%
%ADD38R,1.800000X2.500000*%
%TD*%
%TA.AperFunction,SMDPad,CuDef*%
%ADD39RoundRect,0.140000X-0.170000X0.140000X-0.170000X-0.140000X0.170000X-0.140000X0.170000X0.140000X0*%
%TD*%
%TA.AperFunction,SMDPad,CuDef*%
%ADD40RoundRect,0.150000X-0.650000X-0.150000X0.650000X-0.150000X0.650000X0.150000X-0.650000X0.150000X0*%
%TD*%
%TA.AperFunction,SMDPad,CuDef*%
%ADD41RoundRect,0.135000X0.135000X0.185000X-0.135000X0.185000X-0.135000X-0.185000X0.135000X-0.185000X0*%
%TD*%
%TA.AperFunction,SMDPad,CuDef*%
%ADD42RoundRect,0.200000X0.275000X-0.200000X0.275000X0.200000X-0.275000X0.200000X-0.275000X-0.200000X0*%
%TD*%
%TA.AperFunction,SMDPad,CuDef*%
%ADD43RoundRect,0.150000X-0.825000X-0.150000X0.825000X-0.150000X0.825000X0.150000X-0.825000X0.150000X0*%
%TD*%
%TA.AperFunction,SMDPad,CuDef*%
%ADD44RoundRect,0.225000X-0.250000X0.225000X-0.250000X-0.225000X0.250000X-0.225000X0.250000X0.225000X0*%
%TD*%
%TA.AperFunction,SMDPad,CuDef*%
%ADD45RoundRect,0.050000X-0.387500X-0.050000X0.387500X-0.050000X0.387500X0.050000X-0.387500X0.050000X0*%
%TD*%
%TA.AperFunction,SMDPad,CuDef*%
%ADD46RoundRect,0.050000X-0.050000X-0.387500X0.050000X-0.387500X0.050000X0.387500X-0.050000X0.387500X0*%
%TD*%
%TA.AperFunction,SMDPad,CuDef*%
%ADD47R,3.200000X3.200000*%
%TD*%
%TA.AperFunction,SMDPad,CuDef*%
%ADD48RoundRect,0.250000X1.050000X0.550000X-1.050000X0.550000X-1.050000X-0.550000X1.050000X-0.550000X0*%
%TD*%
%TA.AperFunction,SMDPad,CuDef*%
%ADD49RoundRect,0.150000X-0.150000X0.825000X-0.150000X-0.825000X0.150000X-0.825000X0.150000X0.825000X0*%
%TD*%
%TA.AperFunction,SMDPad,CuDef*%
%ADD50RoundRect,0.250000X0.250000X0.475000X-0.250000X0.475000X-0.250000X-0.475000X0.250000X-0.475000X0*%
%TD*%
%TA.AperFunction,SMDPad,CuDef*%
%ADD51R,1.000000X0.750000*%
%TD*%
%TA.AperFunction,ViaPad*%
%ADD52C,0.600000*%
%TD*%
%TA.AperFunction,ViaPad*%
%ADD53C,0.800000*%
%TD*%
%TA.AperFunction,Conductor*%
%ADD54C,0.200000*%
%TD*%
%TA.AperFunction,Conductor*%
%ADD55C,0.199898*%
%TD*%
%TA.AperFunction,Conductor*%
%ADD56C,0.254000*%
%TD*%
%TA.AperFunction,Conductor*%
%ADD57C,0.508000*%
%TD*%
%TA.AperFunction,Conductor*%
%ADD58C,0.381000*%
%TD*%
%TA.AperFunction,Conductor*%
%ADD59C,1.016000*%
%TD*%
%TA.AperFunction,Conductor*%
%ADD60C,0.250000*%
%TD*%
%TA.AperFunction,Conductor*%
%ADD61C,0.127000*%
%TD*%
%TA.AperFunction,Conductor*%
%ADD62C,0.205740*%
%TD*%
G04 APERTURE END LIST*
D10*
%TO.P,C33,1*%
%TO.N,Net-(C33-Pad1)*%
X133972000Y-132461000D03*
%TO.P,C33,2*%
%TO.N,GND*%
X135522000Y-132461000D03*
%TD*%
D11*
%TO.P,R31,1*%
%TO.N,/AS3394_PWM/Filter_Freq_PWM*%
X118364000Y-111631000D03*
%TO.P,R31,2*%
%TO.N,Net-(C32-Pad1)*%
X118364000Y-112651000D03*
%TD*%
D12*
%TO.P,C30,1*%
%TO.N,/AS3394_PWM/VCO_Freq_CV*%
X145616000Y-131392000D03*
%TO.P,C30,2*%
%TO.N,GND*%
X145616000Y-129842000D03*
%TD*%
D13*
%TO.P,C45,1*%
%TO.N,/AS3394_PWM/Pulse_Width_CV*%
X144905000Y-122758000D03*
%TO.P,C45,2*%
%TO.N,GND*%
X143355000Y-122758000D03*
%TD*%
D14*
%TO.P,R18,1*%
%TO.N,GND*%
X122936000Y-130939000D03*
%TO.P,R18,2*%
%TO.N,Net-(R18-Pad2)*%
X122936000Y-129919000D03*
%TD*%
D15*
%TO.P,R54,1*%
%TO.N,/AS3394_PWM/Filter_Res_PWM*%
X127013000Y-109405000D03*
%TO.P,R54,2*%
%TO.N,/AS3394_PWM/Filter_Res_CV*%
X127013000Y-111055000D03*
%TD*%
D16*
%TO.P,C27,1*%
%TO.N,Net-(C27-Pad1)*%
X149525000Y-133792000D03*
%TO.P,C27,2*%
%TO.N,Net-(C27-Pad2)*%
X148565000Y-133792000D03*
%TD*%
D17*
%TO.P,R52,1*%
%TO.N,/AS3394_PWM/Pulse_Width_PWM*%
X143305000Y-119202000D03*
%TO.P,R52,2*%
%TO.N,/AS3394_PWM/Pulse_Width_CV*%
X144955000Y-119202000D03*
%TD*%
D16*
%TO.P,C48,1*%
%TO.N,GND*%
X121257000Y-118872000D03*
%TO.P,C48,2*%
%TO.N,VEE*%
X120297000Y-118872000D03*
%TD*%
D11*
%TO.P,R17,1*%
%TO.N,GND*%
X149553000Y-122360000D03*
%TO.P,R17,2*%
%TO.N,Net-(R17-Pad2)*%
X149553000Y-123380000D03*
%TD*%
D16*
%TO.P,C14,1*%
%TO.N,GND*%
X132480000Y-111620000D03*
%TO.P,C14,2*%
%TO.N,/XIN*%
X131520000Y-111620000D03*
%TD*%
D18*
%TO.P,C51,1*%
%TO.N,VEE*%
X145415000Y-146657000D03*
%TO.P,C51,2*%
%TO.N,GND*%
X145415000Y-145697000D03*
%TD*%
D19*
%TO.P,C8,1*%
%TO.N,+3V3*%
X140109000Y-101538490D03*
%TO.P,C8,2*%
%TO.N,GND*%
X141069000Y-101538490D03*
%TD*%
D14*
%TO.P,R57,1*%
%TO.N,Net-(C42-Pad2)*%
X114620000Y-125990000D03*
%TO.P,R57,2*%
%TO.N,/AS3394_PWM/Mixer_Balance_CV*%
X114620000Y-124970000D03*
%TD*%
D17*
%TO.P,R21,1*%
%TO.N,Net-(C18-Pad1)*%
X155205000Y-135568000D03*
%TO.P,R21,2*%
%TO.N,Net-(C23-Pad2)*%
X156855000Y-135568000D03*
%TD*%
D20*
%TO.P,R13,1*%
%TO.N,Net-(C22-Pad1)*%
X121158000Y-132357500D03*
%TO.P,R13,2*%
%TO.N,Net-(C20-Pad1)*%
X121158000Y-130532500D03*
%TD*%
D19*
%TO.P,C15,1*%
%TO.N,GND*%
X131480000Y-117240000D03*
%TO.P,C15,2*%
%TO.N,Net-(C15-Pad2)*%
X132440000Y-117240000D03*
%TD*%
D21*
%TO.P,S2,A*%
%TO.N,/RUN*%
X149245000Y-114032500D03*
%TO.P,S2,B*%
X149245000Y-108032500D03*
%TO.P,S2,C*%
%TO.N,GND*%
X152995000Y-114032500D03*
%TO.P,S2,D*%
X152995000Y-108032500D03*
%TD*%
D11*
%TO.P,R41,1*%
%TO.N,Net-(C38-Pad2)*%
X119888000Y-115441000D03*
%TO.P,R41,2*%
%TO.N,Net-(C39-Pad1)*%
X119888000Y-116461000D03*
%TD*%
D12*
%TO.P,C22,1*%
%TO.N,Net-(C22-Pad1)*%
X124460000Y-132220000D03*
%TO.P,C22,2*%
%TO.N,Net-(C22-Pad2)*%
X124460000Y-130670000D03*
%TD*%
D11*
%TO.P,R6,1*%
%TO.N,+3V3*%
X122257000Y-91692000D03*
%TO.P,R6,2*%
%TO.N,/QSPI_SS*%
X122257000Y-92712000D03*
%TD*%
D14*
%TO.P,R2,1*%
%TO.N,GND*%
X138000000Y-94353000D03*
%TO.P,R2,2*%
%TO.N,Net-(J2-PadA5)*%
X138000000Y-93333000D03*
%TD*%
D22*
%TO.P,R47,1*%
%TO.N,Net-(R43-Pad2)*%
X155012000Y-124392000D03*
%TO.P,R47,2*%
%TO.N,/AS3394_PWM/Wave_Select_CV*%
X156032000Y-124392000D03*
%TD*%
D23*
%TO.P,R53,1*%
%TO.N,/AS3394_PWM/Pulse_Width_CV*%
X144955000Y-120980000D03*
%TO.P,R53,2*%
%TO.N,GND*%
X143305000Y-120980000D03*
%TD*%
D24*
%TO.P,U2,1,GND*%
%TO.N,GND*%
X153829000Y-102166000D03*
D25*
%TO.P,U2,2,VO*%
%TO.N,+3V3*%
X147529000Y-99866000D03*
D24*
X153829000Y-99866000D03*
%TO.P,U2,3,VI*%
%TO.N,Net-(C7-Pad1)*%
X153829000Y-97566000D03*
%TD*%
D26*
%TO.P,J2,A1B12,GND*%
%TO.N,GND*%
X139472000Y-91487500D03*
%TO.P,J2,A4B9,VBUS*%
%TO.N,Net-(D1-Pad2)*%
X138672000Y-91487500D03*
D27*
%TO.P,J2,A5,CC1*%
%TO.N,Net-(J2-PadA5)*%
X137472000Y-91487500D03*
%TO.P,J2,A6,DP1*%
%TO.N,/USB_D-*%
X136472000Y-91487500D03*
%TO.P,J2,A7,DN1*%
%TO.N,/USB_D+*%
X135972000Y-91487500D03*
%TO.P,J2,A8,SBU1*%
%TO.N,unconnected-(J2-PadA8)*%
X134972000Y-91487500D03*
D26*
%TO.P,J2,B1A12,GND*%
%TO.N,GND*%
X132972000Y-91487500D03*
%TO.P,J2,B4A9,VBUS*%
%TO.N,Net-(D1-Pad2)*%
X133772000Y-91487500D03*
D27*
%TO.P,J2,B5,CC2*%
%TO.N,Net-(J2-PadB5)*%
X134472000Y-91487500D03*
%TO.P,J2,B6,DP2*%
%TO.N,/USB_D-*%
X135472000Y-91487500D03*
%TO.P,J2,B7,DN2*%
%TO.N,/USB_D+*%
X136972000Y-91487500D03*
%TO.P,J2,B8,SBU2*%
%TO.N,unconnected-(J2-PadB8)*%
X137972000Y-91487500D03*
D28*
%TO.P,J2,S1,SHIELD*%
%TO.N,unconnected-(J2-PadS1)*%
X140542000Y-90572500D03*
%TO.P,J2,S2,SHIELD*%
%TO.N,unconnected-(J2-PadS2)*%
X131902000Y-90572500D03*
%TO.P,J2,S3,SHIELD*%
%TO.N,unconnected-(J2-PadS3)*%
X140542000Y-86392500D03*
%TO.P,J2,S4,SHIELD*%
%TO.N,unconnected-(J2-PadS4)*%
X131902000Y-86392500D03*
%TD*%
D29*
%TO.P,J4,1,Pin_1*%
%TO.N,Net-(J4-Pad1)*%
X113157000Y-88026000D03*
D30*
%TO.P,J4,2,Pin_2*%
%TO.N,Net-(J4-Pad2)*%
X113157000Y-90566000D03*
%TO.P,J4,3,Pin_3*%
%TO.N,Net-(J4-Pad3)*%
X113157000Y-93106000D03*
%TO.P,J4,4,Pin_4*%
%TO.N,Net-(J4-Pad4)*%
X113157000Y-95646000D03*
%TO.P,J4,5,Pin_5*%
%TO.N,Net-(J4-Pad5)*%
X113157000Y-98186000D03*
%TO.P,J4,6,Pin_6*%
%TO.N,Net-(J4-Pad6)*%
X113157000Y-100726000D03*
%TO.P,J4,7,Pin_7*%
%TO.N,Net-(J4-Pad7)*%
X113157000Y-103266000D03*
%TO.P,J4,8,Pin_8*%
%TO.N,Net-(J4-Pad8)*%
X113157000Y-105806000D03*
%TD*%
D19*
%TO.P,C31,1*%
%TO.N,Net-(C31-Pad1)*%
X133759000Y-135001000D03*
%TO.P,C31,2*%
%TO.N,GND*%
X134719000Y-135001000D03*
%TD*%
D22*
%TO.P,R10,1*%
%TO.N,/AS3394_PWM/Final_Gain_PWM*%
X120140000Y-133858000D03*
%TO.P,R10,2*%
%TO.N,Net-(C22-Pad1)*%
X121160000Y-133858000D03*
%TD*%
D31*
%TO.P,U6,1*%
%TO.N,Net-(C42-Pad2)*%
X116332000Y-125792000D03*
%TO.P,U6,2,-*%
%TO.N,Net-(C42-Pad1)*%
X117602000Y-125792000D03*
%TO.P,U6,3,+*%
%TO.N,GND*%
X118872000Y-125792000D03*
%TO.P,U6,4,V+*%
%TO.N,VCC*%
X120142000Y-125792000D03*
%TO.P,U6,5,+*%
%TO.N,Net-(C20-Pad1)*%
X121412000Y-125792000D03*
%TO.P,U6,6,-*%
%TO.N,Net-(R18-Pad2)*%
X122682000Y-125792000D03*
%TO.P,U6,7*%
%TO.N,Net-(C22-Pad2)*%
X123952000Y-125792000D03*
%TO.P,U6,8*%
%TO.N,Net-(C40-Pad2)*%
X123952000Y-120842000D03*
%TO.P,U6,9,-*%
%TO.N,Net-(C40-Pad1)*%
X122682000Y-120842000D03*
%TO.P,U6,10,+*%
%TO.N,GND*%
X121412000Y-120842000D03*
%TO.P,U6,11,V-*%
%TO.N,VEE*%
X120142000Y-120842000D03*
%TO.P,U6,12,+*%
%TO.N,Net-(R33-Pad2)*%
X118872000Y-120842000D03*
%TO.P,U6,13,-*%
%TO.N,Net-(C38-Pad1)*%
X117602000Y-120842000D03*
%TO.P,U6,14*%
%TO.N,Net-(C38-Pad2)*%
X116332000Y-120842000D03*
%TD*%
D32*
%TO.P,Y1,1,1*%
%TO.N,/XIN*%
X131103000Y-113200000D03*
%TO.P,Y1,2,2*%
%TO.N,GND*%
X131103000Y-115400000D03*
%TO.P,Y1,3,3*%
%TO.N,Net-(C15-Pad2)*%
X132803000Y-115400000D03*
%TO.P,Y1,4,4*%
%TO.N,GND*%
X132803000Y-113200000D03*
%TD*%
D33*
%TO.P,D4,1,K*%
%TO.N,Net-(C34-Pad1)*%
X127063000Y-137160000D03*
%TO.P,D4,2,A*%
%TO.N,Net-(D4-Pad2)*%
X123063000Y-137160000D03*
%TD*%
D23*
%TO.P,R34,1*%
%TO.N,Net-(C32-Pad1)*%
X118137000Y-114427000D03*
%TO.P,R34,2*%
%TO.N,Net-(C38-Pad2)*%
X116487000Y-114427000D03*
%TD*%
D11*
%TO.P,R44,1*%
%TO.N,VEE*%
X153470000Y-121880000D03*
%TO.P,R44,2*%
%TO.N,Net-(R43-Pad2)*%
X153470000Y-122900000D03*
%TD*%
D34*
%TO.P,U5,1,IRef*%
%TO.N,Net-(R15-Pad1)*%
X139436000Y-147706000D03*
D35*
%TO.P,U5,2,VCO_Freq_CV*%
%TO.N,/AS3394_PWM/VCO_Freq_CV*%
X139436000Y-145166000D03*
%TO.P,U5,3,Vee*%
%TO.N,VEE*%
X139436000Y-142626000D03*
%TO.P,U5,4,Ct*%
%TO.N,Net-(C17-Pad2)*%
X139436000Y-140086000D03*
%TO.P,U5,5,Pulse_Out_F/2*%
%TO.N,/AS3394_PWM/Ext_Input2*%
X139436000Y-137546000D03*
%TO.P,U5,6,Mod_Amt_CV*%
%TO.N,/AS3394_PWM/Mod_Amt_Cv*%
X139436000Y-135006000D03*
%TO.P,U5,7,Wave_Select_CV*%
%TO.N,/AS3394_PWM/Wave_Select_CV*%
X139436000Y-132466000D03*
%TO.P,U5,8,Pulse_Width_CV*%
%TO.N,/AS3394_PWM/Pulse_Width_CV*%
X139436000Y-129926000D03*
%TO.P,U5,9,Saw_Out*%
%TO.N,/AS3394_PWM/Saw_Out*%
X139436000Y-127386000D03*
%TO.P,U5,10,Wave_Out*%
%TO.N,/AS3394_PWM/Wave_Out*%
X139436000Y-124846000D03*
%TO.P,U5,11,Ext_Input1*%
X139436000Y-122306000D03*
%TO.P,U5,12,GND*%
%TO.N,GND*%
X139436000Y-119766000D03*
%TO.P,U5,13,Mixer_Balance_CV*%
%TO.N,/AS3394_PWM/Mixer_Balance_CV*%
X131816000Y-119766000D03*
%TO.P,U5,14,Ext_Input2*%
%TO.N,Net-(R35-Pad1)*%
X131816000Y-122306000D03*
%TO.P,U5,15,Filter_Res_CV*%
%TO.N,/AS3394_PWM/Filter_Res_CV*%
X131816000Y-124846000D03*
%TO.P,U5,16,C1*%
%TO.N,Net-(C37-Pad1)*%
X131816000Y-127386000D03*
%TO.P,U5,17,C2*%
%TO.N,Net-(C35-Pad1)*%
X131816000Y-129926000D03*
%TO.P,U5,18,C3*%
%TO.N,Net-(C33-Pad1)*%
X131816000Y-132466000D03*
%TO.P,U5,19,C4*%
%TO.N,Net-(C31-Pad1)*%
X131816000Y-135006000D03*
%TO.P,U5,20,Filter_Freq_CV*%
%TO.N,/AS3394_PWM/Filter_Freq_CV*%
X131816000Y-137546000D03*
%TO.P,U5,21*%
%TO.N,Net-(C34-Pad1)*%
X131816000Y-140086000D03*
%TO.P,U5,22,Final_Gain_CV*%
%TO.N,/AS3394_PWM/Final_Gain_CV*%
X131816000Y-142626000D03*
%TO.P,U5,23,Voice_Out*%
%TO.N,/AS3394_PWM/Out*%
X131816000Y-145166000D03*
%TO.P,U5,24,Vcc*%
%TO.N,Net-(C28-Pad1)*%
X131816000Y-147706000D03*
%TD*%
D15*
%TO.P,R45,1*%
%TO.N,Net-(C39-Pad1)*%
X121539000Y-115569992D03*
%TO.P,R45,2*%
%TO.N,Net-(C40-Pad1)*%
X121539000Y-117219992D03*
%TD*%
D18*
%TO.P,C50,1*%
%TO.N,VCC*%
X154410000Y-143575000D03*
%TO.P,C50,2*%
%TO.N,GND*%
X154410000Y-142615000D03*
%TD*%
D36*
%TO.P,FB1,1*%
%TO.N,Net-(C28-Pad1)*%
X128316500Y-146177000D03*
%TO.P,FB1,2*%
%TO.N,VCC*%
X126191500Y-146177000D03*
%TD*%
D10*
%TO.P,C37,1*%
%TO.N,Net-(C37-Pad1)*%
X133972000Y-127381000D03*
%TO.P,C37,2*%
%TO.N,GND*%
X135522000Y-127381000D03*
%TD*%
D11*
%TO.P,R32,1*%
%TO.N,Net-(C32-Pad1)*%
X117983000Y-116330000D03*
%TO.P,R32,2*%
%TO.N,Net-(C38-Pad1)*%
X117983000Y-117350000D03*
%TD*%
D37*
%TO.P,C42,1*%
%TO.N,Net-(C42-Pad1)*%
X117680000Y-128651000D03*
%TO.P,C42,2*%
%TO.N,Net-(C42-Pad2)*%
X114730000Y-128651000D03*
%TD*%
D38*
%TO.P,D2,1,K*%
%TO.N,Net-(C7-Pad1)*%
X157537000Y-95389000D03*
%TO.P,D2,2,A*%
%TO.N,VCC*%
X157537000Y-91389000D03*
%TD*%
D15*
%TO.P,R50,1*%
%TO.N,Net-(C42-Pad1)*%
X117729000Y-131001000D03*
%TO.P,R50,2*%
%TO.N,VEE*%
X117729000Y-132651000D03*
%TD*%
D39*
%TO.P,C28,1*%
%TO.N,Net-(C28-Pad1)*%
X128316500Y-147729000D03*
%TO.P,C28,2*%
%TO.N,GND*%
X128316500Y-148689000D03*
%TD*%
D10*
%TO.P,C12,1*%
%TO.N,+3V3*%
X150355000Y-104267000D03*
%TO.P,C12,2*%
%TO.N,GND*%
X151905000Y-104267000D03*
%TD*%
D40*
%TO.P,U3,1,~{CS}*%
%TO.N,/QSPI_SS*%
X122257000Y-94615000D03*
%TO.P,U3,2,DO(IO1)*%
%TO.N,/QSPI_SD1*%
X122257000Y-95885000D03*
%TO.P,U3,3,IO2*%
%TO.N,/QSPI_SD2*%
X122257000Y-97155000D03*
%TO.P,U3,4,GND*%
%TO.N,GND*%
X122257000Y-98425000D03*
%TO.P,U3,5,DI(IO0)*%
%TO.N,/QSPI_SD0*%
X129457000Y-98425000D03*
%TO.P,U3,6,CLK*%
%TO.N,/QSPI_SCLK*%
X129457000Y-97155000D03*
%TO.P,U3,7,IO3*%
%TO.N,/QSPI_SD3*%
X129457000Y-95885000D03*
%TO.P,U3,8,VCC*%
%TO.N,+3V3*%
X129457000Y-94615000D03*
%TD*%
D41*
%TO.P,R8,1*%
%TO.N,/AS3394_PWM/VCO_Freq_PWM*%
X156286000Y-138999000D03*
%TO.P,R8,2*%
%TO.N,Net-(C18-Pad1)*%
X155266000Y-138999000D03*
%TD*%
D42*
%TO.P,R15,1*%
%TO.N,Net-(R15-Pad1)*%
X137160000Y-146113000D03*
%TO.P,R15,2*%
%TO.N,VEE*%
X137160000Y-144463000D03*
%TD*%
D41*
%TO.P,R56,1*%
%TO.N,Net-(C42-Pad1)*%
X115953000Y-131001000D03*
%TO.P,R56,2*%
%TO.N,Net-(C42-Pad2)*%
X114933000Y-131001000D03*
%TD*%
D43*
%TO.P,U7,1,NULL*%
%TO.N,unconnected-(U7-Pad1)*%
X147385000Y-142305000D03*
%TO.P,U7,2,-*%
%TO.N,/AS3394_PWM/Out*%
X147385000Y-143575000D03*
%TO.P,U7,3,+*%
%TO.N,Net-(C52-Pad1)*%
X147385000Y-144845000D03*
%TO.P,U7,4,V-*%
%TO.N,VEE*%
X147385000Y-146115000D03*
%TO.P,U7,5,NULL*%
%TO.N,unconnected-(U7-Pad5)*%
X152335000Y-146115000D03*
%TO.P,U7,6*%
%TO.N,/AMP_OUT*%
X152335000Y-144845000D03*
%TO.P,U7,7,V+*%
%TO.N,VCC*%
X152335000Y-143575000D03*
%TO.P,U7,8,NC*%
%TO.N,unconnected-(U7-Pad8)*%
X152335000Y-142305000D03*
%TD*%
D14*
%TO.P,R11,1*%
%TO.N,GND*%
X137287000Y-128399000D03*
%TO.P,R11,2*%
%TO.N,/AS3394_PWM/Saw_Out*%
X137287000Y-127379000D03*
%TD*%
D11*
%TO.P,R9,1*%
%TO.N,/AS3394_PWM/Mod_Amt_PWM*%
X149680000Y-118929000D03*
%TO.P,R9,2*%
%TO.N,Net-(C21-Pad1)*%
X149680000Y-119949000D03*
%TD*%
%TO.P,R3,1*%
%TO.N,/USB_D+*%
X135636000Y-97915000D03*
%TO.P,R3,2*%
%TO.N,Net-(R3-Pad2)*%
X135636000Y-98935000D03*
%TD*%
D18*
%TO.P,C19,1*%
%TO.N,Net-(C19-Pad1)*%
X150950000Y-119919000D03*
%TO.P,C19,2*%
%TO.N,GND*%
X150950000Y-118959000D03*
%TD*%
D14*
%TO.P,R36,1*%
%TO.N,Net-(R33-Pad2)*%
X114607000Y-122320000D03*
%TO.P,R36,2*%
%TO.N,GND*%
X114607000Y-121300000D03*
%TD*%
D22*
%TO.P,R46,1*%
%TO.N,Net-(C39-Pad1)*%
X123031000Y-115570000D03*
%TO.P,R46,2*%
%TO.N,Net-(C40-Pad2)*%
X124051000Y-115570000D03*
%TD*%
D19*
%TO.P,C52,1*%
%TO.N,Net-(C52-Pad1)*%
X149380000Y-149100000D03*
%TO.P,C52,2*%
%TO.N,/AMP_OUT*%
X150340000Y-149100000D03*
%TD*%
D39*
%TO.P,C20,1*%
%TO.N,Net-(C20-Pad1)*%
X121412000Y-127960000D03*
%TO.P,C20,2*%
%TO.N,GND*%
X121412000Y-128920000D03*
%TD*%
D29*
%TO.P,J1,1,Pin_1*%
%TO.N,Net-(J1-Pad1)*%
X145430000Y-107285000D03*
D30*
%TO.P,J1,2,Pin_2*%
%TO.N,GND*%
X145430000Y-109825000D03*
%TO.P,J1,3,Pin_3*%
%TO.N,Net-(J1-Pad3)*%
X145430000Y-112365000D03*
%TD*%
D11*
%TO.P,R37,1*%
%TO.N,Net-(R35-Pad1)*%
X135001000Y-122299000D03*
%TO.P,R37,2*%
%TO.N,/AS3394_PWM/Ext_Input2*%
X135001000Y-123319000D03*
%TD*%
D23*
%TO.P,R28,1*%
%TO.N,Net-(C26-Pad1)*%
X151267000Y-135697000D03*
%TO.P,R28,2*%
%TO.N,Net-(C27-Pad1)*%
X149617000Y-135697000D03*
%TD*%
D18*
%TO.P,C4,1*%
%TO.N,+3V3*%
X139319000Y-99794000D03*
%TO.P,C4,2*%
%TO.N,GND*%
X139319000Y-98834000D03*
%TD*%
D41*
%TO.P,R22,1*%
%TO.N,Net-(R17-Pad2)*%
X149555000Y-124648000D03*
%TO.P,R22,2*%
%TO.N,Net-(C21-Pad2)*%
X148535000Y-124648000D03*
%TD*%
%TO.P,R55,1*%
%TO.N,/AS3394_PWM/Filter_Res_CV*%
X127013000Y-114427000D03*
%TO.P,R55,2*%
%TO.N,GND*%
X125993000Y-114427000D03*
%TD*%
D13*
%TO.P,C32,1*%
%TO.N,Net-(C32-Pad1)*%
X116853000Y-112649000D03*
%TO.P,C32,2*%
%TO.N,GND*%
X115303000Y-112649000D03*
%TD*%
D18*
%TO.P,C6,1*%
%TO.N,+3V3*%
X134493000Y-97889000D03*
%TO.P,C6,2*%
%TO.N,GND*%
X134493000Y-96929000D03*
%TD*%
D16*
%TO.P,C44,1*%
%TO.N,VEE*%
X152065000Y-133792000D03*
%TO.P,C44,2*%
%TO.N,GND*%
X151105000Y-133792000D03*
%TD*%
D33*
%TO.P,D1,1,K*%
%TO.N,Net-(C7-Pad1)*%
X150266000Y-93770000D03*
%TO.P,D1,2,A*%
%TO.N,Net-(D1-Pad2)*%
X146266000Y-93770000D03*
%TD*%
D22*
%TO.P,R1,1*%
%TO.N,GND*%
X133445000Y-93380000D03*
%TO.P,R1,2*%
%TO.N,Net-(J2-PadB5)*%
X134465000Y-93380000D03*
%TD*%
D44*
%TO.P,C21,1*%
%TO.N,Net-(C21-Pad1)*%
X148029000Y-121458000D03*
%TO.P,C21,2*%
%TO.N,Net-(C21-Pad2)*%
X148029000Y-123008000D03*
%TD*%
D18*
%TO.P,C2,1*%
%TO.N,+1V1*%
X138176000Y-98905000D03*
%TO.P,C2,2*%
%TO.N,GND*%
X138176000Y-97945000D03*
%TD*%
D17*
%TO.P,R23,1*%
%TO.N,Net-(R18-Pad2)*%
X122875000Y-128270000D03*
%TO.P,R23,2*%
%TO.N,Net-(C22-Pad2)*%
X124525000Y-128270000D03*
%TD*%
D29*
%TO.P,J3,1,Pin_1*%
%TO.N,/AMP_OUT*%
X158000000Y-144845000D03*
D30*
%TO.P,J3,2,Pin_2*%
%TO.N,GND*%
X158000000Y-142305000D03*
%TD*%
D16*
%TO.P,C10,1*%
%TO.N,+3V3*%
X128849000Y-101981000D03*
%TO.P,C10,2*%
%TO.N,GND*%
X127889000Y-101981000D03*
%TD*%
D22*
%TO.P,R12,1*%
%TO.N,Net-(C21-Pad1)*%
X150313000Y-121219000D03*
%TO.P,R12,2*%
%TO.N,Net-(C19-Pad1)*%
X151333000Y-121219000D03*
%TD*%
D45*
%TO.P,U1,1,IOVDD*%
%TO.N,+3V3*%
X131200509Y-102375990D03*
%TO.P,U1,2,GPIO0*%
%TO.N,Net-(J4-Pad1)*%
X131200509Y-102775990D03*
%TO.P,U1,3,GPIO1*%
%TO.N,Net-(J4-Pad2)*%
X131200509Y-103175990D03*
%TO.P,U1,4,GPIO2*%
%TO.N,Net-(J4-Pad3)*%
X131200509Y-103575990D03*
%TO.P,U1,5,GPIO3*%
%TO.N,Net-(J4-Pad4)*%
X131200509Y-103975990D03*
%TO.P,U1,6,GPIO4*%
%TO.N,Net-(J4-Pad5)*%
X131200509Y-104375990D03*
%TO.P,U1,7,GPIO5*%
%TO.N,Net-(J4-Pad6)*%
X131200509Y-104775990D03*
%TO.P,U1,8,GPIO6*%
%TO.N,Net-(J4-Pad7)*%
X131200509Y-105175990D03*
%TO.P,U1,9,GPIO7*%
%TO.N,Net-(J4-Pad8)*%
X131200509Y-105575990D03*
%TO.P,U1,10,IOVDD*%
%TO.N,+3V3*%
X131200509Y-105975990D03*
%TO.P,U1,11,GPIO8*%
%TO.N,/AS3394_PWM/Filter_Freq_PWM*%
X131200509Y-106375990D03*
%TO.P,U1,12,GPIO9*%
%TO.N,unconnected-(U1-Pad12)*%
X131200509Y-106775990D03*
%TO.P,U1,13,GPIO10*%
%TO.N,/AS3394_PWM/Filter_Res_PWM*%
X131200509Y-107175990D03*
%TO.P,U1,14,GPIO11*%
%TO.N,unconnected-(U1-Pad14)*%
X131200509Y-107575990D03*
D46*
%TO.P,U1,15,GPIO12*%
%TO.N,/AS3394_PWM/Final_Gain_PWM*%
X132038009Y-108413490D03*
%TO.P,U1,16,GPIO13*%
%TO.N,unconnected-(U1-Pad16)*%
X132438009Y-108413490D03*
%TO.P,U1,17,GPIO14*%
%TO.N,/AS3394_PWM/Mixer_Balance_PWM*%
X132838009Y-108413490D03*
%TO.P,U1,18,GPIO15*%
%TO.N,unconnected-(U1-Pad18)*%
X133238009Y-108413490D03*
%TO.P,U1,19,TESTEN*%
%TO.N,GND*%
X133638009Y-108413490D03*
%TO.P,U1,20,XIN*%
%TO.N,/XIN*%
X134038009Y-108413490D03*
%TO.P,U1,21,XOUT*%
%TO.N,/XOUT*%
X134438009Y-108413490D03*
%TO.P,U1,22,IOVDD*%
%TO.N,+3V3*%
X134838009Y-108413490D03*
%TO.P,U1,23,DVDD*%
%TO.N,+1V1*%
X135238009Y-108413490D03*
%TO.P,U1,24,SWCLK*%
%TO.N,Net-(J1-Pad3)*%
X135638009Y-108413490D03*
%TO.P,U1,25,SWD*%
%TO.N,Net-(J1-Pad1)*%
X136038009Y-108413490D03*
%TO.P,U1,26,RUN*%
%TO.N,/RUN*%
X136438009Y-108413490D03*
%TO.P,U1,27,GPIO16*%
%TO.N,/AS3394_PWM/Pulse_Width_PWM*%
X136838009Y-108413490D03*
%TO.P,U1,28,GPIO17*%
%TO.N,/AS3394_PWM/Wave_Select_2*%
X137238009Y-108413490D03*
D45*
%TO.P,U1,29,GPIO18*%
%TO.N,/AS3394_PWM/Wave_Select_1*%
X138075509Y-107575990D03*
%TO.P,U1,30,GPIO19*%
%TO.N,/AS3394_PWM/Mod_Amt_PWM*%
X138075509Y-107175990D03*
%TO.P,U1,31,GPIO20*%
%TO.N,/AS3394_PWM/VCO_Freq_PWM*%
X138075509Y-106775990D03*
%TO.P,U1,32,GPIO21*%
%TO.N,unconnected-(U1-Pad32)*%
X138075509Y-106375990D03*
%TO.P,U1,33,IOVDD*%
%TO.N,+3V3*%
X138075509Y-105975990D03*
%TO.P,U1,34,GPIO22*%
%TO.N,unconnected-(U1-Pad34)*%
X138075509Y-105575990D03*
%TO.P,U1,35,GPIO23*%
%TO.N,unconnected-(U1-Pad35)*%
X138075509Y-105175990D03*
%TO.P,U1,36,GPIO24*%
%TO.N,unconnected-(U1-Pad36)*%
X138075509Y-104775990D03*
%TO.P,U1,37,GPIO25*%
%TO.N,unconnected-(U1-Pad37)*%
X138075509Y-104375990D03*
%TO.P,U1,38,GPIO26_ADC0*%
%TO.N,/AMP_OUT*%
X138075509Y-103975990D03*
%TO.P,U1,39,GPIO27_ADC1*%
%TO.N,unconnected-(U1-Pad39)*%
X138075509Y-103575990D03*
%TO.P,U1,40,GPIO28_ADC2*%
%TO.N,unconnected-(U1-Pad40)*%
X138075509Y-103175990D03*
%TO.P,U1,41,GPIO29_ADC3*%
%TO.N,unconnected-(U1-Pad41)*%
X138075509Y-102775990D03*
%TO.P,U1,42,IOVDD*%
%TO.N,+3V3*%
X138075509Y-102375990D03*
D46*
%TO.P,U1,43,ADC_AVDD*%
X137238009Y-101538490D03*
%TO.P,U1,44,VREG_IN*%
X136838009Y-101538490D03*
%TO.P,U1,45,VREG_VOUT*%
%TO.N,+1V1*%
X136438009Y-101538490D03*
%TO.P,U1,46,USB_DM*%
%TO.N,Net-(R4-Pad2)*%
X136038009Y-101538490D03*
%TO.P,U1,47,USB_DP*%
%TO.N,Net-(R3-Pad2)*%
X135638009Y-101538490D03*
%TO.P,U1,48,USB_VDD*%
%TO.N,+3V3*%
X135238009Y-101538490D03*
%TO.P,U1,49,IOVDD*%
X134838009Y-101538490D03*
%TO.P,U1,50,DVDD*%
%TO.N,+1V1*%
X134438009Y-101538490D03*
%TO.P,U1,51,QSPI_SD3*%
%TO.N,/QSPI_SD3*%
X134038009Y-101538490D03*
%TO.P,U1,52,QSPI_SCLK*%
%TO.N,/QSPI_SCLK*%
X133638009Y-101538490D03*
%TO.P,U1,53,QSPI_SD0*%
%TO.N,/QSPI_SD0*%
X133238009Y-101538490D03*
%TO.P,U1,54,QSPI_SD2*%
%TO.N,/QSPI_SD2*%
X132838009Y-101538490D03*
%TO.P,U1,55,QSPI_SD1*%
%TO.N,/QSPI_SD1*%
X132438009Y-101538490D03*
%TO.P,U1,56,QSPI_SS*%
%TO.N,/QSPI_SS*%
X132038009Y-101538490D03*
D47*
%TO.P,U1,57,GND*%
%TO.N,GND*%
X134638009Y-104975990D03*
%TD*%
D11*
%TO.P,R4,1*%
%TO.N,/USB_D-*%
X136906000Y-97915000D03*
%TO.P,R4,2*%
%TO.N,Net-(R4-Pad2)*%
X136906000Y-98935000D03*
%TD*%
D14*
%TO.P,R48,1*%
%TO.N,Net-(C40-Pad2)*%
X125476000Y-120842000D03*
%TO.P,R48,2*%
%TO.N,/AS3394_PWM/Filter_Freq_CV*%
X125476000Y-119822000D03*
%TD*%
D39*
%TO.P,C29,1*%
%TO.N,Net-(C28-Pad1)*%
X129540000Y-147729000D03*
%TO.P,C29,2*%
%TO.N,GND*%
X129540000Y-148689000D03*
%TD*%
D22*
%TO.P,R38,1*%
%TO.N,GND*%
X153107000Y-120457000D03*
%TO.P,R38,2*%
%TO.N,Net-(R38-Pad2)*%
X154127000Y-120457000D03*
%TD*%
D48*
%TO.P,C34,1*%
%TO.N,Net-(C34-Pad1)*%
X121815000Y-145669000D03*
%TO.P,C34,2*%
%TO.N,GND*%
X118215000Y-145669000D03*
%TD*%
D22*
%TO.P,R49,1*%
%TO.N,/AS3394_PWM/Mixer_Balance_PWM*%
X114933000Y-132334000D03*
%TO.P,R49,2*%
%TO.N,Net-(C42-Pad1)*%
X115953000Y-132334000D03*
%TD*%
D49*
%TO.P,U4,1*%
%TO.N,/AS3394_PWM/Wave_Select_CV*%
X156030000Y-126745000D03*
%TO.P,U4,2,-*%
%TO.N,Net-(R43-Pad2)*%
X154760000Y-126745000D03*
%TO.P,U4,3,+*%
%TO.N,GND*%
X153490000Y-126745000D03*
%TO.P,U4,4,V+*%
%TO.N,VCC*%
X152220000Y-126745000D03*
%TO.P,U4,5,+*%
%TO.N,Net-(C19-Pad1)*%
X150950000Y-126745000D03*
%TO.P,U4,6,-*%
%TO.N,Net-(R17-Pad2)*%
X149680000Y-126745000D03*
%TO.P,U4,7*%
%TO.N,Net-(C21-Pad2)*%
X148410000Y-126745000D03*
%TO.P,U4,8*%
%TO.N,Net-(C27-Pad2)*%
X148410000Y-131695000D03*
%TO.P,U4,9,-*%
%TO.N,Net-(C27-Pad1)*%
X149680000Y-131695000D03*
%TO.P,U4,10,+*%
%TO.N,GND*%
X150950000Y-131695000D03*
%TO.P,U4,11,V-*%
%TO.N,VEE*%
X152220000Y-131695000D03*
%TO.P,U4,12,+*%
%TO.N,Net-(R20-Pad2)*%
X153490000Y-131695000D03*
%TO.P,U4,13,-*%
%TO.N,Net-(C23-Pad1)*%
X154760000Y-131695000D03*
%TO.P,U4,14*%
%TO.N,Net-(C23-Pad2)*%
X156030000Y-131695000D03*
%TD*%
D13*
%TO.P,C46,1*%
%TO.N,/AS3394_PWM/Filter_Res_CV*%
X127013000Y-112776000D03*
%TO.P,C46,2*%
%TO.N,GND*%
X125463000Y-112776000D03*
%TD*%
D14*
%TO.P,R19,1*%
%TO.N,Net-(C18-Pad1)*%
X153744000Y-135062000D03*
%TO.P,R19,2*%
%TO.N,Net-(C23-Pad1)*%
X153744000Y-134042000D03*
%TD*%
D22*
%TO.P,R39,1*%
%TO.N,/AS3394_PWM/Wave_Select_2*%
X154377000Y-119187000D03*
%TO.P,R39,2*%
%TO.N,Net-(R38-Pad2)*%
X155397000Y-119187000D03*
%TD*%
D44*
%TO.P,C41,1*%
%TO.N,/AS3394_PWM/Filter_Freq_CV*%
X127000000Y-119822000D03*
%TO.P,C41,2*%
%TO.N,GND*%
X127000000Y-121372000D03*
%TD*%
D39*
%TO.P,C1,1*%
%TO.N,+1V1*%
X136906000Y-111280000D03*
%TO.P,C1,2*%
%TO.N,GND*%
X136906000Y-112240000D03*
%TD*%
%TO.P,C13,1*%
%TO.N,+3V3*%
X135710000Y-111280000D03*
%TO.P,C13,2*%
%TO.N,GND*%
X135710000Y-112240000D03*
%TD*%
D50*
%TO.P,C26,1*%
%TO.N,Net-(C26-Pad1)*%
X151267000Y-139634000D03*
%TO.P,C26,2*%
%TO.N,GND*%
X149367000Y-139634000D03*
%TD*%
D18*
%TO.P,C39,1*%
%TO.N,Net-(C39-Pad1)*%
X121539000Y-114145000D03*
%TO.P,C39,2*%
%TO.N,GND*%
X121539000Y-113185000D03*
%TD*%
D10*
%TO.P,C17,1*%
%TO.N,GND*%
X135877000Y-140081000D03*
%TO.P,C17,2*%
%TO.N,Net-(C17-Pad2)*%
X137427000Y-140081000D03*
%TD*%
D14*
%TO.P,R29,1*%
%TO.N,Net-(C26-Pad1)*%
X148156000Y-137477000D03*
%TO.P,R29,2*%
%TO.N,Net-(C27-Pad2)*%
X148156000Y-136457000D03*
%TD*%
D19*
%TO.P,C43,1*%
%TO.N,VCC*%
X152375000Y-124648000D03*
%TO.P,C43,2*%
%TO.N,GND*%
X153335000Y-124648000D03*
%TD*%
D41*
%TO.P,R27,1*%
%TO.N,Net-(C23-Pad2)*%
X152287000Y-137475000D03*
%TO.P,R27,2*%
%TO.N,Net-(C26-Pad1)*%
X151267000Y-137475000D03*
%TD*%
D14*
%TO.P,R26,1*%
%TO.N,Net-(C22-Pad2)*%
X125476000Y-125732000D03*
%TO.P,R26,2*%
%TO.N,/AS3394_PWM/Final_Gain_CV*%
X125476000Y-124712000D03*
%TD*%
D11*
%TO.P,R33,1*%
%TO.N,VCC*%
X113210000Y-121297993D03*
%TO.P,R33,2*%
%TO.N,Net-(R33-Pad2)*%
X113210000Y-122317993D03*
%TD*%
D13*
%TO.P,C16,1*%
%TO.N,+3V3*%
X129457000Y-91313000D03*
%TO.P,C16,2*%
%TO.N,GND*%
X127907000Y-91313000D03*
%TD*%
D33*
%TO.P,D5,1,K*%
%TO.N,GND*%
X115443000Y-141097000D03*
%TO.P,D5,2,A*%
%TO.N,Net-(D3-Pad1)*%
X119443000Y-141097000D03*
%TD*%
D42*
%TO.P,R20,1*%
%TO.N,VCC*%
X157935000Y-133165000D03*
%TO.P,R20,2*%
%TO.N,Net-(R20-Pad2)*%
X157935000Y-131515000D03*
%TD*%
D11*
%TO.P,R14,1*%
%TO.N,GND*%
X137287000Y-123823000D03*
%TO.P,R14,2*%
%TO.N,/AS3394_PWM/Wave_Out*%
X137287000Y-124843000D03*
%TD*%
D33*
%TO.P,D6,1,K*%
%TO.N,Net-(D4-Pad2)*%
X119443000Y-137160000D03*
%TO.P,D6,2,A*%
%TO.N,GND*%
X115443000Y-137160000D03*
%TD*%
D11*
%TO.P,R35,1*%
%TO.N,Net-(R35-Pad1)*%
X133731000Y-122299000D03*
%TO.P,R35,2*%
%TO.N,GND*%
X133731000Y-123319000D03*
%TD*%
%TO.P,R42,1*%
%TO.N,/AS3394_PWM/Wave_Select_1*%
X156665000Y-120455000D03*
%TO.P,R42,2*%
%TO.N,Net-(R40-Pad2)*%
X156665000Y-121475000D03*
%TD*%
D16*
%TO.P,C11,1*%
%TO.N,+3V3*%
X128750000Y-106172000D03*
%TO.P,C11,2*%
%TO.N,GND*%
X127790000Y-106172000D03*
%TD*%
D19*
%TO.P,C40,1*%
%TO.N,Net-(C40-Pad1)*%
X123091000Y-117348000D03*
%TO.P,C40,2*%
%TO.N,Net-(C40-Pad2)*%
X124051000Y-117348000D03*
%TD*%
%TO.P,C5,1*%
%TO.N,+3V3*%
X140363000Y-105976000D03*
%TO.P,C5,2*%
%TO.N,GND*%
X141323000Y-105976000D03*
%TD*%
D12*
%TO.P,C25,1*%
%TO.N,/AS3394_PWM/Final_Gain_CV*%
X127000000Y-124712000D03*
%TO.P,C25,2*%
%TO.N,GND*%
X127000000Y-123162000D03*
%TD*%
D19*
%TO.P,C9,1*%
%TO.N,+3V3*%
X140490000Y-102997000D03*
%TO.P,C9,2*%
%TO.N,GND*%
X141450000Y-102997000D03*
%TD*%
D41*
%TO.P,R25,1*%
%TO.N,Net-(C21-Pad2)*%
X146634000Y-125156000D03*
%TO.P,R25,2*%
%TO.N,/AS3394_PWM/Mod_Amt_Cv*%
X145614000Y-125156000D03*
%TD*%
D10*
%TO.P,C18,1*%
%TO.N,Net-(C18-Pad1)*%
X155255000Y-137348000D03*
%TO.P,C18,2*%
%TO.N,GND*%
X156805000Y-137348000D03*
%TD*%
D19*
%TO.P,C23,1*%
%TO.N,Net-(C23-Pad1)*%
X155042000Y-134044000D03*
%TO.P,C23,2*%
%TO.N,Net-(C23-Pad2)*%
X156002000Y-134044000D03*
%TD*%
D41*
%TO.P,R30,1*%
%TO.N,Net-(C27-Pad2)*%
X146634000Y-132776000D03*
%TO.P,R30,2*%
%TO.N,/AS3394_PWM/VCO_Freq_CV*%
X145614000Y-132776000D03*
%TD*%
D22*
%TO.P,R16,1*%
%TO.N,Net-(C52-Pad1)*%
X149350000Y-147830000D03*
%TO.P,R16,2*%
%TO.N,/AMP_OUT*%
X150370000Y-147830000D03*
%TD*%
D11*
%TO.P,R40,1*%
%TO.N,Net-(R38-Pad2)*%
X155395000Y-120455000D03*
%TO.P,R40,2*%
%TO.N,Net-(R40-Pad2)*%
X155395000Y-121475000D03*
%TD*%
D10*
%TO.P,C35,1*%
%TO.N,Net-(C35-Pad1)*%
X133972000Y-129921000D03*
%TO.P,C35,2*%
%TO.N,GND*%
X135522000Y-129921000D03*
%TD*%
D18*
%TO.P,C3,1*%
%TO.N,+1V1*%
X133350000Y-97889000D03*
%TO.P,C3,2*%
%TO.N,GND*%
X133350000Y-96929000D03*
%TD*%
D14*
%TO.P,R7,1*%
%TO.N,Net-(C15-Pad2)*%
X134708000Y-114980000D03*
%TO.P,R7,2*%
%TO.N,/XOUT*%
X134708000Y-113960000D03*
%TD*%
D16*
%TO.P,C38,1*%
%TO.N,Net-(C38-Pad1)*%
X117447000Y-118745000D03*
%TO.P,C38,2*%
%TO.N,Net-(C38-Pad2)*%
X116487000Y-118745000D03*
%TD*%
D51*
%TO.P,S1,A*%
%TO.N,GND*%
X119174000Y-86263000D03*
%TO.P,S1,B*%
X125174000Y-86263000D03*
%TO.P,S1,C*%
%TO.N,/~{USB_BOOT}*%
X119174000Y-90013000D03*
%TO.P,S1,D*%
X125174000Y-90013000D03*
%TD*%
D29*
%TO.P,J5,1,Pin_1*%
%TO.N,VCC*%
X157820000Y-108685000D03*
D30*
%TO.P,J5,2,Pin_2*%
%TO.N,GND*%
X157820000Y-111225000D03*
%TO.P,J5,3,Pin_3*%
%TO.N,VEE*%
X157820000Y-113765000D03*
%TD*%
D44*
%TO.P,C49,1*%
%TO.N,/AS3394_PWM/Mixer_Balance_CV*%
X113170000Y-124185000D03*
%TO.P,C49,2*%
%TO.N,GND*%
X113170000Y-125735000D03*
%TD*%
D22*
%TO.P,R5,1*%
%TO.N,/~{USB_BOOT}*%
X119174000Y-92712000D03*
%TO.P,R5,2*%
%TO.N,/QSPI_SS*%
X120194000Y-92712000D03*
%TD*%
D44*
%TO.P,C24,1*%
%TO.N,/AS3394_PWM/Mod_Amt_Cv*%
X145616000Y-126540000D03*
%TO.P,C24,2*%
%TO.N,GND*%
X145616000Y-128090000D03*
%TD*%
%TO.P,C7,1*%
%TO.N,Net-(C7-Pad1)*%
X156083000Y-99091000D03*
%TO.P,C7,2*%
%TO.N,GND*%
X156083000Y-100641000D03*
%TD*%
D33*
%TO.P,D3,1,K*%
%TO.N,Net-(D3-Pad1)*%
X123063000Y-141097000D03*
%TO.P,D3,2,A*%
%TO.N,Net-(C34-Pad1)*%
X127063000Y-141097000D03*
%TD*%
D23*
%TO.P,R43,1*%
%TO.N,Net-(R40-Pad2)*%
X156662000Y-122870000D03*
%TO.P,R43,2*%
%TO.N,Net-(R43-Pad2)*%
X155012000Y-122870000D03*
%TD*%
D39*
%TO.P,C36,1*%
%TO.N,VCC*%
X126238000Y-147729000D03*
%TO.P,C36,2*%
%TO.N,GND*%
X126238000Y-148689000D03*
%TD*%
D19*
%TO.P,C47,1*%
%TO.N,GND*%
X119190000Y-127940000D03*
%TO.P,C47,2*%
%TO.N,VCC*%
X120150000Y-127940000D03*
%TD*%
D42*
%TO.P,R24,1*%
%TO.N,Net-(R20-Pad2)*%
X157935000Y-129918000D03*
%TO.P,R24,2*%
%TO.N,GND*%
X157935000Y-128268000D03*
%TD*%
D52*
%TO.N,GND*%
X158130000Y-117460000D03*
X152280000Y-102500000D03*
X152019000Y-105410000D03*
X151765000Y-118999000D03*
D53*
X122159000Y-86263000D03*
D52*
X125857000Y-123190000D03*
X122936000Y-131826000D03*
X133350000Y-95885000D03*
X155194000Y-142621000D03*
X134840000Y-111800000D03*
X120460000Y-118020000D03*
D53*
X135522000Y-131178000D03*
D52*
X136906000Y-113060000D03*
X133310000Y-111660000D03*
X113170000Y-126611000D03*
X130280000Y-111040000D03*
X145616000Y-128966000D03*
D53*
X137287000Y-129540000D03*
D52*
X129540000Y-149479000D03*
X152270000Y-101730000D03*
D53*
X137287000Y-122682000D03*
D52*
X153289000Y-123952000D03*
X126238000Y-149479000D03*
X133370000Y-104940000D03*
D53*
X133731000Y-124587000D03*
D52*
X135910000Y-106210000D03*
D53*
X123952000Y-98425000D03*
D52*
X147955000Y-139700000D03*
X141950000Y-101540000D03*
X157861000Y-137160000D03*
D53*
X116448000Y-143902000D03*
D52*
X130370000Y-116970000D03*
D53*
X134719000Y-133886000D03*
D52*
X134500000Y-116460000D03*
X121940000Y-110090000D03*
X134640000Y-104940000D03*
D53*
X126238000Y-91313000D03*
D52*
X155702000Y-101727000D03*
X123830000Y-107080000D03*
X114300000Y-112649000D03*
D53*
X138889000Y-94351000D03*
D52*
X122273000Y-113185000D03*
X135910000Y-103670000D03*
X152995000Y-109097500D03*
D53*
X145415000Y-144697000D03*
X141971000Y-120980000D03*
D52*
X152400000Y-120269000D03*
X142300000Y-102990000D03*
X135710000Y-113060000D03*
X150876000Y-134620000D03*
X125857000Y-121793000D03*
D53*
X140540000Y-92954000D03*
D52*
X114480000Y-120537993D03*
X125349000Y-114427000D03*
X134640000Y-106210000D03*
X124460000Y-112776000D03*
X128316500Y-149479000D03*
X126743000Y-106172000D03*
X135910000Y-104940000D03*
X134874000Y-140081000D03*
D53*
X115443000Y-139065000D03*
D52*
X134493000Y-95885000D03*
X142304000Y-105976000D03*
D53*
X132285000Y-92954000D03*
D52*
X152995000Y-112907500D03*
X126873000Y-101981000D03*
X150569000Y-122362000D03*
X157861000Y-127381000D03*
X156464000Y-101727000D03*
X139319000Y-97663000D03*
X133370000Y-103670000D03*
D53*
X135522000Y-128638000D03*
D52*
X133370000Y-106210000D03*
X134640000Y-103670000D03*
X122190000Y-129400000D03*
X138176000Y-96901000D03*
X119275995Y-128828009D03*
%TO.N,+3V3*%
X129794000Y-106171990D03*
D53*
X149150000Y-102580000D03*
X147447000Y-102489000D03*
D52*
X135145000Y-102505000D03*
X139071510Y-101538490D03*
X129921000Y-101994990D03*
D53*
X149330000Y-100000000D03*
D52*
X139432010Y-103010990D03*
X139319000Y-105975990D03*
X137905500Y-100774500D03*
X135128000Y-110363000D03*
D53*
X129457000Y-93047000D03*
X121178000Y-91692000D03*
D52*
%TO.N,Net-(C23-Pad2)*%
X152287000Y-136459000D03*
X157940000Y-135570000D03*
%TO.N,/AS3394_PWM/Final_Gain_CV*%
X127000000Y-133604000D03*
%TO.N,VCC*%
X156972000Y-132842000D03*
X155194000Y-143510000D03*
D53*
X156210000Y-91313000D03*
D52*
X125095000Y-147320000D03*
D53*
X158877000Y-91357000D03*
D52*
X120075994Y-128828009D03*
X152400000Y-123952000D03*
X113337000Y-120537993D03*
%TO.N,Net-(C38-Pad2)*%
X115189000Y-114427000D03*
X119888000Y-114427000D03*
%TO.N,VEE*%
X119550000Y-118260000D03*
X118935000Y-132651000D03*
X152273000Y-134620000D03*
X146558000Y-146939000D03*
X154390000Y-121600000D03*
%TO.N,/AS3394_PWM/Mixer_Balance_CV*%
X114620000Y-123930000D03*
%TO.N,Net-(J1-Pad1)*%
X137423111Y-109800000D03*
%TO.N,Net-(J1-Pad3)*%
X137423111Y-110602902D03*
%TO.N,/USB_D-*%
X136475000Y-90280000D03*
X135245000Y-90240000D03*
%TO.N,/AS3394_PWM/Final_Gain_PWM*%
X123825000Y-107950000D03*
X131280000Y-108240000D03*
%TO.N,/AS3394_PWM/Wave_Select_2*%
X152781000Y-118110000D03*
X140351529Y-114288129D03*
%TO.N,/AS3394_PWM/Wave_Select_1*%
X156665000Y-118999000D03*
X141171375Y-114288625D03*
D53*
%TO.N,/AS3394_PWM/Wave_Select_CV*%
X156030000Y-128458000D03*
D52*
%TO.N,/AS3394_PWM/Mixer_Balance_PWM*%
X121930000Y-109230000D03*
X130210000Y-109220000D03*
%TO.N,/RUN*%
X147980000Y-107990000D03*
X136438009Y-107528991D03*
%TO.N,/AMP_OUT*%
X159050000Y-117480000D03*
%TD*%
D54*
%TO.N,+1V1*%
X133350000Y-98115686D02*
X133350000Y-97889000D01*
X135238009Y-108413490D02*
X135238009Y-109330009D01*
X134438009Y-102543991D02*
X134366000Y-102616000D01*
X134438009Y-99203695D02*
X133350000Y-98115686D01*
X136438009Y-101538490D02*
X136438009Y-102575991D01*
X136438009Y-102575991D02*
X136398000Y-102616000D01*
D55*
X135238009Y-109457995D02*
X136906000Y-111125986D01*
D54*
X138176000Y-98933000D02*
X138176000Y-98905000D01*
X134438009Y-101538490D02*
X134438009Y-102543991D01*
D55*
X135238009Y-109330009D02*
X135238009Y-109457995D01*
X136906000Y-111125986D02*
X136906000Y-111280000D01*
D54*
X135238009Y-108413490D02*
X135238009Y-107425009D01*
X136438009Y-100670991D02*
X138176000Y-98933000D01*
X136438009Y-101538490D02*
X136438009Y-100670991D01*
X134438009Y-101538490D02*
X134438009Y-99203695D01*
D56*
%TO.N,GND*%
X150950000Y-133043000D02*
X151130000Y-133223000D01*
X115303000Y-112649000D02*
X114300000Y-112649000D01*
D57*
X132480000Y-111620000D02*
X132810000Y-111950000D01*
D56*
X113170000Y-126611000D02*
X113170000Y-125735000D01*
D57*
X132972000Y-91487500D02*
X132972000Y-92267000D01*
D55*
X151105000Y-134391000D02*
X151105000Y-133792000D01*
D56*
X135877000Y-140081000D02*
X134874000Y-140081000D01*
D58*
X120460000Y-118020000D02*
X120720000Y-118020000D01*
X116448000Y-143902000D02*
X118215000Y-145669000D01*
X121257000Y-118557000D02*
X121257000Y-118872000D01*
D54*
X139319000Y-98834000D02*
X139319000Y-97663000D01*
D55*
X141323000Y-105976000D02*
X142304000Y-105976000D01*
D56*
X151130000Y-133767000D02*
X151105000Y-133792000D01*
X135522000Y-131178000D02*
X135522000Y-132461000D01*
X153335000Y-124648000D02*
X153335000Y-123998000D01*
X155194000Y-142621000D02*
X155188000Y-142615000D01*
X151130000Y-133223000D02*
X151130000Y-133767000D01*
X135522000Y-129921000D02*
X135522000Y-131178000D01*
X137287000Y-123823000D02*
X137287000Y-122682000D01*
D58*
X120720000Y-118020000D02*
X121257000Y-118557000D01*
D56*
X157935000Y-127455000D02*
X157861000Y-127381000D01*
X149553000Y-122360000D02*
X150567000Y-122360000D01*
X151725000Y-118959000D02*
X151765000Y-118999000D01*
X134719000Y-133886000D02*
X134719000Y-135001000D01*
D55*
X150876000Y-134620000D02*
X151105000Y-134391000D01*
D56*
X148021000Y-139634000D02*
X147955000Y-139700000D01*
X134719000Y-133264000D02*
X134719000Y-133886000D01*
X125885000Y-123162000D02*
X127000000Y-123162000D01*
D58*
X131480000Y-117240000D02*
X131100000Y-116860000D01*
D56*
X138000000Y-94353000D02*
X138887000Y-94353000D01*
D58*
X131100000Y-116630000D02*
X131103000Y-116627000D01*
D56*
X127000000Y-121372000D02*
X126278000Y-121372000D01*
D58*
X135710000Y-113060000D02*
X135710000Y-112240000D01*
D56*
X143305000Y-120980000D02*
X141971000Y-120980000D01*
D58*
X115443000Y-139065000D02*
X115443000Y-141097000D01*
D56*
X156805000Y-137348000D02*
X157673000Y-137348000D01*
X152995000Y-112907500D02*
X152995000Y-109097500D01*
D57*
X139472000Y-91886000D02*
X140540000Y-92954000D01*
X132972000Y-92267000D02*
X132285000Y-92954000D01*
D56*
X114607000Y-121299993D02*
X114607000Y-120664993D01*
X145616000Y-128090000D02*
X145616000Y-128966000D01*
X121412000Y-119027000D02*
X121257000Y-118872000D01*
D58*
X118872000Y-127062000D02*
X118872000Y-125792000D01*
D56*
X152995000Y-109097500D02*
X152995000Y-108032500D01*
X126238000Y-148689000D02*
X126238000Y-149479000D01*
X153335000Y-123998000D02*
X153289000Y-123952000D01*
X121412000Y-120842000D02*
X121412000Y-119027000D01*
X157935000Y-128268000D02*
X157935000Y-127455000D01*
D58*
X119190000Y-127940000D02*
X119190000Y-127380000D01*
D56*
X125993000Y-114427000D02*
X125349000Y-114427000D01*
X126278000Y-121372000D02*
X125857000Y-121793000D01*
X154410000Y-142615000D02*
X155188000Y-142615000D01*
X128316500Y-149479000D02*
X128316500Y-148689000D01*
X153490000Y-125423000D02*
X153335000Y-125268000D01*
D58*
X136906000Y-113060000D02*
X136906000Y-112240000D01*
D56*
X133350000Y-96929000D02*
X133350000Y-95885000D01*
X145415000Y-145697000D02*
X145415000Y-144697000D01*
D58*
X127790000Y-106172000D02*
X126743000Y-106172000D01*
D56*
X152400000Y-120396000D02*
X152400000Y-120269000D01*
D58*
X119190000Y-128742014D02*
X119275995Y-128828009D01*
D56*
X145616000Y-128966000D02*
X145616000Y-129842000D01*
D58*
X119190000Y-127940000D02*
X119190000Y-128742014D01*
D56*
X114607000Y-120664993D02*
X114480000Y-120537993D01*
X152995000Y-114032500D02*
X152995000Y-112907500D01*
D58*
X115443000Y-137160000D02*
X115443000Y-139065000D01*
D56*
X121412000Y-128920000D02*
X121710000Y-128920000D01*
X121257000Y-118861562D02*
X121257000Y-118872000D01*
D58*
X115443000Y-142897000D02*
X116448000Y-143902000D01*
D57*
X127907000Y-91313000D02*
X126238000Y-91313000D01*
D56*
X122936000Y-130939000D02*
X122936000Y-131826000D01*
D58*
X142300000Y-102990000D02*
X141450000Y-102990000D01*
D56*
X150950000Y-118959000D02*
X151725000Y-118959000D01*
X121539000Y-113185000D02*
X122273000Y-113185000D01*
X152400000Y-120269000D02*
X152461000Y-120457000D01*
X143355000Y-122758000D02*
X143355000Y-121030000D01*
D58*
X141950000Y-101540000D02*
X141070510Y-101540000D01*
D56*
X134493000Y-96929000D02*
X134493000Y-95885000D01*
X121710000Y-128920000D02*
X122190000Y-129400000D01*
D58*
X119190000Y-127380000D02*
X118872000Y-127062000D01*
D54*
X127889000Y-101981000D02*
X126873000Y-101981000D01*
D55*
X133638009Y-108413490D02*
X133638009Y-109128449D01*
D56*
X132711000Y-93380000D02*
X132285000Y-92954000D01*
D58*
X131100000Y-116860000D02*
X131100000Y-116630000D01*
X131103000Y-116627000D02*
X131103000Y-115400000D01*
D55*
X133638009Y-109128449D02*
X132356458Y-110410000D01*
D56*
X133731000Y-123319000D02*
X133731000Y-124587000D01*
X119174000Y-86263000D02*
X122159000Y-86263000D01*
X135522000Y-128638000D02*
X135522000Y-129921000D01*
X129540000Y-149479000D02*
X129540000Y-148689000D01*
D54*
X138176000Y-97945000D02*
X138176000Y-96901000D01*
D56*
X143355000Y-121030000D02*
X143305000Y-120980000D01*
X122257000Y-98425000D02*
X123952000Y-98425000D01*
X133445000Y-93380000D02*
X132711000Y-93380000D01*
X153107000Y-120457000D02*
X152461000Y-120457000D01*
D58*
X115443000Y-141097000D02*
X115443000Y-142897000D01*
D56*
X125463000Y-112776000D02*
X124460000Y-112776000D01*
X125857000Y-123190000D02*
X125885000Y-123162000D01*
X149367000Y-139634000D02*
X148021000Y-139634000D01*
X157673000Y-137348000D02*
X157861000Y-137160000D01*
D57*
X139472000Y-91487500D02*
X139472000Y-91886000D01*
D54*
X150567000Y-122360000D02*
X150569000Y-122362000D01*
D56*
X137287000Y-128399000D02*
X137287000Y-129540000D01*
X135522000Y-132461000D02*
X134719000Y-133264000D01*
D58*
X141070510Y-101540000D02*
X141069000Y-101538490D01*
D56*
X153335000Y-125268000D02*
X153335000Y-124648000D01*
X150950000Y-131695000D02*
X150950000Y-133043000D01*
X153490000Y-126745000D02*
X153490000Y-125423000D01*
X135522000Y-127381000D02*
X135522000Y-128638000D01*
D57*
X132810000Y-111950000D02*
X132810000Y-112750000D01*
D56*
X138889000Y-94351000D02*
X138887000Y-94353000D01*
X125174000Y-86263000D02*
X122159000Y-86263000D01*
D58*
%TO.N,+3V3*%
X135710000Y-110945000D02*
X135128000Y-110363000D01*
X139432010Y-102992010D02*
X138850000Y-102410000D01*
X129794000Y-106171990D02*
X128750010Y-106171990D01*
D54*
X139319000Y-105975990D02*
X140334990Y-105975990D01*
D57*
X129457000Y-94615000D02*
X129457000Y-93047000D01*
D55*
X134838009Y-102288009D02*
X134838009Y-101538490D01*
D58*
X139432010Y-103010990D02*
X140476010Y-103010990D01*
D55*
X135238009Y-101538490D02*
X135238009Y-102411991D01*
D58*
X139071510Y-101538490D02*
X140109000Y-101538490D01*
D55*
X138850000Y-102410000D02*
X138815990Y-102375990D01*
D58*
X137341510Y-101538490D02*
X137340000Y-101540000D01*
D55*
X135145000Y-102505000D02*
X135100000Y-102550000D01*
D54*
X134838009Y-108413490D02*
X134838009Y-109692009D01*
X138301509Y-105975990D02*
X139319000Y-105975990D01*
X135128000Y-109982000D02*
X135128000Y-110363000D01*
D57*
X129457000Y-93047000D02*
X129457000Y-91313000D01*
D54*
X136838009Y-101538490D02*
X136838009Y-101032991D01*
X136838009Y-101032991D02*
X137096500Y-100774500D01*
D58*
X139432010Y-103010990D02*
X139432010Y-102992010D01*
D55*
X129921000Y-101994990D02*
X130819509Y-101994990D01*
D54*
X135238009Y-101538490D02*
X135238009Y-100538009D01*
X140334990Y-105975990D02*
X140335000Y-105976000D01*
D58*
X128750010Y-106171990D02*
X128750000Y-106172000D01*
D54*
X134493000Y-98693000D02*
X134950000Y-99150000D01*
X137096500Y-100774500D02*
X137905500Y-100774500D01*
D58*
X139071510Y-101538490D02*
X137341510Y-101538490D01*
D54*
X128862990Y-101994990D02*
X128849000Y-101981000D01*
D58*
X139319000Y-99794000D02*
X139319000Y-100151000D01*
D55*
X129794000Y-106171990D02*
X129990000Y-105975990D01*
D56*
X121238500Y-91692000D02*
X122174000Y-91692000D01*
D54*
X134950000Y-99150000D02*
X134950000Y-100250000D01*
X135238009Y-100538009D02*
X134950000Y-100250000D01*
D55*
X129990000Y-105975990D02*
X131200509Y-105975990D01*
D54*
X134838009Y-109692009D02*
X135128000Y-109982000D01*
X134838009Y-100361991D02*
X134950000Y-100250000D01*
D58*
X139319000Y-100151000D02*
X138695500Y-100774500D01*
D55*
X135100000Y-102550000D02*
X134838009Y-102288009D01*
D54*
X134493000Y-97889000D02*
X134493000Y-98693000D01*
D58*
X135710000Y-111280000D02*
X135710000Y-110945000D01*
D54*
X129921000Y-101994990D02*
X128862990Y-101994990D01*
D58*
X138695500Y-100774500D02*
X137905500Y-100774500D01*
D55*
X130819509Y-101994990D02*
X131200509Y-102375990D01*
X138815990Y-102375990D02*
X138075509Y-102375990D01*
X135238009Y-102411991D02*
X135145000Y-102505000D01*
D54*
X134838009Y-101538490D02*
X134838009Y-100361991D01*
D59*
%TO.N,Net-(C7-Pad1)*%
X150266000Y-93770000D02*
X150266000Y-94003000D01*
D58*
%TO.N,/XIN*%
X131103000Y-112037000D02*
X131520000Y-111620000D01*
D55*
X131520000Y-111620000D02*
X132129949Y-111010051D01*
X132129949Y-111010051D02*
X132702949Y-111010051D01*
D58*
X131103000Y-113200000D02*
X131103000Y-112037000D01*
D55*
X133604000Y-109728000D02*
X133604000Y-110109000D01*
X134038009Y-109293991D02*
X133604000Y-109728000D01*
D54*
X134038009Y-109293991D02*
X134038009Y-108413490D01*
D55*
X132702949Y-111010051D02*
X133604000Y-110109000D01*
D54*
%TO.N,Net-(C15-Pad2)*%
X134708000Y-114980000D02*
X134288000Y-115400000D01*
X134288000Y-115400000D02*
X132803000Y-115400000D01*
D56*
X132450000Y-116990000D02*
X132450000Y-115830000D01*
%TO.N,Net-(C17-Pad2)*%
X137432000Y-140086000D02*
X137427000Y-140081000D01*
X139436000Y-140086000D02*
X137432000Y-140086000D01*
%TO.N,Net-(C18-Pad1)*%
X155205000Y-137298000D02*
X155255000Y-137348000D01*
X155205000Y-135568000D02*
X155205000Y-137298000D01*
X154699000Y-135062000D02*
X155205000Y-135568000D01*
X155266000Y-138999000D02*
X155266000Y-137359000D01*
X153744000Y-135062000D02*
X154699000Y-135062000D01*
X155266000Y-137359000D02*
X155255000Y-137348000D01*
%TO.N,Net-(C19-Pad1)*%
X150950000Y-123575000D02*
X150950000Y-126745000D01*
X151333000Y-121219000D02*
X151333000Y-123192000D01*
X151333000Y-120599000D02*
X151333000Y-121219000D01*
X150950000Y-119919000D02*
X150950000Y-120216000D01*
X150950000Y-120216000D02*
X151333000Y-120599000D01*
X151333000Y-123192000D02*
X150950000Y-123575000D01*
%TO.N,Net-(C20-Pad1)*%
X120940000Y-127960000D02*
X120760000Y-128140000D01*
X121412000Y-127960000D02*
X120940000Y-127960000D01*
X120760000Y-128140000D02*
X120760000Y-130210000D01*
X121412000Y-127960000D02*
X121412000Y-125792000D01*
%TO.N,Net-(C21-Pad1)*%
X149680000Y-120978000D02*
X149921000Y-121219000D01*
X148410000Y-119949000D02*
X149680000Y-119949000D01*
X149680000Y-119949000D02*
X149680000Y-120978000D01*
X148029000Y-121458000D02*
X148029000Y-120330000D01*
X148029000Y-120330000D02*
X148410000Y-119949000D01*
X149921000Y-121219000D02*
X150313000Y-121219000D01*
%TO.N,Net-(C21-Pad2)*%
X148029000Y-123645000D02*
X148029000Y-123008000D01*
X148535000Y-124648000D02*
X147142000Y-124648000D01*
X147142000Y-124648000D02*
X146634000Y-125156000D01*
X148410000Y-126745000D02*
X148410000Y-125529000D01*
X148535000Y-124648000D02*
X148535000Y-124151000D01*
X148410000Y-125529000D02*
X148535000Y-125404000D01*
X148535000Y-124151000D02*
X148029000Y-123645000D01*
X148535000Y-125404000D02*
X148535000Y-124648000D01*
%TO.N,Net-(C22-Pad1)*%
X123444000Y-132461000D02*
X121261500Y-132461000D01*
X121160000Y-133858000D02*
X121160000Y-132359500D01*
X123685000Y-132220000D02*
X123444000Y-132461000D01*
X121261500Y-132461000D02*
X121158000Y-132357500D01*
X124460000Y-132220000D02*
X123685000Y-132220000D01*
X121160000Y-132359500D02*
X121158000Y-132357500D01*
%TO.N,Net-(C22-Pad2)*%
X124460000Y-129570000D02*
X124460000Y-130670000D01*
X124525000Y-128270000D02*
X124525000Y-129505000D01*
X124525000Y-129505000D02*
X124460000Y-129570000D01*
X123952000Y-125792000D02*
X123952000Y-127002000D01*
X124012000Y-125732000D02*
X123952000Y-125792000D01*
X124525000Y-127575000D02*
X124525000Y-128270000D01*
X123952000Y-127002000D02*
X124525000Y-127575000D01*
X125476000Y-125732000D02*
X124012000Y-125732000D01*
%TO.N,Net-(C23-Pad1)*%
X155042000Y-134044000D02*
X153746000Y-134044000D01*
X155042000Y-134044000D02*
X155042000Y-133071000D01*
X153746000Y-134044000D02*
X153744000Y-134042000D01*
X154760000Y-132789000D02*
X154760000Y-131695000D01*
X155042000Y-133071000D02*
X154760000Y-132789000D01*
%TO.N,Net-(C23-Pad2)*%
X152287000Y-136459000D02*
X152287000Y-137475000D01*
X156663000Y-134044000D02*
X156002000Y-134044000D01*
X156855000Y-135568000D02*
X156855000Y-134236000D01*
X156030000Y-131695000D02*
X156030000Y-134016000D01*
D60*
X157938000Y-135568000D02*
X156855000Y-135568000D01*
X157940000Y-135570000D02*
X157938000Y-135568000D01*
D56*
X156855000Y-134236000D02*
X156663000Y-134044000D01*
X156030000Y-134016000D02*
X156002000Y-134044000D01*
D54*
%TO.N,/AS3394_PWM/Mod_Amt_Cv*%
X145616000Y-126540000D02*
X145616000Y-125158000D01*
D56*
X142875000Y-131567000D02*
X142875000Y-129281000D01*
X142875000Y-129281000D02*
X145616000Y-126540000D01*
X139436000Y-135006000D02*
X142875000Y-131567000D01*
D54*
X145616000Y-125158000D02*
X145614000Y-125156000D01*
D56*
%TO.N,/AS3394_PWM/Final_Gain_CV*%
X127000000Y-124712000D02*
X127000000Y-133604000D01*
X125476000Y-124712000D02*
X127000000Y-124712000D01*
%TO.N,Net-(C26-Pad1)*%
X151267000Y-137475000D02*
X148158000Y-137475000D01*
X151267000Y-137475000D02*
X151267000Y-135697000D01*
X151267000Y-139634000D02*
X151267000Y-137475000D01*
D54*
X148158000Y-137475000D02*
X148156000Y-137477000D01*
D56*
%TO.N,Net-(C27-Pad1)*%
X149680000Y-133022000D02*
X149525000Y-133177000D01*
X149680000Y-131695000D02*
X149680000Y-133022000D01*
X149617000Y-135697000D02*
X149617000Y-134758000D01*
X149525000Y-134666000D02*
X149525000Y-133792000D01*
X149617000Y-134758000D02*
X149525000Y-134666000D01*
X149525000Y-133177000D02*
X149525000Y-133792000D01*
%TO.N,Net-(C27-Pad2)*%
X148565000Y-133198000D02*
X148410000Y-133043000D01*
X148565000Y-133792000D02*
X147650000Y-133792000D01*
X148410000Y-133043000D02*
X148410000Y-131695000D01*
X147650000Y-133792000D02*
X146634000Y-132776000D01*
X148156000Y-136457000D02*
X148156000Y-135816000D01*
X148565000Y-133792000D02*
X148565000Y-133198000D01*
X148156000Y-135816000D02*
X148565000Y-135407000D01*
X148565000Y-135407000D02*
X148565000Y-133792000D01*
%TO.N,/AS3394_PWM/VCO_Freq_CV*%
X141986000Y-136404000D02*
X141986000Y-144145000D01*
D54*
X145614000Y-131394000D02*
X145616000Y-131392000D01*
X145614000Y-132776000D02*
X145614000Y-131394000D01*
D56*
X145614000Y-132776000D02*
X141986000Y-136404000D01*
X140965000Y-145166000D02*
X139436000Y-145166000D01*
X141986000Y-144145000D02*
X140965000Y-145166000D01*
%TO.N,Net-(C31-Pad1)*%
X131816000Y-135006000D02*
X133754000Y-135006000D01*
X133754000Y-135006000D02*
X133759000Y-135001000D01*
%TO.N,Net-(C32-Pad1)*%
X118137000Y-114427000D02*
X118137000Y-115670000D01*
X116855000Y-112651000D02*
X116853000Y-112649000D01*
X118137000Y-113765000D02*
X118137000Y-114427000D01*
X118364000Y-112651000D02*
X116855000Y-112651000D01*
X118364000Y-112651000D02*
X118364000Y-113538000D01*
X117983000Y-115824000D02*
X117983000Y-116330000D01*
X118364000Y-113538000D02*
X118137000Y-113765000D01*
X118137000Y-115670000D02*
X117983000Y-115824000D01*
%TO.N,Net-(C33-Pad1)*%
X131816000Y-132466000D02*
X133967000Y-132466000D01*
X133967000Y-132466000D02*
X133972000Y-132461000D01*
D58*
%TO.N,Net-(C34-Pad1)*%
X130805000Y-141097000D02*
X131816000Y-140086000D01*
X127063000Y-137160000D02*
X127063000Y-141097000D01*
X127063000Y-141097000D02*
X127063000Y-142812000D01*
X127063000Y-142812000D02*
X124206000Y-145669000D01*
X124206000Y-145669000D02*
X121815000Y-145669000D01*
X127063000Y-141097000D02*
X130805000Y-141097000D01*
D56*
%TO.N,Net-(C35-Pad1)*%
X133967000Y-129926000D02*
X133972000Y-129921000D01*
X131816000Y-129926000D02*
X133967000Y-129926000D01*
D58*
%TO.N,VCC*%
X120142000Y-125792000D02*
X120142000Y-127932000D01*
D56*
X152375000Y-125247000D02*
X152375000Y-124648000D01*
X152220000Y-125402000D02*
X152375000Y-125247000D01*
X152375000Y-124648000D02*
X152375000Y-123977000D01*
X126238000Y-146223500D02*
X126191500Y-146177000D01*
X155129000Y-143575000D02*
X155194000Y-143510000D01*
X113210000Y-121297993D02*
X113210000Y-120664993D01*
X154410000Y-143575000D02*
X155129000Y-143575000D01*
X113210000Y-120664993D02*
X113337000Y-120537993D01*
X152375000Y-123977000D02*
X152400000Y-123952000D01*
D58*
X120150000Y-127940000D02*
X120150000Y-128754003D01*
D56*
X152220000Y-126745000D02*
X152220000Y-125402000D01*
D58*
X120142000Y-127932000D02*
X120150000Y-127940000D01*
D56*
X157935000Y-133165000D02*
X157295000Y-133165000D01*
X154410000Y-143575000D02*
X152335000Y-143575000D01*
X157295000Y-133165000D02*
X156972000Y-132842000D01*
D58*
X120150000Y-128754003D02*
X120075994Y-128828009D01*
D56*
%TO.N,Net-(C37-Pad1)*%
X131816000Y-127386000D02*
X133967000Y-127386000D01*
X133967000Y-127386000D02*
X133972000Y-127381000D01*
%TO.N,Net-(C38-Pad1)*%
X117983000Y-117729000D02*
X117983000Y-117350000D01*
X117447000Y-119352000D02*
X117447000Y-118745000D01*
X117602000Y-119507000D02*
X117447000Y-119352000D01*
X117447000Y-118745000D02*
X117447000Y-118265000D01*
X117447000Y-118265000D02*
X117983000Y-117729000D01*
X117602000Y-120842000D02*
X117602000Y-119507000D01*
%TO.N,Net-(C38-Pad2)*%
X116487000Y-119479000D02*
X116487000Y-118745000D01*
X116332000Y-120842000D02*
X116332000Y-119634000D01*
X119888000Y-115441000D02*
X119888000Y-114427000D01*
X116487000Y-114427000D02*
X116487000Y-118745000D01*
X116487000Y-114427000D02*
X115189000Y-114427000D01*
X116332000Y-119634000D02*
X116487000Y-119479000D01*
%TO.N,Net-(C39-Pad1)*%
X119888000Y-116461000D02*
X120648000Y-116461000D01*
X121539000Y-115570000D02*
X121539000Y-114145000D01*
X123031000Y-115570000D02*
X121539000Y-115570000D01*
X120648000Y-116461000D02*
X121539000Y-115570000D01*
%TO.N,Net-(C40-Pad1)*%
X123091000Y-117348000D02*
X121667000Y-117348000D01*
X121667000Y-117348000D02*
X121539000Y-117220000D01*
X122682000Y-119507000D02*
X122682000Y-120842000D01*
X123091000Y-117348000D02*
X123091000Y-119098000D01*
X123091000Y-119098000D02*
X122682000Y-119507000D01*
%TO.N,Net-(C40-Pad2)*%
X123952000Y-119507000D02*
X123952000Y-120842000D01*
X124051000Y-117348000D02*
X124051000Y-115570000D01*
X124051000Y-117348000D02*
X124051000Y-119408000D01*
X123952000Y-120842000D02*
X125476000Y-120842000D01*
X124051000Y-119408000D02*
X123952000Y-119507000D01*
%TO.N,/AS3394_PWM/Filter_Freq_CV*%
X125476000Y-119822000D02*
X127000000Y-119822000D01*
X128397000Y-121219000D02*
X128397000Y-134127000D01*
X128397000Y-134127000D02*
X131816000Y-137546000D01*
X127000000Y-119822000D02*
X128397000Y-121219000D01*
%TO.N,Net-(C42-Pad1)*%
X117602000Y-128573000D02*
X117680000Y-128651000D01*
X115953000Y-131001000D02*
X115953000Y-132334000D01*
X117729000Y-128700000D02*
X117680000Y-128651000D01*
X117729000Y-131001000D02*
X117729000Y-128700000D01*
X117602000Y-125792000D02*
X117602000Y-128573000D01*
X115953000Y-131001000D02*
X117729000Y-131001000D01*
%TO.N,Net-(C42-Pad2)*%
X115608000Y-125792000D02*
X116332000Y-125792000D01*
X114933000Y-131001000D02*
X114933000Y-128854000D01*
X115410000Y-125990000D02*
X115608000Y-125792000D01*
X114933000Y-128854000D02*
X114730000Y-128651000D01*
X114730000Y-127160000D02*
X114730000Y-128651000D01*
X114620000Y-125990000D02*
X114620000Y-127050000D01*
X114620000Y-125990000D02*
X115410000Y-125990000D01*
X114620000Y-127050000D02*
X114730000Y-127160000D01*
%TO.N,VEE*%
X117729000Y-132651000D02*
X118935000Y-132651000D01*
X137160000Y-143764000D02*
X138298000Y-142626000D01*
D55*
X152065000Y-134412000D02*
X152273000Y-134620000D01*
D56*
X138298000Y-142626000D02*
X139436000Y-142626000D01*
D58*
X119550000Y-118260000D02*
X119550000Y-118700000D01*
X119722000Y-118872000D02*
X120297000Y-118872000D01*
X119550000Y-118700000D02*
X119722000Y-118872000D01*
D56*
X154110000Y-121880000D02*
X154390000Y-121600000D01*
X137160000Y-144463000D02*
X137160000Y-143764000D01*
X120142000Y-119027000D02*
X120297000Y-118872000D01*
X152065000Y-133304000D02*
X152065000Y-133792000D01*
X153470000Y-121880000D02*
X154110000Y-121880000D01*
X152220000Y-131695000D02*
X152220000Y-133149000D01*
X152220000Y-133149000D02*
X152065000Y-133304000D01*
D55*
X152065000Y-133792000D02*
X152065000Y-134412000D01*
D56*
X120142000Y-120842000D02*
X120142000Y-119027000D01*
%TO.N,/AS3394_PWM/Pulse_Width_CV*%
X139436000Y-129926000D02*
X144905000Y-124457000D01*
X144905000Y-124457000D02*
X144905000Y-122758000D01*
X144955000Y-119202000D02*
X144955000Y-120980000D01*
X144955000Y-122708000D02*
X144905000Y-122758000D01*
X144955000Y-120980000D02*
X144955000Y-122708000D01*
D55*
%TO.N,/AS3394_PWM/Filter_Res_CV*%
X127013000Y-117361000D02*
X129667000Y-120015000D01*
X127013000Y-111055000D02*
X127013000Y-112776000D01*
X127013000Y-112776000D02*
X127013000Y-114427000D01*
X129667000Y-122697000D02*
X131816000Y-124846000D01*
X129667000Y-120015000D02*
X129667000Y-122697000D01*
X127013000Y-114427000D02*
X127013000Y-117361000D01*
D56*
%TO.N,/AS3394_PWM/Mixer_Balance_CV*%
X113905000Y-124185000D02*
X113170000Y-124185000D01*
X114620000Y-123930000D02*
X114160000Y-123930000D01*
X113170000Y-124770000D02*
X113170000Y-124185000D01*
X114600000Y-124950000D02*
X113350000Y-124950000D01*
X114160000Y-123930000D02*
X113905000Y-124185000D01*
X113350000Y-124950000D02*
X113170000Y-124770000D01*
D58*
%TO.N,Net-(D1-Pad2)*%
X137690000Y-88900000D02*
X134590000Y-88900000D01*
X138672000Y-90722000D02*
X138150000Y-90200000D01*
X134320266Y-90179734D02*
X133772000Y-90728000D01*
X133772000Y-90728000D02*
X133772000Y-91487500D01*
X139848500Y-93770000D02*
X146266000Y-93770000D01*
X138672000Y-92593500D02*
X139848500Y-93770000D01*
X138150000Y-89360000D02*
X137690000Y-88900000D01*
X138150000Y-90200000D02*
X138150000Y-89360000D01*
X134590000Y-88900000D02*
X134320266Y-89169734D01*
X134320266Y-89169734D02*
X134320266Y-90179734D01*
X138672000Y-91487500D02*
X138672000Y-90722000D01*
X138672000Y-91487500D02*
X138672000Y-92593500D01*
%TO.N,Net-(D3-Pad1)*%
X123063000Y-141097000D02*
X119443000Y-141097000D01*
%TO.N,Net-(D4-Pad2)*%
X123063000Y-137160000D02*
X119443000Y-137160000D01*
D61*
%TO.N,Net-(J1-Pad1)*%
X137423111Y-109800000D02*
X136690000Y-109800000D01*
X136038009Y-109148009D02*
X136038009Y-108413490D01*
X136690000Y-109800000D02*
X136038009Y-109148009D01*
%TO.N,Net-(J1-Pad3)*%
X135638009Y-109215943D02*
X137036033Y-110613967D01*
X137036033Y-110613967D02*
X137412046Y-110613967D01*
X137412046Y-110613967D02*
X137423111Y-110602902D01*
X135638009Y-108413490D02*
X135638009Y-109215943D01*
D62*
%TO.N,/USB_D-*%
X136388370Y-92658631D02*
X136388370Y-97518660D01*
X136509660Y-97518660D02*
X136906000Y-97915000D01*
X136388370Y-97518660D02*
X136509660Y-97518660D01*
X136472000Y-91487500D02*
X136472000Y-90283000D01*
X136472000Y-92575001D02*
X136388370Y-92658631D01*
X135472000Y-90467000D02*
X135472000Y-91487500D01*
X136472000Y-90283000D02*
X136475000Y-90280000D01*
X135245000Y-90240000D02*
X135472000Y-90467000D01*
X136472000Y-91487500D02*
X136472000Y-92575001D01*
%TO.N,/USB_D+*%
X136085000Y-89580000D02*
X135927130Y-89737870D01*
X137205000Y-89890000D02*
X136895000Y-89580000D01*
X135927130Y-91442630D02*
X135972000Y-91487500D01*
X137205000Y-90323760D02*
X137205000Y-89890000D01*
X135972000Y-92575001D02*
X136055630Y-92658631D01*
X135927130Y-89737870D02*
X135927130Y-91442630D01*
X136055630Y-97518660D02*
X136032340Y-97518660D01*
X136895000Y-89580000D02*
X136085000Y-89580000D01*
X136055630Y-92658631D02*
X136055630Y-97518660D01*
X135972000Y-91487500D02*
X135972000Y-92575001D01*
X136972000Y-90556760D02*
X137205000Y-90323760D01*
X136032340Y-97518660D02*
X135636000Y-97915000D01*
X136972000Y-91487500D02*
X136972000Y-90556760D01*
D56*
%TO.N,Net-(J2-PadA5)*%
X137472000Y-91487500D02*
X137472000Y-92805000D01*
X137472000Y-92805000D02*
X138000000Y-93333000D01*
%TO.N,Net-(J2-PadB5)*%
X134472000Y-93373000D02*
X134465000Y-93380000D01*
X134472000Y-91487500D02*
X134472000Y-93373000D01*
D54*
%TO.N,Net-(R3-Pad2)*%
X135638009Y-98937009D02*
X135636000Y-98935000D01*
X135638009Y-101538490D02*
X135638009Y-98937009D01*
%TO.N,Net-(R4-Pad2)*%
X136038009Y-100308991D02*
X136906000Y-99441000D01*
X136906000Y-99441000D02*
X136906000Y-98935000D01*
X136038009Y-101538490D02*
X136038009Y-100308991D01*
D56*
%TO.N,/~{USB_BOOT}*%
X119174000Y-92712000D02*
X119174000Y-90013000D01*
X119174000Y-90013000D02*
X125174000Y-90013000D01*
D54*
%TO.N,/QSPI_SS*%
X132038009Y-101538490D02*
X132018490Y-101538490D01*
X121666000Y-100965000D02*
X120269000Y-99568000D01*
X120269000Y-96012000D02*
X121666000Y-94615000D01*
X132018490Y-101538490D02*
X131445000Y-100965000D01*
X131445000Y-100965000D02*
X121666000Y-100965000D01*
X121666000Y-94615000D02*
X122257000Y-94615000D01*
X120269000Y-99568000D02*
X120269000Y-96012000D01*
D56*
X122257000Y-92712000D02*
X120194000Y-92712000D01*
X122257000Y-94615000D02*
X122257000Y-92712000D01*
D55*
%TO.N,/XOUT*%
X134708000Y-113030000D02*
X134239000Y-112561000D01*
X134239000Y-112561000D02*
X134239000Y-109658685D01*
D54*
X134438009Y-109459676D02*
X134438009Y-108413490D01*
D55*
X134239000Y-109658685D02*
X134438009Y-109459676D01*
D54*
X134708000Y-113960000D02*
X134708000Y-113030000D01*
D55*
%TO.N,/AS3394_PWM/VCO_Freq_PWM*%
X143200000Y-115390000D02*
X144523000Y-116713000D01*
X159893000Y-136525000D02*
X157419000Y-138999000D01*
X155575000Y-116713000D02*
X159893000Y-121031000D01*
X144523000Y-116713000D02*
X155575000Y-116713000D01*
X143200000Y-108630000D02*
X143200000Y-115390000D01*
X138075509Y-106775990D02*
X141345990Y-106775990D01*
X141345990Y-106775990D02*
X143200000Y-108630000D01*
X159893000Y-121031000D02*
X159893000Y-136525000D01*
X157419000Y-138999000D02*
X156286000Y-138999000D01*
%TO.N,/AS3394_PWM/Mod_Amt_PWM*%
X142100000Y-108790000D02*
X142100000Y-117462000D01*
X138075509Y-107175990D02*
X140485990Y-107175990D01*
X142100000Y-117462000D02*
X142494000Y-117856000D01*
X142494000Y-117856000D02*
X148607000Y-117856000D01*
X140485990Y-107175990D02*
X142100000Y-108790000D01*
X148607000Y-117856000D02*
X149680000Y-118929000D01*
%TO.N,/AS3394_PWM/Final_Gain_PWM*%
X110744000Y-111633000D02*
X110744000Y-129667000D01*
X123825000Y-107950000D02*
X114427000Y-107950000D01*
X114935000Y-133858000D02*
X120140000Y-133858000D01*
X131280000Y-108240000D02*
X132038060Y-108240000D01*
X110744000Y-129667000D02*
X114935000Y-133858000D01*
X114427000Y-107950000D02*
X110744000Y-111633000D01*
D56*
%TO.N,/AS3394_PWM/Saw_Out*%
X137294000Y-127386000D02*
X137287000Y-127379000D01*
X139436000Y-127386000D02*
X137294000Y-127386000D01*
%TO.N,/AS3394_PWM/Wave_Out*%
X139436000Y-122306000D02*
X139436000Y-124846000D01*
X137290000Y-124846000D02*
X137287000Y-124843000D01*
X139436000Y-124846000D02*
X137290000Y-124846000D01*
%TO.N,Net-(R15-Pad1)*%
X137160000Y-146113000D02*
X137160000Y-146939000D01*
X137160000Y-146939000D02*
X137927000Y-147706000D01*
X137927000Y-147706000D02*
X139436000Y-147706000D01*
%TO.N,Net-(R17-Pad2)*%
X149555000Y-124648000D02*
X149555000Y-123382000D01*
X149555000Y-125425000D02*
X149680000Y-125550000D01*
X149680000Y-125550000D02*
X149680000Y-126745000D01*
D54*
X149555000Y-123382000D02*
X149553000Y-123380000D01*
D56*
X149555000Y-124648000D02*
X149555000Y-125425000D01*
%TO.N,Net-(R18-Pad2)*%
X122682000Y-127332000D02*
X122875000Y-127525000D01*
X122936000Y-129919000D02*
X122936000Y-129136000D01*
X122936000Y-129136000D02*
X122875000Y-129075000D01*
X122875000Y-127525000D02*
X122875000Y-128270000D01*
X122875000Y-129075000D02*
X122875000Y-128270000D01*
X122682000Y-125792000D02*
X122682000Y-127332000D01*
%TO.N,Net-(R20-Pad2)*%
X153490000Y-130236000D02*
X153808000Y-129918000D01*
X153808000Y-129918000D02*
X157935000Y-129918000D01*
X153490000Y-131695000D02*
X153490000Y-130236000D01*
X157935000Y-129918000D02*
X157935000Y-131515000D01*
D55*
%TO.N,/AS3394_PWM/Filter_Freq_PWM*%
X121920000Y-111633000D02*
X118366000Y-111633000D01*
X130606010Y-106375990D02*
X129540000Y-107442000D01*
X118366000Y-111633000D02*
X118364000Y-111631000D01*
X129540000Y-107442000D02*
X126111000Y-107442000D01*
X126111000Y-107442000D02*
X121920000Y-111633000D01*
X131200509Y-106375990D02*
X130606010Y-106375990D01*
D56*
%TO.N,Net-(R33-Pad2)*%
X113210000Y-122317993D02*
X114604993Y-122317993D01*
X114604993Y-122317993D02*
X114607000Y-122320000D01*
X114607000Y-122320000D02*
X118590000Y-122320000D01*
X118590000Y-122320000D02*
X118872000Y-122038000D01*
X118872000Y-122038000D02*
X118872000Y-120842000D01*
%TO.N,Net-(R35-Pad1)*%
X131816000Y-122306000D02*
X134994000Y-122306000D01*
X134994000Y-122306000D02*
X135001000Y-122299000D01*
%TO.N,/AS3394_PWM/Ext_Input2*%
X136525000Y-124843000D02*
X136525000Y-134635000D01*
X135001000Y-123319000D02*
X136525000Y-124843000D01*
X136525000Y-134635000D02*
X139436000Y-137546000D01*
%TO.N,Net-(R38-Pad2)*%
X155397000Y-119187000D02*
X155397000Y-120453000D01*
D54*
X155397000Y-120453000D02*
X155395000Y-120455000D01*
D56*
X155395000Y-120455000D02*
X154129000Y-120455000D01*
D54*
X154129000Y-120455000D02*
X154127000Y-120457000D01*
D55*
%TO.N,/AS3394_PWM/Wave_Select_2*%
X153858000Y-119187000D02*
X152781000Y-118110000D01*
X140351529Y-114288129D02*
X140351529Y-109401529D01*
X139363490Y-108413490D02*
X137238009Y-108413490D01*
X154377000Y-119187000D02*
X153858000Y-119187000D01*
X140351529Y-109401529D02*
X139363490Y-108413490D01*
D56*
%TO.N,Net-(R40-Pad2)*%
X156662000Y-122870000D02*
X156662000Y-121478000D01*
X156665000Y-121475000D02*
X155395000Y-121475000D01*
X156662000Y-121478000D02*
X156665000Y-121475000D01*
D55*
%TO.N,/AS3394_PWM/Wave_Select_1*%
X138075509Y-107575990D02*
X139515990Y-107575990D01*
X141171375Y-109231375D02*
X141171375Y-114288625D01*
X156665000Y-118999000D02*
X156665000Y-120455000D01*
X139515990Y-107575990D02*
X141171375Y-109231375D01*
D56*
%TO.N,Net-(R43-Pad2)*%
X154760000Y-126745000D02*
X154760000Y-125402000D01*
X154760000Y-125402000D02*
X155012000Y-125150000D01*
X155012000Y-124392000D02*
X155012000Y-122870000D01*
X153470000Y-122900000D02*
X154982000Y-122900000D01*
X155012000Y-125150000D02*
X155012000Y-124392000D01*
%TO.N,/AS3394_PWM/Wave_Select_CV*%
X156030000Y-128458000D02*
X156030000Y-126745000D01*
D54*
X156030000Y-124394000D02*
X156032000Y-124392000D01*
D56*
X156030000Y-126745000D02*
X156030000Y-124394000D01*
D55*
%TO.N,/AS3394_PWM/Mixer_Balance_PWM*%
X111887000Y-112014000D02*
X111887000Y-129286000D01*
X130210000Y-109220000D02*
X132563902Y-109220000D01*
X114427000Y-109474000D02*
X111887000Y-112014000D01*
X114933000Y-132332000D02*
X114933000Y-132334000D01*
X132563902Y-109220000D02*
X132838009Y-108945893D01*
X132838009Y-108945893D02*
X132838009Y-108413490D01*
X121686000Y-109474000D02*
X114427000Y-109474000D01*
X121930000Y-109230000D02*
X121686000Y-109474000D01*
X111887000Y-129286000D02*
X114933000Y-132332000D01*
D56*
%TO.N,/AS3394_PWM/Out*%
X131816000Y-145166000D02*
X136760000Y-150110000D01*
X141609000Y-150110000D02*
X143510000Y-148209000D01*
X136760000Y-150110000D02*
X141609000Y-150110000D01*
X143510000Y-148209000D02*
X143510000Y-144560000D01*
X143510000Y-144560000D02*
X144495000Y-143575000D01*
X144495000Y-143575000D02*
X147385000Y-143575000D01*
D55*
%TO.N,/AS3394_PWM/Pulse_Width_PWM*%
X142189000Y-119202000D02*
X138910000Y-115923000D01*
X143305000Y-119202000D02*
X142189000Y-119202000D01*
X138910000Y-110208000D02*
X137866500Y-109164500D01*
X138910000Y-115923000D02*
X138910000Y-110208000D01*
X137866500Y-109164500D02*
X136954500Y-109164500D01*
X136838009Y-109048009D02*
X136838009Y-108413490D01*
X136954500Y-109164500D02*
X136838009Y-109048009D01*
%TO.N,/AS3394_PWM/Filter_Res_PWM*%
X128466000Y-109405000D02*
X127013000Y-109405000D01*
X128466000Y-109405000D02*
X128466000Y-109378096D01*
X128466000Y-109378096D02*
X130668106Y-107175990D01*
X130668106Y-107175990D02*
X131200509Y-107175990D01*
D56*
%TO.N,/RUN*%
X149245000Y-114032500D02*
X149245000Y-108032500D01*
D55*
X149202500Y-107990000D02*
X149245000Y-108032500D01*
X136438009Y-108413490D02*
X136438009Y-107528991D01*
X147980000Y-107990000D02*
X149202500Y-107990000D01*
D61*
%TO.N,Net-(J4-Pad1)*%
X115585000Y-88026000D02*
X113157000Y-88026000D01*
X121031000Y-101600000D02*
X117475000Y-98044000D01*
X131200509Y-102775990D02*
X126270990Y-102775990D01*
X126270990Y-102775990D02*
X125095000Y-101600000D01*
X125095000Y-101600000D02*
X121031000Y-101600000D01*
X117475000Y-89916000D02*
X115585000Y-88026000D01*
X117475000Y-98044000D02*
X117475000Y-89916000D01*
%TO.N,Net-(J4-Pad2)*%
X115331000Y-90566000D02*
X113157000Y-90566000D01*
X131200509Y-103175990D02*
X126035990Y-103175990D01*
X120777000Y-102108000D02*
X116586000Y-97917000D01*
X116586000Y-97917000D02*
X116586000Y-91821000D01*
X126035990Y-103175990D02*
X124968000Y-102108000D01*
X124968000Y-102108000D02*
X120777000Y-102108000D01*
X116586000Y-91821000D02*
X115331000Y-90566000D01*
%TO.N,Net-(J4-Pad3)*%
X120650000Y-102616000D02*
X115697000Y-97663000D01*
X115697000Y-93853000D02*
X114950000Y-93106000D01*
X114950000Y-93106000D02*
X113157000Y-93106000D01*
X131200509Y-103575990D02*
X125800990Y-103575990D01*
X125800990Y-103575990D02*
X124841000Y-102616000D01*
X124841000Y-102616000D02*
X120650000Y-102616000D01*
X115697000Y-97663000D02*
X115697000Y-93853000D01*
%TO.N,Net-(J4-Pad4)*%
X120523000Y-103124000D02*
X113157000Y-95758000D01*
X113157000Y-95758000D02*
X113157000Y-95646000D01*
X131200509Y-103975990D02*
X125565990Y-103975990D01*
X125565990Y-103975990D02*
X124714000Y-103124000D01*
X124714000Y-103124000D02*
X120523000Y-103124000D01*
%TO.N,Net-(J4-Pad5)*%
X131200509Y-104375990D02*
X125203990Y-104375990D01*
X114823000Y-98186000D02*
X113157000Y-98186000D01*
X120269000Y-103632000D02*
X114823000Y-98186000D01*
X125203990Y-104375990D02*
X124460000Y-103632000D01*
X124460000Y-103632000D02*
X120269000Y-103632000D01*
%TO.N,Net-(J4-Pad6)*%
X115966000Y-100726000D02*
X113157000Y-100726000D01*
X131200509Y-104775990D02*
X124841990Y-104775990D01*
X119380000Y-104140000D02*
X115966000Y-100726000D01*
X124206000Y-104140000D02*
X119380000Y-104140000D01*
X124841990Y-104775990D02*
X124206000Y-104140000D01*
%TO.N,Net-(J4-Pad7)*%
X124098990Y-105175990D02*
X123825000Y-104902000D01*
X116967000Y-104902000D02*
X115331000Y-103266000D01*
X115331000Y-103266000D02*
X113157000Y-103266000D01*
X131200509Y-105175990D02*
X124098990Y-105175990D01*
X123825000Y-104902000D02*
X116967000Y-104902000D01*
%TO.N,Net-(J4-Pad8)*%
X131200509Y-105575990D02*
X130317910Y-105575990D01*
X130278920Y-105537000D02*
X125857000Y-105537000D01*
X125588000Y-105806000D02*
X113157000Y-105806000D01*
X125857000Y-105537000D02*
X125588000Y-105806000D01*
X130317910Y-105575990D02*
X130278920Y-105537000D01*
D55*
%TO.N,/AMP_OUT*%
X145950000Y-104270000D02*
X148310000Y-106630000D01*
X156650000Y-116050000D02*
X157910000Y-116050000D01*
D56*
X150340000Y-149100000D02*
X150340000Y-147860000D01*
D58*
X152335000Y-144845000D02*
X158000000Y-144845000D01*
D54*
X151645000Y-144845000D02*
X152335000Y-144845000D01*
D56*
X150370000Y-147830000D02*
X150370000Y-146120000D01*
D55*
X159050000Y-117190000D02*
X159050000Y-117480000D01*
D56*
X150340000Y-147860000D02*
X150370000Y-147830000D01*
D55*
X154940000Y-114340000D02*
X156650000Y-116050000D01*
X157910000Y-116050000D02*
X159050000Y-117190000D01*
X148310000Y-106630000D02*
X153940000Y-106630000D01*
X153940000Y-106630000D02*
X154940000Y-107630000D01*
X139440000Y-104270000D02*
X145950000Y-104270000D01*
D56*
X150370000Y-146120000D02*
X151645000Y-144845000D01*
D55*
X154940000Y-107630000D02*
X154940000Y-114340000D01*
X139145990Y-103975990D02*
X139440000Y-104270000D01*
X138075509Y-103975990D02*
X139145990Y-103975990D01*
D54*
%TO.N,/QSPI_SD3*%
X132080000Y-97790000D02*
X132080000Y-97155000D01*
X134038009Y-99748009D02*
X132080000Y-97790000D01*
X130810000Y-95885000D02*
X129457000Y-95885000D01*
X134038009Y-101538490D02*
X134038009Y-99748009D01*
X132080000Y-97155000D02*
X130810000Y-95885000D01*
%TO.N,/QSPI_SCLK*%
X133638009Y-100110009D02*
X130683000Y-97155000D01*
X133638009Y-101538490D02*
X133638009Y-100110009D01*
X130683000Y-97155000D02*
X129457000Y-97155000D01*
%TO.N,/QSPI_SD0*%
X133238009Y-101538490D02*
X133238009Y-100472009D01*
X131953000Y-99187000D02*
X130219000Y-99187000D01*
X130219000Y-99187000D02*
X129457000Y-98425000D01*
X133238009Y-100472009D02*
X131953000Y-99187000D01*
%TO.N,/QSPI_SD2*%
X132838009Y-101538490D02*
X132838009Y-100637695D01*
X132149314Y-99949000D02*
X127381000Y-99949000D01*
X127381000Y-99949000D02*
X124587000Y-97155000D01*
X132838009Y-100637695D02*
X132149314Y-99949000D01*
X124587000Y-97155000D02*
X122257000Y-97155000D01*
%TO.N,/QSPI_SD1*%
X132080000Y-100457000D02*
X122047000Y-100457000D01*
X132438009Y-101538490D02*
X132438009Y-100815009D01*
X132438009Y-100815009D02*
X132080000Y-100457000D01*
X120777000Y-96647000D02*
X121539000Y-95885000D01*
X122047000Y-100457000D02*
X120777000Y-99187000D01*
X120777000Y-99187000D02*
X120777000Y-96647000D01*
X121539000Y-95885000D02*
X122257000Y-95885000D01*
D56*
%TO.N,Net-(C52-Pad1)*%
X149380000Y-147860000D02*
X149350000Y-147830000D01*
X149380000Y-149100000D02*
X149380000Y-147860000D01*
X149350000Y-147830000D02*
X149350000Y-145120000D01*
X149075000Y-144845000D02*
X147385000Y-144845000D01*
X149350000Y-145120000D02*
X149075000Y-144845000D01*
%TD*%
%TA.AperFunction,Conductor*%
%TO.N,GND*%
G36*
X156494111Y-100117257D02*
G01*
X156784325Y-100293214D01*
X156832205Y-100345635D01*
X156845000Y-100400957D01*
X156845000Y-102429985D01*
X156824998Y-102498106D01*
X156799663Y-102526781D01*
X156118045Y-103094796D01*
X156052908Y-103123040D01*
X156037382Y-103124000D01*
X153670000Y-103124000D01*
X153291031Y-103439808D01*
X152921917Y-103747402D01*
X152921916Y-103747403D01*
X152908000Y-103759000D01*
X152908000Y-105357810D01*
X152887998Y-105425931D01*
X152871095Y-105446905D01*
X152563905Y-105754095D01*
X152501593Y-105788121D01*
X152474810Y-105791000D01*
X151690190Y-105791000D01*
X151622069Y-105770998D01*
X151601095Y-105754095D01*
X151293905Y-105446905D01*
X151259879Y-105384593D01*
X151257000Y-105357810D01*
X151257000Y-102160190D01*
X151277002Y-102092069D01*
X151293905Y-102071095D01*
X151982095Y-101382905D01*
X152044407Y-101348879D01*
X152071190Y-101346000D01*
X155321000Y-101346000D01*
X155321000Y-100400957D01*
X155341002Y-100332836D01*
X155381675Y-100293214D01*
X155671889Y-100117257D01*
X155737214Y-100099000D01*
X156428786Y-100099000D01*
X156494111Y-100117257D01*
G37*
%TD.AperFunction*%
%TD*%
%TA.AperFunction,Conductor*%
%TO.N,VCC*%
G36*
X126369856Y-145542769D02*
G01*
X126472961Y-145559099D01*
X126491553Y-145565140D01*
X126571800Y-145606029D01*
X126580128Y-145610272D01*
X126595947Y-145621766D01*
X126666234Y-145692053D01*
X126677728Y-145707872D01*
X126722860Y-145796447D01*
X126728901Y-145815039D01*
X126743513Y-145907299D01*
X126745231Y-145918145D01*
X126746000Y-145927922D01*
X126746000Y-147696078D01*
X126745231Y-147705855D01*
X126728901Y-147808961D01*
X126722860Y-147827553D01*
X126681971Y-147907800D01*
X126677728Y-147916128D01*
X126666234Y-147931947D01*
X126595947Y-148002234D01*
X126580128Y-148013728D01*
X126491553Y-148058860D01*
X126472961Y-148064901D01*
X126380701Y-148079513D01*
X126369855Y-148081231D01*
X126360078Y-148082000D01*
X125099922Y-148082000D01*
X125090145Y-148081231D01*
X125079299Y-148079513D01*
X124987039Y-148064901D01*
X124968447Y-148058860D01*
X124879872Y-148013728D01*
X124864053Y-148002234D01*
X124793766Y-147931947D01*
X124782272Y-147916128D01*
X124778029Y-147907800D01*
X124737140Y-147827553D01*
X124731099Y-147808961D01*
X124714769Y-147705855D01*
X124714000Y-147696078D01*
X124714000Y-146881655D01*
X124715201Y-146869462D01*
X124735743Y-146766192D01*
X124745075Y-146743662D01*
X124800087Y-146661331D01*
X124817331Y-146644087D01*
X124899662Y-146589075D01*
X124922192Y-146579743D01*
X125031501Y-146558000D01*
X125349000Y-146558000D01*
X125349000Y-145927922D01*
X125349769Y-145918145D01*
X125351487Y-145907299D01*
X125366099Y-145815039D01*
X125372140Y-145796447D01*
X125417272Y-145707872D01*
X125428766Y-145692053D01*
X125499053Y-145621766D01*
X125514872Y-145610272D01*
X125523200Y-145606029D01*
X125603447Y-145565140D01*
X125622039Y-145559099D01*
X125725144Y-145542769D01*
X125734922Y-145542000D01*
X126360078Y-145542000D01*
X126369856Y-145542769D01*
G37*
%TD.AperFunction*%
%TD*%
%TA.AperFunction,Conductor*%
%TO.N,+1V1*%
G36*
X134519254Y-102253306D02*
G01*
X134537560Y-102297500D01*
X134537560Y-102315951D01*
X134538086Y-102318778D01*
X134538351Y-102321645D01*
X134538260Y-102321653D01*
X134538734Y-102325915D01*
X134539834Y-102355206D01*
X134542111Y-102360505D01*
X134545981Y-102369514D01*
X134549999Y-102382741D01*
X134552849Y-102398043D01*
X134555876Y-102402953D01*
X134555876Y-102402954D01*
X134568227Y-102422991D01*
X134572443Y-102431106D01*
X134584016Y-102458043D01*
X134588030Y-102462929D01*
X134595413Y-102470312D01*
X134604419Y-102481705D01*
X134611580Y-102493322D01*
X134616172Y-102496814D01*
X134616174Y-102496816D01*
X134620903Y-102500412D01*
X134645045Y-102542057D01*
X134657980Y-102640979D01*
X134659773Y-102645054D01*
X134667556Y-102662741D01*
X134715720Y-102772203D01*
X134718584Y-102775610D01*
X134805107Y-102878543D01*
X134805110Y-102878546D01*
X134807970Y-102881948D01*
X134927313Y-102961390D01*
X134931564Y-102962718D01*
X135059905Y-103002814D01*
X135059908Y-103002814D01*
X135064157Y-103004142D01*
X135068609Y-103004224D01*
X135068611Y-103004224D01*
X135139642Y-103005526D01*
X135207499Y-103006770D01*
X135345817Y-102969060D01*
X135467991Y-102894045D01*
X135564200Y-102787754D01*
X135626710Y-102658733D01*
X135629012Y-102645054D01*
X135640631Y-102575990D01*
X135650496Y-102517354D01*
X135650647Y-102505000D01*
X135630323Y-102363082D01*
X135624121Y-102349441D01*
X135612267Y-102323368D01*
X135610639Y-102275560D01*
X135643294Y-102240605D01*
X135669162Y-102235000D01*
X137248773Y-102235000D01*
X137264949Y-102237130D01*
X137304324Y-102247681D01*
X137332341Y-102263856D01*
X137355144Y-102286659D01*
X137371319Y-102314676D01*
X137374331Y-102325915D01*
X137381870Y-102354051D01*
X137384000Y-102370227D01*
X137384000Y-107570773D01*
X137381870Y-107586949D01*
X137371320Y-107626323D01*
X137355144Y-107654341D01*
X137332341Y-107677144D01*
X137304324Y-107693319D01*
X137269560Y-107702634D01*
X137264949Y-107703870D01*
X137248773Y-107706000D01*
X136989697Y-107706000D01*
X136945503Y-107687694D01*
X136927197Y-107643500D01*
X136928063Y-107633131D01*
X136943105Y-107543720D01*
X136943505Y-107541345D01*
X136943656Y-107528991D01*
X136923332Y-107387073D01*
X136863993Y-107256563D01*
X136770409Y-107147954D01*
X136650104Y-107069976D01*
X136637465Y-107066196D01*
X136603672Y-107056090D01*
X136512748Y-107028898D01*
X136441067Y-107028460D01*
X136373838Y-107028049D01*
X136373837Y-107028049D01*
X136369385Y-107028022D01*
X136231538Y-107067419D01*
X136110289Y-107143921D01*
X136107346Y-107147253D01*
X136107344Y-107147255D01*
X136018333Y-107248042D01*
X136015386Y-107251379D01*
X135954456Y-107381154D01*
X135932400Y-107522814D01*
X135932977Y-107527227D01*
X135932977Y-107527228D01*
X135934508Y-107538933D01*
X135945936Y-107626323D01*
X135947122Y-107635396D01*
X135934701Y-107681591D01*
X135893254Y-107705472D01*
X135885150Y-107706000D01*
X132018227Y-107706000D01*
X132002051Y-107703870D01*
X131997440Y-107702634D01*
X131962676Y-107693319D01*
X131934659Y-107677144D01*
X131911856Y-107654341D01*
X131895680Y-107626323D01*
X131885130Y-107586949D01*
X131883000Y-107570773D01*
X131883000Y-106595738D01*
X132837509Y-106595738D01*
X132849142Y-106654221D01*
X132893457Y-106720542D01*
X132898571Y-106723959D01*
X132954662Y-106761439D01*
X132954664Y-106761440D01*
X132959778Y-106764857D01*
X132965812Y-106766057D01*
X132965814Y-106766058D01*
X133015248Y-106775891D01*
X133015251Y-106775891D01*
X133018261Y-106776490D01*
X136257757Y-106776490D01*
X136260767Y-106775891D01*
X136260770Y-106775891D01*
X136310204Y-106766058D01*
X136310206Y-106766057D01*
X136316240Y-106764857D01*
X136321354Y-106761440D01*
X136321356Y-106761439D01*
X136377447Y-106723959D01*
X136382561Y-106720542D01*
X136426876Y-106654221D01*
X136438509Y-106595738D01*
X136438509Y-103356242D01*
X136426876Y-103297759D01*
X136382561Y-103231438D01*
X136365689Y-103220164D01*
X136321356Y-103190541D01*
X136321354Y-103190540D01*
X136316240Y-103187123D01*
X136310206Y-103185923D01*
X136310204Y-103185922D01*
X136260770Y-103176089D01*
X136260767Y-103176089D01*
X136257757Y-103175490D01*
X136012551Y-103175490D01*
X135994643Y-103172869D01*
X135989007Y-103171183D01*
X135989004Y-103171183D01*
X135984739Y-103169907D01*
X135914053Y-103169475D01*
X135845829Y-103169058D01*
X135845828Y-103169058D01*
X135841376Y-103169031D01*
X135827947Y-103172869D01*
X135827195Y-103173084D01*
X135810020Y-103175490D01*
X134742551Y-103175490D01*
X134724643Y-103172869D01*
X134719007Y-103171183D01*
X134719004Y-103171183D01*
X134714739Y-103169907D01*
X134644053Y-103169475D01*
X134575829Y-103169058D01*
X134575828Y-103169058D01*
X134571376Y-103169031D01*
X134557947Y-103172869D01*
X134557195Y-103173084D01*
X134540020Y-103175490D01*
X133472551Y-103175490D01*
X133454643Y-103172869D01*
X133449007Y-103171183D01*
X133449004Y-103171183D01*
X133444739Y-103169907D01*
X133374053Y-103169475D01*
X133305829Y-103169058D01*
X133305828Y-103169058D01*
X133301376Y-103169031D01*
X133287947Y-103172869D01*
X133287195Y-103173084D01*
X133270020Y-103175490D01*
X133018261Y-103175490D01*
X133015251Y-103176089D01*
X133015248Y-103176089D01*
X132965814Y-103185922D01*
X132965812Y-103185923D01*
X132959778Y-103187123D01*
X132954664Y-103190540D01*
X132954662Y-103190541D01*
X132910329Y-103220164D01*
X132893457Y-103231438D01*
X132849142Y-103297759D01*
X132837509Y-103356242D01*
X132837509Y-106595738D01*
X131883000Y-106595738D01*
X131883000Y-102370227D01*
X131885130Y-102354051D01*
X131892669Y-102325915D01*
X131895681Y-102314676D01*
X131911856Y-102286659D01*
X131934659Y-102263856D01*
X131962676Y-102247681D01*
X132002051Y-102237130D01*
X132018227Y-102235000D01*
X134475060Y-102235000D01*
X134519254Y-102253306D01*
G37*
%TD.AperFunction*%
%TD*%
%TA.AperFunction,Conductor*%
%TO.N,VEE*%
G36*
X148086063Y-145542535D02*
G01*
X148097420Y-145544030D01*
X148205319Y-145558236D01*
X148221078Y-145562458D01*
X148328400Y-145606911D01*
X148342523Y-145615065D01*
X148434690Y-145685787D01*
X148446213Y-145697310D01*
X148516935Y-145789477D01*
X148525089Y-145803600D01*
X148569542Y-145910922D01*
X148573764Y-145926681D01*
X148589465Y-146045936D01*
X148590000Y-146054094D01*
X148590000Y-146235578D01*
X148589231Y-146245355D01*
X148569793Y-146368082D01*
X148563750Y-146386679D01*
X148509602Y-146492951D01*
X148498108Y-146508771D01*
X148413771Y-146593108D01*
X148397951Y-146604602D01*
X148291679Y-146658750D01*
X148273082Y-146664793D01*
X148150355Y-146684231D01*
X148140578Y-146685000D01*
X147701000Y-146685000D01*
X147547017Y-146877479D01*
X147547014Y-146877482D01*
X147348446Y-147125692D01*
X147342098Y-147132515D01*
X147241477Y-147225638D01*
X147226102Y-147236096D01*
X147106805Y-147293434D01*
X147089029Y-147298907D01*
X146953469Y-147319304D01*
X146944170Y-147320000D01*
X145419094Y-147320000D01*
X145410936Y-147319465D01*
X145291681Y-147303764D01*
X145275922Y-147299542D01*
X145168600Y-147255089D01*
X145154477Y-147246935D01*
X145062310Y-147176213D01*
X145050787Y-147164690D01*
X144980065Y-147072523D01*
X144971911Y-147058400D01*
X144927458Y-146951078D01*
X144923236Y-146935319D01*
X144907535Y-146816064D01*
X144907000Y-146807906D01*
X144907000Y-146689094D01*
X144907535Y-146680936D01*
X144923236Y-146561681D01*
X144927458Y-146545922D01*
X144971911Y-146438600D01*
X144980065Y-146424477D01*
X145050787Y-146332310D01*
X145062310Y-146320787D01*
X145154478Y-146250064D01*
X145168602Y-146241910D01*
X145177443Y-146238248D01*
X145183494Y-146235742D01*
X145212117Y-146231209D01*
X145213955Y-146231500D01*
X145414590Y-146231500D01*
X145616044Y-146231499D01*
X145618465Y-146231116D01*
X145618472Y-146231115D01*
X145703571Y-146217637D01*
X145708427Y-146216868D01*
X145786672Y-146177000D01*
X145923000Y-146177000D01*
X145923000Y-146042597D01*
X145962635Y-145964809D01*
X145964868Y-145960427D01*
X145979500Y-145868045D01*
X145979500Y-145708568D01*
X145990033Y-145673848D01*
X146009087Y-145645331D01*
X146026330Y-145628088D01*
X146108662Y-145573075D01*
X146131192Y-145563743D01*
X146234462Y-145543201D01*
X146246655Y-145542000D01*
X148077906Y-145542000D01*
X148086063Y-145542535D01*
G37*
%TD.AperFunction*%
%TD*%
%TA.AperFunction,Conductor*%
%TO.N,GND*%
G36*
X131698495Y-110210001D02*
G01*
X131698892Y-110210002D01*
X131699085Y-110210003D01*
X131699347Y-110210005D01*
X131699636Y-110210007D01*
X132156382Y-110215224D01*
X132838547Y-110223016D01*
X132882529Y-110241825D01*
X132900329Y-110286226D01*
X132882027Y-110329706D01*
X132574437Y-110637296D01*
X132530243Y-110655602D01*
X132174438Y-110655602D01*
X132161285Y-110654202D01*
X132146876Y-110651100D01*
X132141747Y-110651707D01*
X132141744Y-110651707D01*
X132112498Y-110655169D01*
X132105152Y-110655602D01*
X132100504Y-110655602D01*
X132097963Y-110656025D01*
X132097951Y-110656026D01*
X132081434Y-110658776D01*
X132078526Y-110659190D01*
X132029693Y-110664970D01*
X132025037Y-110667206D01*
X132021814Y-110668142D01*
X132018644Y-110669227D01*
X132013549Y-110670075D01*
X132009006Y-110672526D01*
X132009004Y-110672527D01*
X131970260Y-110693433D01*
X131967635Y-110694770D01*
X131923321Y-110716049D01*
X131919329Y-110719405D01*
X131918951Y-110719783D01*
X131915668Y-110722554D01*
X131914248Y-110723655D01*
X131909701Y-110726109D01*
X131906193Y-110729904D01*
X131874787Y-110763879D01*
X131873086Y-110765648D01*
X131601539Y-111037194D01*
X131557345Y-111055500D01*
X131369286Y-111055501D01*
X131348956Y-111055501D01*
X131346535Y-111055884D01*
X131346528Y-111055885D01*
X131270170Y-111067979D01*
X131256573Y-111070132D01*
X131145229Y-111126865D01*
X131056865Y-111215229D01*
X131000132Y-111326573D01*
X130999363Y-111331430D01*
X130988908Y-111397440D01*
X130985500Y-111418955D01*
X130985500Y-111499287D01*
X130967194Y-111543481D01*
X130809648Y-111701027D01*
X130804147Y-111705915D01*
X130774945Y-111728936D01*
X130772289Y-111732779D01*
X130772287Y-111732781D01*
X130741441Y-111777413D01*
X130740307Y-111779000D01*
X130705282Y-111826419D01*
X130703734Y-111830825D01*
X130702871Y-111832456D01*
X130702700Y-111832738D01*
X130702459Y-111833211D01*
X130702329Y-111833521D01*
X130701519Y-111835174D01*
X130698864Y-111839016D01*
X130697456Y-111843468D01*
X130697455Y-111843470D01*
X130681100Y-111895186D01*
X130680487Y-111897025D01*
X130660945Y-111952673D01*
X130660762Y-111957339D01*
X130660417Y-111959147D01*
X130660253Y-111959793D01*
X130659588Y-111963207D01*
X130658515Y-111966600D01*
X130658000Y-111973143D01*
X130658000Y-112026404D01*
X130657952Y-112028858D01*
X130655692Y-112086384D01*
X130656889Y-112090899D01*
X130657402Y-112095545D01*
X130657004Y-112095589D01*
X130658000Y-112103236D01*
X130658000Y-112183001D01*
X130639694Y-112227195D01*
X130595500Y-112245501D01*
X130477934Y-112245501D01*
X130474925Y-112246100D01*
X130474920Y-112246100D01*
X130412925Y-112258431D01*
X130403699Y-112260266D01*
X130319516Y-112316516D01*
X130316097Y-112321633D01*
X130271555Y-112388294D01*
X130263266Y-112400699D01*
X130248500Y-112474933D01*
X130248501Y-113925066D01*
X130263266Y-113999301D01*
X130319516Y-114083484D01*
X130324633Y-114086903D01*
X130398580Y-114136314D01*
X130398582Y-114136315D01*
X130403699Y-114139734D01*
X130436753Y-114146309D01*
X130474920Y-114153901D01*
X130474923Y-114153901D01*
X130477933Y-114154500D01*
X131103000Y-114154500D01*
X131728066Y-114154499D01*
X131731075Y-114153900D01*
X131731080Y-114153900D01*
X131796263Y-114140935D01*
X131802301Y-114139734D01*
X131886484Y-114083484D01*
X131901334Y-114061260D01*
X131941107Y-114034685D01*
X131988023Y-114044017D01*
X132005266Y-114061260D01*
X132016455Y-114078005D01*
X132024993Y-114086543D01*
X132098775Y-114135843D01*
X132109933Y-114140464D01*
X132174970Y-114153401D01*
X132181054Y-114154000D01*
X132536569Y-114154000D01*
X132545359Y-114150359D01*
X132549000Y-114141569D01*
X132549000Y-114141568D01*
X133057000Y-114141568D01*
X133060641Y-114150358D01*
X133069431Y-114153999D01*
X133424945Y-114153999D01*
X133431030Y-114153400D01*
X133496068Y-114140464D01*
X133507224Y-114135843D01*
X133581007Y-114086543D01*
X133589543Y-114078007D01*
X133638843Y-114004225D01*
X133643464Y-113993067D01*
X133656401Y-113928030D01*
X133657000Y-113921946D01*
X133657000Y-113466431D01*
X133653359Y-113457641D01*
X133644569Y-113454000D01*
X133069431Y-113454000D01*
X133060641Y-113457641D01*
X133057000Y-113466431D01*
X133057000Y-114141568D01*
X132549000Y-114141568D01*
X132549000Y-112933569D01*
X133057000Y-112933569D01*
X133060641Y-112942359D01*
X133069431Y-112946000D01*
X133644568Y-112946000D01*
X133653358Y-112942359D01*
X133656999Y-112933569D01*
X133656999Y-112478055D01*
X133656400Y-112471970D01*
X133643464Y-112406932D01*
X133638843Y-112395776D01*
X133589543Y-112321993D01*
X133581007Y-112313457D01*
X133507225Y-112264157D01*
X133496067Y-112259536D01*
X133431030Y-112246599D01*
X133424946Y-112246000D01*
X133069431Y-112246000D01*
X133060641Y-112249641D01*
X133057000Y-112258431D01*
X133057000Y-112933569D01*
X132549000Y-112933569D01*
X132549000Y-112246499D01*
X132567306Y-112202305D01*
X132611500Y-112183999D01*
X132648546Y-112183999D01*
X132653434Y-112183614D01*
X132738412Y-112170156D01*
X132747653Y-112167154D01*
X132850091Y-112114959D01*
X132857952Y-112109248D01*
X132939248Y-112027952D01*
X132944959Y-112020091D01*
X132997154Y-111917652D01*
X133000157Y-111908412D01*
X133003662Y-111886279D01*
X133001441Y-111877027D01*
X132996502Y-111874000D01*
X132288500Y-111874000D01*
X132244306Y-111855694D01*
X132226000Y-111811500D01*
X132226000Y-111441155D01*
X132244306Y-111396961D01*
X132256961Y-111384306D01*
X132301155Y-111366000D01*
X132665427Y-111366000D01*
X132678581Y-111367400D01*
X132686022Y-111369002D01*
X132691152Y-111368395D01*
X132691154Y-111368395D01*
X132707728Y-111366433D01*
X132715074Y-111366000D01*
X132993175Y-111366000D01*
X133001965Y-111362359D01*
X133004182Y-111357007D01*
X133000156Y-111331588D01*
X132997153Y-111322346D01*
X132982248Y-111293092D01*
X132978495Y-111245404D01*
X132993742Y-111220524D01*
X133740673Y-110473593D01*
X133784867Y-110455287D01*
X133818482Y-110465097D01*
X133853369Y-110487355D01*
X133882133Y-110523529D01*
X133884551Y-110540746D01*
X133884551Y-112516511D01*
X133883151Y-112529664D01*
X133880049Y-112544073D01*
X133880656Y-112549203D01*
X133880656Y-112549205D01*
X133884118Y-112578453D01*
X133884551Y-112585799D01*
X133884551Y-112590445D01*
X133884974Y-112592983D01*
X133884974Y-112592989D01*
X133887724Y-112609506D01*
X133888139Y-112612423D01*
X133893918Y-112661256D01*
X133896155Y-112665914D01*
X133897088Y-112669127D01*
X133898176Y-112672304D01*
X133899024Y-112677400D01*
X133901475Y-112681943D01*
X133901476Y-112681945D01*
X133922374Y-112720674D01*
X133923706Y-112723288D01*
X133944998Y-112767628D01*
X133948354Y-112771620D01*
X133948732Y-112771998D01*
X133951503Y-112775281D01*
X133952604Y-112776701D01*
X133955058Y-112781248D01*
X133958853Y-112784756D01*
X133992828Y-112816162D01*
X133994597Y-112817863D01*
X134335194Y-113158461D01*
X134353500Y-113202655D01*
X134353500Y-113435919D01*
X134335194Y-113480113D01*
X134319374Y-113491607D01*
X134295586Y-113503727D01*
X134295585Y-113503728D01*
X134291204Y-113505960D01*
X134203960Y-113593204D01*
X134183808Y-113632754D01*
X134164880Y-113669904D01*
X134147946Y-113703138D01*
X134147177Y-113707995D01*
X134147177Y-113707996D01*
X134133500Y-113794347D01*
X134133501Y-114125652D01*
X134147946Y-114216862D01*
X134203960Y-114326796D01*
X134291204Y-114414040D01*
X134295586Y-114416273D01*
X134299567Y-114419165D01*
X134297873Y-114421497D01*
X134322803Y-114450679D01*
X134319056Y-114498367D01*
X134298313Y-114519110D01*
X134299567Y-114520835D01*
X134295586Y-114523727D01*
X134291204Y-114525960D01*
X134203960Y-114613204D01*
X134147946Y-114723138D01*
X134147177Y-114727995D01*
X134147177Y-114727996D01*
X134133500Y-114814347D01*
X134133500Y-114816807D01*
X134133501Y-114983000D01*
X134115195Y-115027194D01*
X134071001Y-115045500D01*
X133719999Y-115045500D01*
X133675805Y-115027194D01*
X133657499Y-114983000D01*
X133657499Y-114674934D01*
X133644530Y-114609726D01*
X133643935Y-114606737D01*
X133642734Y-114600699D01*
X133586484Y-114516516D01*
X133566452Y-114503131D01*
X133507420Y-114463686D01*
X133507418Y-114463685D01*
X133502301Y-114460266D01*
X133454104Y-114450679D01*
X133431080Y-114446099D01*
X133431077Y-114446099D01*
X133428067Y-114445500D01*
X133424996Y-114445500D01*
X132803001Y-114445501D01*
X132177934Y-114445501D01*
X132174925Y-114446100D01*
X132174920Y-114446100D01*
X132109737Y-114459065D01*
X132103699Y-114460266D01*
X132019516Y-114516516D01*
X132016097Y-114521633D01*
X132004667Y-114538739D01*
X131964893Y-114565315D01*
X131917977Y-114555983D01*
X131900734Y-114538740D01*
X131889545Y-114521995D01*
X131881007Y-114513457D01*
X131807225Y-114464157D01*
X131796067Y-114459536D01*
X131731030Y-114446599D01*
X131724946Y-114446000D01*
X131369431Y-114446000D01*
X131360641Y-114449641D01*
X131357000Y-114458431D01*
X131357000Y-116341568D01*
X131360641Y-116350358D01*
X131369431Y-116353999D01*
X131724945Y-116353999D01*
X131731030Y-116353400D01*
X131796068Y-116340464D01*
X131807224Y-116335843D01*
X131881007Y-116286543D01*
X131889545Y-116278005D01*
X131900734Y-116261260D01*
X131940508Y-116234685D01*
X131987424Y-116244018D01*
X132004666Y-116261260D01*
X132019516Y-116283484D01*
X132024633Y-116286903D01*
X132040723Y-116297654D01*
X132067299Y-116337428D01*
X132068500Y-116349621D01*
X132068500Y-116717706D01*
X132050194Y-116761900D01*
X132003841Y-116808253D01*
X131959647Y-116826559D01*
X131915453Y-116808253D01*
X131857952Y-116750752D01*
X131850091Y-116745041D01*
X131747653Y-116692846D01*
X131743960Y-116691646D01*
X131737027Y-116693311D01*
X131734000Y-116698250D01*
X131734000Y-117431500D01*
X131715694Y-117475694D01*
X131671500Y-117494000D01*
X130966825Y-117494000D01*
X130958035Y-117497641D01*
X130955818Y-117502993D01*
X130959844Y-117528412D01*
X130962846Y-117537653D01*
X131014040Y-117638126D01*
X131017793Y-117685813D01*
X130986726Y-117722188D01*
X130958352Y-117729000D01*
X129675227Y-117729000D01*
X129659051Y-117726870D01*
X129654440Y-117725634D01*
X129619676Y-117716319D01*
X129591659Y-117700144D01*
X129568856Y-117677341D01*
X129552680Y-117649323D01*
X129542130Y-117609949D01*
X129540000Y-117593773D01*
X129540000Y-116973721D01*
X130956338Y-116973721D01*
X130958559Y-116982973D01*
X130963498Y-116986000D01*
X131213569Y-116986000D01*
X131222359Y-116982359D01*
X131226000Y-116973569D01*
X131226000Y-116701576D01*
X131222359Y-116692786D01*
X131218039Y-116690997D01*
X131212347Y-116692846D01*
X131109909Y-116745041D01*
X131102048Y-116750752D01*
X131020752Y-116832048D01*
X131015041Y-116839909D01*
X130962846Y-116942348D01*
X130959843Y-116951588D01*
X130956338Y-116973721D01*
X129540000Y-116973721D01*
X129540000Y-116121945D01*
X130249001Y-116121945D01*
X130249600Y-116128030D01*
X130262536Y-116193068D01*
X130267157Y-116204224D01*
X130316457Y-116278007D01*
X130324993Y-116286543D01*
X130398775Y-116335843D01*
X130409933Y-116340464D01*
X130474970Y-116353401D01*
X130481054Y-116354000D01*
X130836569Y-116354000D01*
X130845359Y-116350359D01*
X130849000Y-116341569D01*
X130849000Y-115666431D01*
X130845359Y-115657641D01*
X130836569Y-115654000D01*
X130261432Y-115654000D01*
X130252642Y-115657641D01*
X130249001Y-115666431D01*
X130249001Y-116121945D01*
X129540000Y-116121945D01*
X129540000Y-115133569D01*
X130249000Y-115133569D01*
X130252641Y-115142359D01*
X130261431Y-115146000D01*
X130836569Y-115146000D01*
X130845359Y-115142359D01*
X130849000Y-115133569D01*
X130849000Y-114458432D01*
X130845359Y-114449642D01*
X130836569Y-114446001D01*
X130481055Y-114446001D01*
X130474970Y-114446600D01*
X130409932Y-114459536D01*
X130398776Y-114464157D01*
X130324993Y-114513457D01*
X130316457Y-114521993D01*
X130267157Y-114595775D01*
X130262536Y-114606933D01*
X130249599Y-114671970D01*
X130249000Y-114678054D01*
X130249000Y-115133569D01*
X129540000Y-115133569D01*
X129540000Y-110345227D01*
X129542130Y-110329051D01*
X129552680Y-110289677D01*
X129568856Y-110261659D01*
X129591659Y-110238856D01*
X129619676Y-110222681D01*
X129659051Y-110212130D01*
X129675227Y-110210000D01*
X131698275Y-110210000D01*
X131698495Y-110210001D01*
G37*
%TD.AperFunction*%
%TA.AperFunction,Conductor*%
G36*
X134675697Y-110762666D02*
G01*
X134775789Y-110795999D01*
X134794088Y-110805712D01*
X134848357Y-110847355D01*
X134852143Y-110848923D01*
X134852146Y-110848925D01*
X134958983Y-110893178D01*
X134993992Y-110930092D01*
X135001038Y-110950028D01*
X135004566Y-110968560D01*
X135060384Y-112495608D01*
X135070349Y-112518029D01*
X135317559Y-113074252D01*
X135555670Y-113610002D01*
X135558077Y-113616317D01*
X135563343Y-113632754D01*
X135566049Y-113645976D01*
X135567663Y-113663153D01*
X135567930Y-113669904D01*
X135555559Y-114521993D01*
X135510935Y-117595693D01*
X135508612Y-117611692D01*
X135497682Y-117650594D01*
X135481384Y-117678202D01*
X135458608Y-117700650D01*
X135430766Y-117716545D01*
X135391710Y-117726909D01*
X135375680Y-117729000D01*
X132962209Y-117729000D01*
X132918015Y-117710694D01*
X132899709Y-117666500D01*
X132906521Y-117638125D01*
X132957636Y-117537808D01*
X132957636Y-117537807D01*
X132959868Y-117533427D01*
X132974500Y-117441045D01*
X132974499Y-117038956D01*
X132974116Y-117036535D01*
X132974115Y-117036528D01*
X132960637Y-116951429D01*
X132959868Y-116946573D01*
X132903135Y-116835229D01*
X132849806Y-116781900D01*
X132831500Y-116737706D01*
X132831500Y-116416999D01*
X132849806Y-116372805D01*
X132894000Y-116354499D01*
X133428066Y-116354499D01*
X133431075Y-116353900D01*
X133431080Y-116353900D01*
X133496263Y-116340935D01*
X133502301Y-116339734D01*
X133586484Y-116283484D01*
X133642734Y-116199301D01*
X133657500Y-116125067D01*
X133657500Y-115817000D01*
X133675806Y-115772806D01*
X133720000Y-115754500D01*
X134243503Y-115754500D01*
X134256657Y-115755900D01*
X134271070Y-115759003D01*
X134276199Y-115758396D01*
X134276202Y-115758396D01*
X134305456Y-115754933D01*
X134312802Y-115754500D01*
X134317451Y-115754500D01*
X134331987Y-115752080D01*
X134336520Y-115751326D01*
X134339436Y-115750911D01*
X134354752Y-115749098D01*
X134388270Y-115745131D01*
X134392926Y-115742895D01*
X134396150Y-115741959D01*
X134399320Y-115740874D01*
X134404417Y-115740025D01*
X134447707Y-115716666D01*
X134450333Y-115715329D01*
X134491111Y-115695748D01*
X134494658Y-115694045D01*
X134498650Y-115690689D01*
X134499028Y-115690311D01*
X134502315Y-115687537D01*
X134503736Y-115686435D01*
X134508280Y-115683983D01*
X134511784Y-115680193D01*
X134511786Y-115680191D01*
X134543201Y-115646206D01*
X134544902Y-115644437D01*
X134666533Y-115522806D01*
X134710727Y-115504500D01*
X134902928Y-115504499D01*
X134923652Y-115504499D01*
X135014862Y-115490054D01*
X135124796Y-115434040D01*
X135212040Y-115346796D01*
X135268054Y-115236862D01*
X135282500Y-115145653D01*
X135282499Y-114814348D01*
X135268054Y-114723138D01*
X135212040Y-114613204D01*
X135124796Y-114525960D01*
X135120414Y-114523727D01*
X135116433Y-114520835D01*
X135118127Y-114518503D01*
X135093197Y-114489321D01*
X135096944Y-114441633D01*
X135117687Y-114420890D01*
X135116433Y-114419165D01*
X135120414Y-114416273D01*
X135124796Y-114414040D01*
X135212040Y-114326796D01*
X135268054Y-114216862D01*
X135268823Y-114212005D01*
X135268824Y-114212003D01*
X135282116Y-114128080D01*
X135282116Y-114128075D01*
X135282500Y-114125653D01*
X135282499Y-113794348D01*
X135268054Y-113703138D01*
X135251121Y-113669904D01*
X135232192Y-113632754D01*
X135212040Y-113593204D01*
X135124796Y-113505960D01*
X135120415Y-113503728D01*
X135120414Y-113503727D01*
X135096626Y-113491607D01*
X135065559Y-113455233D01*
X135062500Y-113435919D01*
X135062500Y-113074252D01*
X135063900Y-113061097D01*
X135066951Y-113046927D01*
X135062933Y-113012980D01*
X135062500Y-113005634D01*
X135062500Y-113000549D01*
X135062077Y-112998008D01*
X135062076Y-112997996D01*
X135059147Y-112980404D01*
X135058731Y-112977485D01*
X135053688Y-112934869D01*
X135053687Y-112934866D01*
X135053081Y-112929744D01*
X135050847Y-112925092D01*
X135049756Y-112921336D01*
X135049701Y-112921096D01*
X135048873Y-112918678D01*
X135048025Y-112913583D01*
X135024147Y-112869330D01*
X135022810Y-112866705D01*
X135003705Y-112826919D01*
X135002002Y-112823372D01*
X134998646Y-112819380D01*
X134998487Y-112819221D01*
X134995918Y-112816178D01*
X134994438Y-112814270D01*
X134991983Y-112809720D01*
X134953242Y-112773908D01*
X134951473Y-112772207D01*
X134611755Y-112432488D01*
X134593449Y-112388294D01*
X134593449Y-110821964D01*
X134611755Y-110777770D01*
X134655949Y-110759464D01*
X134675697Y-110762666D01*
G37*
%TD.AperFunction*%
%TD*%
%TA.AperFunction,Conductor*%
%TO.N,Net-(C28-Pad1)*%
G36*
X128918196Y-145548598D02*
G01*
X131445000Y-146812000D01*
X132435112Y-146812000D01*
X132479306Y-146830306D01*
X132696694Y-147047694D01*
X132715000Y-147091888D01*
X132715000Y-148310112D01*
X132696694Y-148354306D01*
X132479306Y-148571694D01*
X132435112Y-148590000D01*
X131202011Y-148590000D01*
X131180652Y-148586237D01*
X129799134Y-148083867D01*
X129794000Y-148082000D01*
X127824500Y-148082000D01*
X127780306Y-148063694D01*
X127762000Y-148019500D01*
X127762000Y-145604500D01*
X127780306Y-145560306D01*
X127824500Y-145542000D01*
X128890245Y-145542000D01*
X128918196Y-145548598D01*
G37*
%TD.AperFunction*%
%TD*%
%TA.AperFunction,Conductor*%
%TO.N,+3V3*%
G36*
X148489105Y-97664331D02*
G01*
X148551739Y-97673509D01*
X148607501Y-97681679D01*
X148642498Y-97692160D01*
X148742527Y-97738823D01*
X148773048Y-97758906D01*
X148862414Y-97838475D01*
X148875172Y-97851617D01*
X149860000Y-99026000D01*
X154320741Y-99026000D01*
X154337188Y-99027078D01*
X154444034Y-99041145D01*
X154475805Y-99049658D01*
X154567676Y-99087712D01*
X154596162Y-99104159D01*
X154675050Y-99164692D01*
X154698308Y-99187950D01*
X154758841Y-99266838D01*
X154775288Y-99295324D01*
X154813342Y-99387195D01*
X154821855Y-99418966D01*
X154835922Y-99525812D01*
X154837000Y-99542259D01*
X154837000Y-100321741D01*
X154835922Y-100338188D01*
X154821855Y-100445034D01*
X154813342Y-100476805D01*
X154775288Y-100568676D01*
X154758841Y-100597162D01*
X154698308Y-100676050D01*
X154675050Y-100699308D01*
X154596162Y-100759841D01*
X154567676Y-100776288D01*
X154475805Y-100814342D01*
X154444034Y-100822855D01*
X154337188Y-100836922D01*
X154320741Y-100838000D01*
X151638000Y-100838000D01*
X150749000Y-101727000D01*
X150749000Y-103124000D01*
X150834316Y-103251975D01*
X150834318Y-103251978D01*
X150836889Y-103255834D01*
X150912536Y-103369304D01*
X150921643Y-103385414D01*
X150948578Y-103442479D01*
X150973241Y-103494731D01*
X150983936Y-103530056D01*
X151001641Y-103649632D01*
X151003000Y-103668087D01*
X151003000Y-104639741D01*
X151001922Y-104656188D01*
X150987855Y-104763034D01*
X150979342Y-104794805D01*
X150941288Y-104886676D01*
X150924841Y-104915162D01*
X150864308Y-104994050D01*
X150841050Y-105017308D01*
X150762162Y-105077841D01*
X150733676Y-105094288D01*
X150641805Y-105132342D01*
X150610034Y-105140855D01*
X150503188Y-105154922D01*
X150486741Y-105156000D01*
X149443679Y-105156000D01*
X149427232Y-105154922D01*
X149320386Y-105140855D01*
X149288615Y-105132342D01*
X149196744Y-105094288D01*
X149168258Y-105077841D01*
X149082760Y-105012236D01*
X149070369Y-105001369D01*
X146331631Y-102262631D01*
X146320764Y-102250240D01*
X146255159Y-102164742D01*
X146238712Y-102136256D01*
X146200658Y-102044385D01*
X146192145Y-102012614D01*
X146178078Y-101905768D01*
X146177000Y-101889321D01*
X146177000Y-98179259D01*
X146178078Y-98162812D01*
X146192145Y-98055966D01*
X146200658Y-98024195D01*
X146238712Y-97932324D01*
X146255159Y-97903838D01*
X146315692Y-97824950D01*
X146338950Y-97801692D01*
X146417838Y-97741159D01*
X146446324Y-97724712D01*
X146538195Y-97686658D01*
X146569966Y-97678145D01*
X146676812Y-97664078D01*
X146693259Y-97663000D01*
X148470838Y-97663000D01*
X148489105Y-97664331D01*
G37*
%TD.AperFunction*%
%TD*%
%TA.AperFunction,Conductor*%
%TO.N,VCC*%
G36*
X159195949Y-89962130D02*
G01*
X159235324Y-89972681D01*
X159263341Y-89988856D01*
X159286144Y-90011659D01*
X159302320Y-90039677D01*
X159312870Y-90079051D01*
X159315000Y-90095227D01*
X159315000Y-92618773D01*
X159312870Y-92634949D01*
X159302320Y-92674323D01*
X159286144Y-92702341D01*
X159263341Y-92725144D01*
X159235324Y-92741319D01*
X159200560Y-92750634D01*
X159195949Y-92751870D01*
X159179773Y-92754000D01*
X156021227Y-92754000D01*
X156005051Y-92751870D01*
X156000440Y-92750634D01*
X155965676Y-92741319D01*
X155937659Y-92725144D01*
X155914856Y-92702341D01*
X155898680Y-92674323D01*
X155888130Y-92634949D01*
X155886000Y-92618773D01*
X155886000Y-90095227D01*
X155888130Y-90079051D01*
X155898680Y-90039677D01*
X155914856Y-90011659D01*
X155937659Y-89988856D01*
X155965676Y-89972681D01*
X156005051Y-89962130D01*
X156021227Y-89960000D01*
X159179773Y-89960000D01*
X159195949Y-89962130D01*
G37*
%TD.AperFunction*%
%TD*%
%TA.AperFunction,Conductor*%
%TO.N,Net-(C7-Pad1)*%
G36*
X151651185Y-92712856D02*
G01*
X152110051Y-92812251D01*
X152135512Y-92820687D01*
X154686000Y-93980000D01*
X158316810Y-93980000D01*
X158384931Y-94000002D01*
X158405905Y-94016905D01*
X158586095Y-94197095D01*
X158620121Y-94259407D01*
X158623000Y-94286190D01*
X158623000Y-96627542D01*
X158617130Y-96665552D01*
X158482762Y-97090221D01*
X158465699Y-97124689D01*
X156881804Y-99377062D01*
X156836805Y-99416406D01*
X156491303Y-99595822D01*
X156433235Y-99610000D01*
X155688013Y-99610000D01*
X155621425Y-99590967D01*
X155396912Y-99451205D01*
X155349651Y-99398224D01*
X155337500Y-99344238D01*
X155337500Y-99067866D01*
X155330745Y-99005684D01*
X155279615Y-98869295D01*
X155192261Y-98752739D01*
X155075705Y-98665385D01*
X154939316Y-98614255D01*
X154877134Y-98607500D01*
X152780866Y-98607500D01*
X152777463Y-98607870D01*
X152777457Y-98607870D01*
X152776496Y-98607974D01*
X152776272Y-98607934D01*
X152774072Y-98608053D01*
X152774044Y-98607534D01*
X152706614Y-98595439D01*
X152673805Y-98571805D01*
X152563905Y-98461905D01*
X152529879Y-98399593D01*
X152527000Y-98372810D01*
X152527000Y-96901000D01*
X152312067Y-96739800D01*
X152312066Y-96739799D01*
X151255196Y-95947147D01*
X149987000Y-94996000D01*
X149150190Y-94996000D01*
X149082069Y-94975998D01*
X149061095Y-94959095D01*
X148880905Y-94778905D01*
X148846879Y-94716593D01*
X148844000Y-94689810D01*
X148844000Y-93016190D01*
X148864002Y-92948069D01*
X148880905Y-92927095D01*
X149061095Y-92746905D01*
X149123407Y-92712879D01*
X149150190Y-92710000D01*
X151624511Y-92710000D01*
X151651185Y-92712856D01*
G37*
%TD.AperFunction*%
%TD*%
M02*
