M48
; DRILL file {KiCad (6.0.6)} date Fri Nov 11 00:06:58 2022
; FORMAT={-:-/ absolute / inch / decimal}
; #@! TF.CreationDate,2022-11-11T00:06:58-05:00
; #@! TF.GenerationSoftware,Kicad,Pcbnew,(6.0.6)
; #@! TF.FileFunction,Plated,1,4,PTH
FMAT,2
INCH
; #@! TA.AperFunction,Plated,PTH,ViaDrill
T1C0.0138
; #@! TA.AperFunction,Plated,PTH,ViaDrill
T2C0.0157
; #@! TA.AperFunction,Plated,PTH,ComponentDrill
T3C0.0256
; #@! TA.AperFunction,Plated,PTH,ComponentDrill
T4C0.0315
; #@! TA.AperFunction,Plated,PTH,ComponentDrill
T5C0.0394
%
G90
G05
T1
X4.4555Y-4.9847
X4.4621Y-4.7456
X4.5Y-4.435
X4.5071Y-4.7456
X4.5126Y-4.8791
X4.535Y-4.505
X4.6825Y-5.2225
X4.6959Y-5.072
X4.7067Y-4.6559
X4.72Y-4.505
X4.7274Y-5.072
X4.7425Y-4.6465
X4.8004Y-4.3004
X4.8008Y-4.3343
X4.8106Y-5.0945
X4.8139Y-4.4561
X4.84Y-5.19
X4.875Y-4.25
X4.8752Y-4.2157
X4.9Y-4.44
X4.925Y-5.8
X4.935Y-4.505
X4.955Y-4.795
X4.955Y-4.85
X4.97Y-5.885
X4.9899Y-4.18
X4.995Y-4.015
X5.0Y-5.26
X5.0518Y-5.885
X5.1Y-5.885
X5.11Y-4.18
X5.115Y-4.0156
X5.1264Y-4.3
X5.1291Y-4.3717
X5.1327Y-4.6051
X5.1685Y-4.2614
X5.2484Y-4.3961
X5.25Y-3.775
X5.2508Y-4.0815
X5.2508Y-4.1315
X5.2508Y-4.1815
X5.295Y-3.775
X5.2953Y-4.585
X5.2956Y-5.5169
X5.3008Y-4.0815
X5.3008Y-4.1315
X5.3008Y-4.1815
X5.3087Y-4.4016
X5.32Y-4.345
X5.3207Y-4.0356
X5.3429Y-4.4512
X5.3508Y-4.0815
X5.3508Y-4.1315
X5.3508Y-4.1815
X5.3716Y-4.2334
X5.39Y-4.4512
X5.4104Y-4.3228
X5.4104Y-4.3544
X5.4294Y-3.9675
X5.44Y-3.815
X5.4753Y-3.9976
X5.485Y-3.845
X5.485Y-4.1723
X5.4894Y-4.0556
X5.5257Y-4.4995
X5.5579Y-4.4996
X5.5886Y-3.9976
X5.6024Y-4.0547
X5.6025Y-4.1723
X5.7329Y-5.0774
X5.77Y-5.785
X5.825Y-5.5
X5.826Y-4.2516
X5.9279Y-4.8174
X5.94Y-5.3
X5.975Y-4.685
X5.985Y-4.15
X5.9949Y-4.0051
X5.995Y-5.3
X5.9953Y-4.0354
X5.9956Y-5.3724
X6.0Y-4.735
X6.0Y-4.88
X6.015Y-4.65
X6.0234Y-4.2952
X6.0234Y-4.4452
X6.035Y-4.88
X6.0783Y-4.7874
X6.11Y-5.615
X6.11Y-5.65
X6.13Y-4.005
X6.16Y-4.005
X6.1679Y-4.685
X6.18Y-5.23
X6.215Y-5.015
X6.215Y-5.4
X6.2181Y-5.3374
X6.2256Y-4.6244
X6.2618Y-4.6252
T2
X4.545Y-5.475
X4.5846Y-5.6654
X4.7708Y-3.6099
X4.8094Y-3.3962
X4.88Y-3.875
X4.97Y-3.595
X5.0967Y-3.6633
X5.2081Y-3.6596
X5.265Y-4.905
X5.3039Y-5.2711
X5.3355Y-5.0645
X5.3355Y-5.1645
X5.405Y-4.83
X5.405Y-5.1
X5.4681Y-3.7146
X5.5331Y-3.6596
X5.5894Y-4.763
X5.725Y-5.6967
X5.805Y-4.035
X5.872Y-4.0386
X5.8791Y-3.937
X6.1429Y-5.0574
X6.15Y-3.595
X6.255Y-3.5967
T4
X5.1896Y-4.7152
X5.1896Y-4.8152
X5.1896Y-4.9152
X5.1896Y-5.0152
X5.1896Y-5.1152
X5.1896Y-5.2152
X5.1896Y-5.3152
X5.1896Y-5.4152
X5.1896Y-5.5152
X5.1896Y-5.6152
X5.1896Y-5.7152
X5.1896Y-5.8152
X5.4896Y-4.7152
X5.4896Y-4.8152
X5.4896Y-4.9152
X5.4896Y-5.0152
X5.4896Y-5.1152
X5.4896Y-5.2152
X5.4896Y-5.3152
X5.4896Y-5.4152
X5.4896Y-5.5152
X5.4896Y-5.6152
X5.4896Y-5.7152
X5.4896Y-5.8152
T5
X4.455Y-3.4656
X4.455Y-3.5656
X4.455Y-3.6656
X4.455Y-3.7656
X4.455Y-3.8656
X4.455Y-3.9656
X4.455Y-4.0656
X4.455Y-4.1656
X5.7256Y-4.2238
X5.7256Y-4.3238
X5.7256Y-4.4238
X6.2134Y-4.2789
X6.2134Y-4.3789
X6.2134Y-4.4789
X6.2205Y-5.6026
X6.2205Y-5.7026
T3
G00X5.193Y-3.4131
M15
G01X5.193Y-3.3895
M16
G05
G00X5.193Y-3.5875
M15
G01X5.193Y-3.5442
M16
G05
G00X5.5331Y-3.4131
M15
G01X5.5331Y-3.3895
M16
G05
G00X5.5331Y-3.5875
M15
G01X5.5331Y-3.5442
M16
G05
T0
M30
